%TF.GenerationSoftware,KiCad,Pcbnew,(5.1.9)-1*%
%TF.CreationDate,2021-08-28T05:29:45+03:00*%
%TF.ProjectId,LED_R_Arm_001,4c45445f-525f-4417-926d-5f3030312e6b,rev?*%
%TF.SameCoordinates,Original*%
%TF.FileFunction,Legend,Bot*%
%TF.FilePolarity,Positive*%
%FSLAX46Y46*%
G04 Gerber Fmt 4.6, Leading zero omitted, Abs format (unit mm)*
G04 Created by KiCad (PCBNEW (5.1.9)-1) date 2021-08-28 05:29:45*
%MOMM*%
%LPD*%
G01*
G04 APERTURE LIST*
%ADD10C,0.120000*%
%ADD11C,0.150000*%
G04 APERTURE END LIST*
D10*
%TO.C,C3*%
X21460000Y-8089564D02*
X21460000Y-7635436D01*
X19990000Y-8089564D02*
X19990000Y-7635436D01*
%TO.C,C2*%
X23340000Y-8114564D02*
X23340000Y-7660436D01*
X24810000Y-8114564D02*
X24810000Y-7660436D01*
%TO.C,C4*%
X18015000Y-8089564D02*
X18015000Y-7635436D01*
X19485000Y-8089564D02*
X19485000Y-7635436D01*
%TO.C,C1*%
X26785000Y-8114564D02*
X26785000Y-7660436D01*
X25315000Y-8114564D02*
X25315000Y-7660436D01*
%TO.C,R1*%
X34647936Y-7760000D02*
X35102064Y-7760000D01*
X34647936Y-6290000D02*
X35102064Y-6290000D01*
%TO.C,R2*%
X10702064Y-7835000D02*
X10247936Y-7835000D01*
X10702064Y-6365000D02*
X10247936Y-6365000D01*
%TO.C,C3*%
D11*
X22732142Y-7695833D02*
X22779761Y-7648214D01*
X22827380Y-7505357D01*
X22827380Y-7410119D01*
X22779761Y-7267261D01*
X22684523Y-7172023D01*
X22589285Y-7124404D01*
X22398809Y-7076785D01*
X22255952Y-7076785D01*
X22065476Y-7124404D01*
X21970238Y-7172023D01*
X21875000Y-7267261D01*
X21827380Y-7410119D01*
X21827380Y-7505357D01*
X21875000Y-7648214D01*
X21922619Y-7695833D01*
X21827380Y-8029166D02*
X21827380Y-8648214D01*
X22208333Y-8314880D01*
X22208333Y-8457738D01*
X22255952Y-8552976D01*
X22303571Y-8600595D01*
X22398809Y-8648214D01*
X22636904Y-8648214D01*
X22732142Y-8600595D01*
X22779761Y-8552976D01*
X22827380Y-8457738D01*
X22827380Y-8172023D01*
X22779761Y-8076785D01*
X22732142Y-8029166D01*
%TO.C,C2*%
X26082142Y-7720833D02*
X26129761Y-7673214D01*
X26177380Y-7530357D01*
X26177380Y-7435119D01*
X26129761Y-7292261D01*
X26034523Y-7197023D01*
X25939285Y-7149404D01*
X25748809Y-7101785D01*
X25605952Y-7101785D01*
X25415476Y-7149404D01*
X25320238Y-7197023D01*
X25225000Y-7292261D01*
X25177380Y-7435119D01*
X25177380Y-7530357D01*
X25225000Y-7673214D01*
X25272619Y-7720833D01*
X25272619Y-8101785D02*
X25225000Y-8149404D01*
X25177380Y-8244642D01*
X25177380Y-8482738D01*
X25225000Y-8577976D01*
X25272619Y-8625595D01*
X25367857Y-8673214D01*
X25463095Y-8673214D01*
X25605952Y-8625595D01*
X26177380Y-8054166D01*
X26177380Y-8673214D01*
%TO.C,C4*%
X20757142Y-7695833D02*
X20804761Y-7648214D01*
X20852380Y-7505357D01*
X20852380Y-7410119D01*
X20804761Y-7267261D01*
X20709523Y-7172023D01*
X20614285Y-7124404D01*
X20423809Y-7076785D01*
X20280952Y-7076785D01*
X20090476Y-7124404D01*
X19995238Y-7172023D01*
X19900000Y-7267261D01*
X19852380Y-7410119D01*
X19852380Y-7505357D01*
X19900000Y-7648214D01*
X19947619Y-7695833D01*
X20185714Y-8552976D02*
X20852380Y-8552976D01*
X19804761Y-8314880D02*
X20519047Y-8076785D01*
X20519047Y-8695833D01*
%TO.C,C1*%
X28057142Y-7720833D02*
X28104761Y-7673214D01*
X28152380Y-7530357D01*
X28152380Y-7435119D01*
X28104761Y-7292261D01*
X28009523Y-7197023D01*
X27914285Y-7149404D01*
X27723809Y-7101785D01*
X27580952Y-7101785D01*
X27390476Y-7149404D01*
X27295238Y-7197023D01*
X27200000Y-7292261D01*
X27152380Y-7435119D01*
X27152380Y-7530357D01*
X27200000Y-7673214D01*
X27247619Y-7720833D01*
X28152380Y-8673214D02*
X28152380Y-8101785D01*
X28152380Y-8387500D02*
X27152380Y-8387500D01*
X27295238Y-8292261D01*
X27390476Y-8197023D01*
X27438095Y-8101785D01*
%TO.C,R1*%
X35041666Y-9127380D02*
X35375000Y-8651190D01*
X35613095Y-9127380D02*
X35613095Y-8127380D01*
X35232142Y-8127380D01*
X35136904Y-8175000D01*
X35089285Y-8222619D01*
X35041666Y-8317857D01*
X35041666Y-8460714D01*
X35089285Y-8555952D01*
X35136904Y-8603571D01*
X35232142Y-8651190D01*
X35613095Y-8651190D01*
X34089285Y-9127380D02*
X34660714Y-9127380D01*
X34375000Y-9127380D02*
X34375000Y-8127380D01*
X34470238Y-8270238D01*
X34565476Y-8365476D01*
X34660714Y-8413095D01*
%TO.C,R2*%
X10641666Y-5902380D02*
X10975000Y-5426190D01*
X11213095Y-5902380D02*
X11213095Y-4902380D01*
X10832142Y-4902380D01*
X10736904Y-4950000D01*
X10689285Y-4997619D01*
X10641666Y-5092857D01*
X10641666Y-5235714D01*
X10689285Y-5330952D01*
X10736904Y-5378571D01*
X10832142Y-5426190D01*
X11213095Y-5426190D01*
X10260714Y-4997619D02*
X10213095Y-4950000D01*
X10117857Y-4902380D01*
X9879761Y-4902380D01*
X9784523Y-4950000D01*
X9736904Y-4997619D01*
X9689285Y-5092857D01*
X9689285Y-5188095D01*
X9736904Y-5330952D01*
X10308333Y-5902380D01*
X9689285Y-5902380D01*
%TD*%
M02*
