%TF.GenerationSoftware,KiCad,Pcbnew,(5.1.9)-1*%
%TF.CreationDate,2021-08-28T05:29:45+03:00*%
%TF.ProjectId,LED_R_Arm_001,4c45445f-525f-4417-926d-5f3030312e6b,rev?*%
%TF.SameCoordinates,Original*%
%TF.FileFunction,Soldermask,Bot*%
%TF.FilePolarity,Negative*%
%FSLAX46Y46*%
G04 Gerber Fmt 4.6, Leading zero omitted, Abs format (unit mm)*
G04 Created by KiCad (PCBNEW (5.1.9)-1) date 2021-08-28 05:29:45*
%MOMM*%
%LPD*%
G01*
G04 APERTURE LIST*
%ADD10C,1.000000*%
%ADD11C,1.900000*%
%ADD12C,1.400000*%
G04 APERTURE END LIST*
%TO.C,C3*%
G36*
G01*
X21175001Y-9287500D02*
X20274999Y-9287500D01*
G75*
G02*
X20025000Y-9037501I0J249999D01*
G01*
X20025000Y-8512499D01*
G75*
G02*
X20274999Y-8262500I249999J0D01*
G01*
X21175001Y-8262500D01*
G75*
G02*
X21425000Y-8512499I0J-249999D01*
G01*
X21425000Y-9037501D01*
G75*
G02*
X21175001Y-9287500I-249999J0D01*
G01*
G37*
G36*
G01*
X21175001Y-7462500D02*
X20274999Y-7462500D01*
G75*
G02*
X20025000Y-7212501I0J249999D01*
G01*
X20025000Y-6687499D01*
G75*
G02*
X20274999Y-6437500I249999J0D01*
G01*
X21175001Y-6437500D01*
G75*
G02*
X21425000Y-6687499I0J-249999D01*
G01*
X21425000Y-7212501D01*
G75*
G02*
X21175001Y-7462500I-249999J0D01*
G01*
G37*
%TD*%
%TO.C,C2*%
G36*
G01*
X24525001Y-7487500D02*
X23624999Y-7487500D01*
G75*
G02*
X23375000Y-7237501I0J249999D01*
G01*
X23375000Y-6712499D01*
G75*
G02*
X23624999Y-6462500I249999J0D01*
G01*
X24525001Y-6462500D01*
G75*
G02*
X24775000Y-6712499I0J-249999D01*
G01*
X24775000Y-7237501D01*
G75*
G02*
X24525001Y-7487500I-249999J0D01*
G01*
G37*
G36*
G01*
X24525001Y-9312500D02*
X23624999Y-9312500D01*
G75*
G02*
X23375000Y-9062501I0J249999D01*
G01*
X23375000Y-8537499D01*
G75*
G02*
X23624999Y-8287500I249999J0D01*
G01*
X24525001Y-8287500D01*
G75*
G02*
X24775000Y-8537499I0J-249999D01*
G01*
X24775000Y-9062501D01*
G75*
G02*
X24525001Y-9312500I-249999J0D01*
G01*
G37*
%TD*%
%TO.C,C4*%
G36*
G01*
X19200001Y-7462500D02*
X18299999Y-7462500D01*
G75*
G02*
X18050000Y-7212501I0J249999D01*
G01*
X18050000Y-6687499D01*
G75*
G02*
X18299999Y-6437500I249999J0D01*
G01*
X19200001Y-6437500D01*
G75*
G02*
X19450000Y-6687499I0J-249999D01*
G01*
X19450000Y-7212501D01*
G75*
G02*
X19200001Y-7462500I-249999J0D01*
G01*
G37*
G36*
G01*
X19200001Y-9287500D02*
X18299999Y-9287500D01*
G75*
G02*
X18050000Y-9037501I0J249999D01*
G01*
X18050000Y-8512499D01*
G75*
G02*
X18299999Y-8262500I249999J0D01*
G01*
X19200001Y-8262500D01*
G75*
G02*
X19450000Y-8512499I0J-249999D01*
G01*
X19450000Y-9037501D01*
G75*
G02*
X19200001Y-9287500I-249999J0D01*
G01*
G37*
%TD*%
%TO.C,C1*%
G36*
G01*
X26500001Y-9312500D02*
X25599999Y-9312500D01*
G75*
G02*
X25350000Y-9062501I0J249999D01*
G01*
X25350000Y-8537499D01*
G75*
G02*
X25599999Y-8287500I249999J0D01*
G01*
X26500001Y-8287500D01*
G75*
G02*
X26750000Y-8537499I0J-249999D01*
G01*
X26750000Y-9062501D01*
G75*
G02*
X26500001Y-9312500I-249999J0D01*
G01*
G37*
G36*
G01*
X26500001Y-7487500D02*
X25599999Y-7487500D01*
G75*
G02*
X25350000Y-7237501I0J249999D01*
G01*
X25350000Y-6712499D01*
G75*
G02*
X25599999Y-6462500I249999J0D01*
G01*
X26500001Y-6462500D01*
G75*
G02*
X26750000Y-6712499I0J-249999D01*
G01*
X26750000Y-7237501D01*
G75*
G02*
X26500001Y-7487500I-249999J0D01*
G01*
G37*
%TD*%
D10*
%TO.C,J1*%
X23200000Y-4400000D03*
%TD*%
%TO.C,J2*%
X21800000Y-4400000D03*
%TD*%
%TO.C,R1*%
G36*
G01*
X33275000Y-7475001D02*
X33275000Y-6574999D01*
G75*
G02*
X33524999Y-6325000I249999J0D01*
G01*
X34225001Y-6325000D01*
G75*
G02*
X34475000Y-6574999I0J-249999D01*
G01*
X34475000Y-7475001D01*
G75*
G02*
X34225001Y-7725000I-249999J0D01*
G01*
X33524999Y-7725000D01*
G75*
G02*
X33275000Y-7475001I0J249999D01*
G01*
G37*
G36*
G01*
X35275000Y-7475001D02*
X35275000Y-6574999D01*
G75*
G02*
X35524999Y-6325000I249999J0D01*
G01*
X36225001Y-6325000D01*
G75*
G02*
X36475000Y-6574999I0J-249999D01*
G01*
X36475000Y-7475001D01*
G75*
G02*
X36225001Y-7725000I-249999J0D01*
G01*
X35524999Y-7725000D01*
G75*
G02*
X35275000Y-7475001I0J249999D01*
G01*
G37*
%TD*%
%TO.C,R2*%
G36*
G01*
X10075000Y-6649999D02*
X10075000Y-7550001D01*
G75*
G02*
X9825001Y-7800000I-249999J0D01*
G01*
X9124999Y-7800000D01*
G75*
G02*
X8875000Y-7550001I0J249999D01*
G01*
X8875000Y-6649999D01*
G75*
G02*
X9124999Y-6400000I249999J0D01*
G01*
X9825001Y-6400000D01*
G75*
G02*
X10075000Y-6649999I0J-249999D01*
G01*
G37*
G36*
G01*
X12075000Y-6649999D02*
X12075000Y-7550001D01*
G75*
G02*
X11825001Y-7800000I-249999J0D01*
G01*
X11124999Y-7800000D01*
G75*
G02*
X10875000Y-7550001I0J249999D01*
G01*
X10875000Y-6649999D01*
G75*
G02*
X11124999Y-6400000I249999J0D01*
G01*
X11825001Y-6400000D01*
G75*
G02*
X12075000Y-6649999I0J-249999D01*
G01*
G37*
%TD*%
D11*
%TO.C,J7*%
X2531800Y-7050300D03*
%TD*%
%TO.C,J8*%
X42104300Y-7050300D03*
%TD*%
D12*
%TO.C,J9*%
X10600000Y-4600000D03*
%TD*%
%TO.C,J10*%
X34500000Y-4600000D03*
%TD*%
%TO.C,J11*%
X28500000Y-9700000D03*
%TD*%
%TO.C,J12*%
X16500000Y-9700000D03*
%TD*%
M02*
