%TF.GenerationSoftware,KiCad,Pcbnew,(5.1.9)-1*%
%TF.CreationDate,2021-08-28T05:30:34+03:00*%
%TF.ProjectId,LED_Tail_001,4c45445f-5461-4696-9c5f-3030312e6b69,rev?*%
%TF.SameCoordinates,Original*%
%TF.FileFunction,Legend,Top*%
%TF.FilePolarity,Positive*%
%FSLAX46Y46*%
G04 Gerber Fmt 4.6, Leading zero omitted, Abs format (unit mm)*
G04 Created by KiCad (PCBNEW (5.1.9)-1) date 2021-08-28 05:30:34*
%MOMM*%
%LPD*%
G01*
G04 APERTURE LIST*
%ADD10C,0.120000*%
%ADD11C,0.150000*%
G04 APERTURE END LIST*
D10*
%TO.C,D5*%
X51612400Y1850000D02*
X49012400Y1850000D01*
X49012400Y1850000D02*
X49012400Y850000D01*
X51612400Y-1850000D02*
X49012400Y-1850000D01*
X49012400Y-1850000D02*
X49012400Y-850000D01*
D11*
X50124304Y2297619D02*
X50124304Y3297619D01*
X50362400Y3297619D01*
X50505257Y3250000D01*
X50600495Y3154761D01*
X50648114Y3059523D01*
X50695733Y2869047D01*
X50695733Y2726190D01*
X50648114Y2535714D01*
X50600495Y2440476D01*
X50505257Y2345238D01*
X50362400Y2297619D01*
X50124304Y2297619D01*
X51600495Y3297619D02*
X51124304Y3297619D01*
X51076685Y2821428D01*
X51124304Y2869047D01*
X51219542Y2916666D01*
X51457638Y2916666D01*
X51552876Y2869047D01*
X51600495Y2821428D01*
X51648114Y2726190D01*
X51648114Y2488095D01*
X51600495Y2392857D01*
X51552876Y2345238D01*
X51457638Y2297619D01*
X51219542Y2297619D01*
X51124304Y2345238D01*
X51076685Y2392857D01*
%TO.C,J1*%
X45591666Y622619D02*
X45591666Y-91666D01*
X45544047Y-234523D01*
X45448809Y-329761D01*
X45305952Y-377380D01*
X45210714Y-377380D01*
X46591666Y-377380D02*
X46020238Y-377380D01*
X46305952Y-377380D02*
X46305952Y622619D01*
X46210714Y479761D01*
X46115476Y384523D01*
X46020238Y336904D01*
%TO.C,J2*%
X45541666Y2447619D02*
X45541666Y1733333D01*
X45494047Y1590476D01*
X45398809Y1495238D01*
X45255952Y1447619D01*
X45160714Y1447619D01*
X45970238Y2352380D02*
X46017857Y2400000D01*
X46113095Y2447619D01*
X46351190Y2447619D01*
X46446428Y2400000D01*
X46494047Y2352380D01*
X46541666Y2257142D01*
X46541666Y2161904D01*
X46494047Y2019047D01*
X45922619Y1447619D01*
X46541666Y1447619D01*
%TO.C,J7*%
X52741666Y7897619D02*
X52741666Y7183333D01*
X52694047Y7040476D01*
X52598809Y6945238D01*
X52455952Y6897619D01*
X52360714Y6897619D01*
X53122619Y7897619D02*
X53789285Y7897619D01*
X53360714Y6897619D01*
%TO.C,J8*%
X52529066Y-5452380D02*
X52529066Y-6166666D01*
X52481447Y-6309523D01*
X52386209Y-6404761D01*
X52243352Y-6452380D01*
X52148114Y-6452380D01*
X53148114Y-5880952D02*
X53052876Y-5833333D01*
X53005257Y-5785714D01*
X52957638Y-5690476D01*
X52957638Y-5642857D01*
X53005257Y-5547619D01*
X53052876Y-5500000D01*
X53148114Y-5452380D01*
X53338590Y-5452380D01*
X53433828Y-5500000D01*
X53481447Y-5547619D01*
X53529066Y-5642857D01*
X53529066Y-5690476D01*
X53481447Y-5785714D01*
X53433828Y-5833333D01*
X53338590Y-5880952D01*
X53148114Y-5880952D01*
X53052876Y-5928571D01*
X53005257Y-5976190D01*
X52957638Y-6071428D01*
X52957638Y-6261904D01*
X53005257Y-6357142D01*
X53052876Y-6404761D01*
X53148114Y-6452380D01*
X53338590Y-6452380D01*
X53433828Y-6404761D01*
X53481447Y-6357142D01*
X53529066Y-6261904D01*
X53529066Y-6071428D01*
X53481447Y-5976190D01*
X53433828Y-5928571D01*
X53338590Y-5880952D01*
%TD*%
M02*
