%TF.GenerationSoftware,KiCad,Pcbnew,(5.1.9)-1*%
%TF.CreationDate,2021-08-28T05:30:34+03:00*%
%TF.ProjectId,LED_Tail_001,4c45445f-5461-4696-9c5f-3030312e6b69,rev?*%
%TF.SameCoordinates,Original*%
%TF.FileFunction,Copper,L2,Bot*%
%TF.FilePolarity,Positive*%
%FSLAX46Y46*%
G04 Gerber Fmt 4.6, Leading zero omitted, Abs format (unit mm)*
G04 Created by KiCad (PCBNEW (5.1.9)-1) date 2021-08-28 05:30:34*
%MOMM*%
%LPD*%
G01*
G04 APERTURE LIST*
%TA.AperFunction,ComponentPad*%
%ADD10C,1.000000*%
%TD*%
%TA.AperFunction,ComponentPad*%
%ADD11C,1.900000*%
%TD*%
%TA.AperFunction,ViaPad*%
%ADD12C,0.800000*%
%TD*%
%TA.AperFunction,Conductor*%
%ADD13C,0.700000*%
%TD*%
%TA.AperFunction,Conductor*%
%ADD14C,0.300000*%
%TD*%
%TA.AperFunction,Conductor*%
%ADD15C,0.100000*%
%TD*%
G04 APERTURE END LIST*
%TO.P,C1,1*%
%TO.N,Net-(C1-Pad1)*%
%TA.AperFunction,SMDPad,CuDef*%
G36*
G01*
X48275000Y-637500D02*
X47325000Y-637500D01*
G75*
G02*
X47075000Y-387500I0J250000D01*
G01*
X47075000Y287500D01*
G75*
G02*
X47325000Y537500I250000J0D01*
G01*
X48275000Y537500D01*
G75*
G02*
X48525000Y287500I0J-250000D01*
G01*
X48525000Y-387500D01*
G75*
G02*
X48275000Y-637500I-250000J0D01*
G01*
G37*
%TD.AperFunction*%
%TO.P,C1,2*%
%TO.N,Net-(C1-Pad2)*%
%TA.AperFunction,SMDPad,CuDef*%
G36*
G01*
X48275000Y1437500D02*
X47325000Y1437500D01*
G75*
G02*
X47075000Y1687500I0J250000D01*
G01*
X47075000Y2362500D01*
G75*
G02*
X47325000Y2612500I250000J0D01*
G01*
X48275000Y2612500D01*
G75*
G02*
X48525000Y2362500I0J-250000D01*
G01*
X48525000Y1687500D01*
G75*
G02*
X48275000Y1437500I-250000J0D01*
G01*
G37*
%TD.AperFunction*%
%TD*%
D10*
%TO.P,J1,1*%
%TO.N,Net-(C1-Pad1)*%
X45875000Y-800000D03*
%TD*%
%TO.P,J2,1*%
%TO.N,Net-(C1-Pad2)*%
X45875000Y800000D03*
%TD*%
D11*
%TO.P,J7,1*%
%TO.N,GND*%
X52862400Y5500000D03*
%TD*%
%TO.P,J8,1*%
%TO.N,GND*%
X52862400Y-5500000D03*
%TD*%
D12*
%TO.N,Net-(C1-Pad1)*%
X52975000Y-50000D03*
%TD*%
D13*
%TO.N,Net-(C1-Pad1)*%
X45875000Y-800000D02*
X46700000Y25000D01*
X47725000Y25000D02*
X47800000Y-50000D01*
X46700000Y25000D02*
X47725000Y25000D01*
X47800000Y-50000D02*
X52975000Y-50000D01*
%TO.N,Net-(C1-Pad2)*%
X47100000Y2025000D02*
X47800000Y2025000D01*
X45875000Y800000D02*
X47100000Y2025000D01*
%TD*%
D14*
%TO.N,GND*%
X54887000Y-8025000D02*
X50384070Y-8025000D01*
X45137400Y-3425667D01*
X45137400Y-1226063D01*
X45214762Y-1341844D01*
X45333156Y-1460238D01*
X45472374Y-1553260D01*
X45627064Y-1617335D01*
X45791282Y-1650000D01*
X45958718Y-1650000D01*
X46122936Y-1617335D01*
X46277626Y-1553260D01*
X46416844Y-1460238D01*
X46535238Y-1341844D01*
X46628260Y-1202626D01*
X46692335Y-1047936D01*
X46711038Y-953912D01*
X46878105Y-786844D01*
X46899539Y-812961D01*
X46990717Y-887789D01*
X47094742Y-943392D01*
X47207616Y-977632D01*
X47325000Y-989193D01*
X48275000Y-989193D01*
X48392384Y-977632D01*
X48505258Y-943392D01*
X48609283Y-887789D01*
X48700461Y-812961D01*
X48752132Y-750000D01*
X52705105Y-750000D01*
X52756233Y-771178D01*
X52901131Y-800000D01*
X53048869Y-800000D01*
X53193767Y-771178D01*
X53330258Y-714641D01*
X53453097Y-632563D01*
X53557563Y-528097D01*
X53639641Y-405258D01*
X53696178Y-268767D01*
X53725000Y-123869D01*
X53725000Y23869D01*
X53696178Y168767D01*
X53639641Y305258D01*
X53557563Y428097D01*
X53453097Y532563D01*
X53330258Y614641D01*
X53193767Y671178D01*
X53048869Y700000D01*
X52901131Y700000D01*
X52756233Y671178D01*
X52705105Y650000D01*
X48752132Y650000D01*
X48700461Y712961D01*
X48609283Y787789D01*
X48505258Y843392D01*
X48392384Y877632D01*
X48275000Y889193D01*
X47325000Y889193D01*
X47207616Y877632D01*
X47094742Y843392D01*
X46990717Y787789D01*
X46914209Y725000D01*
X46789949Y725000D01*
X47172861Y1107911D01*
X47207616Y1097368D01*
X47325000Y1085807D01*
X48275000Y1085807D01*
X48392384Y1097368D01*
X48505258Y1131608D01*
X48609283Y1187211D01*
X48700461Y1262039D01*
X48775289Y1353217D01*
X48830892Y1457242D01*
X48865132Y1570116D01*
X48876693Y1687500D01*
X48876693Y2362500D01*
X48865132Y2479884D01*
X48830892Y2592758D01*
X48775289Y2696783D01*
X48700461Y2787961D01*
X48609283Y2862789D01*
X48505258Y2918392D01*
X48392384Y2952632D01*
X48275000Y2964193D01*
X47325000Y2964193D01*
X47207616Y2952632D01*
X47094742Y2918392D01*
X46990717Y2862789D01*
X46899539Y2787961D01*
X46824711Y2696783D01*
X46805849Y2661495D01*
X46709219Y2609845D01*
X46602630Y2522370D01*
X46580708Y2495658D01*
X45721088Y1636038D01*
X45627064Y1617335D01*
X45472374Y1553260D01*
X45333156Y1460238D01*
X45214762Y1341844D01*
X45137400Y1226063D01*
X45137400Y3425667D01*
X50384070Y8025000D01*
X54887001Y8025000D01*
X54887000Y-8025000D01*
%TA.AperFunction,Conductor*%
D15*
G36*
X54887000Y-8025000D02*
G01*
X50384070Y-8025000D01*
X45137400Y-3425667D01*
X45137400Y-1226063D01*
X45214762Y-1341844D01*
X45333156Y-1460238D01*
X45472374Y-1553260D01*
X45627064Y-1617335D01*
X45791282Y-1650000D01*
X45958718Y-1650000D01*
X46122936Y-1617335D01*
X46277626Y-1553260D01*
X46416844Y-1460238D01*
X46535238Y-1341844D01*
X46628260Y-1202626D01*
X46692335Y-1047936D01*
X46711038Y-953912D01*
X46878105Y-786844D01*
X46899539Y-812961D01*
X46990717Y-887789D01*
X47094742Y-943392D01*
X47207616Y-977632D01*
X47325000Y-989193D01*
X48275000Y-989193D01*
X48392384Y-977632D01*
X48505258Y-943392D01*
X48609283Y-887789D01*
X48700461Y-812961D01*
X48752132Y-750000D01*
X52705105Y-750000D01*
X52756233Y-771178D01*
X52901131Y-800000D01*
X53048869Y-800000D01*
X53193767Y-771178D01*
X53330258Y-714641D01*
X53453097Y-632563D01*
X53557563Y-528097D01*
X53639641Y-405258D01*
X53696178Y-268767D01*
X53725000Y-123869D01*
X53725000Y23869D01*
X53696178Y168767D01*
X53639641Y305258D01*
X53557563Y428097D01*
X53453097Y532563D01*
X53330258Y614641D01*
X53193767Y671178D01*
X53048869Y700000D01*
X52901131Y700000D01*
X52756233Y671178D01*
X52705105Y650000D01*
X48752132Y650000D01*
X48700461Y712961D01*
X48609283Y787789D01*
X48505258Y843392D01*
X48392384Y877632D01*
X48275000Y889193D01*
X47325000Y889193D01*
X47207616Y877632D01*
X47094742Y843392D01*
X46990717Y787789D01*
X46914209Y725000D01*
X46789949Y725000D01*
X47172861Y1107911D01*
X47207616Y1097368D01*
X47325000Y1085807D01*
X48275000Y1085807D01*
X48392384Y1097368D01*
X48505258Y1131608D01*
X48609283Y1187211D01*
X48700461Y1262039D01*
X48775289Y1353217D01*
X48830892Y1457242D01*
X48865132Y1570116D01*
X48876693Y1687500D01*
X48876693Y2362500D01*
X48865132Y2479884D01*
X48830892Y2592758D01*
X48775289Y2696783D01*
X48700461Y2787961D01*
X48609283Y2862789D01*
X48505258Y2918392D01*
X48392384Y2952632D01*
X48275000Y2964193D01*
X47325000Y2964193D01*
X47207616Y2952632D01*
X47094742Y2918392D01*
X46990717Y2862789D01*
X46899539Y2787961D01*
X46824711Y2696783D01*
X46805849Y2661495D01*
X46709219Y2609845D01*
X46602630Y2522370D01*
X46580708Y2495658D01*
X45721088Y1636038D01*
X45627064Y1617335D01*
X45472374Y1553260D01*
X45333156Y1460238D01*
X45214762Y1341844D01*
X45137400Y1226063D01*
X45137400Y3425667D01*
X50384070Y8025000D01*
X54887001Y8025000D01*
X54887000Y-8025000D01*
G37*
%TD.AperFunction*%
%TD*%
M02*
