M48
; DRILL file {KiCad (5.1.9)-1} date 08/28/21 05:28:11
; FORMAT={2:4/ absolute / inch / suppress trailing zeros}
; #@! TF.CreationDate,2021-08-28T05:28:11+03:00
; #@! TF.GenerationSoftware,Kicad,Pcbnew,(5.1.9)-1
; #@! TF.FileFunction,Plated,1,2,PTH
FMAT,2
INCH,LZ
T1C0.0157
T2C0.0315
T3C0.0394
T4C0.0591
%
G90
G05
T1
X-007136Y000748
X-0069Y-001594
X-006476Y002087
X-006358Y-001112
X-006339Y00125
X-005994Y-003031
X-005935Y003012
X-005335Y-000965
X-005276Y000945
X-00497Y-003022
X-004931Y003012
X-004459Y001585
X-00439Y002323
X-004163Y-002096
X-004154Y-001358
X-003406Y-000876
X-003376Y000807
X-002943Y-002077
X-002913Y-001309
X-002894Y00128
X-002854Y002077
X-002323Y-00003
X-00185Y-000079
X-001447Y002352
X-001319Y-002234
X-001102Y00062
X-000856Y00185
X-000846Y-001841
T2
X-00315Y000335
X-00315Y-000335
X-000591Y000344
X-000581Y-000335
T3
X-002244Y002835
X-002244Y-002835
X-000463Y001191
X-000463Y-001191
T4
X-007221Y002362
X-007221Y-002362
X-003579Y002461
X-003579Y-002461
T0
M30
