%TF.GenerationSoftware,KiCad,Pcbnew,(5.1.9)-1*%
%TF.CreationDate,2021-08-28T05:28:07+03:00*%
%TF.ProjectId,LED_Head_001,4c45445f-4865-4616-945f-3030312e6b69,rev?*%
%TF.SameCoordinates,Original*%
%TF.FileFunction,Copper,L2,Bot*%
%TF.FilePolarity,Positive*%
%FSLAX46Y46*%
G04 Gerber Fmt 4.6, Leading zero omitted, Abs format (unit mm)*
G04 Created by KiCad (PCBNEW (5.1.9)-1) date 2021-08-28 05:28:07*
%MOMM*%
%LPD*%
G01*
G04 APERTURE LIST*
%TA.AperFunction,ComponentPad*%
%ADD10C,1.000000*%
%TD*%
%TA.AperFunction,ComponentPad*%
%ADD11C,1.400000*%
%TD*%
%TA.AperFunction,ComponentPad*%
%ADD12C,1.900000*%
%TD*%
%TA.AperFunction,ViaPad*%
%ADD13C,0.800000*%
%TD*%
%TA.AperFunction,Conductor*%
%ADD14C,0.500000*%
%TD*%
%TA.AperFunction,Conductor*%
%ADD15C,0.100000*%
%TD*%
G04 APERTURE END LIST*
%TO.P,C1,1*%
%TO.N,Net-(C1-Pad1)*%
%TA.AperFunction,SMDPad,CuDef*%
G36*
G01*
X-10600000Y1687500D02*
X-9650000Y1687500D01*
G75*
G02*
X-9400000Y1437500I0J-250000D01*
G01*
X-9400000Y762500D01*
G75*
G02*
X-9650000Y512500I-250000J0D01*
G01*
X-10600000Y512500D01*
G75*
G02*
X-10850000Y762500I0J250000D01*
G01*
X-10850000Y1437500D01*
G75*
G02*
X-10600000Y1687500I250000J0D01*
G01*
G37*
%TD.AperFunction*%
%TO.P,C1,2*%
%TO.N,Net-(C1-Pad2)*%
%TA.AperFunction,SMDPad,CuDef*%
G36*
G01*
X-10600000Y-387500D02*
X-9650000Y-387500D01*
G75*
G02*
X-9400000Y-637500I0J-250000D01*
G01*
X-9400000Y-1312500D01*
G75*
G02*
X-9650000Y-1562500I-250000J0D01*
G01*
X-10600000Y-1562500D01*
G75*
G02*
X-10850000Y-1312500I0J250000D01*
G01*
X-10850000Y-637500D01*
G75*
G02*
X-10600000Y-387500I250000J0D01*
G01*
G37*
%TD.AperFunction*%
%TD*%
%TO.P,C2,1*%
%TO.N,Net-(C2-Pad1)*%
%TA.AperFunction,SMDPad,CuDef*%
G36*
G01*
X-3037500Y4850000D02*
X-3037500Y3900000D01*
G75*
G02*
X-3287500Y3650000I-250000J0D01*
G01*
X-3962500Y3650000D01*
G75*
G02*
X-4212500Y3900000I0J250000D01*
G01*
X-4212500Y4850000D01*
G75*
G02*
X-3962500Y5100000I250000J0D01*
G01*
X-3287500Y5100000D01*
G75*
G02*
X-3037500Y4850000I0J-250000D01*
G01*
G37*
%TD.AperFunction*%
%TO.P,C2,2*%
%TO.N,Net-(C2-Pad2)*%
%TA.AperFunction,SMDPad,CuDef*%
G36*
G01*
X-5112500Y4850000D02*
X-5112500Y3900000D01*
G75*
G02*
X-5362500Y3650000I-250000J0D01*
G01*
X-6037500Y3650000D01*
G75*
G02*
X-6287500Y3900000I0J250000D01*
G01*
X-6287500Y4850000D01*
G75*
G02*
X-6037500Y5100000I250000J0D01*
G01*
X-5362500Y5100000D01*
G75*
G02*
X-5112500Y4850000I0J-250000D01*
G01*
G37*
%TD.AperFunction*%
%TD*%
%TO.P,C3,2*%
%TO.N,Net-(C1-Pad2)*%
%TA.AperFunction,SMDPad,CuDef*%
G36*
G01*
X-12619999Y-390001D02*
X-11669999Y-390001D01*
G75*
G02*
X-11419999Y-640001I0J-250000D01*
G01*
X-11419999Y-1315001D01*
G75*
G02*
X-11669999Y-1565001I-250000J0D01*
G01*
X-12619999Y-1565001D01*
G75*
G02*
X-12869999Y-1315001I0J250000D01*
G01*
X-12869999Y-640001D01*
G75*
G02*
X-12619999Y-390001I250000J0D01*
G01*
G37*
%TD.AperFunction*%
%TO.P,C3,1*%
%TO.N,Net-(C1-Pad1)*%
%TA.AperFunction,SMDPad,CuDef*%
G36*
G01*
X-12619999Y1684999D02*
X-11669999Y1684999D01*
G75*
G02*
X-11419999Y1434999I0J-250000D01*
G01*
X-11419999Y759999D01*
G75*
G02*
X-11669999Y509999I-250000J0D01*
G01*
X-12619999Y509999D01*
G75*
G02*
X-12869999Y759999I0J250000D01*
G01*
X-12869999Y1434999D01*
G75*
G02*
X-12619999Y1684999I250000J0D01*
G01*
G37*
%TD.AperFunction*%
%TD*%
%TO.P,C4,2*%
%TO.N,Net-(C2-Pad2)*%
%TA.AperFunction,SMDPad,CuDef*%
G36*
G01*
X-5112500Y3075000D02*
X-5112500Y2125000D01*
G75*
G02*
X-5362500Y1875000I-250000J0D01*
G01*
X-6037500Y1875000D01*
G75*
G02*
X-6287500Y2125000I0J250000D01*
G01*
X-6287500Y3075000D01*
G75*
G02*
X-6037500Y3325000I250000J0D01*
G01*
X-5362500Y3325000D01*
G75*
G02*
X-5112500Y3075000I0J-250000D01*
G01*
G37*
%TD.AperFunction*%
%TO.P,C4,1*%
%TO.N,Net-(C2-Pad1)*%
%TA.AperFunction,SMDPad,CuDef*%
G36*
G01*
X-3037500Y3075000D02*
X-3037500Y2125000D01*
G75*
G02*
X-3287500Y1875000I-250000J0D01*
G01*
X-3962500Y1875000D01*
G75*
G02*
X-4212500Y2125000I0J250000D01*
G01*
X-4212500Y3075000D01*
G75*
G02*
X-3962500Y3325000I250000J0D01*
G01*
X-3287500Y3325000D01*
G75*
G02*
X-3037500Y3075000I0J-250000D01*
G01*
G37*
%TD.AperFunction*%
%TD*%
D10*
%TO.P,J1,1*%
%TO.N,Net-(C1-Pad1)*%
X-8000000Y850000D03*
%TD*%
%TO.P,J2,1*%
%TO.N,Net-(C1-Pad2)*%
X-8000000Y-850000D03*
%TD*%
D11*
%TO.P,J3,1*%
%TO.N,GND*%
X-5700000Y7200000D03*
%TD*%
%TO.P,J4,1*%
%TO.N,GND*%
X-1175000Y3025000D03*
%TD*%
D12*
%TO.P,J5,1*%
%TO.N,GND*%
X-18341700Y6000000D03*
%TD*%
%TO.P,J6,1*%
%TO.N,GND*%
X-9091700Y-6250000D03*
%TD*%
%TO.P,J7,1*%
%TO.N,GND*%
X-9091700Y6250000D03*
%TD*%
%TO.P,J8,1*%
%TO.N,GND*%
X-18341700Y-6000000D03*
%TD*%
D11*
%TO.P,J9,1*%
%TO.N,GND*%
X-5700000Y-7200000D03*
%TD*%
%TO.P,J10,1*%
%TO.N,GND*%
X-1175000Y-3025000D03*
%TD*%
D10*
%TO.P,J11,1*%
%TO.N,Net-(C2-Pad1)*%
X-1475000Y-850000D03*
%TD*%
%TO.P,J12,1*%
%TO.N,Net-(C2-Pad2)*%
X-1500000Y875000D03*
%TD*%
%TO.P,R1,2*%
%TO.N,Net-(D4-Pad1)*%
%TA.AperFunction,SMDPad,CuDef*%
G36*
G01*
X-17750000Y2749999D02*
X-17750000Y3650001D01*
G75*
G02*
X-17500001Y3900000I249999J0D01*
G01*
X-16799999Y3900000D01*
G75*
G02*
X-16550000Y3650001I0J-249999D01*
G01*
X-16550000Y2749999D01*
G75*
G02*
X-16799999Y2500000I-249999J0D01*
G01*
X-17500001Y2500000D01*
G75*
G02*
X-17750000Y2749999I0J249999D01*
G01*
G37*
%TD.AperFunction*%
%TO.P,R1,1*%
%TO.N,Net-(C2-Pad2)*%
%TA.AperFunction,SMDPad,CuDef*%
G36*
G01*
X-19750000Y2749999D02*
X-19750000Y3650001D01*
G75*
G02*
X-19500001Y3900000I249999J0D01*
G01*
X-18799999Y3900000D01*
G75*
G02*
X-18550000Y3650001I0J-249999D01*
G01*
X-18550000Y2749999D01*
G75*
G02*
X-18799999Y2500000I-249999J0D01*
G01*
X-19500001Y2500000D01*
G75*
G02*
X-19750000Y2749999I0J249999D01*
G01*
G37*
%TD.AperFunction*%
%TD*%
%TO.P,R2,1*%
%TO.N,Net-(D1-Pad2)*%
%TA.AperFunction,SMDPad,CuDef*%
G36*
G01*
X-18350001Y1350000D02*
X-17449999Y1350000D01*
G75*
G02*
X-17200000Y1100001I0J-249999D01*
G01*
X-17200000Y399999D01*
G75*
G02*
X-17449999Y150000I-249999J0D01*
G01*
X-18350001Y150000D01*
G75*
G02*
X-18600000Y399999I0J249999D01*
G01*
X-18600000Y1100001D01*
G75*
G02*
X-18350001Y1350000I249999J0D01*
G01*
G37*
%TD.AperFunction*%
%TO.P,R2,2*%
%TO.N,Net-(C1-Pad1)*%
%TA.AperFunction,SMDPad,CuDef*%
G36*
G01*
X-18350001Y-650000D02*
X-17449999Y-650000D01*
G75*
G02*
X-17200000Y-899999I0J-249999D01*
G01*
X-17200000Y-1600001D01*
G75*
G02*
X-17449999Y-1850000I-249999J0D01*
G01*
X-18350001Y-1850000D01*
G75*
G02*
X-18600000Y-1600001I0J249999D01*
G01*
X-18600000Y-899999D01*
G75*
G02*
X-18350001Y-650000I249999J0D01*
G01*
G37*
%TD.AperFunction*%
%TD*%
D13*
%TO.N,Net-(D4-Pad1)*%
X-16100000Y3175000D03*
%TO.N,GND*%
X-10575000Y-5325000D03*
X-10550000Y-3450000D03*
X-7400000Y-3325000D03*
X-7475000Y-5275000D03*
X-16150000Y-2825000D03*
X-17525000Y-4050000D03*
X-11150000Y5900000D03*
X-11325000Y4025000D03*
X-7350000Y3250000D03*
X-7250000Y5275000D03*
X-16450000Y5300000D03*
X-12525000Y7650000D03*
X-15075000Y7650000D03*
X-15225000Y-7700000D03*
X-12625000Y-7675000D03*
X-4700000Y-200000D03*
X-8575000Y2050000D03*
X-8650000Y-2225000D03*
X-5900000Y-75000D03*
X-13400000Y2400000D03*
X-13550000Y-2450000D03*
X-2175000Y4700000D03*
X-3675000Y5975000D03*
X-3350000Y-5675000D03*
X-2150000Y-4675000D03*
%TO.N,Net-(C2-Pad1)*%
X-2800000Y1575000D03*
%TO.N,Net-(D1-Pad2)*%
X-18125000Y1900000D03*
%TD*%
D14*
%TO.N,Net-(C1-Pad1)*%
X-17900000Y-2350000D02*
X-17900000Y-1250000D01*
X-15250000Y-5000000D02*
X-17900000Y-2350000D01*
X-5375000Y-4400000D02*
X-11000000Y-4400000D01*
X-11600000Y-5000000D02*
X-15250000Y-5000000D01*
X-4900000Y-3925000D02*
X-5375000Y-4400000D01*
X-4900000Y-2250000D02*
X-4900000Y-3925000D01*
X-11000000Y-4400000D02*
X-11600000Y-5000000D01*
X-8000000Y850000D02*
X-4900000Y-2250000D01*
X-8000000Y850000D02*
X-8325000Y850000D01*
X-8575000Y1100000D02*
X-10125000Y1100000D01*
X-8325000Y850000D02*
X-8575000Y1100000D01*
X-10127501Y1097499D02*
X-10125000Y1100000D01*
X-12144999Y1097499D02*
X-10127501Y1097499D01*
%TO.N,Net-(C1-Pad2)*%
X-10127501Y-977501D02*
X-10125000Y-975000D01*
X-12144999Y-977501D02*
X-10127501Y-977501D01*
X-8125000Y-975000D02*
X-8000000Y-850000D01*
X-10125000Y-975000D02*
X-8125000Y-975000D01*
%TO.N,Net-(D4-Pad1)*%
X-16125000Y3200000D02*
X-16100000Y3175000D01*
X-17150000Y3200000D02*
X-16125000Y3200000D01*
%TO.N,Net-(C2-Pad1)*%
X-3625000Y4375000D02*
X-3625000Y2600000D01*
X-3825000Y2600000D02*
X-2800000Y1575000D01*
%TO.N,Net-(C2-Pad2)*%
X-17999990Y4350010D02*
X-15449990Y4350010D01*
X-19150000Y3200000D02*
X-17999990Y4350010D01*
X-15449990Y4350010D02*
X-14800000Y5000000D01*
X-14800000Y5000000D02*
X-10975000Y5000000D01*
X-10975000Y5000000D02*
X-9825000Y3850000D01*
X-9825000Y3850000D02*
X-7975000Y3850000D01*
X-7975000Y3850000D02*
X-7425000Y4400000D01*
X-5725000Y4400000D02*
X-5700000Y4375000D01*
X-7425000Y4400000D02*
X-5725000Y4400000D01*
X-5700000Y4375000D02*
X-5700000Y2600000D01*
X-2425000Y-50000D02*
X-1500000Y875000D01*
X-3200000Y-50000D02*
X-2425000Y-50000D01*
X-5700000Y2450000D02*
X-3200000Y-50000D01*
X-5700000Y2600000D02*
X-5700000Y2450000D01*
%TO.N,Net-(D1-Pad2)*%
X-17900000Y1675000D02*
X-18125000Y1900000D01*
X-17900000Y750000D02*
X-17900000Y1675000D01*
%TD*%
D15*
%TO.N,GND*%
X-508299Y3386030D02*
X-508300Y-3386031D01*
X-5429138Y-7925000D01*
X-19966700Y-7925000D01*
X-19966700Y-899999D01*
X-18951693Y-899999D01*
X-18951693Y-1600001D01*
X-18940132Y-1717385D01*
X-18905892Y-1830259D01*
X-18850290Y-1934283D01*
X-18775461Y-2025461D01*
X-18684283Y-2100290D01*
X-18580259Y-2155892D01*
X-18500000Y-2180238D01*
X-18500000Y-2320526D01*
X-18502903Y-2350000D01*
X-18500000Y-2379473D01*
X-18491318Y-2467620D01*
X-18457010Y-2580720D01*
X-18401296Y-2684954D01*
X-18326317Y-2776317D01*
X-18303414Y-2795113D01*
X-15695109Y-5403419D01*
X-15676317Y-5426317D01*
X-15584955Y-5501296D01*
X-15480721Y-5557010D01*
X-15367621Y-5591318D01*
X-15250000Y-5602903D01*
X-15220526Y-5600000D01*
X-11629474Y-5600000D01*
X-11600000Y-5602903D01*
X-11570526Y-5600000D01*
X-11482379Y-5591318D01*
X-11369279Y-5557010D01*
X-11265045Y-5501296D01*
X-11173683Y-5426317D01*
X-11154887Y-5403414D01*
X-10751472Y-5000000D01*
X-5404474Y-5000000D01*
X-5375000Y-5002903D01*
X-5345526Y-5000000D01*
X-5257379Y-4991318D01*
X-5144279Y-4957010D01*
X-5040045Y-4901296D01*
X-4948683Y-4826317D01*
X-4929888Y-4803415D01*
X-4496576Y-4370105D01*
X-4473683Y-4351317D01*
X-4398704Y-4259955D01*
X-4342990Y-4155721D01*
X-4308682Y-4042621D01*
X-4300000Y-3954474D01*
X-4300000Y-3954467D01*
X-4297098Y-3925001D01*
X-4300000Y-3895535D01*
X-4300000Y-2279473D01*
X-4297097Y-2249999D01*
X-4308682Y-2132379D01*
X-4342990Y-2019280D01*
X-4342990Y-2019279D01*
X-4398704Y-1915045D01*
X-4473683Y-1823683D01*
X-4496580Y-1804892D01*
X-7150000Y848527D01*
X-7150000Y933718D01*
X-7182665Y1097936D01*
X-7246740Y1252626D01*
X-7339762Y1391844D01*
X-7458156Y1510238D01*
X-7597374Y1603260D01*
X-7752064Y1667335D01*
X-7916282Y1700000D01*
X-8083718Y1700000D01*
X-8247936Y1667335D01*
X-8313098Y1640344D01*
X-8344279Y1657010D01*
X-8457379Y1691318D01*
X-8545526Y1700000D01*
X-8575000Y1702903D01*
X-8604474Y1700000D01*
X-9111342Y1700000D01*
X-9149711Y1771783D01*
X-9224539Y1862961D01*
X-9315717Y1937789D01*
X-9419742Y1993392D01*
X-9532616Y2027632D01*
X-9650000Y2039193D01*
X-10600000Y2039193D01*
X-10717384Y2027632D01*
X-10830258Y1993392D01*
X-10934283Y1937789D01*
X-11025461Y1862961D01*
X-11100289Y1771783D01*
X-11135668Y1705594D01*
X-11169710Y1769282D01*
X-11244538Y1860460D01*
X-11335716Y1935288D01*
X-11439741Y1990891D01*
X-11552615Y2025131D01*
X-11669999Y2036692D01*
X-12619999Y2036692D01*
X-12737383Y2025131D01*
X-12850257Y1990891D01*
X-12954282Y1935288D01*
X-13045460Y1860460D01*
X-13120288Y1769282D01*
X-13175891Y1665257D01*
X-13210131Y1552383D01*
X-13221692Y1434999D01*
X-13221692Y759999D01*
X-13210131Y642615D01*
X-13175891Y529741D01*
X-13120288Y425716D01*
X-13045460Y334538D01*
X-12954282Y259710D01*
X-12850257Y204107D01*
X-12737383Y169867D01*
X-12619999Y158306D01*
X-11669999Y158306D01*
X-11552615Y169867D01*
X-11439741Y204107D01*
X-11335716Y259710D01*
X-11244538Y334538D01*
X-11169710Y425716D01*
X-11134331Y491905D01*
X-11100289Y428217D01*
X-11025461Y337039D01*
X-10934283Y262211D01*
X-10830258Y206608D01*
X-10717384Y172368D01*
X-10600000Y160807D01*
X-9650000Y160807D01*
X-9532616Y172368D01*
X-9419742Y206608D01*
X-9315717Y262211D01*
X-9224539Y337039D01*
X-9149711Y428217D01*
X-9111342Y500000D01*
X-8823528Y500000D01*
X-8770109Y446581D01*
X-8751317Y423683D01*
X-8720570Y398449D01*
X-8660238Y308156D01*
X-8541844Y189762D01*
X-8402626Y96740D01*
X-8247936Y32665D01*
X-8083718Y0D01*
X-8247936Y-32665D01*
X-8402626Y-96740D01*
X-8541844Y-189762D01*
X-8660238Y-308156D01*
X-8704901Y-375000D01*
X-9111342Y-375000D01*
X-9149711Y-303217D01*
X-9224539Y-212039D01*
X-9315717Y-137211D01*
X-9419742Y-81608D01*
X-9532616Y-47368D01*
X-9650000Y-35807D01*
X-10600000Y-35807D01*
X-10717384Y-47368D01*
X-10830258Y-81608D01*
X-10934283Y-137211D01*
X-11025461Y-212039D01*
X-11100289Y-303217D01*
X-11135668Y-369406D01*
X-11169710Y-305718D01*
X-11244538Y-214540D01*
X-11335716Y-139712D01*
X-11439741Y-84109D01*
X-11552615Y-49869D01*
X-11669999Y-38308D01*
X-12619999Y-38308D01*
X-12737383Y-49869D01*
X-12850257Y-84109D01*
X-12954282Y-139712D01*
X-13045460Y-214540D01*
X-13120288Y-305718D01*
X-13175891Y-409743D01*
X-13210131Y-522617D01*
X-13221692Y-640001D01*
X-13221692Y-1315001D01*
X-13210131Y-1432385D01*
X-13175891Y-1545259D01*
X-13120288Y-1649284D01*
X-13045460Y-1740462D01*
X-12954282Y-1815290D01*
X-12850257Y-1870893D01*
X-12737383Y-1905133D01*
X-12619999Y-1916694D01*
X-11669999Y-1916694D01*
X-11552615Y-1905133D01*
X-11439741Y-1870893D01*
X-11335716Y-1815290D01*
X-11244538Y-1740462D01*
X-11169710Y-1649284D01*
X-11134331Y-1583095D01*
X-11100289Y-1646783D01*
X-11025461Y-1737961D01*
X-10934283Y-1812789D01*
X-10830258Y-1868392D01*
X-10717384Y-1902632D01*
X-10600000Y-1914193D01*
X-9650000Y-1914193D01*
X-9532616Y-1902632D01*
X-9419742Y-1868392D01*
X-9315717Y-1812789D01*
X-9224539Y-1737961D01*
X-9149711Y-1646783D01*
X-9111342Y-1575000D01*
X-8444920Y-1575000D01*
X-8402626Y-1603260D01*
X-8247936Y-1667335D01*
X-8083718Y-1700000D01*
X-7916282Y-1700000D01*
X-7752064Y-1667335D01*
X-7597374Y-1603260D01*
X-7458156Y-1510238D01*
X-7339762Y-1391844D01*
X-7246740Y-1252626D01*
X-7182665Y-1097936D01*
X-7150000Y-933718D01*
X-7150000Y-848527D01*
X-5500000Y-2498528D01*
X-5499999Y-3676471D01*
X-5623528Y-3800000D01*
X-10970527Y-3800000D01*
X-11000001Y-3797097D01*
X-11104402Y-3807380D01*
X-11117621Y-3808682D01*
X-11230721Y-3842990D01*
X-11334955Y-3898704D01*
X-11426317Y-3973683D01*
X-11445106Y-3996578D01*
X-11848527Y-4400000D01*
X-15001472Y-4400000D01*
X-17239567Y-2161906D01*
X-17219741Y-2155892D01*
X-17115717Y-2100290D01*
X-17024539Y-2025461D01*
X-16949710Y-1934283D01*
X-16894108Y-1830259D01*
X-16859868Y-1717385D01*
X-16848307Y-1600001D01*
X-16848307Y-899999D01*
X-16859868Y-782615D01*
X-16894108Y-669741D01*
X-16949710Y-565717D01*
X-17024539Y-474539D01*
X-17115717Y-399710D01*
X-17219741Y-344108D01*
X-17332615Y-309868D01*
X-17449999Y-298307D01*
X-18350001Y-298307D01*
X-18467385Y-309868D01*
X-18580259Y-344108D01*
X-18684283Y-399710D01*
X-18775461Y-474539D01*
X-18850290Y-565717D01*
X-18905892Y-669741D01*
X-18940132Y-782615D01*
X-18951693Y-899999D01*
X-19966700Y-899999D01*
X-19966700Y2374788D01*
X-19925461Y2324539D01*
X-19834283Y2249710D01*
X-19730259Y2194108D01*
X-19617385Y2159868D01*
X-19500001Y2148307D01*
X-18833942Y2148307D01*
X-18846178Y2118767D01*
X-18875000Y1973869D01*
X-18875000Y1826131D01*
X-18846178Y1681233D01*
X-18789641Y1544742D01*
X-18776176Y1524590D01*
X-18850290Y1434283D01*
X-18905892Y1330259D01*
X-18940132Y1217385D01*
X-18951693Y1100001D01*
X-18951693Y399999D01*
X-18940132Y282615D01*
X-18905892Y169741D01*
X-18850290Y65717D01*
X-18775461Y-25461D01*
X-18684283Y-100290D01*
X-18580259Y-155892D01*
X-18467385Y-190132D01*
X-18350001Y-201693D01*
X-17449999Y-201693D01*
X-17332615Y-190132D01*
X-17219741Y-155892D01*
X-17115717Y-100290D01*
X-17024539Y-25461D01*
X-16949710Y65717D01*
X-16894108Y169741D01*
X-16859868Y282615D01*
X-16848307Y399999D01*
X-16848307Y1100001D01*
X-16859868Y1217385D01*
X-16894108Y1330259D01*
X-16949710Y1434283D01*
X-17024539Y1525461D01*
X-17115717Y1600290D01*
X-17219741Y1655892D01*
X-17297539Y1679492D01*
X-17308682Y1792621D01*
X-17325207Y1847097D01*
X-17342990Y1905721D01*
X-17375000Y1965608D01*
X-17375000Y1973869D01*
X-17403822Y2118767D01*
X-17416058Y2148307D01*
X-16799999Y2148307D01*
X-16682615Y2159868D01*
X-16569741Y2194108D01*
X-16465717Y2249710D01*
X-16374539Y2324539D01*
X-16299710Y2415717D01*
X-16283131Y2446734D01*
X-16173869Y2425000D01*
X-16026131Y2425000D01*
X-15881233Y2453822D01*
X-15744742Y2510359D01*
X-15621903Y2592437D01*
X-15517437Y2696903D01*
X-15435359Y2819742D01*
X-15378822Y2956233D01*
X-15350000Y3101131D01*
X-15350000Y3248869D01*
X-15378822Y3393767D01*
X-15435359Y3530258D01*
X-15517437Y3653097D01*
X-15614350Y3750010D01*
X-15479464Y3750010D01*
X-15449990Y3747107D01*
X-15420516Y3750010D01*
X-15332369Y3758692D01*
X-15219269Y3793000D01*
X-15115035Y3848714D01*
X-15023673Y3923693D01*
X-15004877Y3946596D01*
X-14551472Y4400000D01*
X-11223527Y4400000D01*
X-10270109Y3446581D01*
X-10251317Y3423683D01*
X-10159955Y3348704D01*
X-10065668Y3298307D01*
X-10055721Y3292990D01*
X-9942621Y3258681D01*
X-9825000Y3247097D01*
X-9795524Y3250000D01*
X-8004474Y3250000D01*
X-7975000Y3247097D01*
X-7945526Y3250000D01*
X-7857379Y3258682D01*
X-7744279Y3292990D01*
X-7640045Y3348704D01*
X-7548683Y3423683D01*
X-7529887Y3446585D01*
X-7176472Y3800000D01*
X-6629344Y3800000D01*
X-6627632Y3782616D01*
X-6593392Y3669742D01*
X-6537789Y3565717D01*
X-6473598Y3487500D01*
X-6537789Y3409283D01*
X-6593392Y3305258D01*
X-6627632Y3192384D01*
X-6639193Y3075000D01*
X-6639193Y2125000D01*
X-6627632Y2007616D01*
X-6593392Y1894742D01*
X-6537789Y1790717D01*
X-6462961Y1699539D01*
X-6371783Y1624711D01*
X-6267758Y1569108D01*
X-6154884Y1534868D01*
X-6037500Y1523307D01*
X-5621834Y1523307D01*
X-3645109Y-453419D01*
X-3626317Y-476317D01*
X-3534955Y-551296D01*
X-3430721Y-607010D01*
X-3321814Y-640046D01*
X-3317621Y-641318D01*
X-3200000Y-652903D01*
X-3170526Y-650000D01*
X-2454474Y-650000D01*
X-2425000Y-652903D01*
X-2395526Y-650000D01*
X-2307379Y-641318D01*
X-2299678Y-638982D01*
X-2325000Y-766282D01*
X-2325000Y-933718D01*
X-2292335Y-1097936D01*
X-2228260Y-1252626D01*
X-2135238Y-1391844D01*
X-2016844Y-1510238D01*
X-1877626Y-1603260D01*
X-1722936Y-1667335D01*
X-1558718Y-1700000D01*
X-1391282Y-1700000D01*
X-1227064Y-1667335D01*
X-1072374Y-1603260D01*
X-933156Y-1510238D01*
X-814762Y-1391844D01*
X-721740Y-1252626D01*
X-657665Y-1097936D01*
X-625000Y-933718D01*
X-625000Y-766282D01*
X-657665Y-602064D01*
X-721740Y-447374D01*
X-814762Y-308156D01*
X-933156Y-189762D01*
X-1072374Y-96740D01*
X-1227064Y-32665D01*
X-1391282Y0D01*
X-1526472Y0D01*
X-1501472Y25000D01*
X-1416282Y25000D01*
X-1252064Y57665D01*
X-1097374Y121740D01*
X-958156Y214762D01*
X-839762Y333156D01*
X-746740Y472374D01*
X-682665Y627064D01*
X-650000Y791282D01*
X-650000Y958718D01*
X-682665Y1122936D01*
X-746740Y1277626D01*
X-839762Y1416844D01*
X-958156Y1535238D01*
X-1097374Y1628260D01*
X-1252064Y1692335D01*
X-1416282Y1725000D01*
X-1583718Y1725000D01*
X-1747936Y1692335D01*
X-1902626Y1628260D01*
X-2041844Y1535238D01*
X-2050000Y1527082D01*
X-2050000Y1648869D01*
X-2078822Y1793767D01*
X-2135359Y1930258D01*
X-2217437Y2053097D01*
X-2321903Y2157563D01*
X-2444742Y2239641D01*
X-2581233Y2296178D01*
X-2685807Y2316979D01*
X-2685807Y3075000D01*
X-2697368Y3192384D01*
X-2731608Y3305258D01*
X-2787211Y3409283D01*
X-2851402Y3487500D01*
X-2787211Y3565717D01*
X-2731608Y3669742D01*
X-2697368Y3782616D01*
X-2685807Y3900000D01*
X-2685807Y4850000D01*
X-2697368Y4967384D01*
X-2731608Y5080258D01*
X-2787211Y5184283D01*
X-2862039Y5275461D01*
X-2953217Y5350289D01*
X-3057242Y5405892D01*
X-3170116Y5440132D01*
X-3287500Y5451693D01*
X-3962500Y5451693D01*
X-4079884Y5440132D01*
X-4192758Y5405892D01*
X-4296783Y5350289D01*
X-4387961Y5275461D01*
X-4462789Y5184283D01*
X-4518392Y5080258D01*
X-4552632Y4967384D01*
X-4564193Y4850000D01*
X-4564193Y3900000D01*
X-4552632Y3782616D01*
X-4518392Y3669742D01*
X-4462789Y3565717D01*
X-4398598Y3487500D01*
X-4462789Y3409283D01*
X-4518392Y3305258D01*
X-4552632Y3192384D01*
X-4564193Y3075000D01*
X-4564193Y2162720D01*
X-4760807Y2359334D01*
X-4760807Y3075000D01*
X-4772368Y3192384D01*
X-4806608Y3305258D01*
X-4862211Y3409283D01*
X-4926402Y3487500D01*
X-4862211Y3565717D01*
X-4806608Y3669742D01*
X-4772368Y3782616D01*
X-4760807Y3900000D01*
X-4760807Y4850000D01*
X-4772368Y4967384D01*
X-4806608Y5080258D01*
X-4862211Y5184283D01*
X-4937039Y5275461D01*
X-5028217Y5350289D01*
X-5132242Y5405892D01*
X-5245116Y5440132D01*
X-5362500Y5451693D01*
X-6037500Y5451693D01*
X-6154884Y5440132D01*
X-6267758Y5405892D01*
X-6371783Y5350289D01*
X-6462961Y5275461D01*
X-6537789Y5184283D01*
X-6593392Y5080258D01*
X-6617738Y5000000D01*
X-7395535Y5000000D01*
X-7425001Y5002902D01*
X-7454467Y5000000D01*
X-7454474Y5000000D01*
X-7531360Y4992427D01*
X-7542622Y4991318D01*
X-7576930Y4980911D01*
X-7655721Y4957010D01*
X-7759955Y4901296D01*
X-7851317Y4826317D01*
X-7870105Y4803424D01*
X-8223528Y4450000D01*
X-9576472Y4450000D01*
X-10529887Y5403414D01*
X-10548683Y5426317D01*
X-10640045Y5501296D01*
X-10744279Y5557010D01*
X-10857379Y5591318D01*
X-10945526Y5600000D01*
X-10975000Y5602903D01*
X-11004474Y5600000D01*
X-14770526Y5600000D01*
X-14800000Y5602903D01*
X-14829474Y5600000D01*
X-14917621Y5591318D01*
X-15030721Y5557010D01*
X-15134955Y5501296D01*
X-15226317Y5426317D01*
X-15245109Y5403419D01*
X-15698517Y4950010D01*
X-17970516Y4950010D01*
X-17999990Y4952913D01*
X-18029464Y4950010D01*
X-18117611Y4941328D01*
X-18230711Y4907020D01*
X-18334945Y4851306D01*
X-18426307Y4776327D01*
X-18445096Y4753432D01*
X-18946835Y4251693D01*
X-19500001Y4251693D01*
X-19617385Y4240132D01*
X-19730259Y4205892D01*
X-19834283Y4150290D01*
X-19925461Y4075461D01*
X-19966700Y4025212D01*
X-19966700Y7925000D01*
X-5429138Y7925000D01*
X-508299Y3386030D01*
%TA.AperFunction,Conductor*%
G36*
X-508299Y3386030D02*
G01*
X-508300Y-3386031D01*
X-5429138Y-7925000D01*
X-19966700Y-7925000D01*
X-19966700Y-899999D01*
X-18951693Y-899999D01*
X-18951693Y-1600001D01*
X-18940132Y-1717385D01*
X-18905892Y-1830259D01*
X-18850290Y-1934283D01*
X-18775461Y-2025461D01*
X-18684283Y-2100290D01*
X-18580259Y-2155892D01*
X-18500000Y-2180238D01*
X-18500000Y-2320526D01*
X-18502903Y-2350000D01*
X-18500000Y-2379473D01*
X-18491318Y-2467620D01*
X-18457010Y-2580720D01*
X-18401296Y-2684954D01*
X-18326317Y-2776317D01*
X-18303414Y-2795113D01*
X-15695109Y-5403419D01*
X-15676317Y-5426317D01*
X-15584955Y-5501296D01*
X-15480721Y-5557010D01*
X-15367621Y-5591318D01*
X-15250000Y-5602903D01*
X-15220526Y-5600000D01*
X-11629474Y-5600000D01*
X-11600000Y-5602903D01*
X-11570526Y-5600000D01*
X-11482379Y-5591318D01*
X-11369279Y-5557010D01*
X-11265045Y-5501296D01*
X-11173683Y-5426317D01*
X-11154887Y-5403414D01*
X-10751472Y-5000000D01*
X-5404474Y-5000000D01*
X-5375000Y-5002903D01*
X-5345526Y-5000000D01*
X-5257379Y-4991318D01*
X-5144279Y-4957010D01*
X-5040045Y-4901296D01*
X-4948683Y-4826317D01*
X-4929888Y-4803415D01*
X-4496576Y-4370105D01*
X-4473683Y-4351317D01*
X-4398704Y-4259955D01*
X-4342990Y-4155721D01*
X-4308682Y-4042621D01*
X-4300000Y-3954474D01*
X-4300000Y-3954467D01*
X-4297098Y-3925001D01*
X-4300000Y-3895535D01*
X-4300000Y-2279473D01*
X-4297097Y-2249999D01*
X-4308682Y-2132379D01*
X-4342990Y-2019280D01*
X-4342990Y-2019279D01*
X-4398704Y-1915045D01*
X-4473683Y-1823683D01*
X-4496580Y-1804892D01*
X-7150000Y848527D01*
X-7150000Y933718D01*
X-7182665Y1097936D01*
X-7246740Y1252626D01*
X-7339762Y1391844D01*
X-7458156Y1510238D01*
X-7597374Y1603260D01*
X-7752064Y1667335D01*
X-7916282Y1700000D01*
X-8083718Y1700000D01*
X-8247936Y1667335D01*
X-8313098Y1640344D01*
X-8344279Y1657010D01*
X-8457379Y1691318D01*
X-8545526Y1700000D01*
X-8575000Y1702903D01*
X-8604474Y1700000D01*
X-9111342Y1700000D01*
X-9149711Y1771783D01*
X-9224539Y1862961D01*
X-9315717Y1937789D01*
X-9419742Y1993392D01*
X-9532616Y2027632D01*
X-9650000Y2039193D01*
X-10600000Y2039193D01*
X-10717384Y2027632D01*
X-10830258Y1993392D01*
X-10934283Y1937789D01*
X-11025461Y1862961D01*
X-11100289Y1771783D01*
X-11135668Y1705594D01*
X-11169710Y1769282D01*
X-11244538Y1860460D01*
X-11335716Y1935288D01*
X-11439741Y1990891D01*
X-11552615Y2025131D01*
X-11669999Y2036692D01*
X-12619999Y2036692D01*
X-12737383Y2025131D01*
X-12850257Y1990891D01*
X-12954282Y1935288D01*
X-13045460Y1860460D01*
X-13120288Y1769282D01*
X-13175891Y1665257D01*
X-13210131Y1552383D01*
X-13221692Y1434999D01*
X-13221692Y759999D01*
X-13210131Y642615D01*
X-13175891Y529741D01*
X-13120288Y425716D01*
X-13045460Y334538D01*
X-12954282Y259710D01*
X-12850257Y204107D01*
X-12737383Y169867D01*
X-12619999Y158306D01*
X-11669999Y158306D01*
X-11552615Y169867D01*
X-11439741Y204107D01*
X-11335716Y259710D01*
X-11244538Y334538D01*
X-11169710Y425716D01*
X-11134331Y491905D01*
X-11100289Y428217D01*
X-11025461Y337039D01*
X-10934283Y262211D01*
X-10830258Y206608D01*
X-10717384Y172368D01*
X-10600000Y160807D01*
X-9650000Y160807D01*
X-9532616Y172368D01*
X-9419742Y206608D01*
X-9315717Y262211D01*
X-9224539Y337039D01*
X-9149711Y428217D01*
X-9111342Y500000D01*
X-8823528Y500000D01*
X-8770109Y446581D01*
X-8751317Y423683D01*
X-8720570Y398449D01*
X-8660238Y308156D01*
X-8541844Y189762D01*
X-8402626Y96740D01*
X-8247936Y32665D01*
X-8083718Y0D01*
X-8247936Y-32665D01*
X-8402626Y-96740D01*
X-8541844Y-189762D01*
X-8660238Y-308156D01*
X-8704901Y-375000D01*
X-9111342Y-375000D01*
X-9149711Y-303217D01*
X-9224539Y-212039D01*
X-9315717Y-137211D01*
X-9419742Y-81608D01*
X-9532616Y-47368D01*
X-9650000Y-35807D01*
X-10600000Y-35807D01*
X-10717384Y-47368D01*
X-10830258Y-81608D01*
X-10934283Y-137211D01*
X-11025461Y-212039D01*
X-11100289Y-303217D01*
X-11135668Y-369406D01*
X-11169710Y-305718D01*
X-11244538Y-214540D01*
X-11335716Y-139712D01*
X-11439741Y-84109D01*
X-11552615Y-49869D01*
X-11669999Y-38308D01*
X-12619999Y-38308D01*
X-12737383Y-49869D01*
X-12850257Y-84109D01*
X-12954282Y-139712D01*
X-13045460Y-214540D01*
X-13120288Y-305718D01*
X-13175891Y-409743D01*
X-13210131Y-522617D01*
X-13221692Y-640001D01*
X-13221692Y-1315001D01*
X-13210131Y-1432385D01*
X-13175891Y-1545259D01*
X-13120288Y-1649284D01*
X-13045460Y-1740462D01*
X-12954282Y-1815290D01*
X-12850257Y-1870893D01*
X-12737383Y-1905133D01*
X-12619999Y-1916694D01*
X-11669999Y-1916694D01*
X-11552615Y-1905133D01*
X-11439741Y-1870893D01*
X-11335716Y-1815290D01*
X-11244538Y-1740462D01*
X-11169710Y-1649284D01*
X-11134331Y-1583095D01*
X-11100289Y-1646783D01*
X-11025461Y-1737961D01*
X-10934283Y-1812789D01*
X-10830258Y-1868392D01*
X-10717384Y-1902632D01*
X-10600000Y-1914193D01*
X-9650000Y-1914193D01*
X-9532616Y-1902632D01*
X-9419742Y-1868392D01*
X-9315717Y-1812789D01*
X-9224539Y-1737961D01*
X-9149711Y-1646783D01*
X-9111342Y-1575000D01*
X-8444920Y-1575000D01*
X-8402626Y-1603260D01*
X-8247936Y-1667335D01*
X-8083718Y-1700000D01*
X-7916282Y-1700000D01*
X-7752064Y-1667335D01*
X-7597374Y-1603260D01*
X-7458156Y-1510238D01*
X-7339762Y-1391844D01*
X-7246740Y-1252626D01*
X-7182665Y-1097936D01*
X-7150000Y-933718D01*
X-7150000Y-848527D01*
X-5500000Y-2498528D01*
X-5499999Y-3676471D01*
X-5623528Y-3800000D01*
X-10970527Y-3800000D01*
X-11000001Y-3797097D01*
X-11104402Y-3807380D01*
X-11117621Y-3808682D01*
X-11230721Y-3842990D01*
X-11334955Y-3898704D01*
X-11426317Y-3973683D01*
X-11445106Y-3996578D01*
X-11848527Y-4400000D01*
X-15001472Y-4400000D01*
X-17239567Y-2161906D01*
X-17219741Y-2155892D01*
X-17115717Y-2100290D01*
X-17024539Y-2025461D01*
X-16949710Y-1934283D01*
X-16894108Y-1830259D01*
X-16859868Y-1717385D01*
X-16848307Y-1600001D01*
X-16848307Y-899999D01*
X-16859868Y-782615D01*
X-16894108Y-669741D01*
X-16949710Y-565717D01*
X-17024539Y-474539D01*
X-17115717Y-399710D01*
X-17219741Y-344108D01*
X-17332615Y-309868D01*
X-17449999Y-298307D01*
X-18350001Y-298307D01*
X-18467385Y-309868D01*
X-18580259Y-344108D01*
X-18684283Y-399710D01*
X-18775461Y-474539D01*
X-18850290Y-565717D01*
X-18905892Y-669741D01*
X-18940132Y-782615D01*
X-18951693Y-899999D01*
X-19966700Y-899999D01*
X-19966700Y2374788D01*
X-19925461Y2324539D01*
X-19834283Y2249710D01*
X-19730259Y2194108D01*
X-19617385Y2159868D01*
X-19500001Y2148307D01*
X-18833942Y2148307D01*
X-18846178Y2118767D01*
X-18875000Y1973869D01*
X-18875000Y1826131D01*
X-18846178Y1681233D01*
X-18789641Y1544742D01*
X-18776176Y1524590D01*
X-18850290Y1434283D01*
X-18905892Y1330259D01*
X-18940132Y1217385D01*
X-18951693Y1100001D01*
X-18951693Y399999D01*
X-18940132Y282615D01*
X-18905892Y169741D01*
X-18850290Y65717D01*
X-18775461Y-25461D01*
X-18684283Y-100290D01*
X-18580259Y-155892D01*
X-18467385Y-190132D01*
X-18350001Y-201693D01*
X-17449999Y-201693D01*
X-17332615Y-190132D01*
X-17219741Y-155892D01*
X-17115717Y-100290D01*
X-17024539Y-25461D01*
X-16949710Y65717D01*
X-16894108Y169741D01*
X-16859868Y282615D01*
X-16848307Y399999D01*
X-16848307Y1100001D01*
X-16859868Y1217385D01*
X-16894108Y1330259D01*
X-16949710Y1434283D01*
X-17024539Y1525461D01*
X-17115717Y1600290D01*
X-17219741Y1655892D01*
X-17297539Y1679492D01*
X-17308682Y1792621D01*
X-17325207Y1847097D01*
X-17342990Y1905721D01*
X-17375000Y1965608D01*
X-17375000Y1973869D01*
X-17403822Y2118767D01*
X-17416058Y2148307D01*
X-16799999Y2148307D01*
X-16682615Y2159868D01*
X-16569741Y2194108D01*
X-16465717Y2249710D01*
X-16374539Y2324539D01*
X-16299710Y2415717D01*
X-16283131Y2446734D01*
X-16173869Y2425000D01*
X-16026131Y2425000D01*
X-15881233Y2453822D01*
X-15744742Y2510359D01*
X-15621903Y2592437D01*
X-15517437Y2696903D01*
X-15435359Y2819742D01*
X-15378822Y2956233D01*
X-15350000Y3101131D01*
X-15350000Y3248869D01*
X-15378822Y3393767D01*
X-15435359Y3530258D01*
X-15517437Y3653097D01*
X-15614350Y3750010D01*
X-15479464Y3750010D01*
X-15449990Y3747107D01*
X-15420516Y3750010D01*
X-15332369Y3758692D01*
X-15219269Y3793000D01*
X-15115035Y3848714D01*
X-15023673Y3923693D01*
X-15004877Y3946596D01*
X-14551472Y4400000D01*
X-11223527Y4400000D01*
X-10270109Y3446581D01*
X-10251317Y3423683D01*
X-10159955Y3348704D01*
X-10065668Y3298307D01*
X-10055721Y3292990D01*
X-9942621Y3258681D01*
X-9825000Y3247097D01*
X-9795524Y3250000D01*
X-8004474Y3250000D01*
X-7975000Y3247097D01*
X-7945526Y3250000D01*
X-7857379Y3258682D01*
X-7744279Y3292990D01*
X-7640045Y3348704D01*
X-7548683Y3423683D01*
X-7529887Y3446585D01*
X-7176472Y3800000D01*
X-6629344Y3800000D01*
X-6627632Y3782616D01*
X-6593392Y3669742D01*
X-6537789Y3565717D01*
X-6473598Y3487500D01*
X-6537789Y3409283D01*
X-6593392Y3305258D01*
X-6627632Y3192384D01*
X-6639193Y3075000D01*
X-6639193Y2125000D01*
X-6627632Y2007616D01*
X-6593392Y1894742D01*
X-6537789Y1790717D01*
X-6462961Y1699539D01*
X-6371783Y1624711D01*
X-6267758Y1569108D01*
X-6154884Y1534868D01*
X-6037500Y1523307D01*
X-5621834Y1523307D01*
X-3645109Y-453419D01*
X-3626317Y-476317D01*
X-3534955Y-551296D01*
X-3430721Y-607010D01*
X-3321814Y-640046D01*
X-3317621Y-641318D01*
X-3200000Y-652903D01*
X-3170526Y-650000D01*
X-2454474Y-650000D01*
X-2425000Y-652903D01*
X-2395526Y-650000D01*
X-2307379Y-641318D01*
X-2299678Y-638982D01*
X-2325000Y-766282D01*
X-2325000Y-933718D01*
X-2292335Y-1097936D01*
X-2228260Y-1252626D01*
X-2135238Y-1391844D01*
X-2016844Y-1510238D01*
X-1877626Y-1603260D01*
X-1722936Y-1667335D01*
X-1558718Y-1700000D01*
X-1391282Y-1700000D01*
X-1227064Y-1667335D01*
X-1072374Y-1603260D01*
X-933156Y-1510238D01*
X-814762Y-1391844D01*
X-721740Y-1252626D01*
X-657665Y-1097936D01*
X-625000Y-933718D01*
X-625000Y-766282D01*
X-657665Y-602064D01*
X-721740Y-447374D01*
X-814762Y-308156D01*
X-933156Y-189762D01*
X-1072374Y-96740D01*
X-1227064Y-32665D01*
X-1391282Y0D01*
X-1526472Y0D01*
X-1501472Y25000D01*
X-1416282Y25000D01*
X-1252064Y57665D01*
X-1097374Y121740D01*
X-958156Y214762D01*
X-839762Y333156D01*
X-746740Y472374D01*
X-682665Y627064D01*
X-650000Y791282D01*
X-650000Y958718D01*
X-682665Y1122936D01*
X-746740Y1277626D01*
X-839762Y1416844D01*
X-958156Y1535238D01*
X-1097374Y1628260D01*
X-1252064Y1692335D01*
X-1416282Y1725000D01*
X-1583718Y1725000D01*
X-1747936Y1692335D01*
X-1902626Y1628260D01*
X-2041844Y1535238D01*
X-2050000Y1527082D01*
X-2050000Y1648869D01*
X-2078822Y1793767D01*
X-2135359Y1930258D01*
X-2217437Y2053097D01*
X-2321903Y2157563D01*
X-2444742Y2239641D01*
X-2581233Y2296178D01*
X-2685807Y2316979D01*
X-2685807Y3075000D01*
X-2697368Y3192384D01*
X-2731608Y3305258D01*
X-2787211Y3409283D01*
X-2851402Y3487500D01*
X-2787211Y3565717D01*
X-2731608Y3669742D01*
X-2697368Y3782616D01*
X-2685807Y3900000D01*
X-2685807Y4850000D01*
X-2697368Y4967384D01*
X-2731608Y5080258D01*
X-2787211Y5184283D01*
X-2862039Y5275461D01*
X-2953217Y5350289D01*
X-3057242Y5405892D01*
X-3170116Y5440132D01*
X-3287500Y5451693D01*
X-3962500Y5451693D01*
X-4079884Y5440132D01*
X-4192758Y5405892D01*
X-4296783Y5350289D01*
X-4387961Y5275461D01*
X-4462789Y5184283D01*
X-4518392Y5080258D01*
X-4552632Y4967384D01*
X-4564193Y4850000D01*
X-4564193Y3900000D01*
X-4552632Y3782616D01*
X-4518392Y3669742D01*
X-4462789Y3565717D01*
X-4398598Y3487500D01*
X-4462789Y3409283D01*
X-4518392Y3305258D01*
X-4552632Y3192384D01*
X-4564193Y3075000D01*
X-4564193Y2162720D01*
X-4760807Y2359334D01*
X-4760807Y3075000D01*
X-4772368Y3192384D01*
X-4806608Y3305258D01*
X-4862211Y3409283D01*
X-4926402Y3487500D01*
X-4862211Y3565717D01*
X-4806608Y3669742D01*
X-4772368Y3782616D01*
X-4760807Y3900000D01*
X-4760807Y4850000D01*
X-4772368Y4967384D01*
X-4806608Y5080258D01*
X-4862211Y5184283D01*
X-4937039Y5275461D01*
X-5028217Y5350289D01*
X-5132242Y5405892D01*
X-5245116Y5440132D01*
X-5362500Y5451693D01*
X-6037500Y5451693D01*
X-6154884Y5440132D01*
X-6267758Y5405892D01*
X-6371783Y5350289D01*
X-6462961Y5275461D01*
X-6537789Y5184283D01*
X-6593392Y5080258D01*
X-6617738Y5000000D01*
X-7395535Y5000000D01*
X-7425001Y5002902D01*
X-7454467Y5000000D01*
X-7454474Y5000000D01*
X-7531360Y4992427D01*
X-7542622Y4991318D01*
X-7576930Y4980911D01*
X-7655721Y4957010D01*
X-7759955Y4901296D01*
X-7851317Y4826317D01*
X-7870105Y4803424D01*
X-8223528Y4450000D01*
X-9576472Y4450000D01*
X-10529887Y5403414D01*
X-10548683Y5426317D01*
X-10640045Y5501296D01*
X-10744279Y5557010D01*
X-10857379Y5591318D01*
X-10945526Y5600000D01*
X-10975000Y5602903D01*
X-11004474Y5600000D01*
X-14770526Y5600000D01*
X-14800000Y5602903D01*
X-14829474Y5600000D01*
X-14917621Y5591318D01*
X-15030721Y5557010D01*
X-15134955Y5501296D01*
X-15226317Y5426317D01*
X-15245109Y5403419D01*
X-15698517Y4950010D01*
X-17970516Y4950010D01*
X-17999990Y4952913D01*
X-18029464Y4950010D01*
X-18117611Y4941328D01*
X-18230711Y4907020D01*
X-18334945Y4851306D01*
X-18426307Y4776327D01*
X-18445096Y4753432D01*
X-18946835Y4251693D01*
X-19500001Y4251693D01*
X-19617385Y4240132D01*
X-19730259Y4205892D01*
X-19834283Y4150290D01*
X-19925461Y4075461D01*
X-19966700Y4025212D01*
X-19966700Y7925000D01*
X-5429138Y7925000D01*
X-508299Y3386030D01*
G37*
%TD.AperFunction*%
%TD*%
M02*
