%TF.GenerationSoftware,KiCad,Pcbnew,(5.1.9)-1*%
%TF.CreationDate,2021-08-28T05:28:07+03:00*%
%TF.ProjectId,LED_Head_001,4c45445f-4865-4616-945f-3030312e6b69,rev?*%
%TF.SameCoordinates,Original*%
%TF.FileFunction,Legend,Top*%
%TF.FilePolarity,Positive*%
%FSLAX46Y46*%
G04 Gerber Fmt 4.6, Leading zero omitted, Abs format (unit mm)*
G04 Created by KiCad (PCBNEW (5.1.9)-1) date 2021-08-28 05:28:07*
%MOMM*%
%LPD*%
G01*
G04 APERTURE LIST*
%ADD10C,0.120000*%
%ADD11C,0.150000*%
G04 APERTURE END LIST*
D10*
X-6604000Y-5334000D02*
X-6096000Y-5334000D01*
X-6350000Y-5588000D02*
X-6350000Y-5080000D01*
X-6350000Y-5334000D02*
X-5842000Y-5334000D01*
X-6096000Y-5588000D02*
X-6096000Y-5080000D01*
X-16453700Y6850000D02*
X-15945700Y6850000D01*
X-16199700Y6596000D02*
X-16199700Y7104000D01*
X-7366000Y4318000D02*
X-6858000Y4318000D01*
X-7112000Y4064000D02*
X-7112000Y4572000D01*
X-7620000Y4318000D02*
X-7112000Y4318000D01*
X-7366000Y4064000D02*
X-7366000Y4572000D01*
X-7366000Y4064000D02*
X-7366000Y4572000D01*
X-7620000Y4318000D02*
X-7112000Y4318000D01*
X-12446000Y2286000D02*
X-11938000Y2286000D01*
X-12192000Y2032000D02*
X-12192000Y2540000D01*
X-10414000Y2540000D02*
X-9906000Y2540000D01*
X-10160000Y2286000D02*
X-10160000Y2794000D01*
X-12446000Y2540000D02*
X-11938000Y2540000D01*
X-12192000Y2286000D02*
X-12192000Y2794000D01*
X-7366000Y1016000D02*
X-6858000Y1016000D01*
X-7112000Y762000D02*
X-7112000Y1270000D01*
X-2540000Y762000D02*
X-2032000Y762000D01*
X-2286000Y508000D02*
X-2286000Y1016000D01*
X-9398000Y-762000D02*
X-8890000Y-762000D01*
X-9144000Y-1016000D02*
X-9144000Y-508000D01*
X-7366000Y-1778000D02*
X-6858000Y-1778000D01*
X-7112000Y-2032000D02*
X-7112000Y-1524000D01*
X-7112000Y-1778000D02*
X-6604000Y-1778000D01*
X-6858000Y-2032000D02*
X-6858000Y-1524000D01*
X-2794000Y-1016000D02*
X-2286000Y-1016000D01*
X-2540000Y-1270000D02*
X-2540000Y-762000D01*
X-9398000Y-1016000D02*
X-8890000Y-1016000D01*
X-9144000Y-1270000D02*
X-9144000Y-762000D01*
X-2540000Y-254000D02*
X-2032000Y-254000D01*
X-2286000Y-508000D02*
X-2286000Y0D01*
X-7366000Y1778000D02*
X-6858000Y1778000D01*
X-7112000Y1524000D02*
X-7112000Y2032000D01*
X-11684000Y3048000D02*
X-11176000Y3048000D01*
X-11430000Y2794000D02*
X-11430000Y3302000D01*
X-500000Y-500000D02*
X-10000000Y-500000D01*
X-500000Y500000D02*
X-10000000Y500000D01*
%TO.C,D1*%
X-19691700Y750000D02*
X-19691700Y-1850000D01*
X-19691700Y-1850000D02*
X-18691700Y-1850000D01*
X-15991700Y750000D02*
X-15991700Y-1850000D01*
X-15991700Y-1850000D02*
X-16991700Y-1850000D01*
%TO.C,D2*%
X-6691700Y4850000D02*
X-5691700Y4850000D01*
X-6691700Y2250000D02*
X-6691700Y4850000D01*
X-2991700Y4850000D02*
X-3991700Y4850000D01*
X-2991700Y2250000D02*
X-2991700Y4850000D01*
%TO.C,D3*%
X-11991700Y-3150000D02*
X-11991700Y-4150000D01*
X-14591700Y-3150000D02*
X-11991700Y-3150000D01*
X-11991700Y-6850000D02*
X-11991700Y-5850000D01*
X-14591700Y-6850000D02*
X-11991700Y-6850000D01*
%TO.C,D4*%
X-13091700Y6850000D02*
X-15691700Y6850000D01*
X-15691700Y6850000D02*
X-15691700Y5850000D01*
X-13091700Y3150000D02*
X-15691700Y3150000D01*
X-15691700Y3150000D02*
X-15691700Y4150000D01*
%TO.C,D5*%
X-2991700Y-3750000D02*
X-2991700Y-1150000D01*
X-2991700Y-1150000D02*
X-3991700Y-1150000D01*
X-6691700Y-3750000D02*
X-6691700Y-1150000D01*
X-6691700Y-1150000D02*
X-5691700Y-1150000D01*
%TO.C,D1*%
D11*
X-20139319Y-738095D02*
X-21139319Y-738095D01*
X-21139319Y-499999D01*
X-21091700Y-357142D01*
X-20996461Y-261904D01*
X-20901223Y-214285D01*
X-20710747Y-166666D01*
X-20567890Y-166666D01*
X-20377414Y-214285D01*
X-20282176Y-261904D01*
X-20186938Y-357142D01*
X-20139319Y-500000D01*
X-20139319Y-738095D01*
X-20139319Y785714D02*
X-20139319Y214285D01*
X-20139319Y500000D02*
X-21139319Y500000D01*
X-20996461Y404761D01*
X-20901223Y309523D01*
X-20853604Y214285D01*
%TO.C,D2*%
X-1639319Y2261904D02*
X-2639319Y2261904D01*
X-2639319Y2500000D01*
X-2591700Y2642857D01*
X-2496461Y2738095D01*
X-2401223Y2785714D01*
X-2210747Y2833333D01*
X-2067890Y2833333D01*
X-1877414Y2785714D01*
X-1782176Y2738095D01*
X-1686938Y2642857D01*
X-1639319Y2500000D01*
X-1639319Y2261904D01*
X-2544080Y3214285D02*
X-2591700Y3261904D01*
X-2639319Y3357142D01*
X-2639319Y3595238D01*
X-2591700Y3690476D01*
X-2544080Y3738095D01*
X-2448842Y3785714D01*
X-2353604Y3785714D01*
X-2210747Y3738095D01*
X-1639319Y3166666D01*
X-1639319Y3785714D01*
%TO.C,D3*%
X-14579795Y-8202380D02*
X-14579795Y-7202380D01*
X-14341700Y-7202380D01*
X-14198842Y-7250000D01*
X-14103604Y-7345238D01*
X-14055985Y-7440476D01*
X-14008366Y-7630952D01*
X-14008366Y-7773809D01*
X-14055985Y-7964285D01*
X-14103604Y-8059523D01*
X-14198842Y-8154761D01*
X-14341700Y-8202380D01*
X-14579795Y-8202380D01*
X-13675033Y-7202380D02*
X-13055985Y-7202380D01*
X-13389319Y-7583333D01*
X-13246461Y-7583333D01*
X-13151223Y-7630952D01*
X-13103604Y-7678571D01*
X-13055985Y-7773809D01*
X-13055985Y-8011904D01*
X-13103604Y-8107142D01*
X-13151223Y-8154761D01*
X-13246461Y-8202380D01*
X-13532176Y-8202380D01*
X-13627414Y-8154761D01*
X-13675033Y-8107142D01*
%TO.C,D4*%
X-14579795Y7297619D02*
X-14579795Y8297619D01*
X-14341700Y8297619D01*
X-14198842Y8250000D01*
X-14103604Y8154761D01*
X-14055985Y8059523D01*
X-14008366Y7869047D01*
X-14008366Y7726190D01*
X-14055985Y7535714D01*
X-14103604Y7440476D01*
X-14198842Y7345238D01*
X-14341700Y7297619D01*
X-14579795Y7297619D01*
X-13151223Y7964285D02*
X-13151223Y7297619D01*
X-13389319Y8345238D02*
X-13627414Y7630952D01*
X-13008366Y7630952D01*
%TO.C,D5*%
X-1639319Y-3738095D02*
X-2639319Y-3738095D01*
X-2639319Y-3500000D01*
X-2591700Y-3357142D01*
X-2496461Y-3261904D01*
X-2401223Y-3214285D01*
X-2210747Y-3166666D01*
X-2067890Y-3166666D01*
X-1877414Y-3214285D01*
X-1782176Y-3261904D01*
X-1686938Y-3357142D01*
X-1639319Y-3500000D01*
X-1639319Y-3738095D01*
X-2639319Y-2261904D02*
X-2639319Y-2738095D01*
X-2163128Y-2785714D01*
X-2210747Y-2738095D01*
X-2258366Y-2642857D01*
X-2258366Y-2404761D01*
X-2210747Y-2309523D01*
X-2163128Y-2261904D01*
X-2067890Y-2214285D01*
X-1829795Y-2214285D01*
X-1734557Y-2261904D01*
X-1686938Y-2309523D01*
X-1639319Y-2404761D01*
X-1639319Y-2642857D01*
X-1686938Y-2738095D01*
X-1734557Y-2785714D01*
%TO.C,J1*%
X-10747333Y2579619D02*
X-10747333Y1865333D01*
X-10794952Y1722476D01*
X-10890190Y1627238D01*
X-11033047Y1579619D01*
X-11128285Y1579619D01*
X-9747333Y1579619D02*
X-10318761Y1579619D01*
X-10033047Y1579619D02*
X-10033047Y2579619D01*
X-10128285Y2436761D01*
X-10223523Y2341523D01*
X-10318761Y2293904D01*
%TO.C,J2*%
X-8033333Y822619D02*
X-8033333Y108333D01*
X-8080952Y-34523D01*
X-8176190Y-129761D01*
X-8319047Y-177380D01*
X-8414285Y-177380D01*
X-7604761Y727380D02*
X-7557142Y775000D01*
X-7461904Y822619D01*
X-7223809Y822619D01*
X-7128571Y775000D01*
X-7080952Y727380D01*
X-7033333Y632142D01*
X-7033333Y536904D01*
X-7080952Y394047D01*
X-7652380Y-177380D01*
X-7033333Y-177380D01*
%TO.C,J3*%
X-11001333Y-1230380D02*
X-11001333Y-1944666D01*
X-11048952Y-2087523D01*
X-11144190Y-2182761D01*
X-11287047Y-2230380D01*
X-11382285Y-2230380D01*
X-10620380Y-1230380D02*
X-10001333Y-1230380D01*
X-10334666Y-1611333D01*
X-10191809Y-1611333D01*
X-10096571Y-1658952D01*
X-10048952Y-1706571D01*
X-10001333Y-1801809D01*
X-10001333Y-2039904D01*
X-10048952Y-2135142D01*
X-10096571Y-2182761D01*
X-10191809Y-2230380D01*
X-10477523Y-2230380D01*
X-10572761Y-2182761D01*
X-10620380Y-2135142D01*
%TO.C,J4*%
X-1608333Y1072619D02*
X-1608333Y358333D01*
X-1655952Y215476D01*
X-1751190Y120238D01*
X-1894047Y72619D01*
X-1989285Y72619D01*
X-703571Y739285D02*
X-703571Y72619D01*
X-941666Y1120238D02*
X-1179761Y405952D01*
X-560714Y405952D01*
%TO.C,J5*%
X-18675033Y6047619D02*
X-18675033Y5333333D01*
X-18722652Y5190476D01*
X-18817890Y5095238D01*
X-18960747Y5047619D01*
X-19055985Y5047619D01*
X-17722652Y6047619D02*
X-18198842Y6047619D01*
X-18246461Y5571428D01*
X-18198842Y5619047D01*
X-18103604Y5666666D01*
X-17865509Y5666666D01*
X-17770271Y5619047D01*
X-17722652Y5571428D01*
X-17675033Y5476190D01*
X-17675033Y5238095D01*
X-17722652Y5142857D01*
X-17770271Y5095238D01*
X-17865509Y5047619D01*
X-18103604Y5047619D01*
X-18198842Y5095238D01*
X-18246461Y5142857D01*
%TO.C,J6*%
X-9425033Y6297619D02*
X-9425033Y5583333D01*
X-9472652Y5440476D01*
X-9567890Y5345238D01*
X-9710747Y5297619D01*
X-9805985Y5297619D01*
X-8520271Y6297619D02*
X-8710747Y6297619D01*
X-8805985Y6250000D01*
X-8853604Y6202380D01*
X-8948842Y6059523D01*
X-8996461Y5869047D01*
X-8996461Y5488095D01*
X-8948842Y5392857D01*
X-8901223Y5345238D01*
X-8805985Y5297619D01*
X-8615509Y5297619D01*
X-8520271Y5345238D01*
X-8472652Y5392857D01*
X-8425033Y5488095D01*
X-8425033Y5726190D01*
X-8472652Y5821428D01*
X-8520271Y5869047D01*
X-8615509Y5916666D01*
X-8805985Y5916666D01*
X-8901223Y5869047D01*
X-8948842Y5821428D01*
X-8996461Y5726190D01*
%TO.C,J7*%
X-9425033Y-6202380D02*
X-9425033Y-6916666D01*
X-9472652Y-7059523D01*
X-9567890Y-7154761D01*
X-9710747Y-7202380D01*
X-9805985Y-7202380D01*
X-9044080Y-6202380D02*
X-8377414Y-6202380D01*
X-8805985Y-7202380D01*
%TO.C,J8*%
X-18675033Y-5952380D02*
X-18675033Y-6666666D01*
X-18722652Y-6809523D01*
X-18817890Y-6904761D01*
X-18960747Y-6952380D01*
X-19055985Y-6952380D01*
X-18055985Y-6380952D02*
X-18151223Y-6333333D01*
X-18198842Y-6285714D01*
X-18246461Y-6190476D01*
X-18246461Y-6142857D01*
X-18198842Y-6047619D01*
X-18151223Y-6000000D01*
X-18055985Y-5952380D01*
X-17865509Y-5952380D01*
X-17770271Y-6000000D01*
X-17722652Y-6047619D01*
X-17675033Y-6142857D01*
X-17675033Y-6190476D01*
X-17722652Y-6285714D01*
X-17770271Y-6333333D01*
X-17865509Y-6380952D01*
X-18055985Y-6380952D01*
X-18151223Y-6428571D01*
X-18198842Y-6476190D01*
X-18246461Y-6571428D01*
X-18246461Y-6761904D01*
X-18198842Y-6857142D01*
X-18151223Y-6904761D01*
X-18055985Y-6952380D01*
X-17865509Y-6952380D01*
X-17770271Y-6904761D01*
X-17722652Y-6857142D01*
X-17675033Y-6761904D01*
X-17675033Y-6571428D01*
X-17722652Y-6476190D01*
X-17770271Y-6428571D01*
X-17865509Y-6380952D01*
%TO.C,J9*%
X-6133333Y-5152380D02*
X-6133333Y-5866666D01*
X-6180952Y-6009523D01*
X-6276190Y-6104761D01*
X-6419047Y-6152380D01*
X-6514285Y-6152380D01*
X-5609523Y-6152380D02*
X-5419047Y-6152380D01*
X-5323809Y-6104761D01*
X-5276190Y-6057142D01*
X-5180952Y-5914285D01*
X-5133333Y-5723809D01*
X-5133333Y-5342857D01*
X-5180952Y-5247619D01*
X-5228571Y-5200000D01*
X-5323809Y-5152380D01*
X-5514285Y-5152380D01*
X-5609523Y-5200000D01*
X-5657142Y-5247619D01*
X-5704761Y-5342857D01*
X-5704761Y-5580952D01*
X-5657142Y-5676190D01*
X-5609523Y-5723809D01*
X-5514285Y-5771428D01*
X-5323809Y-5771428D01*
X-5228571Y-5723809D01*
X-5180952Y-5676190D01*
X-5133333Y-5580952D01*
%TO.C,J10*%
X-2084523Y-977380D02*
X-2084523Y-1691666D01*
X-2132142Y-1834523D01*
X-2227380Y-1929761D01*
X-2370238Y-1977380D01*
X-2465476Y-1977380D01*
X-1084523Y-1977380D02*
X-1655952Y-1977380D01*
X-1370238Y-1977380D02*
X-1370238Y-977380D01*
X-1465476Y-1120238D01*
X-1560714Y-1215476D01*
X-1655952Y-1263095D01*
X-465476Y-977380D02*
X-370238Y-977380D01*
X-275000Y-1025000D01*
X-227380Y-1072619D01*
X-179761Y-1167857D01*
X-132142Y-1358333D01*
X-132142Y-1596428D01*
X-179761Y-1786904D01*
X-227380Y-1882142D01*
X-275000Y-1929761D01*
X-370238Y-1977380D01*
X-465476Y-1977380D01*
X-560714Y-1929761D01*
X-608333Y-1882142D01*
X-655952Y-1786904D01*
X-703571Y-1596428D01*
X-703571Y-1358333D01*
X-655952Y-1167857D01*
X-608333Y-1072619D01*
X-560714Y-1025000D01*
X-465476Y-977380D01*
%TO.C,J11*%
X-2284523Y797619D02*
X-2284523Y83333D01*
X-2332142Y-59523D01*
X-2427380Y-154761D01*
X-2570238Y-202380D01*
X-2665476Y-202380D01*
X-1284523Y-202380D02*
X-1855952Y-202380D01*
X-1570238Y-202380D02*
X-1570238Y797619D01*
X-1665476Y654761D01*
X-1760714Y559523D01*
X-1855952Y511904D01*
X-332142Y-202380D02*
X-903571Y-202380D01*
X-617857Y-202380D02*
X-617857Y797619D01*
X-713095Y654761D01*
X-808333Y559523D01*
X-903571Y511904D01*
%TO.C,J12*%
X-2309523Y2522619D02*
X-2309523Y1808333D01*
X-2357142Y1665476D01*
X-2452380Y1570238D01*
X-2595238Y1522619D01*
X-2690476Y1522619D01*
X-1309523Y1522619D02*
X-1880952Y1522619D01*
X-1595238Y1522619D02*
X-1595238Y2522619D01*
X-1690476Y2379761D01*
X-1785714Y2284523D01*
X-1880952Y2236904D01*
X-928571Y2427380D02*
X-880952Y2475000D01*
X-785714Y2522619D01*
X-547619Y2522619D01*
X-452380Y2475000D01*
X-404761Y2427380D01*
X-357142Y2332142D01*
X-357142Y2236904D01*
X-404761Y2094047D01*
X-976190Y1522619D01*
X-357142Y1522619D01*
%TD*%
M02*
