%TF.GenerationSoftware,KiCad,Pcbnew,(5.1.9)-1*%
%TF.CreationDate,2021-08-28T05:28:07+03:00*%
%TF.ProjectId,LED_Head_001,4c45445f-4865-4616-945f-3030312e6b69,rev?*%
%TF.SameCoordinates,Original*%
%TF.FileFunction,Paste,Bot*%
%TF.FilePolarity,Positive*%
%FSLAX46Y46*%
G04 Gerber Fmt 4.6, Leading zero omitted, Abs format (unit mm)*
G04 Created by KiCad (PCBNEW (5.1.9)-1) date 2021-08-28 05:28:07*
%MOMM*%
%LPD*%
G01*
G04 APERTURE LIST*
G04 APERTURE END LIST*
%TO.C,C1*%
G36*
G01*
X-10600000Y1687500D02*
X-9650000Y1687500D01*
G75*
G02*
X-9400000Y1437500I0J-250000D01*
G01*
X-9400000Y762500D01*
G75*
G02*
X-9650000Y512500I-250000J0D01*
G01*
X-10600000Y512500D01*
G75*
G02*
X-10850000Y762500I0J250000D01*
G01*
X-10850000Y1437500D01*
G75*
G02*
X-10600000Y1687500I250000J0D01*
G01*
G37*
G36*
G01*
X-10600000Y-387500D02*
X-9650000Y-387500D01*
G75*
G02*
X-9400000Y-637500I0J-250000D01*
G01*
X-9400000Y-1312500D01*
G75*
G02*
X-9650000Y-1562500I-250000J0D01*
G01*
X-10600000Y-1562500D01*
G75*
G02*
X-10850000Y-1312500I0J250000D01*
G01*
X-10850000Y-637500D01*
G75*
G02*
X-10600000Y-387500I250000J0D01*
G01*
G37*
%TD*%
%TO.C,C2*%
G36*
G01*
X-3037500Y4850000D02*
X-3037500Y3900000D01*
G75*
G02*
X-3287500Y3650000I-250000J0D01*
G01*
X-3962500Y3650000D01*
G75*
G02*
X-4212500Y3900000I0J250000D01*
G01*
X-4212500Y4850000D01*
G75*
G02*
X-3962500Y5100000I250000J0D01*
G01*
X-3287500Y5100000D01*
G75*
G02*
X-3037500Y4850000I0J-250000D01*
G01*
G37*
G36*
G01*
X-5112500Y4850000D02*
X-5112500Y3900000D01*
G75*
G02*
X-5362500Y3650000I-250000J0D01*
G01*
X-6037500Y3650000D01*
G75*
G02*
X-6287500Y3900000I0J250000D01*
G01*
X-6287500Y4850000D01*
G75*
G02*
X-6037500Y5100000I250000J0D01*
G01*
X-5362500Y5100000D01*
G75*
G02*
X-5112500Y4850000I0J-250000D01*
G01*
G37*
%TD*%
%TO.C,C3*%
G36*
G01*
X-12619999Y-390001D02*
X-11669999Y-390001D01*
G75*
G02*
X-11419999Y-640001I0J-250000D01*
G01*
X-11419999Y-1315001D01*
G75*
G02*
X-11669999Y-1565001I-250000J0D01*
G01*
X-12619999Y-1565001D01*
G75*
G02*
X-12869999Y-1315001I0J250000D01*
G01*
X-12869999Y-640001D01*
G75*
G02*
X-12619999Y-390001I250000J0D01*
G01*
G37*
G36*
G01*
X-12619999Y1684999D02*
X-11669999Y1684999D01*
G75*
G02*
X-11419999Y1434999I0J-250000D01*
G01*
X-11419999Y759999D01*
G75*
G02*
X-11669999Y509999I-250000J0D01*
G01*
X-12619999Y509999D01*
G75*
G02*
X-12869999Y759999I0J250000D01*
G01*
X-12869999Y1434999D01*
G75*
G02*
X-12619999Y1684999I250000J0D01*
G01*
G37*
%TD*%
%TO.C,C4*%
G36*
G01*
X-5112500Y3075000D02*
X-5112500Y2125000D01*
G75*
G02*
X-5362500Y1875000I-250000J0D01*
G01*
X-6037500Y1875000D01*
G75*
G02*
X-6287500Y2125000I0J250000D01*
G01*
X-6287500Y3075000D01*
G75*
G02*
X-6037500Y3325000I250000J0D01*
G01*
X-5362500Y3325000D01*
G75*
G02*
X-5112500Y3075000I0J-250000D01*
G01*
G37*
G36*
G01*
X-3037500Y3075000D02*
X-3037500Y2125000D01*
G75*
G02*
X-3287500Y1875000I-250000J0D01*
G01*
X-3962500Y1875000D01*
G75*
G02*
X-4212500Y2125000I0J250000D01*
G01*
X-4212500Y3075000D01*
G75*
G02*
X-3962500Y3325000I250000J0D01*
G01*
X-3287500Y3325000D01*
G75*
G02*
X-3037500Y3075000I0J-250000D01*
G01*
G37*
%TD*%
%TO.C,R1*%
G36*
G01*
X-17750000Y2749999D02*
X-17750000Y3650001D01*
G75*
G02*
X-17500001Y3900000I249999J0D01*
G01*
X-16799999Y3900000D01*
G75*
G02*
X-16550000Y3650001I0J-249999D01*
G01*
X-16550000Y2749999D01*
G75*
G02*
X-16799999Y2500000I-249999J0D01*
G01*
X-17500001Y2500000D01*
G75*
G02*
X-17750000Y2749999I0J249999D01*
G01*
G37*
G36*
G01*
X-19750000Y2749999D02*
X-19750000Y3650001D01*
G75*
G02*
X-19500001Y3900000I249999J0D01*
G01*
X-18799999Y3900000D01*
G75*
G02*
X-18550000Y3650001I0J-249999D01*
G01*
X-18550000Y2749999D01*
G75*
G02*
X-18799999Y2500000I-249999J0D01*
G01*
X-19500001Y2500000D01*
G75*
G02*
X-19750000Y2749999I0J249999D01*
G01*
G37*
%TD*%
%TO.C,R2*%
G36*
G01*
X-18350001Y1350000D02*
X-17449999Y1350000D01*
G75*
G02*
X-17200000Y1100001I0J-249999D01*
G01*
X-17200000Y399999D01*
G75*
G02*
X-17449999Y150000I-249999J0D01*
G01*
X-18350001Y150000D01*
G75*
G02*
X-18600000Y399999I0J249999D01*
G01*
X-18600000Y1100001D01*
G75*
G02*
X-18350001Y1350000I249999J0D01*
G01*
G37*
G36*
G01*
X-18350001Y-650000D02*
X-17449999Y-650000D01*
G75*
G02*
X-17200000Y-899999I0J-249999D01*
G01*
X-17200000Y-1600001D01*
G75*
G02*
X-17449999Y-1850000I-249999J0D01*
G01*
X-18350001Y-1850000D01*
G75*
G02*
X-18600000Y-1600001I0J249999D01*
G01*
X-18600000Y-899999D01*
G75*
G02*
X-18350001Y-650000I249999J0D01*
G01*
G37*
%TD*%
M02*
