%TF.GenerationSoftware,KiCad,Pcbnew,(5.1.9)-1*%
%TF.CreationDate,2021-08-28T05:28:07+03:00*%
%TF.ProjectId,LED_Head_001,4c45445f-4865-4616-945f-3030312e6b69,rev?*%
%TF.SameCoordinates,Original*%
%TF.FileFunction,Copper,L1,Top*%
%TF.FilePolarity,Positive*%
%FSLAX46Y46*%
G04 Gerber Fmt 4.6, Leading zero omitted, Abs format (unit mm)*
G04 Created by KiCad (PCBNEW (5.1.9)-1) date 2021-08-28 05:28:07*
%MOMM*%
%LPD*%
G01*
G04 APERTURE LIST*
%TA.AperFunction,SMDPad,CuDef*%
%ADD10R,3.300000X0.500000*%
%TD*%
%TA.AperFunction,SMDPad,CuDef*%
%ADD11R,3.300000X1.300000*%
%TD*%
%TA.AperFunction,SMDPad,CuDef*%
%ADD12R,1.300000X3.300000*%
%TD*%
%TA.AperFunction,SMDPad,CuDef*%
%ADD13R,0.500000X3.300000*%
%TD*%
%TA.AperFunction,ComponentPad*%
%ADD14C,1.000000*%
%TD*%
%TA.AperFunction,ComponentPad*%
%ADD15C,1.400000*%
%TD*%
%TA.AperFunction,ComponentPad*%
%ADD16C,1.900000*%
%TD*%
%TA.AperFunction,ViaPad*%
%ADD17C,0.800000*%
%TD*%
%TA.AperFunction,Conductor*%
%ADD18C,0.500000*%
%TD*%
%TA.AperFunction,Conductor*%
%ADD19C,0.200000*%
%TD*%
%TA.AperFunction,Conductor*%
%ADD20C,0.100000*%
%TD*%
G04 APERTURE END LIST*
D10*
%TO.P,D1,2*%
%TO.N,Net-(D1-Pad2)*%
X-17841700Y1400000D03*
%TO.P,D1,1*%
%TO.N,Net-(D1-Pad1)*%
X-17841700Y-1400000D03*
D11*
%TO.P,D1,3*%
%TO.N,N/C*%
X-17841700Y0D03*
%TD*%
%TO.P,D2,3*%
%TO.N,N/C*%
X-4841700Y3000000D03*
D10*
%TO.P,D2,1*%
%TO.N,Net-(D2-Pad1)*%
X-4841700Y4400000D03*
%TO.P,D2,2*%
%TO.N,Net-(C2-Pad1)*%
X-4841700Y1600000D03*
%TD*%
D12*
%TO.P,D3,3*%
%TO.N,N/C*%
X-13841700Y-5000000D03*
D13*
%TO.P,D3,1*%
%TO.N,Net-(D3-Pad1)*%
X-12441700Y-5000000D03*
%TO.P,D3,2*%
%TO.N,Net-(D1-Pad1)*%
X-15241700Y-5000000D03*
%TD*%
%TO.P,D4,2*%
%TO.N,Net-(D2-Pad1)*%
X-12441700Y5000000D03*
%TO.P,D4,1*%
%TO.N,Net-(D4-Pad1)*%
X-15241700Y5000000D03*
D12*
%TO.P,D4,3*%
%TO.N,N/C*%
X-13841700Y5000000D03*
%TD*%
D10*
%TO.P,D5,2*%
%TO.N,Net-(D3-Pad1)*%
X-4841700Y-4400000D03*
%TO.P,D5,1*%
%TO.N,Net-(C1-Pad2)*%
X-4841700Y-1600000D03*
D11*
%TO.P,D5,3*%
%TO.N,N/C*%
X-4841700Y-3000000D03*
%TD*%
D14*
%TO.P,J1,1*%
%TO.N,Net-(C1-Pad1)*%
X-8000000Y850000D03*
%TD*%
%TO.P,J2,1*%
%TO.N,Net-(C1-Pad2)*%
X-8000000Y-850000D03*
%TD*%
D15*
%TO.P,J3,1*%
%TO.N,GND*%
X-5700000Y7200000D03*
%TD*%
%TO.P,J4,1*%
%TO.N,GND*%
X-1175000Y3025000D03*
%TD*%
D16*
%TO.P,J5,1*%
%TO.N,GND*%
X-18341700Y6000000D03*
%TD*%
%TO.P,J6,1*%
%TO.N,GND*%
X-9091700Y-6250000D03*
%TD*%
%TO.P,J7,1*%
%TO.N,GND*%
X-9091700Y6250000D03*
%TD*%
%TO.P,J8,1*%
%TO.N,GND*%
X-18341700Y-6000000D03*
%TD*%
D15*
%TO.P,J9,1*%
%TO.N,GND*%
X-5700000Y-7200000D03*
%TD*%
%TO.P,J10,1*%
%TO.N,GND*%
X-1175000Y-3025000D03*
%TD*%
D14*
%TO.P,J11,1*%
%TO.N,Net-(C2-Pad1)*%
X-1475000Y-850000D03*
%TD*%
%TO.P,J12,1*%
%TO.N,Net-(C2-Pad2)*%
X-1500000Y875000D03*
%TD*%
D17*
%TO.N,Net-(D4-Pad1)*%
X-16100000Y3175000D03*
%TO.N,GND*%
X-10575000Y-5325000D03*
X-10550000Y-3450000D03*
X-7400000Y-3325000D03*
X-7475000Y-5275000D03*
X-16150000Y-2825000D03*
X-17525000Y-4050000D03*
X-11150000Y5900000D03*
X-11325000Y4025000D03*
X-7350000Y3250000D03*
X-7250000Y5275000D03*
X-16450000Y5300000D03*
X-12525000Y7650000D03*
X-15075000Y7650000D03*
X-15225000Y-7700000D03*
X-12625000Y-7675000D03*
X-4700000Y-200000D03*
X-8575000Y2050000D03*
X-8650000Y-2225000D03*
X-5900000Y-75000D03*
X-13400000Y2400000D03*
X-13550000Y-2450000D03*
X-2175000Y4700000D03*
X-3675000Y5975000D03*
X-3350000Y-5675000D03*
X-2150000Y-4675000D03*
%TO.N,Net-(C2-Pad1)*%
X-2800000Y1575000D03*
%TO.N,Net-(D1-Pad2)*%
X-18125000Y1900000D03*
%TD*%
D18*
%TO.N,Net-(C1-Pad2)*%
X-4825000Y-1583300D02*
X-4841700Y-1600000D01*
X-4841700Y-1600000D02*
X-5625000Y-1600000D01*
X-5625000Y-1600000D02*
X-7075000Y-150000D01*
X-7300000Y-150000D02*
X-8000000Y-850000D01*
X-7075000Y-150000D02*
X-7300000Y-150000D01*
%TO.N,Net-(D1-Pad1)*%
X-17925000Y-1483300D02*
X-17841700Y-1400000D01*
X-17925000Y-2325000D02*
X-17925000Y-1483300D01*
X-15250000Y-5000000D02*
X-17925000Y-2325000D01*
X-15241700Y-5000000D02*
X-15250000Y-5000000D01*
%TO.N,Net-(D2-Pad1)*%
X-4841700Y4400000D02*
X-7425000Y4400000D01*
X-7425000Y4400000D02*
X-7975000Y3850000D01*
X-7975000Y3850000D02*
X-9800000Y3850000D01*
X-10950000Y5000000D02*
X-12441700Y5000000D01*
X-9800000Y3850000D02*
X-10950000Y5000000D01*
%TO.N,Net-(D3-Pad1)*%
X-4841700Y-4400000D02*
X-11000000Y-4400000D01*
X-11600000Y-5000000D02*
X-12441700Y-5000000D01*
X-11000000Y-4400000D02*
X-11600000Y-5000000D01*
%TO.N,Net-(D4-Pad1)*%
X-15241700Y3650000D02*
X-15675000Y3650000D01*
X-16100000Y3200000D02*
X-16100000Y3175000D01*
X-15700000Y3650000D02*
X-16000000Y3350000D01*
%TO.N,Net-(C2-Pad1)*%
X-1475000Y-850000D02*
X-2275000Y-50000D01*
X-3191700Y-50000D02*
X-4841700Y1600000D01*
X-2275000Y-50000D02*
X-3191700Y-50000D01*
X-4816700Y1575000D02*
X-4841700Y1600000D01*
X-2800000Y1575000D02*
X-4816700Y1575000D01*
%TO.N,Net-(D1-Pad2)*%
X-17875000Y1433300D02*
X-17841700Y1400000D01*
X-18100000Y1900000D02*
X-18100000Y1433300D01*
%TD*%
D19*
%TO.N,GND*%
X-558299Y3364128D02*
X-558300Y-3364129D01*
X-5448677Y-7875000D01*
X-19916700Y-7875000D01*
X-19916700Y1650000D01*
X-19893635Y1650000D01*
X-19893635Y1150000D01*
X-19885912Y1071586D01*
X-19863040Y996186D01*
X-19825897Y926697D01*
X-19803987Y900000D01*
X-19825897Y873303D01*
X-19863040Y803814D01*
X-19885912Y728414D01*
X-19893635Y650000D01*
X-19893635Y-650000D01*
X-19885912Y-728414D01*
X-19863040Y-803814D01*
X-19825897Y-873303D01*
X-19803987Y-900000D01*
X-19825897Y-926697D01*
X-19863040Y-996186D01*
X-19885912Y-1071586D01*
X-19893635Y-1150000D01*
X-19893635Y-1650000D01*
X-19885912Y-1728414D01*
X-19863040Y-1803814D01*
X-19825897Y-1873303D01*
X-19775911Y-1934211D01*
X-19715003Y-1984197D01*
X-19645514Y-2021340D01*
X-19570114Y-2044212D01*
X-19491700Y-2051935D01*
X-18575000Y-2051935D01*
X-18575000Y-2293079D01*
X-18578144Y-2325000D01*
X-18575000Y-2356921D01*
X-18575000Y-2356931D01*
X-18565595Y-2452421D01*
X-18528427Y-2574947D01*
X-18468070Y-2687868D01*
X-18417631Y-2749328D01*
X-18386843Y-2786843D01*
X-18362038Y-2807200D01*
X-15893635Y-5275604D01*
X-15893635Y-6650000D01*
X-15885912Y-6728414D01*
X-15863040Y-6803814D01*
X-15825897Y-6873303D01*
X-15775911Y-6934211D01*
X-15715003Y-6984197D01*
X-15645514Y-7021340D01*
X-15570114Y-7044212D01*
X-15491700Y-7051935D01*
X-14991700Y-7051935D01*
X-14913286Y-7044212D01*
X-14837886Y-7021340D01*
X-14768397Y-6984197D01*
X-14741700Y-6962287D01*
X-14715003Y-6984197D01*
X-14645514Y-7021340D01*
X-14570114Y-7044212D01*
X-14491700Y-7051935D01*
X-13191700Y-7051935D01*
X-13113286Y-7044212D01*
X-13037886Y-7021340D01*
X-12968397Y-6984197D01*
X-12941700Y-6962287D01*
X-12915003Y-6984197D01*
X-12845514Y-7021340D01*
X-12770114Y-7044212D01*
X-12691700Y-7051935D01*
X-12191700Y-7051935D01*
X-12113286Y-7044212D01*
X-12037886Y-7021340D01*
X-11968397Y-6984197D01*
X-11907489Y-6934211D01*
X-11857503Y-6873303D01*
X-11820360Y-6803814D01*
X-11797488Y-6728414D01*
X-11789765Y-6650000D01*
X-11789765Y-5650000D01*
X-11631921Y-5650000D01*
X-11600000Y-5653144D01*
X-11568079Y-5650000D01*
X-11568068Y-5650000D01*
X-11472578Y-5640595D01*
X-11350052Y-5603427D01*
X-11237132Y-5543070D01*
X-11138157Y-5461843D01*
X-11117800Y-5437038D01*
X-10730761Y-5050000D01*
X-6511347Y-5050000D01*
X-6491700Y-5051935D01*
X-3191700Y-5051935D01*
X-3113286Y-5044212D01*
X-3037886Y-5021340D01*
X-2968397Y-4984197D01*
X-2907489Y-4934211D01*
X-2857503Y-4873303D01*
X-2820360Y-4803814D01*
X-2797488Y-4728414D01*
X-2789765Y-4650000D01*
X-2789765Y-4150000D01*
X-2797488Y-4071586D01*
X-2820360Y-3996186D01*
X-2857503Y-3926697D01*
X-2879413Y-3900000D01*
X-2857503Y-3873303D01*
X-2820360Y-3803814D01*
X-2797488Y-3728414D01*
X-2789765Y-3650000D01*
X-2789765Y-2350000D01*
X-2797488Y-2271586D01*
X-2820360Y-2196186D01*
X-2857503Y-2126697D01*
X-2879413Y-2100000D01*
X-2857503Y-2073303D01*
X-2820360Y-2003814D01*
X-2797488Y-1928414D01*
X-2789765Y-1850000D01*
X-2789765Y-1350000D01*
X-2797488Y-1271586D01*
X-2820360Y-1196186D01*
X-2857503Y-1126697D01*
X-2907489Y-1065789D01*
X-2968397Y-1015803D01*
X-3037886Y-978660D01*
X-3113286Y-955788D01*
X-3191700Y-948065D01*
X-4679913Y-948065D01*
X-4697579Y-942706D01*
X-4825001Y-930156D01*
X-4952422Y-942706D01*
X-4970088Y-948065D01*
X-5357697Y-948065D01*
X-6592800Y287038D01*
X-6613157Y311843D01*
X-6712132Y393070D01*
X-6825052Y453427D01*
X-6947578Y490595D01*
X-7043068Y500000D01*
X-7043079Y500000D01*
X-7075000Y503144D01*
X-7106921Y500000D01*
X-7170821Y500000D01*
X-7134586Y587480D01*
X-7100000Y761358D01*
X-7100000Y938642D01*
X-7134586Y1112520D01*
X-7202430Y1276310D01*
X-7300924Y1423717D01*
X-7426283Y1549076D01*
X-7573690Y1647570D01*
X-7737480Y1715414D01*
X-7911358Y1750000D01*
X-8088642Y1750000D01*
X-8262520Y1715414D01*
X-8426310Y1647570D01*
X-8573717Y1549076D01*
X-8699076Y1423717D01*
X-8797570Y1276310D01*
X-8865414Y1112520D01*
X-8900000Y938642D01*
X-8900000Y761358D01*
X-8865414Y587480D01*
X-8797570Y423690D01*
X-8699076Y276283D01*
X-8573717Y150924D01*
X-8426310Y52430D01*
X-8299733Y0D01*
X-8426310Y-52430D01*
X-8573717Y-150924D01*
X-8699076Y-276283D01*
X-8797570Y-423690D01*
X-8865414Y-587480D01*
X-8900000Y-761358D01*
X-8900000Y-938642D01*
X-8865414Y-1112520D01*
X-8797570Y-1276310D01*
X-8699076Y-1423717D01*
X-8573717Y-1549076D01*
X-8426310Y-1647570D01*
X-8262520Y-1715414D01*
X-8088642Y-1750000D01*
X-7911358Y-1750000D01*
X-7737480Y-1715414D01*
X-7573690Y-1647570D01*
X-7426283Y-1549076D01*
X-7300924Y-1423717D01*
X-7202430Y-1276310D01*
X-7134586Y-1112520D01*
X-7117519Y-1026719D01*
X-6882826Y-1261412D01*
X-6885912Y-1271586D01*
X-6893635Y-1350000D01*
X-6893635Y-1850000D01*
X-6885912Y-1928414D01*
X-6863040Y-2003814D01*
X-6825897Y-2073303D01*
X-6803987Y-2100000D01*
X-6825897Y-2126697D01*
X-6863040Y-2196186D01*
X-6885912Y-2271586D01*
X-6893635Y-2350000D01*
X-6893635Y-3650000D01*
X-6885912Y-3728414D01*
X-6879364Y-3750000D01*
X-10968080Y-3750000D01*
X-11000001Y-3746856D01*
X-11031922Y-3750000D01*
X-11031932Y-3750000D01*
X-11127422Y-3759405D01*
X-11249948Y-3796573D01*
X-11362868Y-3856930D01*
X-11362870Y-3856931D01*
X-11362869Y-3856931D01*
X-11437041Y-3917802D01*
X-11437043Y-3917804D01*
X-11461843Y-3938157D01*
X-11482196Y-3962957D01*
X-11789765Y-4270527D01*
X-11789765Y-3350000D01*
X-11797488Y-3271586D01*
X-11820360Y-3196186D01*
X-11857503Y-3126697D01*
X-11907489Y-3065789D01*
X-11968397Y-3015803D01*
X-12037886Y-2978660D01*
X-12113286Y-2955788D01*
X-12191700Y-2948065D01*
X-12691700Y-2948065D01*
X-12770114Y-2955788D01*
X-12845514Y-2978660D01*
X-12915003Y-3015803D01*
X-12941700Y-3037713D01*
X-12968397Y-3015803D01*
X-13037886Y-2978660D01*
X-13113286Y-2955788D01*
X-13191700Y-2948065D01*
X-14491700Y-2948065D01*
X-14570114Y-2955788D01*
X-14645514Y-2978660D01*
X-14715003Y-3015803D01*
X-14741700Y-3037713D01*
X-14768397Y-3015803D01*
X-14837886Y-2978660D01*
X-14913286Y-2955788D01*
X-14991700Y-2948065D01*
X-15491700Y-2948065D01*
X-15570114Y-2955788D01*
X-15645514Y-2978660D01*
X-15715003Y-3015803D01*
X-15775911Y-3065789D01*
X-15825897Y-3126697D01*
X-15863040Y-3196186D01*
X-15885912Y-3271586D01*
X-15893635Y-3350000D01*
X-15893635Y-3437126D01*
X-17275000Y-2055762D01*
X-17275000Y-2051935D01*
X-16191700Y-2051935D01*
X-16113286Y-2044212D01*
X-16037886Y-2021340D01*
X-15968397Y-1984197D01*
X-15907489Y-1934211D01*
X-15857503Y-1873303D01*
X-15820360Y-1803814D01*
X-15797488Y-1728414D01*
X-15789765Y-1650000D01*
X-15789765Y-1150000D01*
X-15797488Y-1071586D01*
X-15820360Y-996186D01*
X-15857503Y-926697D01*
X-15879413Y-900000D01*
X-15857503Y-873303D01*
X-15820360Y-803814D01*
X-15797488Y-728414D01*
X-15789765Y-650000D01*
X-15789765Y650000D01*
X-15797488Y728414D01*
X-15820360Y803814D01*
X-15857503Y873303D01*
X-15879413Y900000D01*
X-15857503Y926697D01*
X-15820360Y996186D01*
X-15797488Y1071586D01*
X-15789765Y1150000D01*
X-15789765Y1650000D01*
X-15797488Y1728414D01*
X-15820360Y1803814D01*
X-15857503Y1873303D01*
X-15907489Y1934211D01*
X-15968397Y1984197D01*
X-16037886Y2021340D01*
X-16113286Y2044212D01*
X-16191700Y2051935D01*
X-17339549Y2051935D01*
X-17355743Y2133351D01*
X-17416049Y2278942D01*
X-17503599Y2409970D01*
X-17615030Y2521401D01*
X-17746058Y2608951D01*
X-17891649Y2669257D01*
X-18046207Y2700000D01*
X-18203793Y2700000D01*
X-18358351Y2669257D01*
X-18503942Y2608951D01*
X-18634970Y2521401D01*
X-18746401Y2409970D01*
X-18833951Y2278942D01*
X-18894257Y2133351D01*
X-18910451Y2051935D01*
X-19491700Y2051935D01*
X-19570114Y2044212D01*
X-19645514Y2021340D01*
X-19715003Y1984197D01*
X-19775911Y1934211D01*
X-19825897Y1873303D01*
X-19863040Y1803814D01*
X-19885912Y1728414D01*
X-19893635Y1650000D01*
X-19916700Y1650000D01*
X-19916700Y3253793D01*
X-16900000Y3253793D01*
X-16900000Y3096207D01*
X-16869257Y2941649D01*
X-16808951Y2796058D01*
X-16721401Y2665030D01*
X-16609970Y2553599D01*
X-16478942Y2466049D01*
X-16333351Y2405743D01*
X-16178793Y2375000D01*
X-16021207Y2375000D01*
X-15866649Y2405743D01*
X-15721058Y2466049D01*
X-15590030Y2553599D01*
X-15478599Y2665030D01*
X-15391049Y2796058D01*
X-15330743Y2941649D01*
X-15329467Y2948065D01*
X-14991700Y2948065D01*
X-14913286Y2955788D01*
X-14837886Y2978660D01*
X-14768397Y3015803D01*
X-14741700Y3037713D01*
X-14715003Y3015803D01*
X-14645514Y2978660D01*
X-14570114Y2955788D01*
X-14491700Y2948065D01*
X-13191700Y2948065D01*
X-13113286Y2955788D01*
X-13037886Y2978660D01*
X-12968397Y3015803D01*
X-12941700Y3037713D01*
X-12915003Y3015803D01*
X-12845514Y2978660D01*
X-12770114Y2955788D01*
X-12691700Y2948065D01*
X-12191700Y2948065D01*
X-12113286Y2955788D01*
X-12037886Y2978660D01*
X-11968397Y3015803D01*
X-11907489Y3065789D01*
X-11857503Y3126697D01*
X-11820360Y3196186D01*
X-11797488Y3271586D01*
X-11789765Y3350000D01*
X-11789765Y4350000D01*
X-11219238Y4350000D01*
X-10282196Y3412957D01*
X-10261843Y3388157D01*
X-10237043Y3367804D01*
X-10237040Y3367801D01*
X-10162868Y3306930D01*
X-10049948Y3246573D01*
X-9927422Y3209405D01*
X-9831932Y3200000D01*
X-9831924Y3200000D01*
X-9800000Y3196856D01*
X-9768076Y3200000D01*
X-8006921Y3200000D01*
X-7975000Y3196856D01*
X-7943079Y3200000D01*
X-7943068Y3200000D01*
X-7847578Y3209405D01*
X-7725052Y3246573D01*
X-7612132Y3306930D01*
X-7513157Y3388157D01*
X-7492800Y3412962D01*
X-7155761Y3750000D01*
X-6879364Y3750000D01*
X-6885912Y3728414D01*
X-6893635Y3650000D01*
X-6893635Y2350000D01*
X-6885912Y2271586D01*
X-6863040Y2196186D01*
X-6825897Y2126697D01*
X-6803987Y2100000D01*
X-6825897Y2073303D01*
X-6863040Y2003814D01*
X-6885912Y1928414D01*
X-6893635Y1850000D01*
X-6893635Y1350000D01*
X-6885912Y1271586D01*
X-6863040Y1196186D01*
X-6825897Y1126697D01*
X-6775911Y1065789D01*
X-6715003Y1015803D01*
X-6645514Y978660D01*
X-6570114Y955788D01*
X-6491700Y948065D01*
X-5109003Y948065D01*
X-3673896Y-487043D01*
X-3653543Y-511843D01*
X-3628743Y-532196D01*
X-3628741Y-532198D01*
X-3575863Y-575593D01*
X-3554568Y-593070D01*
X-3441648Y-653427D01*
X-3319122Y-690595D01*
X-3223632Y-700000D01*
X-3223622Y-700000D01*
X-3191701Y-703144D01*
X-3159780Y-700000D01*
X-2544238Y-700000D01*
X-2375000Y-869238D01*
X-2375000Y-938642D01*
X-2340414Y-1112520D01*
X-2272570Y-1276310D01*
X-2174076Y-1423717D01*
X-2048717Y-1549076D01*
X-1901310Y-1647570D01*
X-1737520Y-1715414D01*
X-1563642Y-1750000D01*
X-1386358Y-1750000D01*
X-1212480Y-1715414D01*
X-1048690Y-1647570D01*
X-901283Y-1549076D01*
X-775924Y-1423717D01*
X-677430Y-1276310D01*
X-609586Y-1112520D01*
X-575000Y-938642D01*
X-575000Y-761358D01*
X-609586Y-587480D01*
X-677430Y-423690D01*
X-775924Y-276283D01*
X-901283Y-150924D01*
X-1048690Y-52430D01*
X-1212480Y15414D01*
X-1219864Y16883D01*
X-1073690Y77430D01*
X-926283Y175924D01*
X-800924Y301283D01*
X-702430Y448690D01*
X-634586Y612480D01*
X-600000Y786358D01*
X-600000Y963642D01*
X-634586Y1137520D01*
X-702430Y1301310D01*
X-800924Y1448717D01*
X-926283Y1574076D01*
X-1073690Y1672570D01*
X-1237480Y1740414D01*
X-1411358Y1775000D01*
X-1588642Y1775000D01*
X-1762520Y1740414D01*
X-1926310Y1672570D01*
X-2000000Y1623332D01*
X-2000000Y1653793D01*
X-2030743Y1808351D01*
X-2091049Y1953942D01*
X-2178599Y2084970D01*
X-2290030Y2196401D01*
X-2421058Y2283951D01*
X-2566649Y2344257D01*
X-2721207Y2375000D01*
X-2789765Y2375000D01*
X-2789765Y3650000D01*
X-2797488Y3728414D01*
X-2820360Y3803814D01*
X-2857503Y3873303D01*
X-2879413Y3900000D01*
X-2857503Y3926697D01*
X-2820360Y3996186D01*
X-2797488Y4071586D01*
X-2789765Y4150000D01*
X-2789765Y4650000D01*
X-2797488Y4728414D01*
X-2820360Y4803814D01*
X-2857503Y4873303D01*
X-2907489Y4934211D01*
X-2968397Y4984197D01*
X-3037886Y5021340D01*
X-3113286Y5044212D01*
X-3191700Y5051935D01*
X-6491700Y5051935D01*
X-6511347Y5050000D01*
X-7393080Y5050000D01*
X-7425001Y5053144D01*
X-7456922Y5050000D01*
X-7456932Y5050000D01*
X-7552422Y5040595D01*
X-7674948Y5003427D01*
X-7787868Y4943070D01*
X-7787870Y4943069D01*
X-7787869Y4943069D01*
X-7862041Y4882198D01*
X-7862043Y4882196D01*
X-7886843Y4861843D01*
X-7907196Y4837043D01*
X-8244238Y4500000D01*
X-9530761Y4500000D01*
X-10467800Y5437038D01*
X-10488157Y5461843D01*
X-10587132Y5543070D01*
X-10700052Y5603427D01*
X-10822578Y5640595D01*
X-10918068Y5650000D01*
X-10918079Y5650000D01*
X-10950000Y5653144D01*
X-10981921Y5650000D01*
X-11789765Y5650000D01*
X-11789765Y6650000D01*
X-11797488Y6728414D01*
X-11820360Y6803814D01*
X-11857503Y6873303D01*
X-11907489Y6934211D01*
X-11968397Y6984197D01*
X-12037886Y7021340D01*
X-12113286Y7044212D01*
X-12191700Y7051935D01*
X-12691700Y7051935D01*
X-12770114Y7044212D01*
X-12845514Y7021340D01*
X-12915003Y6984197D01*
X-12941700Y6962287D01*
X-12968397Y6984197D01*
X-13037886Y7021340D01*
X-13113286Y7044212D01*
X-13191700Y7051935D01*
X-14491700Y7051935D01*
X-14570114Y7044212D01*
X-14645514Y7021340D01*
X-14715003Y6984197D01*
X-14741700Y6962287D01*
X-14768397Y6984197D01*
X-14837886Y7021340D01*
X-14913286Y7044212D01*
X-14991700Y7051935D01*
X-15491700Y7051935D01*
X-15570114Y7044212D01*
X-15645514Y7021340D01*
X-15715003Y6984197D01*
X-15775911Y6934211D01*
X-15825897Y6873303D01*
X-15863040Y6803814D01*
X-15885912Y6728414D01*
X-15893635Y6650000D01*
X-15893635Y4270509D01*
X-15949948Y4253427D01*
X-16062868Y4193069D01*
X-16137040Y4132198D01*
X-16322903Y3946335D01*
X-16333351Y3944257D01*
X-16478942Y3883951D01*
X-16609970Y3796401D01*
X-16721401Y3684970D01*
X-16808951Y3553942D01*
X-16869257Y3408351D01*
X-16900000Y3253793D01*
X-19916700Y3253793D01*
X-19916700Y7875000D01*
X-5448677Y7875000D01*
X-558299Y3364128D01*
%TA.AperFunction,Conductor*%
D20*
G36*
X-558299Y3364128D02*
G01*
X-558300Y-3364129D01*
X-5448677Y-7875000D01*
X-19916700Y-7875000D01*
X-19916700Y1650000D01*
X-19893635Y1650000D01*
X-19893635Y1150000D01*
X-19885912Y1071586D01*
X-19863040Y996186D01*
X-19825897Y926697D01*
X-19803987Y900000D01*
X-19825897Y873303D01*
X-19863040Y803814D01*
X-19885912Y728414D01*
X-19893635Y650000D01*
X-19893635Y-650000D01*
X-19885912Y-728414D01*
X-19863040Y-803814D01*
X-19825897Y-873303D01*
X-19803987Y-900000D01*
X-19825897Y-926697D01*
X-19863040Y-996186D01*
X-19885912Y-1071586D01*
X-19893635Y-1150000D01*
X-19893635Y-1650000D01*
X-19885912Y-1728414D01*
X-19863040Y-1803814D01*
X-19825897Y-1873303D01*
X-19775911Y-1934211D01*
X-19715003Y-1984197D01*
X-19645514Y-2021340D01*
X-19570114Y-2044212D01*
X-19491700Y-2051935D01*
X-18575000Y-2051935D01*
X-18575000Y-2293079D01*
X-18578144Y-2325000D01*
X-18575000Y-2356921D01*
X-18575000Y-2356931D01*
X-18565595Y-2452421D01*
X-18528427Y-2574947D01*
X-18468070Y-2687868D01*
X-18417631Y-2749328D01*
X-18386843Y-2786843D01*
X-18362038Y-2807200D01*
X-15893635Y-5275604D01*
X-15893635Y-6650000D01*
X-15885912Y-6728414D01*
X-15863040Y-6803814D01*
X-15825897Y-6873303D01*
X-15775911Y-6934211D01*
X-15715003Y-6984197D01*
X-15645514Y-7021340D01*
X-15570114Y-7044212D01*
X-15491700Y-7051935D01*
X-14991700Y-7051935D01*
X-14913286Y-7044212D01*
X-14837886Y-7021340D01*
X-14768397Y-6984197D01*
X-14741700Y-6962287D01*
X-14715003Y-6984197D01*
X-14645514Y-7021340D01*
X-14570114Y-7044212D01*
X-14491700Y-7051935D01*
X-13191700Y-7051935D01*
X-13113286Y-7044212D01*
X-13037886Y-7021340D01*
X-12968397Y-6984197D01*
X-12941700Y-6962287D01*
X-12915003Y-6984197D01*
X-12845514Y-7021340D01*
X-12770114Y-7044212D01*
X-12691700Y-7051935D01*
X-12191700Y-7051935D01*
X-12113286Y-7044212D01*
X-12037886Y-7021340D01*
X-11968397Y-6984197D01*
X-11907489Y-6934211D01*
X-11857503Y-6873303D01*
X-11820360Y-6803814D01*
X-11797488Y-6728414D01*
X-11789765Y-6650000D01*
X-11789765Y-5650000D01*
X-11631921Y-5650000D01*
X-11600000Y-5653144D01*
X-11568079Y-5650000D01*
X-11568068Y-5650000D01*
X-11472578Y-5640595D01*
X-11350052Y-5603427D01*
X-11237132Y-5543070D01*
X-11138157Y-5461843D01*
X-11117800Y-5437038D01*
X-10730761Y-5050000D01*
X-6511347Y-5050000D01*
X-6491700Y-5051935D01*
X-3191700Y-5051935D01*
X-3113286Y-5044212D01*
X-3037886Y-5021340D01*
X-2968397Y-4984197D01*
X-2907489Y-4934211D01*
X-2857503Y-4873303D01*
X-2820360Y-4803814D01*
X-2797488Y-4728414D01*
X-2789765Y-4650000D01*
X-2789765Y-4150000D01*
X-2797488Y-4071586D01*
X-2820360Y-3996186D01*
X-2857503Y-3926697D01*
X-2879413Y-3900000D01*
X-2857503Y-3873303D01*
X-2820360Y-3803814D01*
X-2797488Y-3728414D01*
X-2789765Y-3650000D01*
X-2789765Y-2350000D01*
X-2797488Y-2271586D01*
X-2820360Y-2196186D01*
X-2857503Y-2126697D01*
X-2879413Y-2100000D01*
X-2857503Y-2073303D01*
X-2820360Y-2003814D01*
X-2797488Y-1928414D01*
X-2789765Y-1850000D01*
X-2789765Y-1350000D01*
X-2797488Y-1271586D01*
X-2820360Y-1196186D01*
X-2857503Y-1126697D01*
X-2907489Y-1065789D01*
X-2968397Y-1015803D01*
X-3037886Y-978660D01*
X-3113286Y-955788D01*
X-3191700Y-948065D01*
X-4679913Y-948065D01*
X-4697579Y-942706D01*
X-4825001Y-930156D01*
X-4952422Y-942706D01*
X-4970088Y-948065D01*
X-5357697Y-948065D01*
X-6592800Y287038D01*
X-6613157Y311843D01*
X-6712132Y393070D01*
X-6825052Y453427D01*
X-6947578Y490595D01*
X-7043068Y500000D01*
X-7043079Y500000D01*
X-7075000Y503144D01*
X-7106921Y500000D01*
X-7170821Y500000D01*
X-7134586Y587480D01*
X-7100000Y761358D01*
X-7100000Y938642D01*
X-7134586Y1112520D01*
X-7202430Y1276310D01*
X-7300924Y1423717D01*
X-7426283Y1549076D01*
X-7573690Y1647570D01*
X-7737480Y1715414D01*
X-7911358Y1750000D01*
X-8088642Y1750000D01*
X-8262520Y1715414D01*
X-8426310Y1647570D01*
X-8573717Y1549076D01*
X-8699076Y1423717D01*
X-8797570Y1276310D01*
X-8865414Y1112520D01*
X-8900000Y938642D01*
X-8900000Y761358D01*
X-8865414Y587480D01*
X-8797570Y423690D01*
X-8699076Y276283D01*
X-8573717Y150924D01*
X-8426310Y52430D01*
X-8299733Y0D01*
X-8426310Y-52430D01*
X-8573717Y-150924D01*
X-8699076Y-276283D01*
X-8797570Y-423690D01*
X-8865414Y-587480D01*
X-8900000Y-761358D01*
X-8900000Y-938642D01*
X-8865414Y-1112520D01*
X-8797570Y-1276310D01*
X-8699076Y-1423717D01*
X-8573717Y-1549076D01*
X-8426310Y-1647570D01*
X-8262520Y-1715414D01*
X-8088642Y-1750000D01*
X-7911358Y-1750000D01*
X-7737480Y-1715414D01*
X-7573690Y-1647570D01*
X-7426283Y-1549076D01*
X-7300924Y-1423717D01*
X-7202430Y-1276310D01*
X-7134586Y-1112520D01*
X-7117519Y-1026719D01*
X-6882826Y-1261412D01*
X-6885912Y-1271586D01*
X-6893635Y-1350000D01*
X-6893635Y-1850000D01*
X-6885912Y-1928414D01*
X-6863040Y-2003814D01*
X-6825897Y-2073303D01*
X-6803987Y-2100000D01*
X-6825897Y-2126697D01*
X-6863040Y-2196186D01*
X-6885912Y-2271586D01*
X-6893635Y-2350000D01*
X-6893635Y-3650000D01*
X-6885912Y-3728414D01*
X-6879364Y-3750000D01*
X-10968080Y-3750000D01*
X-11000001Y-3746856D01*
X-11031922Y-3750000D01*
X-11031932Y-3750000D01*
X-11127422Y-3759405D01*
X-11249948Y-3796573D01*
X-11362868Y-3856930D01*
X-11362870Y-3856931D01*
X-11362869Y-3856931D01*
X-11437041Y-3917802D01*
X-11437043Y-3917804D01*
X-11461843Y-3938157D01*
X-11482196Y-3962957D01*
X-11789765Y-4270527D01*
X-11789765Y-3350000D01*
X-11797488Y-3271586D01*
X-11820360Y-3196186D01*
X-11857503Y-3126697D01*
X-11907489Y-3065789D01*
X-11968397Y-3015803D01*
X-12037886Y-2978660D01*
X-12113286Y-2955788D01*
X-12191700Y-2948065D01*
X-12691700Y-2948065D01*
X-12770114Y-2955788D01*
X-12845514Y-2978660D01*
X-12915003Y-3015803D01*
X-12941700Y-3037713D01*
X-12968397Y-3015803D01*
X-13037886Y-2978660D01*
X-13113286Y-2955788D01*
X-13191700Y-2948065D01*
X-14491700Y-2948065D01*
X-14570114Y-2955788D01*
X-14645514Y-2978660D01*
X-14715003Y-3015803D01*
X-14741700Y-3037713D01*
X-14768397Y-3015803D01*
X-14837886Y-2978660D01*
X-14913286Y-2955788D01*
X-14991700Y-2948065D01*
X-15491700Y-2948065D01*
X-15570114Y-2955788D01*
X-15645514Y-2978660D01*
X-15715003Y-3015803D01*
X-15775911Y-3065789D01*
X-15825897Y-3126697D01*
X-15863040Y-3196186D01*
X-15885912Y-3271586D01*
X-15893635Y-3350000D01*
X-15893635Y-3437126D01*
X-17275000Y-2055762D01*
X-17275000Y-2051935D01*
X-16191700Y-2051935D01*
X-16113286Y-2044212D01*
X-16037886Y-2021340D01*
X-15968397Y-1984197D01*
X-15907489Y-1934211D01*
X-15857503Y-1873303D01*
X-15820360Y-1803814D01*
X-15797488Y-1728414D01*
X-15789765Y-1650000D01*
X-15789765Y-1150000D01*
X-15797488Y-1071586D01*
X-15820360Y-996186D01*
X-15857503Y-926697D01*
X-15879413Y-900000D01*
X-15857503Y-873303D01*
X-15820360Y-803814D01*
X-15797488Y-728414D01*
X-15789765Y-650000D01*
X-15789765Y650000D01*
X-15797488Y728414D01*
X-15820360Y803814D01*
X-15857503Y873303D01*
X-15879413Y900000D01*
X-15857503Y926697D01*
X-15820360Y996186D01*
X-15797488Y1071586D01*
X-15789765Y1150000D01*
X-15789765Y1650000D01*
X-15797488Y1728414D01*
X-15820360Y1803814D01*
X-15857503Y1873303D01*
X-15907489Y1934211D01*
X-15968397Y1984197D01*
X-16037886Y2021340D01*
X-16113286Y2044212D01*
X-16191700Y2051935D01*
X-17339549Y2051935D01*
X-17355743Y2133351D01*
X-17416049Y2278942D01*
X-17503599Y2409970D01*
X-17615030Y2521401D01*
X-17746058Y2608951D01*
X-17891649Y2669257D01*
X-18046207Y2700000D01*
X-18203793Y2700000D01*
X-18358351Y2669257D01*
X-18503942Y2608951D01*
X-18634970Y2521401D01*
X-18746401Y2409970D01*
X-18833951Y2278942D01*
X-18894257Y2133351D01*
X-18910451Y2051935D01*
X-19491700Y2051935D01*
X-19570114Y2044212D01*
X-19645514Y2021340D01*
X-19715003Y1984197D01*
X-19775911Y1934211D01*
X-19825897Y1873303D01*
X-19863040Y1803814D01*
X-19885912Y1728414D01*
X-19893635Y1650000D01*
X-19916700Y1650000D01*
X-19916700Y3253793D01*
X-16900000Y3253793D01*
X-16900000Y3096207D01*
X-16869257Y2941649D01*
X-16808951Y2796058D01*
X-16721401Y2665030D01*
X-16609970Y2553599D01*
X-16478942Y2466049D01*
X-16333351Y2405743D01*
X-16178793Y2375000D01*
X-16021207Y2375000D01*
X-15866649Y2405743D01*
X-15721058Y2466049D01*
X-15590030Y2553599D01*
X-15478599Y2665030D01*
X-15391049Y2796058D01*
X-15330743Y2941649D01*
X-15329467Y2948065D01*
X-14991700Y2948065D01*
X-14913286Y2955788D01*
X-14837886Y2978660D01*
X-14768397Y3015803D01*
X-14741700Y3037713D01*
X-14715003Y3015803D01*
X-14645514Y2978660D01*
X-14570114Y2955788D01*
X-14491700Y2948065D01*
X-13191700Y2948065D01*
X-13113286Y2955788D01*
X-13037886Y2978660D01*
X-12968397Y3015803D01*
X-12941700Y3037713D01*
X-12915003Y3015803D01*
X-12845514Y2978660D01*
X-12770114Y2955788D01*
X-12691700Y2948065D01*
X-12191700Y2948065D01*
X-12113286Y2955788D01*
X-12037886Y2978660D01*
X-11968397Y3015803D01*
X-11907489Y3065789D01*
X-11857503Y3126697D01*
X-11820360Y3196186D01*
X-11797488Y3271586D01*
X-11789765Y3350000D01*
X-11789765Y4350000D01*
X-11219238Y4350000D01*
X-10282196Y3412957D01*
X-10261843Y3388157D01*
X-10237043Y3367804D01*
X-10237040Y3367801D01*
X-10162868Y3306930D01*
X-10049948Y3246573D01*
X-9927422Y3209405D01*
X-9831932Y3200000D01*
X-9831924Y3200000D01*
X-9800000Y3196856D01*
X-9768076Y3200000D01*
X-8006921Y3200000D01*
X-7975000Y3196856D01*
X-7943079Y3200000D01*
X-7943068Y3200000D01*
X-7847578Y3209405D01*
X-7725052Y3246573D01*
X-7612132Y3306930D01*
X-7513157Y3388157D01*
X-7492800Y3412962D01*
X-7155761Y3750000D01*
X-6879364Y3750000D01*
X-6885912Y3728414D01*
X-6893635Y3650000D01*
X-6893635Y2350000D01*
X-6885912Y2271586D01*
X-6863040Y2196186D01*
X-6825897Y2126697D01*
X-6803987Y2100000D01*
X-6825897Y2073303D01*
X-6863040Y2003814D01*
X-6885912Y1928414D01*
X-6893635Y1850000D01*
X-6893635Y1350000D01*
X-6885912Y1271586D01*
X-6863040Y1196186D01*
X-6825897Y1126697D01*
X-6775911Y1065789D01*
X-6715003Y1015803D01*
X-6645514Y978660D01*
X-6570114Y955788D01*
X-6491700Y948065D01*
X-5109003Y948065D01*
X-3673896Y-487043D01*
X-3653543Y-511843D01*
X-3628743Y-532196D01*
X-3628741Y-532198D01*
X-3575863Y-575593D01*
X-3554568Y-593070D01*
X-3441648Y-653427D01*
X-3319122Y-690595D01*
X-3223632Y-700000D01*
X-3223622Y-700000D01*
X-3191701Y-703144D01*
X-3159780Y-700000D01*
X-2544238Y-700000D01*
X-2375000Y-869238D01*
X-2375000Y-938642D01*
X-2340414Y-1112520D01*
X-2272570Y-1276310D01*
X-2174076Y-1423717D01*
X-2048717Y-1549076D01*
X-1901310Y-1647570D01*
X-1737520Y-1715414D01*
X-1563642Y-1750000D01*
X-1386358Y-1750000D01*
X-1212480Y-1715414D01*
X-1048690Y-1647570D01*
X-901283Y-1549076D01*
X-775924Y-1423717D01*
X-677430Y-1276310D01*
X-609586Y-1112520D01*
X-575000Y-938642D01*
X-575000Y-761358D01*
X-609586Y-587480D01*
X-677430Y-423690D01*
X-775924Y-276283D01*
X-901283Y-150924D01*
X-1048690Y-52430D01*
X-1212480Y15414D01*
X-1219864Y16883D01*
X-1073690Y77430D01*
X-926283Y175924D01*
X-800924Y301283D01*
X-702430Y448690D01*
X-634586Y612480D01*
X-600000Y786358D01*
X-600000Y963642D01*
X-634586Y1137520D01*
X-702430Y1301310D01*
X-800924Y1448717D01*
X-926283Y1574076D01*
X-1073690Y1672570D01*
X-1237480Y1740414D01*
X-1411358Y1775000D01*
X-1588642Y1775000D01*
X-1762520Y1740414D01*
X-1926310Y1672570D01*
X-2000000Y1623332D01*
X-2000000Y1653793D01*
X-2030743Y1808351D01*
X-2091049Y1953942D01*
X-2178599Y2084970D01*
X-2290030Y2196401D01*
X-2421058Y2283951D01*
X-2566649Y2344257D01*
X-2721207Y2375000D01*
X-2789765Y2375000D01*
X-2789765Y3650000D01*
X-2797488Y3728414D01*
X-2820360Y3803814D01*
X-2857503Y3873303D01*
X-2879413Y3900000D01*
X-2857503Y3926697D01*
X-2820360Y3996186D01*
X-2797488Y4071586D01*
X-2789765Y4150000D01*
X-2789765Y4650000D01*
X-2797488Y4728414D01*
X-2820360Y4803814D01*
X-2857503Y4873303D01*
X-2907489Y4934211D01*
X-2968397Y4984197D01*
X-3037886Y5021340D01*
X-3113286Y5044212D01*
X-3191700Y5051935D01*
X-6491700Y5051935D01*
X-6511347Y5050000D01*
X-7393080Y5050000D01*
X-7425001Y5053144D01*
X-7456922Y5050000D01*
X-7456932Y5050000D01*
X-7552422Y5040595D01*
X-7674948Y5003427D01*
X-7787868Y4943070D01*
X-7787870Y4943069D01*
X-7787869Y4943069D01*
X-7862041Y4882198D01*
X-7862043Y4882196D01*
X-7886843Y4861843D01*
X-7907196Y4837043D01*
X-8244238Y4500000D01*
X-9530761Y4500000D01*
X-10467800Y5437038D01*
X-10488157Y5461843D01*
X-10587132Y5543070D01*
X-10700052Y5603427D01*
X-10822578Y5640595D01*
X-10918068Y5650000D01*
X-10918079Y5650000D01*
X-10950000Y5653144D01*
X-10981921Y5650000D01*
X-11789765Y5650000D01*
X-11789765Y6650000D01*
X-11797488Y6728414D01*
X-11820360Y6803814D01*
X-11857503Y6873303D01*
X-11907489Y6934211D01*
X-11968397Y6984197D01*
X-12037886Y7021340D01*
X-12113286Y7044212D01*
X-12191700Y7051935D01*
X-12691700Y7051935D01*
X-12770114Y7044212D01*
X-12845514Y7021340D01*
X-12915003Y6984197D01*
X-12941700Y6962287D01*
X-12968397Y6984197D01*
X-13037886Y7021340D01*
X-13113286Y7044212D01*
X-13191700Y7051935D01*
X-14491700Y7051935D01*
X-14570114Y7044212D01*
X-14645514Y7021340D01*
X-14715003Y6984197D01*
X-14741700Y6962287D01*
X-14768397Y6984197D01*
X-14837886Y7021340D01*
X-14913286Y7044212D01*
X-14991700Y7051935D01*
X-15491700Y7051935D01*
X-15570114Y7044212D01*
X-15645514Y7021340D01*
X-15715003Y6984197D01*
X-15775911Y6934211D01*
X-15825897Y6873303D01*
X-15863040Y6803814D01*
X-15885912Y6728414D01*
X-15893635Y6650000D01*
X-15893635Y4270509D01*
X-15949948Y4253427D01*
X-16062868Y4193069D01*
X-16137040Y4132198D01*
X-16322903Y3946335D01*
X-16333351Y3944257D01*
X-16478942Y3883951D01*
X-16609970Y3796401D01*
X-16721401Y3684970D01*
X-16808951Y3553942D01*
X-16869257Y3408351D01*
X-16900000Y3253793D01*
X-19916700Y3253793D01*
X-19916700Y7875000D01*
X-5448677Y7875000D01*
X-558299Y3364128D01*
G37*
%TD.AperFunction*%
%TD*%
M02*
