G04 #@! TF.GenerationSoftware,KiCad,Pcbnew,(5.1.9)-1*
G04 #@! TF.CreationDate,2021-08-28T05:14:42+03:00*
G04 #@! TF.ProjectId,Strobe_Module,5374726f-6265-45f4-9d6f-64756c652e6b,0000*
G04 #@! TF.SameCoordinates,Original*
G04 #@! TF.FileFunction,Copper,L2,Bot*
G04 #@! TF.FilePolarity,Positive*
%FSLAX46Y46*%
G04 Gerber Fmt 4.6, Leading zero omitted, Abs format (unit mm)*
G04 Created by KiCad (PCBNEW (5.1.9)-1) date 2021-08-28 05:14:42*
%MOMM*%
%LPD*%
G01*
G04 APERTURE LIST*
G04 #@! TA.AperFunction,ComponentPad*
%ADD10C,1.000000*%
G04 #@! TD*
G04 #@! TA.AperFunction,ViaPad*
%ADD11C,0.800000*%
G04 #@! TD*
G04 #@! TA.AperFunction,Conductor*
%ADD12C,0.500000*%
G04 #@! TD*
G04 #@! TA.AperFunction,Conductor*
%ADD13C,0.400000*%
G04 #@! TD*
G04 #@! TA.AperFunction,Conductor*
%ADD14C,0.200000*%
G04 #@! TD*
G04 #@! TA.AperFunction,Conductor*
%ADD15C,0.100000*%
G04 #@! TD*
G04 APERTURE END LIST*
D10*
X1042771600Y-1006297200D03*
X1041019000Y-1008303800D03*
X1053617400Y-1008329200D03*
X1055573200Y-997737400D03*
X1039266400Y-1001166400D03*
X1055573200Y-1008329200D03*
X1039266400Y-1008379800D03*
D11*
X1052395660Y-1004884960D03*
X1045245560Y-1004948460D03*
X1045225240Y-1000983520D03*
X1049200340Y-1001034320D03*
X1051488880Y-1007978680D03*
X1043609800Y-1000582200D03*
X1043609800Y-1005433600D03*
X1051153600Y-998753400D03*
X1040561800Y-1001141000D03*
X1042085800Y-1003503200D03*
X1047927600Y-1007973600D03*
X1044854400Y-998829600D03*
D12*
X1043609800Y-1000582200D02*
X1043609800Y-1005433600D01*
D13*
X1050112200Y-997712000D02*
X1051153600Y-998753400D01*
X1050010600Y-997610400D02*
X1050112200Y-997712000D01*
X1042720800Y-997610400D02*
X1050010600Y-997610400D01*
X1040561800Y-999769400D02*
X1042720800Y-997610400D01*
X1040561800Y-1001141000D02*
X1040561800Y-999769400D01*
X1042085800Y-1004493800D02*
X1041095200Y-1005484400D01*
X1042085800Y-1003503200D02*
X1042085800Y-1004493800D01*
X1041095200Y-1005484400D02*
X1041095200Y-1006449600D01*
X1041095200Y-1006449600D02*
X1042670000Y-1008024400D01*
X1042670000Y-1008024400D02*
X1047876800Y-1008024400D01*
X1047876800Y-1008024400D02*
X1047927600Y-1007973600D01*
X1043482800Y-998829600D02*
X1044854400Y-998829600D01*
X1042085800Y-1000226600D02*
X1043482800Y-998829600D01*
X1042085800Y-1003503200D02*
X1042085800Y-1000226600D01*
D14*
X1056419201Y-1009403800D02*
X1038471200Y-1009403800D01*
X1038471200Y-1008482725D01*
X1038497143Y-1008613151D01*
X1038557449Y-1008758742D01*
X1038644999Y-1008889770D01*
X1038756430Y-1009001201D01*
X1038887458Y-1009088751D01*
X1039033049Y-1009149057D01*
X1039187607Y-1009179800D01*
X1039345193Y-1009179800D01*
X1039499751Y-1009149057D01*
X1039645342Y-1009088751D01*
X1039776370Y-1009001201D01*
X1039887801Y-1008889770D01*
X1039975351Y-1008758742D01*
X1040035657Y-1008613151D01*
X1040066400Y-1008458593D01*
X1040066400Y-1008301007D01*
X1040051283Y-1008225007D01*
X1040219000Y-1008225007D01*
X1040219000Y-1008382593D01*
X1040249743Y-1008537151D01*
X1040310049Y-1008682742D01*
X1040397599Y-1008813770D01*
X1040509030Y-1008925201D01*
X1040640058Y-1009012751D01*
X1040785649Y-1009073057D01*
X1040940207Y-1009103800D01*
X1041097793Y-1009103800D01*
X1041252351Y-1009073057D01*
X1041397942Y-1009012751D01*
X1041528970Y-1008925201D01*
X1041640401Y-1008813770D01*
X1041727951Y-1008682742D01*
X1041788257Y-1008537151D01*
X1041819000Y-1008382593D01*
X1041819000Y-1008225007D01*
X1041788257Y-1008070449D01*
X1041727951Y-1007924858D01*
X1041640401Y-1007793830D01*
X1041528970Y-1007682399D01*
X1041397942Y-1007594849D01*
X1041252351Y-1007534543D01*
X1041097793Y-1007503800D01*
X1040940207Y-1007503800D01*
X1040785649Y-1007534543D01*
X1040640058Y-1007594849D01*
X1040509030Y-1007682399D01*
X1040397599Y-1007793830D01*
X1040310049Y-1007924858D01*
X1040249743Y-1008070449D01*
X1040219000Y-1008225007D01*
X1040051283Y-1008225007D01*
X1040035657Y-1008146449D01*
X1039975351Y-1008000858D01*
X1039887801Y-1007869830D01*
X1039776370Y-1007758399D01*
X1039645342Y-1007670849D01*
X1039499751Y-1007610543D01*
X1039345193Y-1007579800D01*
X1039187607Y-1007579800D01*
X1039033049Y-1007610543D01*
X1038887458Y-1007670849D01*
X1038756430Y-1007758399D01*
X1038644999Y-1007869830D01*
X1038557449Y-1008000858D01*
X1038497143Y-1008146449D01*
X1038471200Y-1008276875D01*
X1038471200Y-1005484400D01*
X1040592781Y-1005484400D01*
X1040595200Y-1005508961D01*
X1040595201Y-1006425030D01*
X1040592781Y-1006449600D01*
X1040602435Y-1006547617D01*
X1040631026Y-1006641867D01*
X1040677455Y-1006728729D01*
X1040739937Y-1006804864D01*
X1040759019Y-1006820524D01*
X1042299080Y-1008360587D01*
X1042314736Y-1008379664D01*
X1042390871Y-1008442146D01*
X1042477733Y-1008488575D01*
X1042571983Y-1008517165D01*
X1042670000Y-1008526819D01*
X1042694560Y-1008524400D01*
X1047491963Y-1008524400D01*
X1047596026Y-1008593932D01*
X1047723418Y-1008646699D01*
X1047858656Y-1008673600D01*
X1047996544Y-1008673600D01*
X1048131782Y-1008646699D01*
X1048259174Y-1008593932D01*
X1048373824Y-1008517326D01*
X1048471326Y-1008419824D01*
X1048547932Y-1008305174D01*
X1048570617Y-1008250407D01*
X1052817400Y-1008250407D01*
X1052817400Y-1008407993D01*
X1052848143Y-1008562551D01*
X1052908449Y-1008708142D01*
X1052995999Y-1008839170D01*
X1053107430Y-1008950601D01*
X1053238458Y-1009038151D01*
X1053384049Y-1009098457D01*
X1053538607Y-1009129200D01*
X1053696193Y-1009129200D01*
X1053850751Y-1009098457D01*
X1053996342Y-1009038151D01*
X1054127370Y-1008950601D01*
X1054238801Y-1008839170D01*
X1054326351Y-1008708142D01*
X1054386657Y-1008562551D01*
X1054417400Y-1008407993D01*
X1054417400Y-1008250407D01*
X1054773200Y-1008250407D01*
X1054773200Y-1008407993D01*
X1054803943Y-1008562551D01*
X1054864249Y-1008708142D01*
X1054951799Y-1008839170D01*
X1055063230Y-1008950601D01*
X1055194258Y-1009038151D01*
X1055339849Y-1009098457D01*
X1055494407Y-1009129200D01*
X1055651993Y-1009129200D01*
X1055806551Y-1009098457D01*
X1055952142Y-1009038151D01*
X1056083170Y-1008950601D01*
X1056194601Y-1008839170D01*
X1056282151Y-1008708142D01*
X1056342457Y-1008562551D01*
X1056373200Y-1008407993D01*
X1056373200Y-1008250407D01*
X1056342457Y-1008095849D01*
X1056282151Y-1007950258D01*
X1056194601Y-1007819230D01*
X1056083170Y-1007707799D01*
X1055952142Y-1007620249D01*
X1055806551Y-1007559943D01*
X1055651993Y-1007529200D01*
X1055494407Y-1007529200D01*
X1055339849Y-1007559943D01*
X1055194258Y-1007620249D01*
X1055063230Y-1007707799D01*
X1054951799Y-1007819230D01*
X1054864249Y-1007950258D01*
X1054803943Y-1008095849D01*
X1054773200Y-1008250407D01*
X1054417400Y-1008250407D01*
X1054386657Y-1008095849D01*
X1054326351Y-1007950258D01*
X1054238801Y-1007819230D01*
X1054127370Y-1007707799D01*
X1053996342Y-1007620249D01*
X1053850751Y-1007559943D01*
X1053696193Y-1007529200D01*
X1053538607Y-1007529200D01*
X1053384049Y-1007559943D01*
X1053238458Y-1007620249D01*
X1053107430Y-1007707799D01*
X1052995999Y-1007819230D01*
X1052908449Y-1007950258D01*
X1052848143Y-1008095849D01*
X1052817400Y-1008250407D01*
X1048570617Y-1008250407D01*
X1048600699Y-1008177782D01*
X1048627600Y-1008042544D01*
X1048627600Y-1007904656D01*
X1048600699Y-1007769418D01*
X1048547932Y-1007642026D01*
X1048471326Y-1007527376D01*
X1048373824Y-1007429874D01*
X1048259174Y-1007353268D01*
X1048131782Y-1007300501D01*
X1047996544Y-1007273600D01*
X1047858656Y-1007273600D01*
X1047723418Y-1007300501D01*
X1047596026Y-1007353268D01*
X1047481376Y-1007429874D01*
X1047386850Y-1007524400D01*
X1042877107Y-1007524400D01*
X1042290793Y-1006938087D01*
X1042392658Y-1007006151D01*
X1042538249Y-1007066457D01*
X1042692807Y-1007097200D01*
X1042850393Y-1007097200D01*
X1043004951Y-1007066457D01*
X1043150542Y-1007006151D01*
X1043281570Y-1006918601D01*
X1043393001Y-1006807170D01*
X1043480551Y-1006676142D01*
X1043540857Y-1006530551D01*
X1043571600Y-1006375993D01*
X1043571600Y-1006218407D01*
X1043554731Y-1006133600D01*
X1043678744Y-1006133600D01*
X1043813982Y-1006106699D01*
X1043941374Y-1006053932D01*
X1044056024Y-1005977326D01*
X1044153526Y-1005879824D01*
X1044230132Y-1005765174D01*
X1044282899Y-1005637782D01*
X1044309800Y-1005502544D01*
X1044309800Y-1005364656D01*
X1044282899Y-1005229418D01*
X1044230132Y-1005102026D01*
X1044159800Y-1004996766D01*
X1044159800Y-1001019034D01*
X1044230132Y-1000913774D01*
X1044282899Y-1000786382D01*
X1044309800Y-1000651144D01*
X1044309800Y-1000513256D01*
X1044282899Y-1000378018D01*
X1044230132Y-1000250626D01*
X1044153526Y-1000135976D01*
X1044056024Y-1000038474D01*
X1043941374Y-999961868D01*
X1043813982Y-999909101D01*
X1043678744Y-999882200D01*
X1043540856Y-999882200D01*
X1043405618Y-999909101D01*
X1043278226Y-999961868D01*
X1043163576Y-1000038474D01*
X1043066074Y-1000135976D01*
X1042989468Y-1000250626D01*
X1042936701Y-1000378018D01*
X1042909800Y-1000513256D01*
X1042909800Y-1000651144D01*
X1042936701Y-1000786382D01*
X1042989468Y-1000913774D01*
X1043059800Y-1001019034D01*
X1043059801Y-1004996764D01*
X1042989468Y-1005102026D01*
X1042936701Y-1005229418D01*
X1042909800Y-1005364656D01*
X1042909800Y-1005502544D01*
X1042911141Y-1005509283D01*
X1042850393Y-1005497200D01*
X1042692807Y-1005497200D01*
X1042538249Y-1005527943D01*
X1042392658Y-1005588249D01*
X1042261630Y-1005675799D01*
X1042150199Y-1005787230D01*
X1042062649Y-1005918258D01*
X1042002343Y-1006063849D01*
X1041971600Y-1006218407D01*
X1041971600Y-1006375993D01*
X1042002343Y-1006530551D01*
X1042062649Y-1006676142D01*
X1042130713Y-1006778007D01*
X1041595200Y-1006242495D01*
X1041595200Y-1005691505D01*
X1042421981Y-1004864725D01*
X1042441064Y-1004849064D01*
X1042503546Y-1004772929D01*
X1042549975Y-1004686067D01*
X1042578565Y-1004591817D01*
X1042585800Y-1004518360D01*
X1042588219Y-1004493800D01*
X1042585800Y-1004469240D01*
X1042585800Y-1003993150D01*
X1042629526Y-1003949424D01*
X1042706132Y-1003834774D01*
X1042758899Y-1003707382D01*
X1042785800Y-1003572144D01*
X1042785800Y-1003434256D01*
X1042758899Y-1003299018D01*
X1042706132Y-1003171626D01*
X1042629526Y-1003056976D01*
X1042585800Y-1003013250D01*
X1042585800Y-1000433705D01*
X1043689907Y-999329600D01*
X1044364450Y-999329600D01*
X1044408176Y-999373326D01*
X1044522826Y-999449932D01*
X1044650218Y-999502699D01*
X1044785456Y-999529600D01*
X1044923344Y-999529600D01*
X1045058582Y-999502699D01*
X1045185974Y-999449932D01*
X1045300624Y-999373326D01*
X1045398126Y-999275824D01*
X1045474732Y-999161174D01*
X1045527499Y-999033782D01*
X1045554400Y-998898544D01*
X1045554400Y-998760656D01*
X1045527499Y-998625418D01*
X1045474732Y-998498026D01*
X1045398126Y-998383376D01*
X1045300624Y-998285874D01*
X1045185974Y-998209268D01*
X1045058582Y-998156501D01*
X1044923344Y-998129600D01*
X1044785456Y-998129600D01*
X1044650218Y-998156501D01*
X1044522826Y-998209268D01*
X1044408176Y-998285874D01*
X1044364450Y-998329600D01*
X1043507349Y-998329600D01*
X1043482799Y-998327182D01*
X1043458249Y-998329600D01*
X1043458240Y-998329600D01*
X1043384783Y-998336835D01*
X1043290533Y-998365425D01*
X1043203671Y-998411854D01*
X1043127536Y-998474336D01*
X1043111880Y-998493413D01*
X1041749619Y-999855676D01*
X1041730537Y-999871336D01*
X1041668055Y-999947471D01*
X1041660467Y-999961667D01*
X1041621626Y-1000034333D01*
X1041593035Y-1000128583D01*
X1041583381Y-1000226600D01*
X1041585801Y-1000251170D01*
X1041585800Y-1003013250D01*
X1041542074Y-1003056976D01*
X1041465468Y-1003171626D01*
X1041412701Y-1003299018D01*
X1041385800Y-1003434256D01*
X1041385800Y-1003572144D01*
X1041412701Y-1003707382D01*
X1041465468Y-1003834774D01*
X1041542074Y-1003949424D01*
X1041585800Y-1003993150D01*
X1041585801Y-1004286693D01*
X1040759024Y-1005113471D01*
X1040739936Y-1005129136D01*
X1040677454Y-1005205271D01*
X1040631025Y-1005292134D01*
X1040611108Y-1005357793D01*
X1040602435Y-1005386383D01*
X1040592781Y-1005484400D01*
X1038471200Y-1005484400D01*
X1038471200Y-1001269325D01*
X1038497143Y-1001399751D01*
X1038557449Y-1001545342D01*
X1038644999Y-1001676370D01*
X1038756430Y-1001787801D01*
X1038887458Y-1001875351D01*
X1039033049Y-1001935657D01*
X1039187607Y-1001966400D01*
X1039345193Y-1001966400D01*
X1039499751Y-1001935657D01*
X1039645342Y-1001875351D01*
X1039776370Y-1001787801D01*
X1039887801Y-1001676370D01*
X1039975351Y-1001545342D01*
X1039980991Y-1001531725D01*
X1040018074Y-1001587224D01*
X1040115576Y-1001684726D01*
X1040230226Y-1001761332D01*
X1040357618Y-1001814099D01*
X1040492856Y-1001841000D01*
X1040630744Y-1001841000D01*
X1040765982Y-1001814099D01*
X1040893374Y-1001761332D01*
X1041008024Y-1001684726D01*
X1041105526Y-1001587224D01*
X1041182132Y-1001472574D01*
X1041234899Y-1001345182D01*
X1041261800Y-1001209944D01*
X1041261800Y-1001072056D01*
X1041234899Y-1000936818D01*
X1041182132Y-1000809426D01*
X1041105526Y-1000694776D01*
X1041061800Y-1000651050D01*
X1041061800Y-999976505D01*
X1042927906Y-998110400D01*
X1049803495Y-998110400D01*
X1050453600Y-998760506D01*
X1050453600Y-998822344D01*
X1050480501Y-998957582D01*
X1050533268Y-999084974D01*
X1050609874Y-999199624D01*
X1050707376Y-999297126D01*
X1050822026Y-999373732D01*
X1050949418Y-999426499D01*
X1051084656Y-999453400D01*
X1051222544Y-999453400D01*
X1051357782Y-999426499D01*
X1051485174Y-999373732D01*
X1051599824Y-999297126D01*
X1051697326Y-999199624D01*
X1051773932Y-999084974D01*
X1051826699Y-998957582D01*
X1051853600Y-998822344D01*
X1051853600Y-998684456D01*
X1051826699Y-998549218D01*
X1051773932Y-998421826D01*
X1051697326Y-998307176D01*
X1051599824Y-998209674D01*
X1051485174Y-998133068D01*
X1051357782Y-998080301D01*
X1051222544Y-998053400D01*
X1051160706Y-998053400D01*
X1050765913Y-997658607D01*
X1054773200Y-997658607D01*
X1054773200Y-997816193D01*
X1054803943Y-997970751D01*
X1054864249Y-998116342D01*
X1054951799Y-998247370D01*
X1055063230Y-998358801D01*
X1055194258Y-998446351D01*
X1055339849Y-998506657D01*
X1055494407Y-998537400D01*
X1055651993Y-998537400D01*
X1055806551Y-998506657D01*
X1055952142Y-998446351D01*
X1056083170Y-998358801D01*
X1056194601Y-998247370D01*
X1056282151Y-998116342D01*
X1056342457Y-997970751D01*
X1056373200Y-997816193D01*
X1056373200Y-997658607D01*
X1056342457Y-997504049D01*
X1056282151Y-997358458D01*
X1056194601Y-997227430D01*
X1056083170Y-997115999D01*
X1055952142Y-997028449D01*
X1055806551Y-996968143D01*
X1055651993Y-996937400D01*
X1055494407Y-996937400D01*
X1055339849Y-996968143D01*
X1055194258Y-997028449D01*
X1055063230Y-997115999D01*
X1054951799Y-997227430D01*
X1054864249Y-997358458D01*
X1054803943Y-997504049D01*
X1054773200Y-997658607D01*
X1050765913Y-997658607D01*
X1050448386Y-997341081D01*
X1050381529Y-997274224D01*
X1050365864Y-997255136D01*
X1050289729Y-997192654D01*
X1050202867Y-997146225D01*
X1050108617Y-997117635D01*
X1050035160Y-997110400D01*
X1050010600Y-997107981D01*
X1049986040Y-997110400D01*
X1042745357Y-997110400D01*
X1042720799Y-997107981D01*
X1042696241Y-997110400D01*
X1042696240Y-997110400D01*
X1042622783Y-997117635D01*
X1042528533Y-997146225D01*
X1042441671Y-997192654D01*
X1042365536Y-997255136D01*
X1042349875Y-997274219D01*
X1040225619Y-999398476D01*
X1040206537Y-999414136D01*
X1040144055Y-999490271D01*
X1040123033Y-999529600D01*
X1040097626Y-999577133D01*
X1040069035Y-999671383D01*
X1040059381Y-999769400D01*
X1040061801Y-999793970D01*
X1040061800Y-1000651050D01*
X1040018074Y-1000694776D01*
X1039965749Y-1000773087D01*
X1039887801Y-1000656430D01*
X1039776370Y-1000544999D01*
X1039645342Y-1000457449D01*
X1039499751Y-1000397143D01*
X1039345193Y-1000366400D01*
X1039187607Y-1000366400D01*
X1039033049Y-1000397143D01*
X1038887458Y-1000457449D01*
X1038756430Y-1000544999D01*
X1038644999Y-1000656430D01*
X1038557449Y-1000787458D01*
X1038497143Y-1000933049D01*
X1038471200Y-1001063475D01*
X1038471200Y-996764400D01*
X1056419200Y-996764400D01*
X1056419201Y-1009403800D01*
G04 #@! TA.AperFunction,Conductor*
D15*
G36*
X1056419201Y-1009403800D02*
G01*
X1038471200Y-1009403800D01*
X1038471200Y-1008482725D01*
X1038497143Y-1008613151D01*
X1038557449Y-1008758742D01*
X1038644999Y-1008889770D01*
X1038756430Y-1009001201D01*
X1038887458Y-1009088751D01*
X1039033049Y-1009149057D01*
X1039187607Y-1009179800D01*
X1039345193Y-1009179800D01*
X1039499751Y-1009149057D01*
X1039645342Y-1009088751D01*
X1039776370Y-1009001201D01*
X1039887801Y-1008889770D01*
X1039975351Y-1008758742D01*
X1040035657Y-1008613151D01*
X1040066400Y-1008458593D01*
X1040066400Y-1008301007D01*
X1040051283Y-1008225007D01*
X1040219000Y-1008225007D01*
X1040219000Y-1008382593D01*
X1040249743Y-1008537151D01*
X1040310049Y-1008682742D01*
X1040397599Y-1008813770D01*
X1040509030Y-1008925201D01*
X1040640058Y-1009012751D01*
X1040785649Y-1009073057D01*
X1040940207Y-1009103800D01*
X1041097793Y-1009103800D01*
X1041252351Y-1009073057D01*
X1041397942Y-1009012751D01*
X1041528970Y-1008925201D01*
X1041640401Y-1008813770D01*
X1041727951Y-1008682742D01*
X1041788257Y-1008537151D01*
X1041819000Y-1008382593D01*
X1041819000Y-1008225007D01*
X1041788257Y-1008070449D01*
X1041727951Y-1007924858D01*
X1041640401Y-1007793830D01*
X1041528970Y-1007682399D01*
X1041397942Y-1007594849D01*
X1041252351Y-1007534543D01*
X1041097793Y-1007503800D01*
X1040940207Y-1007503800D01*
X1040785649Y-1007534543D01*
X1040640058Y-1007594849D01*
X1040509030Y-1007682399D01*
X1040397599Y-1007793830D01*
X1040310049Y-1007924858D01*
X1040249743Y-1008070449D01*
X1040219000Y-1008225007D01*
X1040051283Y-1008225007D01*
X1040035657Y-1008146449D01*
X1039975351Y-1008000858D01*
X1039887801Y-1007869830D01*
X1039776370Y-1007758399D01*
X1039645342Y-1007670849D01*
X1039499751Y-1007610543D01*
X1039345193Y-1007579800D01*
X1039187607Y-1007579800D01*
X1039033049Y-1007610543D01*
X1038887458Y-1007670849D01*
X1038756430Y-1007758399D01*
X1038644999Y-1007869830D01*
X1038557449Y-1008000858D01*
X1038497143Y-1008146449D01*
X1038471200Y-1008276875D01*
X1038471200Y-1005484400D01*
X1040592781Y-1005484400D01*
X1040595200Y-1005508961D01*
X1040595201Y-1006425030D01*
X1040592781Y-1006449600D01*
X1040602435Y-1006547617D01*
X1040631026Y-1006641867D01*
X1040677455Y-1006728729D01*
X1040739937Y-1006804864D01*
X1040759019Y-1006820524D01*
X1042299080Y-1008360587D01*
X1042314736Y-1008379664D01*
X1042390871Y-1008442146D01*
X1042477733Y-1008488575D01*
X1042571983Y-1008517165D01*
X1042670000Y-1008526819D01*
X1042694560Y-1008524400D01*
X1047491963Y-1008524400D01*
X1047596026Y-1008593932D01*
X1047723418Y-1008646699D01*
X1047858656Y-1008673600D01*
X1047996544Y-1008673600D01*
X1048131782Y-1008646699D01*
X1048259174Y-1008593932D01*
X1048373824Y-1008517326D01*
X1048471326Y-1008419824D01*
X1048547932Y-1008305174D01*
X1048570617Y-1008250407D01*
X1052817400Y-1008250407D01*
X1052817400Y-1008407993D01*
X1052848143Y-1008562551D01*
X1052908449Y-1008708142D01*
X1052995999Y-1008839170D01*
X1053107430Y-1008950601D01*
X1053238458Y-1009038151D01*
X1053384049Y-1009098457D01*
X1053538607Y-1009129200D01*
X1053696193Y-1009129200D01*
X1053850751Y-1009098457D01*
X1053996342Y-1009038151D01*
X1054127370Y-1008950601D01*
X1054238801Y-1008839170D01*
X1054326351Y-1008708142D01*
X1054386657Y-1008562551D01*
X1054417400Y-1008407993D01*
X1054417400Y-1008250407D01*
X1054773200Y-1008250407D01*
X1054773200Y-1008407993D01*
X1054803943Y-1008562551D01*
X1054864249Y-1008708142D01*
X1054951799Y-1008839170D01*
X1055063230Y-1008950601D01*
X1055194258Y-1009038151D01*
X1055339849Y-1009098457D01*
X1055494407Y-1009129200D01*
X1055651993Y-1009129200D01*
X1055806551Y-1009098457D01*
X1055952142Y-1009038151D01*
X1056083170Y-1008950601D01*
X1056194601Y-1008839170D01*
X1056282151Y-1008708142D01*
X1056342457Y-1008562551D01*
X1056373200Y-1008407993D01*
X1056373200Y-1008250407D01*
X1056342457Y-1008095849D01*
X1056282151Y-1007950258D01*
X1056194601Y-1007819230D01*
X1056083170Y-1007707799D01*
X1055952142Y-1007620249D01*
X1055806551Y-1007559943D01*
X1055651993Y-1007529200D01*
X1055494407Y-1007529200D01*
X1055339849Y-1007559943D01*
X1055194258Y-1007620249D01*
X1055063230Y-1007707799D01*
X1054951799Y-1007819230D01*
X1054864249Y-1007950258D01*
X1054803943Y-1008095849D01*
X1054773200Y-1008250407D01*
X1054417400Y-1008250407D01*
X1054386657Y-1008095849D01*
X1054326351Y-1007950258D01*
X1054238801Y-1007819230D01*
X1054127370Y-1007707799D01*
X1053996342Y-1007620249D01*
X1053850751Y-1007559943D01*
X1053696193Y-1007529200D01*
X1053538607Y-1007529200D01*
X1053384049Y-1007559943D01*
X1053238458Y-1007620249D01*
X1053107430Y-1007707799D01*
X1052995999Y-1007819230D01*
X1052908449Y-1007950258D01*
X1052848143Y-1008095849D01*
X1052817400Y-1008250407D01*
X1048570617Y-1008250407D01*
X1048600699Y-1008177782D01*
X1048627600Y-1008042544D01*
X1048627600Y-1007904656D01*
X1048600699Y-1007769418D01*
X1048547932Y-1007642026D01*
X1048471326Y-1007527376D01*
X1048373824Y-1007429874D01*
X1048259174Y-1007353268D01*
X1048131782Y-1007300501D01*
X1047996544Y-1007273600D01*
X1047858656Y-1007273600D01*
X1047723418Y-1007300501D01*
X1047596026Y-1007353268D01*
X1047481376Y-1007429874D01*
X1047386850Y-1007524400D01*
X1042877107Y-1007524400D01*
X1042290793Y-1006938087D01*
X1042392658Y-1007006151D01*
X1042538249Y-1007066457D01*
X1042692807Y-1007097200D01*
X1042850393Y-1007097200D01*
X1043004951Y-1007066457D01*
X1043150542Y-1007006151D01*
X1043281570Y-1006918601D01*
X1043393001Y-1006807170D01*
X1043480551Y-1006676142D01*
X1043540857Y-1006530551D01*
X1043571600Y-1006375993D01*
X1043571600Y-1006218407D01*
X1043554731Y-1006133600D01*
X1043678744Y-1006133600D01*
X1043813982Y-1006106699D01*
X1043941374Y-1006053932D01*
X1044056024Y-1005977326D01*
X1044153526Y-1005879824D01*
X1044230132Y-1005765174D01*
X1044282899Y-1005637782D01*
X1044309800Y-1005502544D01*
X1044309800Y-1005364656D01*
X1044282899Y-1005229418D01*
X1044230132Y-1005102026D01*
X1044159800Y-1004996766D01*
X1044159800Y-1001019034D01*
X1044230132Y-1000913774D01*
X1044282899Y-1000786382D01*
X1044309800Y-1000651144D01*
X1044309800Y-1000513256D01*
X1044282899Y-1000378018D01*
X1044230132Y-1000250626D01*
X1044153526Y-1000135976D01*
X1044056024Y-1000038474D01*
X1043941374Y-999961868D01*
X1043813982Y-999909101D01*
X1043678744Y-999882200D01*
X1043540856Y-999882200D01*
X1043405618Y-999909101D01*
X1043278226Y-999961868D01*
X1043163576Y-1000038474D01*
X1043066074Y-1000135976D01*
X1042989468Y-1000250626D01*
X1042936701Y-1000378018D01*
X1042909800Y-1000513256D01*
X1042909800Y-1000651144D01*
X1042936701Y-1000786382D01*
X1042989468Y-1000913774D01*
X1043059800Y-1001019034D01*
X1043059801Y-1004996764D01*
X1042989468Y-1005102026D01*
X1042936701Y-1005229418D01*
X1042909800Y-1005364656D01*
X1042909800Y-1005502544D01*
X1042911141Y-1005509283D01*
X1042850393Y-1005497200D01*
X1042692807Y-1005497200D01*
X1042538249Y-1005527943D01*
X1042392658Y-1005588249D01*
X1042261630Y-1005675799D01*
X1042150199Y-1005787230D01*
X1042062649Y-1005918258D01*
X1042002343Y-1006063849D01*
X1041971600Y-1006218407D01*
X1041971600Y-1006375993D01*
X1042002343Y-1006530551D01*
X1042062649Y-1006676142D01*
X1042130713Y-1006778007D01*
X1041595200Y-1006242495D01*
X1041595200Y-1005691505D01*
X1042421981Y-1004864725D01*
X1042441064Y-1004849064D01*
X1042503546Y-1004772929D01*
X1042549975Y-1004686067D01*
X1042578565Y-1004591817D01*
X1042585800Y-1004518360D01*
X1042588219Y-1004493800D01*
X1042585800Y-1004469240D01*
X1042585800Y-1003993150D01*
X1042629526Y-1003949424D01*
X1042706132Y-1003834774D01*
X1042758899Y-1003707382D01*
X1042785800Y-1003572144D01*
X1042785800Y-1003434256D01*
X1042758899Y-1003299018D01*
X1042706132Y-1003171626D01*
X1042629526Y-1003056976D01*
X1042585800Y-1003013250D01*
X1042585800Y-1000433705D01*
X1043689907Y-999329600D01*
X1044364450Y-999329600D01*
X1044408176Y-999373326D01*
X1044522826Y-999449932D01*
X1044650218Y-999502699D01*
X1044785456Y-999529600D01*
X1044923344Y-999529600D01*
X1045058582Y-999502699D01*
X1045185974Y-999449932D01*
X1045300624Y-999373326D01*
X1045398126Y-999275824D01*
X1045474732Y-999161174D01*
X1045527499Y-999033782D01*
X1045554400Y-998898544D01*
X1045554400Y-998760656D01*
X1045527499Y-998625418D01*
X1045474732Y-998498026D01*
X1045398126Y-998383376D01*
X1045300624Y-998285874D01*
X1045185974Y-998209268D01*
X1045058582Y-998156501D01*
X1044923344Y-998129600D01*
X1044785456Y-998129600D01*
X1044650218Y-998156501D01*
X1044522826Y-998209268D01*
X1044408176Y-998285874D01*
X1044364450Y-998329600D01*
X1043507349Y-998329600D01*
X1043482799Y-998327182D01*
X1043458249Y-998329600D01*
X1043458240Y-998329600D01*
X1043384783Y-998336835D01*
X1043290533Y-998365425D01*
X1043203671Y-998411854D01*
X1043127536Y-998474336D01*
X1043111880Y-998493413D01*
X1041749619Y-999855676D01*
X1041730537Y-999871336D01*
X1041668055Y-999947471D01*
X1041660467Y-999961667D01*
X1041621626Y-1000034333D01*
X1041593035Y-1000128583D01*
X1041583381Y-1000226600D01*
X1041585801Y-1000251170D01*
X1041585800Y-1003013250D01*
X1041542074Y-1003056976D01*
X1041465468Y-1003171626D01*
X1041412701Y-1003299018D01*
X1041385800Y-1003434256D01*
X1041385800Y-1003572144D01*
X1041412701Y-1003707382D01*
X1041465468Y-1003834774D01*
X1041542074Y-1003949424D01*
X1041585800Y-1003993150D01*
X1041585801Y-1004286693D01*
X1040759024Y-1005113471D01*
X1040739936Y-1005129136D01*
X1040677454Y-1005205271D01*
X1040631025Y-1005292134D01*
X1040611108Y-1005357793D01*
X1040602435Y-1005386383D01*
X1040592781Y-1005484400D01*
X1038471200Y-1005484400D01*
X1038471200Y-1001269325D01*
X1038497143Y-1001399751D01*
X1038557449Y-1001545342D01*
X1038644999Y-1001676370D01*
X1038756430Y-1001787801D01*
X1038887458Y-1001875351D01*
X1039033049Y-1001935657D01*
X1039187607Y-1001966400D01*
X1039345193Y-1001966400D01*
X1039499751Y-1001935657D01*
X1039645342Y-1001875351D01*
X1039776370Y-1001787801D01*
X1039887801Y-1001676370D01*
X1039975351Y-1001545342D01*
X1039980991Y-1001531725D01*
X1040018074Y-1001587224D01*
X1040115576Y-1001684726D01*
X1040230226Y-1001761332D01*
X1040357618Y-1001814099D01*
X1040492856Y-1001841000D01*
X1040630744Y-1001841000D01*
X1040765982Y-1001814099D01*
X1040893374Y-1001761332D01*
X1041008024Y-1001684726D01*
X1041105526Y-1001587224D01*
X1041182132Y-1001472574D01*
X1041234899Y-1001345182D01*
X1041261800Y-1001209944D01*
X1041261800Y-1001072056D01*
X1041234899Y-1000936818D01*
X1041182132Y-1000809426D01*
X1041105526Y-1000694776D01*
X1041061800Y-1000651050D01*
X1041061800Y-999976505D01*
X1042927906Y-998110400D01*
X1049803495Y-998110400D01*
X1050453600Y-998760506D01*
X1050453600Y-998822344D01*
X1050480501Y-998957582D01*
X1050533268Y-999084974D01*
X1050609874Y-999199624D01*
X1050707376Y-999297126D01*
X1050822026Y-999373732D01*
X1050949418Y-999426499D01*
X1051084656Y-999453400D01*
X1051222544Y-999453400D01*
X1051357782Y-999426499D01*
X1051485174Y-999373732D01*
X1051599824Y-999297126D01*
X1051697326Y-999199624D01*
X1051773932Y-999084974D01*
X1051826699Y-998957582D01*
X1051853600Y-998822344D01*
X1051853600Y-998684456D01*
X1051826699Y-998549218D01*
X1051773932Y-998421826D01*
X1051697326Y-998307176D01*
X1051599824Y-998209674D01*
X1051485174Y-998133068D01*
X1051357782Y-998080301D01*
X1051222544Y-998053400D01*
X1051160706Y-998053400D01*
X1050765913Y-997658607D01*
X1054773200Y-997658607D01*
X1054773200Y-997816193D01*
X1054803943Y-997970751D01*
X1054864249Y-998116342D01*
X1054951799Y-998247370D01*
X1055063230Y-998358801D01*
X1055194258Y-998446351D01*
X1055339849Y-998506657D01*
X1055494407Y-998537400D01*
X1055651993Y-998537400D01*
X1055806551Y-998506657D01*
X1055952142Y-998446351D01*
X1056083170Y-998358801D01*
X1056194601Y-998247370D01*
X1056282151Y-998116342D01*
X1056342457Y-997970751D01*
X1056373200Y-997816193D01*
X1056373200Y-997658607D01*
X1056342457Y-997504049D01*
X1056282151Y-997358458D01*
X1056194601Y-997227430D01*
X1056083170Y-997115999D01*
X1055952142Y-997028449D01*
X1055806551Y-996968143D01*
X1055651993Y-996937400D01*
X1055494407Y-996937400D01*
X1055339849Y-996968143D01*
X1055194258Y-997028449D01*
X1055063230Y-997115999D01*
X1054951799Y-997227430D01*
X1054864249Y-997358458D01*
X1054803943Y-997504049D01*
X1054773200Y-997658607D01*
X1050765913Y-997658607D01*
X1050448386Y-997341081D01*
X1050381529Y-997274224D01*
X1050365864Y-997255136D01*
X1050289729Y-997192654D01*
X1050202867Y-997146225D01*
X1050108617Y-997117635D01*
X1050035160Y-997110400D01*
X1050010600Y-997107981D01*
X1049986040Y-997110400D01*
X1042745357Y-997110400D01*
X1042720799Y-997107981D01*
X1042696241Y-997110400D01*
X1042696240Y-997110400D01*
X1042622783Y-997117635D01*
X1042528533Y-997146225D01*
X1042441671Y-997192654D01*
X1042365536Y-997255136D01*
X1042349875Y-997274219D01*
X1040225619Y-999398476D01*
X1040206537Y-999414136D01*
X1040144055Y-999490271D01*
X1040123033Y-999529600D01*
X1040097626Y-999577133D01*
X1040069035Y-999671383D01*
X1040059381Y-999769400D01*
X1040061801Y-999793970D01*
X1040061800Y-1000651050D01*
X1040018074Y-1000694776D01*
X1039965749Y-1000773087D01*
X1039887801Y-1000656430D01*
X1039776370Y-1000544999D01*
X1039645342Y-1000457449D01*
X1039499751Y-1000397143D01*
X1039345193Y-1000366400D01*
X1039187607Y-1000366400D01*
X1039033049Y-1000397143D01*
X1038887458Y-1000457449D01*
X1038756430Y-1000544999D01*
X1038644999Y-1000656430D01*
X1038557449Y-1000787458D01*
X1038497143Y-1000933049D01*
X1038471200Y-1001063475D01*
X1038471200Y-996764400D01*
X1056419200Y-996764400D01*
X1056419201Y-1009403800D01*
G37*
G04 #@! TD.AperFunction*
M02*
