G04 #@! TF.GenerationSoftware,KiCad,Pcbnew,(5.1.9)-1*
G04 #@! TF.CreationDate,2021-08-28T05:14:42+03:00*
G04 #@! TF.ProjectId,Strobe_Module,5374726f-6265-45f4-9d6f-64756c652e6b,0000*
G04 #@! TF.SameCoordinates,Original*
G04 #@! TF.FileFunction,Paste,Top*
G04 #@! TF.FilePolarity,Positive*
%FSLAX46Y46*%
G04 Gerber Fmt 4.6, Leading zero omitted, Abs format (unit mm)*
G04 Created by KiCad (PCBNEW (5.1.9)-1) date 2021-08-28 05:14:42*
%MOMM*%
%LPD*%
G01*
G04 APERTURE LIST*
%ADD10C,0.100000*%
%ADD11R,1.600000X5.700000*%
%ADD12R,0.711200X0.254000*%
%ADD13R,0.711200X0.304800*%
%ADD14R,0.254000X0.711200*%
%ADD15R,0.406400X0.990600*%
%ADD16R,0.812800X0.406400*%
%ADD17R,2.387600X0.406400*%
%ADD18R,0.711200X0.406400*%
G04 APERTURE END LIST*
D10*
G36*
X1044287998Y-1001660400D02*
G01*
X1044287998Y-1001068300D01*
X1044605498Y-1001068300D01*
X1044605498Y-1001660400D01*
X1044287998Y-1001660400D01*
G37*
X1044287998Y-1001660400D02*
X1044287998Y-1001068300D01*
X1044605498Y-1001068300D01*
X1044605498Y-1001660400D01*
X1044287998Y-1001660400D01*
G36*
X1041400000Y-1001660400D02*
G01*
X1041400000Y-1001058001D01*
X1041044400Y-1001058001D01*
X1041044400Y-1001660400D01*
X1041400000Y-1001660400D01*
G37*
X1041400000Y-1001660400D02*
X1041400000Y-1001058001D01*
X1041044400Y-1001058001D01*
X1041044400Y-1001660400D01*
X1041400000Y-1001660400D01*
G36*
X1041400000Y-1004366800D02*
G01*
X1041400000Y-1004969199D01*
X1041044400Y-1004969199D01*
X1041044400Y-1004366800D01*
X1041400000Y-1004366800D01*
G37*
X1041400000Y-1004366800D02*
X1041400000Y-1004969199D01*
X1041044400Y-1004969199D01*
X1041044400Y-1004366800D01*
X1041400000Y-1004366800D01*
G36*
X1044287998Y-1004366800D02*
G01*
X1044287998Y-1004958900D01*
X1044605498Y-1004958900D01*
X1044605498Y-1004366800D01*
X1044287998Y-1004366800D01*
G37*
X1044287998Y-1004366800D02*
X1044287998Y-1004958900D01*
X1044605498Y-1004958900D01*
X1044605498Y-1004366800D01*
X1044287998Y-1004366800D01*
G36*
G01*
X1038984750Y-1003929300D02*
X1039497250Y-1003929300D01*
G75*
G02*
X1039716000Y-1004148050I0J-218750D01*
G01*
X1039716000Y-1004585550D01*
G75*
G02*
X1039497250Y-1004804300I-218750J0D01*
G01*
X1038984750Y-1004804300D01*
G75*
G02*
X1038766000Y-1004585550I0J218750D01*
G01*
X1038766000Y-1004148050D01*
G75*
G02*
X1038984750Y-1003929300I218750J0D01*
G01*
G37*
G36*
G01*
X1038984750Y-1002354300D02*
X1039497250Y-1002354300D01*
G75*
G02*
X1039716000Y-1002573050I0J-218750D01*
G01*
X1039716000Y-1003010550D01*
G75*
G02*
X1039497250Y-1003229300I-218750J0D01*
G01*
X1038984750Y-1003229300D01*
G75*
G02*
X1038766000Y-1003010550I0J218750D01*
G01*
X1038766000Y-1002573050D01*
G75*
G02*
X1038984750Y-1002354300I218750J0D01*
G01*
G37*
G36*
G01*
X1045341900Y-997331950D02*
X1045341900Y-998244450D01*
G75*
G02*
X1045098150Y-998488200I-243750J0D01*
G01*
X1044610650Y-998488200D01*
G75*
G02*
X1044366900Y-998244450I0J243750D01*
G01*
X1044366900Y-997331950D01*
G75*
G02*
X1044610650Y-997088200I243750J0D01*
G01*
X1045098150Y-997088200D01*
G75*
G02*
X1045341900Y-997331950I0J-243750D01*
G01*
G37*
G36*
G01*
X1043466900Y-997331950D02*
X1043466900Y-998244450D01*
G75*
G02*
X1043223150Y-998488200I-243750J0D01*
G01*
X1042735650Y-998488200D01*
G75*
G02*
X1042491900Y-998244450I0J243750D01*
G01*
X1042491900Y-997331950D01*
G75*
G02*
X1042735650Y-997088200I243750J0D01*
G01*
X1043223150Y-997088200D01*
G75*
G02*
X1043466900Y-997331950I0J-243750D01*
G01*
G37*
G36*
G01*
X1041983900Y-1008760050D02*
X1041983900Y-1007847550D01*
G75*
G02*
X1042227650Y-1007603800I243750J0D01*
G01*
X1042715150Y-1007603800D01*
G75*
G02*
X1042958900Y-1007847550I0J-243750D01*
G01*
X1042958900Y-1008760050D01*
G75*
G02*
X1042715150Y-1009003800I-243750J0D01*
G01*
X1042227650Y-1009003800D01*
G75*
G02*
X1041983900Y-1008760050I0J243750D01*
G01*
G37*
G36*
G01*
X1043858900Y-1008760050D02*
X1043858900Y-1007847550D01*
G75*
G02*
X1044102650Y-1007603800I243750J0D01*
G01*
X1044590150Y-1007603800D01*
G75*
G02*
X1044833900Y-1007847550I0J-243750D01*
G01*
X1044833900Y-1008760050D01*
G75*
G02*
X1044590150Y-1009003800I-243750J0D01*
G01*
X1044102650Y-1009003800D01*
G75*
G02*
X1043858900Y-1008760050I0J243750D01*
G01*
G37*
G36*
G01*
X1045266500Y-999436950D02*
X1045266500Y-999949450D01*
G75*
G02*
X1045047750Y-1000168200I-218750J0D01*
G01*
X1044610250Y-1000168200D01*
G75*
G02*
X1044391500Y-999949450I0J218750D01*
G01*
X1044391500Y-999436950D01*
G75*
G02*
X1044610250Y-999218200I218750J0D01*
G01*
X1045047750Y-999218200D01*
G75*
G02*
X1045266500Y-999436950I0J-218750D01*
G01*
G37*
G36*
G01*
X1043691500Y-999436950D02*
X1043691500Y-999949450D01*
G75*
G02*
X1043472750Y-1000168200I-218750J0D01*
G01*
X1043035250Y-1000168200D01*
G75*
G02*
X1042816500Y-999949450I0J218750D01*
G01*
X1042816500Y-999436950D01*
G75*
G02*
X1043035250Y-999218200I218750J0D01*
G01*
X1043472750Y-999218200D01*
G75*
G02*
X1043691500Y-999436950I0J-218750D01*
G01*
G37*
G36*
G01*
X1055009500Y-1004442050D02*
X1055009500Y-1003529550D01*
G75*
G02*
X1055253250Y-1003285800I243750J0D01*
G01*
X1055740750Y-1003285800D01*
G75*
G02*
X1055984500Y-1003529550I0J-243750D01*
G01*
X1055984500Y-1004442050D01*
G75*
G02*
X1055740750Y-1004685800I-243750J0D01*
G01*
X1055253250Y-1004685800D01*
G75*
G02*
X1055009500Y-1004442050I0J243750D01*
G01*
G37*
G36*
G01*
X1053134500Y-1004442050D02*
X1053134500Y-1003529550D01*
G75*
G02*
X1053378250Y-1003285800I243750J0D01*
G01*
X1053865750Y-1003285800D01*
G75*
G02*
X1054109500Y-1003529550I0J-243750D01*
G01*
X1054109500Y-1004442050D01*
G75*
G02*
X1053865750Y-1004685800I-243750J0D01*
G01*
X1053378250Y-1004685800D01*
G75*
G02*
X1053134500Y-1004442050I0J243750D01*
G01*
G37*
G36*
G01*
X1053132200Y-1006677250D02*
X1053132200Y-1005764750D01*
G75*
G02*
X1053375950Y-1005521000I243750J0D01*
G01*
X1053863450Y-1005521000D01*
G75*
G02*
X1054107200Y-1005764750I0J-243750D01*
G01*
X1054107200Y-1006677250D01*
G75*
G02*
X1053863450Y-1006921000I-243750J0D01*
G01*
X1053375950Y-1006921000D01*
G75*
G02*
X1053132200Y-1006677250I0J243750D01*
G01*
G37*
G36*
G01*
X1055007200Y-1006677250D02*
X1055007200Y-1005764750D01*
G75*
G02*
X1055250950Y-1005521000I243750J0D01*
G01*
X1055738450Y-1005521000D01*
G75*
G02*
X1055982200Y-1005764750I0J-243750D01*
G01*
X1055982200Y-1006677250D01*
G75*
G02*
X1055738450Y-1006921000I-243750J0D01*
G01*
X1055250950Y-1006921000D01*
G75*
G02*
X1055007200Y-1006677250I0J243750D01*
G01*
G37*
G36*
G01*
X1053134500Y-1002283050D02*
X1053134500Y-1001370550D01*
G75*
G02*
X1053378250Y-1001126800I243750J0D01*
G01*
X1053865750Y-1001126800D01*
G75*
G02*
X1054109500Y-1001370550I0J-243750D01*
G01*
X1054109500Y-1002283050D01*
G75*
G02*
X1053865750Y-1002526800I-243750J0D01*
G01*
X1053378250Y-1002526800D01*
G75*
G02*
X1053134500Y-1002283050I0J243750D01*
G01*
G37*
G36*
G01*
X1055009500Y-1002283050D02*
X1055009500Y-1001370550D01*
G75*
G02*
X1055253250Y-1001126800I243750J0D01*
G01*
X1055740750Y-1001126800D01*
G75*
G02*
X1055984500Y-1001370550I0J-243750D01*
G01*
X1055984500Y-1002283050D01*
G75*
G02*
X1055740750Y-1002526800I-243750J0D01*
G01*
X1055253250Y-1002526800D01*
G75*
G02*
X1055009500Y-1002283050I0J243750D01*
G01*
G37*
G36*
G01*
X1051616500Y-1004364550D02*
X1051616500Y-1004877050D01*
G75*
G02*
X1051397750Y-1005095800I-218750J0D01*
G01*
X1050960250Y-1005095800D01*
G75*
G02*
X1050741500Y-1004877050I0J218750D01*
G01*
X1050741500Y-1004364550D01*
G75*
G02*
X1050960250Y-1004145800I218750J0D01*
G01*
X1051397750Y-1004145800D01*
G75*
G02*
X1051616500Y-1004364550I0J-218750D01*
G01*
G37*
G36*
G01*
X1050041500Y-1004364550D02*
X1050041500Y-1004877050D01*
G75*
G02*
X1049822750Y-1005095800I-218750J0D01*
G01*
X1049385250Y-1005095800D01*
G75*
G02*
X1049166500Y-1004877050I0J218750D01*
G01*
X1049166500Y-1004364550D01*
G75*
G02*
X1049385250Y-1004145800I218750J0D01*
G01*
X1049822750Y-1004145800D01*
G75*
G02*
X1050041500Y-1004364550I0J-218750D01*
G01*
G37*
G36*
G01*
X1046942700Y-1004364550D02*
X1046942700Y-1004877050D01*
G75*
G02*
X1046723950Y-1005095800I-218750J0D01*
G01*
X1046286450Y-1005095800D01*
G75*
G02*
X1046067700Y-1004877050I0J218750D01*
G01*
X1046067700Y-1004364550D01*
G75*
G02*
X1046286450Y-1004145800I218750J0D01*
G01*
X1046723950Y-1004145800D01*
G75*
G02*
X1046942700Y-1004364550I0J-218750D01*
G01*
G37*
G36*
G01*
X1048517700Y-1004364550D02*
X1048517700Y-1004877050D01*
G75*
G02*
X1048298950Y-1005095800I-218750J0D01*
G01*
X1047861450Y-1005095800D01*
G75*
G02*
X1047642700Y-1004877050I0J218750D01*
G01*
X1047642700Y-1004364550D01*
G75*
G02*
X1047861450Y-1004145800I218750J0D01*
G01*
X1048298950Y-1004145800D01*
G75*
G02*
X1048517700Y-1004364550I0J-218750D01*
G01*
G37*
G36*
G01*
X1051642100Y-1006091750D02*
X1051642100Y-1006604250D01*
G75*
G02*
X1051423350Y-1006823000I-218750J0D01*
G01*
X1050985850Y-1006823000D01*
G75*
G02*
X1050767100Y-1006604250I0J218750D01*
G01*
X1050767100Y-1006091750D01*
G75*
G02*
X1050985850Y-1005873000I218750J0D01*
G01*
X1051423350Y-1005873000D01*
G75*
G02*
X1051642100Y-1006091750I0J-218750D01*
G01*
G37*
G36*
G01*
X1050067100Y-1006091750D02*
X1050067100Y-1006604250D01*
G75*
G02*
X1049848350Y-1006823000I-218750J0D01*
G01*
X1049410850Y-1006823000D01*
G75*
G02*
X1049192100Y-1006604250I0J218750D01*
G01*
X1049192100Y-1006091750D01*
G75*
G02*
X1049410850Y-1005873000I218750J0D01*
G01*
X1049848350Y-1005873000D01*
G75*
G02*
X1050067100Y-1006091750I0J-218750D01*
G01*
G37*
G36*
G01*
X1041431100Y-999259150D02*
X1041431100Y-999771650D01*
G75*
G02*
X1041212350Y-999990400I-218750J0D01*
G01*
X1040774850Y-999990400D01*
G75*
G02*
X1040556100Y-999771650I0J218750D01*
G01*
X1040556100Y-999259150D01*
G75*
G02*
X1040774850Y-999040400I218750J0D01*
G01*
X1041212350Y-999040400D01*
G75*
G02*
X1041431100Y-999259150I0J-218750D01*
G01*
G37*
G36*
G01*
X1039856100Y-999259150D02*
X1039856100Y-999771650D01*
G75*
G02*
X1039637350Y-999990400I-218750J0D01*
G01*
X1039199850Y-999990400D01*
G75*
G02*
X1038981100Y-999771650I0J218750D01*
G01*
X1038981100Y-999259150D01*
G75*
G02*
X1039199850Y-999040400I218750J0D01*
G01*
X1039637350Y-999040400D01*
G75*
G02*
X1039856100Y-999259150I0J-218750D01*
G01*
G37*
G36*
G01*
X1044238900Y-1006477250D02*
X1044238900Y-1005964750D01*
G75*
G02*
X1044457650Y-1005746000I218750J0D01*
G01*
X1044895150Y-1005746000D01*
G75*
G02*
X1045113900Y-1005964750I0J-218750D01*
G01*
X1045113900Y-1006477250D01*
G75*
G02*
X1044895150Y-1006696000I-218750J0D01*
G01*
X1044457650Y-1006696000D01*
G75*
G02*
X1044238900Y-1006477250I0J218750D01*
G01*
G37*
G36*
G01*
X1045813900Y-1006477250D02*
X1045813900Y-1005964750D01*
G75*
G02*
X1046032650Y-1005746000I218750J0D01*
G01*
X1046470150Y-1005746000D01*
G75*
G02*
X1046688900Y-1005964750I0J-218750D01*
G01*
X1046688900Y-1006477250D01*
G75*
G02*
X1046470150Y-1006696000I-218750J0D01*
G01*
X1046032650Y-1006696000D01*
G75*
G02*
X1045813900Y-1006477250I0J218750D01*
G01*
G37*
G36*
G01*
X1039235100Y-997866650D02*
X1039235100Y-997354150D01*
G75*
G02*
X1039453850Y-997135400I218750J0D01*
G01*
X1039891350Y-997135400D01*
G75*
G02*
X1040110100Y-997354150I0J-218750D01*
G01*
X1040110100Y-997866650D01*
G75*
G02*
X1039891350Y-998085400I-218750J0D01*
G01*
X1039453850Y-998085400D01*
G75*
G02*
X1039235100Y-997866650I0J218750D01*
G01*
G37*
G36*
G01*
X1040810100Y-997866650D02*
X1040810100Y-997354150D01*
G75*
G02*
X1041028850Y-997135400I218750J0D01*
G01*
X1041466350Y-997135400D01*
G75*
G02*
X1041685100Y-997354150I0J-218750D01*
G01*
X1041685100Y-997866650D01*
G75*
G02*
X1041466350Y-998085400I-218750J0D01*
G01*
X1041028850Y-998085400D01*
G75*
G02*
X1040810100Y-997866650I0J218750D01*
G01*
G37*
G36*
G01*
X1049940100Y-1007717350D02*
X1049940100Y-1008229850D01*
G75*
G02*
X1049721350Y-1008448600I-218750J0D01*
G01*
X1049283850Y-1008448600D01*
G75*
G02*
X1049065100Y-1008229850I0J218750D01*
G01*
X1049065100Y-1007717350D01*
G75*
G02*
X1049283850Y-1007498600I218750J0D01*
G01*
X1049721350Y-1007498600D01*
G75*
G02*
X1049940100Y-1007717350I0J-218750D01*
G01*
G37*
G36*
G01*
X1048365100Y-1007717350D02*
X1048365100Y-1008229850D01*
G75*
G02*
X1048146350Y-1008448600I-218750J0D01*
G01*
X1047708850Y-1008448600D01*
G75*
G02*
X1047490100Y-1008229850I0J218750D01*
G01*
X1047490100Y-1007717350D01*
G75*
G02*
X1047708850Y-1007498600I218750J0D01*
G01*
X1048146350Y-1007498600D01*
G75*
G02*
X1048365100Y-1007717350I0J-218750D01*
G01*
G37*
D11*
X1046885400Y-1000277400D03*
X1051585400Y-1000277400D03*
G36*
G01*
X1053134500Y-1000174850D02*
X1053134500Y-999262350D01*
G75*
G02*
X1053378250Y-999018600I243750J0D01*
G01*
X1053865750Y-999018600D01*
G75*
G02*
X1054109500Y-999262350I0J-243750D01*
G01*
X1054109500Y-1000174850D01*
G75*
G02*
X1053865750Y-1000418600I-243750J0D01*
G01*
X1053378250Y-1000418600D01*
G75*
G02*
X1053134500Y-1000174850I0J243750D01*
G01*
G37*
G36*
G01*
X1055009500Y-1000174850D02*
X1055009500Y-999262350D01*
G75*
G02*
X1055253250Y-999018600I243750J0D01*
G01*
X1055740750Y-999018600D01*
G75*
G02*
X1055984500Y-999262350I0J-243750D01*
G01*
X1055984500Y-1000174850D01*
G75*
G02*
X1055740750Y-1000418600I-243750J0D01*
G01*
X1055253250Y-1000418600D01*
G75*
G02*
X1055009500Y-1000174850I0J243750D01*
G01*
G37*
G36*
G01*
X1041582700Y-1006044150D02*
X1041582700Y-1006956650D01*
G75*
G02*
X1041338950Y-1007200400I-243750J0D01*
G01*
X1040851450Y-1007200400D01*
G75*
G02*
X1040607700Y-1006956650I0J243750D01*
G01*
X1040607700Y-1006044150D01*
G75*
G02*
X1040851450Y-1005800400I243750J0D01*
G01*
X1041338950Y-1005800400D01*
G75*
G02*
X1041582700Y-1006044150I0J-243750D01*
G01*
G37*
G36*
G01*
X1039707700Y-1006044150D02*
X1039707700Y-1006956650D01*
G75*
G02*
X1039463950Y-1007200400I-243750J0D01*
G01*
X1038976450Y-1007200400D01*
G75*
G02*
X1038732700Y-1006956650I0J243750D01*
G01*
X1038732700Y-1006044150D01*
G75*
G02*
X1038976450Y-1005800400I243750J0D01*
G01*
X1039463950Y-1005800400D01*
G75*
G02*
X1039707700Y-1006044150I0J-243750D01*
G01*
G37*
D12*
X1041044400Y-1002488600D03*
D13*
X1041044400Y-1003013600D03*
D12*
X1041044400Y-1003538600D03*
D14*
X1041769400Y-1004613599D03*
X1042269399Y-1004613599D03*
D15*
X1043344398Y-1004463600D03*
D16*
X1044694398Y-1004163600D03*
D17*
X1043894400Y-1003013600D03*
D16*
X1044694398Y-1001863600D03*
D15*
X1043344398Y-1001563600D03*
D14*
X1042269399Y-1001413601D03*
X1041769400Y-1001413601D03*
D18*
X1041044400Y-1001863600D03*
X1041044400Y-1004163600D03*
M02*
