G04 #@! TF.GenerationSoftware,KiCad,Pcbnew,(5.1.9)-1*
G04 #@! TF.CreationDate,2021-08-28T05:14:42+03:00*
G04 #@! TF.ProjectId,Strobe_Module,5374726f-6265-45f4-9d6f-64756c652e6b,0000*
G04 #@! TF.SameCoordinates,Original*
G04 #@! TF.FileFunction,Legend,Top*
G04 #@! TF.FilePolarity,Positive*
%FSLAX46Y46*%
G04 Gerber Fmt 4.6, Leading zero omitted, Abs format (unit mm)*
G04 Created by KiCad (PCBNEW (5.1.9)-1) date 2021-08-28 05:14:42*
%MOMM*%
%LPD*%
G01*
G04 APERTURE LIST*
%ADD10C,0.120000*%
%ADD11C,0.100000*%
%ADD12C,0.150000*%
G04 APERTURE END LIST*
D10*
X1038731000Y-1003416521D02*
X1038731000Y-1003742079D01*
X1039751000Y-1003416521D02*
X1039751000Y-1003742079D01*
X1044175478Y-998498200D02*
X1043658322Y-998498200D01*
X1044175478Y-997078200D02*
X1043658322Y-997078200D01*
X1043150322Y-1007593800D02*
X1043667478Y-1007593800D01*
X1043150322Y-1009013800D02*
X1043667478Y-1009013800D01*
X1044204279Y-1000203200D02*
X1043878721Y-1000203200D01*
X1044204279Y-999183200D02*
X1043878721Y-999183200D01*
X1054300922Y-1004695800D02*
X1054818078Y-1004695800D01*
X1054300922Y-1003275800D02*
X1054818078Y-1003275800D01*
X1054298622Y-1005511000D02*
X1054815778Y-1005511000D01*
X1054298622Y-1006931000D02*
X1054815778Y-1006931000D01*
X1054300922Y-1001116800D02*
X1054818078Y-1001116800D01*
X1054300922Y-1002536800D02*
X1054818078Y-1002536800D01*
X1050554279Y-1005130800D02*
X1050228721Y-1005130800D01*
X1050554279Y-1004110800D02*
X1050228721Y-1004110800D01*
X1047455479Y-1004110800D02*
X1047129921Y-1004110800D01*
X1047455479Y-1005130800D02*
X1047129921Y-1005130800D01*
X1050579879Y-1006858000D02*
X1050254321Y-1006858000D01*
X1050579879Y-1005838000D02*
X1050254321Y-1005838000D01*
X1040368879Y-1000025400D02*
X1040043321Y-1000025400D01*
X1040368879Y-999005400D02*
X1040043321Y-999005400D01*
X1045301121Y-1005711000D02*
X1045626679Y-1005711000D01*
X1045301121Y-1006731000D02*
X1045626679Y-1006731000D01*
X1040297321Y-997100400D02*
X1040622879Y-997100400D01*
X1040297321Y-998120400D02*
X1040622879Y-998120400D01*
X1048877879Y-1008483600D02*
X1048552321Y-1008483600D01*
X1048877879Y-1007463600D02*
X1048552321Y-1007463600D01*
X1045835400Y-997077400D02*
X1045835400Y-998277400D01*
X1045835400Y-997077400D02*
X1047235400Y-997077400D01*
X1052635400Y-997077400D02*
X1051235400Y-997077400D01*
X1052635400Y-997077400D02*
X1052635400Y-998277400D01*
X1052635400Y-1003477400D02*
X1052635400Y-1002277400D01*
X1045835400Y-1003477400D02*
X1045835400Y-1002277400D01*
X1052635400Y-1003477400D02*
X1051235400Y-1003477400D01*
X1045835400Y-1003477400D02*
X1047235400Y-1003477400D01*
X1054300922Y-999008600D02*
X1054818078Y-999008600D01*
X1054300922Y-1000428600D02*
X1054818078Y-1000428600D01*
X1040416278Y-1007210400D02*
X1039899122Y-1007210400D01*
X1040416278Y-1005790400D02*
X1039899122Y-1005790400D01*
X1045066099Y-1004699540D02*
X1045066099Y-1004944000D01*
X1045066099Y-1001083200D02*
X1045066099Y-1001327660D01*
D11*
G36*
X1043203898Y-1000804001D02*
G01*
X1043203898Y-1000550001D01*
X1043584898Y-1000550001D01*
X1043584898Y-1000804001D01*
X1043203898Y-1000804001D01*
G37*
X1043203898Y-1000804001D02*
X1043203898Y-1000550001D01*
X1043584898Y-1000550001D01*
X1043584898Y-1000804001D01*
X1043203898Y-1000804001D01*
D12*
X1041028142Y-1003745966D02*
X1041075761Y-1003793585D01*
X1041123380Y-1003936442D01*
X1041123380Y-1004031680D01*
X1041075761Y-1004174538D01*
X1040980523Y-1004269776D01*
X1040885285Y-1004317395D01*
X1040694809Y-1004365014D01*
X1040551952Y-1004365014D01*
X1040361476Y-1004317395D01*
X1040266238Y-1004269776D01*
X1040171000Y-1004174538D01*
X1040123380Y-1004031680D01*
X1040123380Y-1003936442D01*
X1040171000Y-1003793585D01*
X1040218619Y-1003745966D01*
X1041123380Y-1002793585D02*
X1041123380Y-1003365014D01*
X1041123380Y-1003079300D02*
X1040123380Y-1003079300D01*
X1040266238Y-1003174538D01*
X1040361476Y-1003269776D01*
X1040409095Y-1003365014D01*
X1043750233Y-999795342D02*
X1043702614Y-999842961D01*
X1043559757Y-999890580D01*
X1043464519Y-999890580D01*
X1043321661Y-999842961D01*
X1043226423Y-999747723D01*
X1043178804Y-999652485D01*
X1043131185Y-999462009D01*
X1043131185Y-999319152D01*
X1043178804Y-999128676D01*
X1043226423Y-999033438D01*
X1043321661Y-998938200D01*
X1043464519Y-998890580D01*
X1043559757Y-998890580D01*
X1043702614Y-998938200D01*
X1043750233Y-998985819D01*
X1044131185Y-998985819D02*
X1044178804Y-998938200D01*
X1044274042Y-998890580D01*
X1044512138Y-998890580D01*
X1044607376Y-998938200D01*
X1044654995Y-998985819D01*
X1044702614Y-999081057D01*
X1044702614Y-999176295D01*
X1044654995Y-999319152D01*
X1044083566Y-999890580D01*
X1044702614Y-999890580D01*
X1043242233Y-1007010942D02*
X1043194614Y-1007058561D01*
X1043051757Y-1007106180D01*
X1042956519Y-1007106180D01*
X1042813661Y-1007058561D01*
X1042718423Y-1006963323D01*
X1042670804Y-1006868085D01*
X1042623185Y-1006677609D01*
X1042623185Y-1006534752D01*
X1042670804Y-1006344276D01*
X1042718423Y-1006249038D01*
X1042813661Y-1006153800D01*
X1042956519Y-1006106180D01*
X1043051757Y-1006106180D01*
X1043194614Y-1006153800D01*
X1043242233Y-1006201419D01*
X1043575566Y-1006106180D02*
X1044194614Y-1006106180D01*
X1043861280Y-1006487133D01*
X1044004138Y-1006487133D01*
X1044099376Y-1006534752D01*
X1044146995Y-1006582371D01*
X1044194614Y-1006677609D01*
X1044194614Y-1006915704D01*
X1044146995Y-1007010942D01*
X1044099376Y-1007058561D01*
X1044004138Y-1007106180D01*
X1043718423Y-1007106180D01*
X1043623185Y-1007058561D01*
X1043575566Y-1007010942D01*
X1043874833Y-1001480342D02*
X1043827214Y-1001527961D01*
X1043684357Y-1001575580D01*
X1043589119Y-1001575580D01*
X1043446261Y-1001527961D01*
X1043351023Y-1001432723D01*
X1043303404Y-1001337485D01*
X1043255785Y-1001147009D01*
X1043255785Y-1001004152D01*
X1043303404Y-1000813676D01*
X1043351023Y-1000718438D01*
X1043446261Y-1000623200D01*
X1043589119Y-1000575580D01*
X1043684357Y-1000575580D01*
X1043827214Y-1000623200D01*
X1043874833Y-1000670819D01*
X1044731976Y-1000908914D02*
X1044731976Y-1001575580D01*
X1044493880Y-1000527961D02*
X1044255785Y-1001242247D01*
X1044874833Y-1001242247D01*
X1054392833Y-1002692942D02*
X1054345214Y-1002740561D01*
X1054202357Y-1002788180D01*
X1054107119Y-1002788180D01*
X1053964261Y-1002740561D01*
X1053869023Y-1002645323D01*
X1053821404Y-1002550085D01*
X1053773785Y-1002359609D01*
X1053773785Y-1002216752D01*
X1053821404Y-1002026276D01*
X1053869023Y-1001931038D01*
X1053964261Y-1001835800D01*
X1054107119Y-1001788180D01*
X1054202357Y-1001788180D01*
X1054345214Y-1001835800D01*
X1054392833Y-1001883419D01*
X1054964261Y-1002216752D02*
X1054869023Y-1002169133D01*
X1054821404Y-1002121514D01*
X1054773785Y-1002026276D01*
X1054773785Y-1001978657D01*
X1054821404Y-1001883419D01*
X1054869023Y-1001835800D01*
X1054964261Y-1001788180D01*
X1055154738Y-1001788180D01*
X1055249976Y-1001835800D01*
X1055297595Y-1001883419D01*
X1055345214Y-1001978657D01*
X1055345214Y-1002026276D01*
X1055297595Y-1002121514D01*
X1055249976Y-1002169133D01*
X1055154738Y-1002216752D01*
X1054964261Y-1002216752D01*
X1054869023Y-1002264371D01*
X1054821404Y-1002311990D01*
X1054773785Y-1002407228D01*
X1054773785Y-1002597704D01*
X1054821404Y-1002692942D01*
X1054869023Y-1002740561D01*
X1054964261Y-1002788180D01*
X1055154738Y-1002788180D01*
X1055249976Y-1002740561D01*
X1055297595Y-1002692942D01*
X1055345214Y-1002597704D01*
X1055345214Y-1002407228D01*
X1055297595Y-1002311990D01*
X1055249976Y-1002264371D01*
X1055154738Y-1002216752D01*
X1054390533Y-1004928142D02*
X1054342914Y-1004975761D01*
X1054200057Y-1005023380D01*
X1054104819Y-1005023380D01*
X1053961961Y-1004975761D01*
X1053866723Y-1004880523D01*
X1053819104Y-1004785285D01*
X1053771485Y-1004594809D01*
X1053771485Y-1004451952D01*
X1053819104Y-1004261476D01*
X1053866723Y-1004166238D01*
X1053961961Y-1004071000D01*
X1054104819Y-1004023380D01*
X1054200057Y-1004023380D01*
X1054342914Y-1004071000D01*
X1054390533Y-1004118619D01*
X1054866723Y-1005023380D02*
X1055057200Y-1005023380D01*
X1055152438Y-1004975761D01*
X1055200057Y-1004928142D01*
X1055295295Y-1004785285D01*
X1055342914Y-1004594809D01*
X1055342914Y-1004213857D01*
X1055295295Y-1004118619D01*
X1055247676Y-1004071000D01*
X1055152438Y-1004023380D01*
X1054961961Y-1004023380D01*
X1054866723Y-1004071000D01*
X1054819104Y-1004118619D01*
X1054771485Y-1004213857D01*
X1054771485Y-1004451952D01*
X1054819104Y-1004547190D01*
X1054866723Y-1004594809D01*
X1054961961Y-1004642428D01*
X1055152438Y-1004642428D01*
X1055247676Y-1004594809D01*
X1055295295Y-1004547190D01*
X1055342914Y-1004451952D01*
X1053916642Y-1000533942D02*
X1053869023Y-1000581561D01*
X1053726166Y-1000629180D01*
X1053630928Y-1000629180D01*
X1053488071Y-1000581561D01*
X1053392833Y-1000486323D01*
X1053345214Y-1000391085D01*
X1053297595Y-1000200609D01*
X1053297595Y-1000057752D01*
X1053345214Y-999867276D01*
X1053392833Y-999772038D01*
X1053488071Y-999676800D01*
X1053630928Y-999629180D01*
X1053726166Y-999629180D01*
X1053869023Y-999676800D01*
X1053916642Y-999724419D01*
X1054869023Y-1000629180D02*
X1054297595Y-1000629180D01*
X1054583309Y-1000629180D02*
X1054583309Y-999629180D01*
X1054488071Y-999772038D01*
X1054392833Y-999867276D01*
X1054297595Y-999914895D01*
X1055488071Y-999629180D02*
X1055583309Y-999629180D01*
X1055678547Y-999676800D01*
X1055726166Y-999724419D01*
X1055773785Y-999819657D01*
X1055821404Y-1000010133D01*
X1055821404Y-1000248228D01*
X1055773785Y-1000438704D01*
X1055726166Y-1000533942D01*
X1055678547Y-1000581561D01*
X1055583309Y-1000629180D01*
X1055488071Y-1000629180D01*
X1055392833Y-1000581561D01*
X1055345214Y-1000533942D01*
X1055297595Y-1000438704D01*
X1055249976Y-1000248228D01*
X1055249976Y-1000010133D01*
X1055297595Y-999819657D01*
X1055345214Y-999724419D01*
X1055392833Y-999676800D01*
X1055488071Y-999629180D01*
X1050224833Y-1006503180D02*
X1049891500Y-1006026990D01*
X1049653404Y-1006503180D02*
X1049653404Y-1005503180D01*
X1050034357Y-1005503180D01*
X1050129595Y-1005550800D01*
X1050177214Y-1005598419D01*
X1050224833Y-1005693657D01*
X1050224833Y-1005836514D01*
X1050177214Y-1005931752D01*
X1050129595Y-1005979371D01*
X1050034357Y-1006026990D01*
X1049653404Y-1006026990D01*
X1051177214Y-1006503180D02*
X1050605785Y-1006503180D01*
X1050891500Y-1006503180D02*
X1050891500Y-1005503180D01*
X1050796261Y-1005646038D01*
X1050701023Y-1005741276D01*
X1050605785Y-1005788895D01*
X1047126033Y-1006503180D02*
X1046792700Y-1006026990D01*
X1046554604Y-1006503180D02*
X1046554604Y-1005503180D01*
X1046935557Y-1005503180D01*
X1047030795Y-1005550800D01*
X1047078414Y-1005598419D01*
X1047126033Y-1005693657D01*
X1047126033Y-1005836514D01*
X1047078414Y-1005931752D01*
X1047030795Y-1005979371D01*
X1046935557Y-1006026990D01*
X1046554604Y-1006026990D01*
X1047506985Y-1005598419D02*
X1047554604Y-1005550800D01*
X1047649842Y-1005503180D01*
X1047887938Y-1005503180D01*
X1047983176Y-1005550800D01*
X1048030795Y-1005598419D01*
X1048078414Y-1005693657D01*
X1048078414Y-1005788895D01*
X1048030795Y-1005931752D01*
X1047459366Y-1006503180D01*
X1048078414Y-1006503180D01*
X1050250433Y-1008230380D02*
X1049917100Y-1007754190D01*
X1049679004Y-1008230380D02*
X1049679004Y-1007230380D01*
X1050059957Y-1007230380D01*
X1050155195Y-1007278000D01*
X1050202814Y-1007325619D01*
X1050250433Y-1007420857D01*
X1050250433Y-1007563714D01*
X1050202814Y-1007658952D01*
X1050155195Y-1007706571D01*
X1050059957Y-1007754190D01*
X1049679004Y-1007754190D01*
X1051107576Y-1007563714D02*
X1051107576Y-1008230380D01*
X1050869480Y-1007182761D02*
X1050631385Y-1007897047D01*
X1051250433Y-1007897047D01*
X1040039433Y-1001397780D02*
X1039706100Y-1000921590D01*
X1039468004Y-1001397780D02*
X1039468004Y-1000397780D01*
X1039848957Y-1000397780D01*
X1039944195Y-1000445400D01*
X1039991814Y-1000493019D01*
X1040039433Y-1000588257D01*
X1040039433Y-1000731114D01*
X1039991814Y-1000826352D01*
X1039944195Y-1000873971D01*
X1039848957Y-1000921590D01*
X1039468004Y-1000921590D01*
X1040944195Y-1000397780D02*
X1040468004Y-1000397780D01*
X1040420385Y-1000873971D01*
X1040468004Y-1000826352D01*
X1040563242Y-1000778733D01*
X1040801338Y-1000778733D01*
X1040896576Y-1000826352D01*
X1040944195Y-1000873971D01*
X1040991814Y-1000969209D01*
X1040991814Y-1001207304D01*
X1040944195Y-1001302542D01*
X1040896576Y-1001350161D01*
X1040801338Y-1001397780D01*
X1040563242Y-1001397780D01*
X1040468004Y-1001350161D01*
X1040420385Y-1001302542D01*
X1045297233Y-1005148142D02*
X1045249614Y-1005195761D01*
X1045106757Y-1005243380D01*
X1045011519Y-1005243380D01*
X1044868661Y-1005195761D01*
X1044773423Y-1005100523D01*
X1044725804Y-1005005285D01*
X1044678185Y-1004814809D01*
X1044678185Y-1004671952D01*
X1044725804Y-1004481476D01*
X1044773423Y-1004386238D01*
X1044868661Y-1004291000D01*
X1045011519Y-1004243380D01*
X1045106757Y-1004243380D01*
X1045249614Y-1004291000D01*
X1045297233Y-1004338619D01*
X1046201995Y-1004243380D02*
X1045725804Y-1004243380D01*
X1045678185Y-1004719571D01*
X1045725804Y-1004671952D01*
X1045821042Y-1004624333D01*
X1046059138Y-1004624333D01*
X1046154376Y-1004671952D01*
X1046201995Y-1004719571D01*
X1046249614Y-1004814809D01*
X1046249614Y-1005052904D01*
X1046201995Y-1005148142D01*
X1046154376Y-1005195761D01*
X1046059138Y-1005243380D01*
X1045821042Y-1005243380D01*
X1045725804Y-1005195761D01*
X1045678185Y-1005148142D01*
X1041485885Y-1004649580D02*
X1042152552Y-1005649580D01*
X1042152552Y-1004649580D02*
X1041485885Y-1005649580D01*
X1042485885Y-1005601961D02*
X1042628742Y-1005649580D01*
X1042866838Y-1005649580D01*
X1042962076Y-1005601961D01*
X1043009695Y-1005554342D01*
X1043057314Y-1005459104D01*
X1043057314Y-1005363866D01*
X1043009695Y-1005268628D01*
X1042962076Y-1005221009D01*
X1042866838Y-1005173390D01*
X1042676361Y-1005125771D01*
X1042581123Y-1005078152D01*
X1042533504Y-1005030533D01*
X1042485885Y-1004935295D01*
X1042485885Y-1004840057D01*
X1042533504Y-1004744819D01*
X1042581123Y-1004697200D01*
X1042676361Y-1004649580D01*
X1042914457Y-1004649580D01*
X1043057314Y-1004697200D01*
X1044009695Y-1005649580D02*
X1043438266Y-1005649580D01*
X1043723980Y-1005649580D02*
X1043723980Y-1004649580D01*
X1043628742Y-1004792438D01*
X1043533504Y-1004887676D01*
X1043438266Y-1004935295D01*
X1039733285Y-1006656180D02*
X1040399952Y-1007656180D01*
X1040399952Y-1006656180D02*
X1039733285Y-1007656180D01*
X1040733285Y-1007608561D02*
X1040876142Y-1007656180D01*
X1041114238Y-1007656180D01*
X1041209476Y-1007608561D01*
X1041257095Y-1007560942D01*
X1041304714Y-1007465704D01*
X1041304714Y-1007370466D01*
X1041257095Y-1007275228D01*
X1041209476Y-1007227609D01*
X1041114238Y-1007179990D01*
X1040923761Y-1007132371D01*
X1040828523Y-1007084752D01*
X1040780904Y-1007037133D01*
X1040733285Y-1006941895D01*
X1040733285Y-1006846657D01*
X1040780904Y-1006751419D01*
X1040828523Y-1006703800D01*
X1040923761Y-1006656180D01*
X1041161857Y-1006656180D01*
X1041304714Y-1006703800D01*
X1041685666Y-1006751419D02*
X1041733285Y-1006703800D01*
X1041828523Y-1006656180D01*
X1042066619Y-1006656180D01*
X1042161857Y-1006703800D01*
X1042209476Y-1006751419D01*
X1042257095Y-1006846657D01*
X1042257095Y-1006941895D01*
X1042209476Y-1007084752D01*
X1041638047Y-1007656180D01*
X1042257095Y-1007656180D01*
X1052331685Y-1006681580D02*
X1052998352Y-1007681580D01*
X1052998352Y-1006681580D02*
X1052331685Y-1007681580D01*
X1053331685Y-1007633961D02*
X1053474542Y-1007681580D01*
X1053712638Y-1007681580D01*
X1053807876Y-1007633961D01*
X1053855495Y-1007586342D01*
X1053903114Y-1007491104D01*
X1053903114Y-1007395866D01*
X1053855495Y-1007300628D01*
X1053807876Y-1007253009D01*
X1053712638Y-1007205390D01*
X1053522161Y-1007157771D01*
X1053426923Y-1007110152D01*
X1053379304Y-1007062533D01*
X1053331685Y-1006967295D01*
X1053331685Y-1006872057D01*
X1053379304Y-1006776819D01*
X1053426923Y-1006729200D01*
X1053522161Y-1006681580D01*
X1053760257Y-1006681580D01*
X1053903114Y-1006729200D01*
X1054760257Y-1007014914D02*
X1054760257Y-1007681580D01*
X1054522161Y-1006633961D02*
X1054284066Y-1007348247D01*
X1054903114Y-1007348247D01*
X1053811295Y-996089780D02*
X1054477961Y-997089780D01*
X1054477961Y-996089780D02*
X1053811295Y-997089780D01*
X1054811295Y-997042161D02*
X1054954152Y-997089780D01*
X1055192247Y-997089780D01*
X1055287485Y-997042161D01*
X1055335104Y-996994542D01*
X1055382723Y-996899304D01*
X1055382723Y-996804066D01*
X1055335104Y-996708828D01*
X1055287485Y-996661209D01*
X1055192247Y-996613590D01*
X1055001771Y-996565971D01*
X1054906533Y-996518352D01*
X1054858914Y-996470733D01*
X1054811295Y-996375495D01*
X1054811295Y-996280257D01*
X1054858914Y-996185019D01*
X1054906533Y-996137400D01*
X1055001771Y-996089780D01*
X1055239866Y-996089780D01*
X1055382723Y-996137400D01*
X1056335104Y-997089780D02*
X1055763676Y-997089780D01*
X1056049390Y-997089780D02*
X1056049390Y-996089780D01*
X1055954152Y-996232638D01*
X1055858914Y-996327876D01*
X1055763676Y-996375495D01*
X1057287485Y-997089780D02*
X1056716057Y-997089780D01*
X1057001771Y-997089780D02*
X1057001771Y-996089780D01*
X1056906533Y-996232638D01*
X1056811295Y-996327876D01*
X1056716057Y-996375495D01*
X1037504495Y-999518780D02*
X1038171161Y-1000518780D01*
X1038171161Y-999518780D02*
X1037504495Y-1000518780D01*
X1038504495Y-1000471161D02*
X1038647352Y-1000518780D01*
X1038885447Y-1000518780D01*
X1038980685Y-1000471161D01*
X1039028304Y-1000423542D01*
X1039075923Y-1000328304D01*
X1039075923Y-1000233066D01*
X1039028304Y-1000137828D01*
X1038980685Y-1000090209D01*
X1038885447Y-1000042590D01*
X1038694971Y-999994971D01*
X1038599733Y-999947352D01*
X1038552114Y-999899733D01*
X1038504495Y-999804495D01*
X1038504495Y-999709257D01*
X1038552114Y-999614019D01*
X1038599733Y-999566400D01*
X1038694971Y-999518780D01*
X1038933066Y-999518780D01*
X1039075923Y-999566400D01*
X1040028304Y-1000518780D02*
X1039456876Y-1000518780D01*
X1039742590Y-1000518780D02*
X1039742590Y-999518780D01*
X1039647352Y-999661638D01*
X1039552114Y-999756876D01*
X1039456876Y-999804495D01*
X1040409257Y-999614019D02*
X1040456876Y-999566400D01*
X1040552114Y-999518780D01*
X1040790209Y-999518780D01*
X1040885447Y-999566400D01*
X1040933066Y-999614019D01*
X1040980685Y-999709257D01*
X1040980685Y-999804495D01*
X1040933066Y-999947352D01*
X1040361638Y-1000518780D01*
X1040980685Y-1000518780D01*
X1053811295Y-1006681580D02*
X1054477961Y-1007681580D01*
X1054477961Y-1006681580D02*
X1053811295Y-1007681580D01*
X1054811295Y-1007633961D02*
X1054954152Y-1007681580D01*
X1055192247Y-1007681580D01*
X1055287485Y-1007633961D01*
X1055335104Y-1007586342D01*
X1055382723Y-1007491104D01*
X1055382723Y-1007395866D01*
X1055335104Y-1007300628D01*
X1055287485Y-1007253009D01*
X1055192247Y-1007205390D01*
X1055001771Y-1007157771D01*
X1054906533Y-1007110152D01*
X1054858914Y-1007062533D01*
X1054811295Y-1006967295D01*
X1054811295Y-1006872057D01*
X1054858914Y-1006776819D01*
X1054906533Y-1006729200D01*
X1055001771Y-1006681580D01*
X1055239866Y-1006681580D01*
X1055382723Y-1006729200D01*
X1056335104Y-1007681580D02*
X1055763676Y-1007681580D01*
X1056049390Y-1007681580D02*
X1056049390Y-1006681580D01*
X1055954152Y-1006824438D01*
X1055858914Y-1006919676D01*
X1055763676Y-1006967295D01*
X1057192247Y-1006681580D02*
X1057001771Y-1006681580D01*
X1056906533Y-1006729200D01*
X1056858914Y-1006776819D01*
X1056763676Y-1006919676D01*
X1056716057Y-1007110152D01*
X1056716057Y-1007491104D01*
X1056763676Y-1007586342D01*
X1056811295Y-1007633961D01*
X1056906533Y-1007681580D01*
X1057097009Y-1007681580D01*
X1057192247Y-1007633961D01*
X1057239866Y-1007586342D01*
X1057287485Y-1007491104D01*
X1057287485Y-1007253009D01*
X1057239866Y-1007157771D01*
X1057192247Y-1007110152D01*
X1057097009Y-1007062533D01*
X1056906533Y-1007062533D01*
X1056811295Y-1007110152D01*
X1056763676Y-1007157771D01*
X1056716057Y-1007253009D01*
X1037504495Y-1006732180D02*
X1038171161Y-1007732180D01*
X1038171161Y-1006732180D02*
X1037504495Y-1007732180D01*
X1038504495Y-1007684561D02*
X1038647352Y-1007732180D01*
X1038885447Y-1007732180D01*
X1038980685Y-1007684561D01*
X1039028304Y-1007636942D01*
X1039075923Y-1007541704D01*
X1039075923Y-1007446466D01*
X1039028304Y-1007351228D01*
X1038980685Y-1007303609D01*
X1038885447Y-1007255990D01*
X1038694971Y-1007208371D01*
X1038599733Y-1007160752D01*
X1038552114Y-1007113133D01*
X1038504495Y-1007017895D01*
X1038504495Y-1006922657D01*
X1038552114Y-1006827419D01*
X1038599733Y-1006779800D01*
X1038694971Y-1006732180D01*
X1038933066Y-1006732180D01*
X1039075923Y-1006779800D01*
X1040028304Y-1007732180D02*
X1039456876Y-1007732180D01*
X1039742590Y-1007732180D02*
X1039742590Y-1006732180D01*
X1039647352Y-1006875038D01*
X1039552114Y-1006970276D01*
X1039456876Y-1007017895D01*
X1040361638Y-1006732180D02*
X1041028304Y-1006732180D01*
X1040599733Y-1007732180D01*
X1040293433Y-996537542D02*
X1040245814Y-996585161D01*
X1040102957Y-996632780D01*
X1040007719Y-996632780D01*
X1039864861Y-996585161D01*
X1039769623Y-996489923D01*
X1039722004Y-996394685D01*
X1039674385Y-996204209D01*
X1039674385Y-996061352D01*
X1039722004Y-995870876D01*
X1039769623Y-995775638D01*
X1039864861Y-995680400D01*
X1040007719Y-995632780D01*
X1040102957Y-995632780D01*
X1040245814Y-995680400D01*
X1040293433Y-995728019D01*
X1041150576Y-995632780D02*
X1040960100Y-995632780D01*
X1040864861Y-995680400D01*
X1040817242Y-995728019D01*
X1040722004Y-995870876D01*
X1040674385Y-996061352D01*
X1040674385Y-996442304D01*
X1040722004Y-996537542D01*
X1040769623Y-996585161D01*
X1040864861Y-996632780D01*
X1041055338Y-996632780D01*
X1041150576Y-996585161D01*
X1041198195Y-996537542D01*
X1041245814Y-996442304D01*
X1041245814Y-996204209D01*
X1041198195Y-996108971D01*
X1041150576Y-996061352D01*
X1041055338Y-996013733D01*
X1040864861Y-996013733D01*
X1040769623Y-996061352D01*
X1040722004Y-996108971D01*
X1040674385Y-996204209D01*
X1048548433Y-1009760742D02*
X1048500814Y-1009808361D01*
X1048357957Y-1009855980D01*
X1048262719Y-1009855980D01*
X1048119861Y-1009808361D01*
X1048024623Y-1009713123D01*
X1047977004Y-1009617885D01*
X1047929385Y-1009427409D01*
X1047929385Y-1009284552D01*
X1047977004Y-1009094076D01*
X1048024623Y-1008998838D01*
X1048119861Y-1008903600D01*
X1048262719Y-1008855980D01*
X1048357957Y-1008855980D01*
X1048500814Y-1008903600D01*
X1048548433Y-1008951219D01*
X1048881766Y-1008855980D02*
X1049548433Y-1008855980D01*
X1049119861Y-1009855980D01*
X1049068733Y-1004729780D02*
X1048592542Y-1004729780D01*
X1048592542Y-1003729780D01*
X1049925876Y-1004729780D02*
X1049354447Y-1004729780D01*
X1049640161Y-1004729780D02*
X1049640161Y-1003729780D01*
X1049544923Y-1003872638D01*
X1049449685Y-1003967876D01*
X1049354447Y-1004015495D01*
X1053916642Y-998425742D02*
X1053869023Y-998473361D01*
X1053726166Y-998520980D01*
X1053630928Y-998520980D01*
X1053488071Y-998473361D01*
X1053392833Y-998378123D01*
X1053345214Y-998282885D01*
X1053297595Y-998092409D01*
X1053297595Y-997949552D01*
X1053345214Y-997759076D01*
X1053392833Y-997663838D01*
X1053488071Y-997568600D01*
X1053630928Y-997520980D01*
X1053726166Y-997520980D01*
X1053869023Y-997568600D01*
X1053916642Y-997616219D01*
X1054869023Y-998520980D02*
X1054297595Y-998520980D01*
X1054583309Y-998520980D02*
X1054583309Y-997520980D01*
X1054488071Y-997663838D01*
X1054392833Y-997759076D01*
X1054297595Y-997806695D01*
X1055345214Y-998520980D02*
X1055535690Y-998520980D01*
X1055630928Y-998473361D01*
X1055678547Y-998425742D01*
X1055773785Y-998282885D01*
X1055821404Y-998092409D01*
X1055821404Y-997711457D01*
X1055773785Y-997616219D01*
X1055726166Y-997568600D01*
X1055630928Y-997520980D01*
X1055440452Y-997520980D01*
X1055345214Y-997568600D01*
X1055297595Y-997616219D01*
X1055249976Y-997711457D01*
X1055249976Y-997949552D01*
X1055297595Y-998044790D01*
X1055345214Y-998092409D01*
X1055440452Y-998140028D01*
X1055630928Y-998140028D01*
X1055726166Y-998092409D01*
X1055773785Y-998044790D01*
X1055821404Y-997949552D01*
X1039514842Y-1008507542D02*
X1039467223Y-1008555161D01*
X1039324366Y-1008602780D01*
X1039229128Y-1008602780D01*
X1039086271Y-1008555161D01*
X1038991033Y-1008459923D01*
X1038943414Y-1008364685D01*
X1038895795Y-1008174209D01*
X1038895795Y-1008031352D01*
X1038943414Y-1007840876D01*
X1038991033Y-1007745638D01*
X1039086271Y-1007650400D01*
X1039229128Y-1007602780D01*
X1039324366Y-1007602780D01*
X1039467223Y-1007650400D01*
X1039514842Y-1007698019D01*
X1039895795Y-1007698019D02*
X1039943414Y-1007650400D01*
X1040038652Y-1007602780D01*
X1040276747Y-1007602780D01*
X1040371985Y-1007650400D01*
X1040419604Y-1007698019D01*
X1040467223Y-1007793257D01*
X1040467223Y-1007888495D01*
X1040419604Y-1008031352D01*
X1039848176Y-1008602780D01*
X1040467223Y-1008602780D01*
X1041086271Y-1007602780D02*
X1041181509Y-1007602780D01*
X1041276747Y-1007650400D01*
X1041324366Y-1007698019D01*
X1041371985Y-1007793257D01*
X1041419604Y-1007983733D01*
X1041419604Y-1008221828D01*
X1041371985Y-1008412304D01*
X1041324366Y-1008507542D01*
X1041276747Y-1008555161D01*
X1041181509Y-1008602780D01*
X1041086271Y-1008602780D01*
X1040991033Y-1008555161D01*
X1040943414Y-1008507542D01*
X1040895795Y-1008412304D01*
X1040848176Y-1008221828D01*
X1040848176Y-1007983733D01*
X1040895795Y-1007793257D01*
X1040943414Y-1007698019D01*
X1040991033Y-1007650400D01*
X1041086271Y-1007602780D01*
X1042132494Y-1002465980D02*
X1042132494Y-1003275504D01*
X1042180113Y-1003370742D01*
X1042227732Y-1003418361D01*
X1042322970Y-1003465980D01*
X1042513446Y-1003465980D01*
X1042608684Y-1003418361D01*
X1042656303Y-1003370742D01*
X1042703922Y-1003275504D01*
X1042703922Y-1002465980D01*
X1043703922Y-1003465980D02*
X1043132494Y-1003465980D01*
X1043418208Y-1003465980D02*
X1043418208Y-1002465980D01*
X1043322970Y-1002608838D01*
X1043227732Y-1002704076D01*
X1043132494Y-1002751695D01*
X1035346779Y-1003465980D02*
X1034870589Y-1003465980D01*
X1034870589Y-1002465980D01*
X1035680113Y-1003465980D02*
X1035680113Y-1002465980D01*
X1036013446Y-1003180266D01*
X1036346779Y-1002465980D01*
X1036346779Y-1003465980D01*
X1037251541Y-1002465980D02*
X1037061065Y-1002465980D01*
X1036965827Y-1002513600D01*
X1036918208Y-1002561219D01*
X1036822970Y-1002704076D01*
X1036775351Y-1002894552D01*
X1036775351Y-1003275504D01*
X1036822970Y-1003370742D01*
X1036870589Y-1003418361D01*
X1036965827Y-1003465980D01*
X1037156303Y-1003465980D01*
X1037251541Y-1003418361D01*
X1037299160Y-1003370742D01*
X1037346779Y-1003275504D01*
X1037346779Y-1003037409D01*
X1037299160Y-1002942171D01*
X1037251541Y-1002894552D01*
X1037156303Y-1002846933D01*
X1036965827Y-1002846933D01*
X1036870589Y-1002894552D01*
X1036822970Y-1002942171D01*
X1036775351Y-1003037409D01*
X1037727732Y-1002561219D02*
X1037775351Y-1002513600D01*
X1037870589Y-1002465980D01*
X1038108684Y-1002465980D01*
X1038203922Y-1002513600D01*
X1038251541Y-1002561219D01*
X1038299160Y-1002656457D01*
X1038299160Y-1002751695D01*
X1038251541Y-1002894552D01*
X1037680113Y-1003465980D01*
X1038299160Y-1003465980D01*
X1039156303Y-1002799314D02*
X1039156303Y-1003465980D01*
X1038918208Y-1002418361D02*
X1038680113Y-1003132647D01*
X1039299160Y-1003132647D01*
X1039584875Y-1002465980D02*
X1040203922Y-1002465980D01*
X1039870589Y-1002846933D01*
X1040013446Y-1002846933D01*
X1040108684Y-1002894552D01*
X1040156303Y-1002942171D01*
X1040203922Y-1003037409D01*
X1040203922Y-1003275504D01*
X1040156303Y-1003370742D01*
X1040108684Y-1003418361D01*
X1040013446Y-1003465980D01*
X1039727732Y-1003465980D01*
X1039632494Y-1003418361D01*
X1039584875Y-1003370742D01*
X1041108684Y-1002465980D02*
X1040632494Y-1002465980D01*
X1040584875Y-1002942171D01*
X1040632494Y-1002894552D01*
X1040727732Y-1002846933D01*
X1040965827Y-1002846933D01*
X1041061065Y-1002894552D01*
X1041108684Y-1002942171D01*
X1041156303Y-1003037409D01*
X1041156303Y-1003275504D01*
X1041108684Y-1003370742D01*
X1041061065Y-1003418361D01*
X1040965827Y-1003465980D01*
X1040727732Y-1003465980D01*
X1040632494Y-1003418361D01*
X1040584875Y-1003370742D01*
X1041918208Y-1002942171D02*
X1042061065Y-1002989790D01*
X1042108684Y-1003037409D01*
X1042156303Y-1003132647D01*
X1042156303Y-1003275504D01*
X1042108684Y-1003370742D01*
X1042061065Y-1003418361D01*
X1041965827Y-1003465980D01*
X1041584875Y-1003465980D01*
X1041584875Y-1002465980D01*
X1041918208Y-1002465980D01*
X1042013446Y-1002513600D01*
X1042061065Y-1002561219D01*
X1042108684Y-1002656457D01*
X1042108684Y-1002751695D01*
X1042061065Y-1002846933D01*
X1042013446Y-1002894552D01*
X1041918208Y-1002942171D01*
X1041584875Y-1002942171D01*
X1042584875Y-1003465980D02*
X1042584875Y-1002465980D01*
X1042965827Y-1002465980D01*
X1043061065Y-1002513600D01*
X1043108684Y-1002561219D01*
X1043156303Y-1002656457D01*
X1043156303Y-1002799314D01*
X1043108684Y-1002894552D01*
X1043061065Y-1002942171D01*
X1042965827Y-1002989790D01*
X1042584875Y-1002989790D01*
X1043584875Y-1003465980D02*
X1043584875Y-1002465980D01*
X1043965827Y-1002465980D01*
X1044061065Y-1002513600D01*
X1044108684Y-1002561219D01*
X1044156303Y-1002656457D01*
X1044156303Y-1002799314D01*
X1044108684Y-1002894552D01*
X1044061065Y-1002942171D01*
X1043965827Y-1002989790D01*
X1043584875Y-1002989790D01*
X1045251541Y-1003561219D02*
X1045156303Y-1003513600D01*
X1045061065Y-1003418361D01*
X1044918208Y-1003275504D01*
X1044822970Y-1003227885D01*
X1044727732Y-1003227885D01*
X1044775351Y-1003465980D02*
X1044680113Y-1003418361D01*
X1044584875Y-1003323123D01*
X1044537256Y-1003132647D01*
X1044537256Y-1002799314D01*
X1044584875Y-1002608838D01*
X1044680113Y-1002513600D01*
X1044775351Y-1002465980D01*
X1044965827Y-1002465980D01*
X1045061065Y-1002513600D01*
X1045156303Y-1002608838D01*
X1045203922Y-1002799314D01*
X1045203922Y-1003132647D01*
X1045156303Y-1003323123D01*
X1045061065Y-1003418361D01*
X1044965827Y-1003465980D01*
X1044775351Y-1003465980D01*
X1046203922Y-1003465980D02*
X1045870589Y-1002989790D01*
X1045632494Y-1003465980D02*
X1045632494Y-1002465980D01*
X1046013446Y-1002465980D01*
X1046108684Y-1002513600D01*
X1046156303Y-1002561219D01*
X1046203922Y-1002656457D01*
X1046203922Y-1002799314D01*
X1046156303Y-1002894552D01*
X1046108684Y-1002942171D01*
X1046013446Y-1002989790D01*
X1045632494Y-1002989790D01*
X1046918208Y-1002465980D02*
X1046918208Y-1003180266D01*
X1046870589Y-1003323123D01*
X1046775351Y-1003418361D01*
X1046632494Y-1003465980D01*
X1046537256Y-1003465980D01*
X1047965827Y-1003465980D02*
X1047632494Y-1002989790D01*
X1047394399Y-1003465980D02*
X1047394399Y-1002465980D01*
X1047775351Y-1002465980D01*
X1047870589Y-1002513600D01*
X1047918208Y-1002561219D01*
X1047965827Y-1002656457D01*
X1047965827Y-1002799314D01*
X1047918208Y-1002894552D01*
X1047870589Y-1002942171D01*
X1047775351Y-1002989790D01*
X1047394399Y-1002989790D01*
X1048965827Y-1003465980D02*
X1048632494Y-1002989790D01*
X1048394399Y-1003465980D02*
X1048394399Y-1002465980D01*
X1048775351Y-1002465980D01*
X1048870589Y-1002513600D01*
X1048918208Y-1002561219D01*
X1048965827Y-1002656457D01*
X1048965827Y-1002799314D01*
X1048918208Y-1002894552D01*
X1048870589Y-1002942171D01*
X1048775351Y-1002989790D01*
X1048394399Y-1002989790D01*
X1050061065Y-1003561219D02*
X1049965827Y-1003513600D01*
X1049870589Y-1003418361D01*
X1049727732Y-1003275504D01*
X1049632494Y-1003227885D01*
X1049537256Y-1003227885D01*
X1049584875Y-1003465980D02*
X1049489637Y-1003418361D01*
X1049394399Y-1003323123D01*
X1049346779Y-1003132647D01*
X1049346779Y-1002799314D01*
X1049394399Y-1002608838D01*
X1049489637Y-1002513600D01*
X1049584875Y-1002465980D01*
X1049775351Y-1002465980D01*
X1049870589Y-1002513600D01*
X1049965827Y-1002608838D01*
X1050013446Y-1002799314D01*
X1050013446Y-1003132647D01*
X1049965827Y-1003323123D01*
X1049870589Y-1003418361D01*
X1049775351Y-1003465980D01*
X1049584875Y-1003465980D01*
X1050965827Y-1003465980D02*
X1050394399Y-1003465980D01*
X1050680113Y-1003465980D02*
X1050680113Y-1002465980D01*
X1050584875Y-1002608838D01*
X1050489637Y-1002704076D01*
X1050394399Y-1002751695D01*
X1040053799Y-1001297480D02*
X1040053799Y-1001535576D01*
X1039815703Y-1001440338D02*
X1040053799Y-1001535576D01*
X1040291894Y-1001440338D01*
X1039910941Y-1001726052D02*
X1040053799Y-1001535576D01*
X1040196656Y-1001726052D01*
X1040053799Y-1001297480D02*
X1040053799Y-1001535576D01*
X1039815703Y-1001440338D02*
X1040053799Y-1001535576D01*
X1040291894Y-1001440338D01*
X1039910941Y-1001726052D02*
X1040053799Y-1001535576D01*
X1040196656Y-1001726052D01*
M02*
