%TF.GenerationSoftware,KiCad,Pcbnew,(5.1.9)-1*%
%TF.CreationDate,2021-08-28T05:28:57+03:00*%
%TF.ProjectId,LED_L_Arm_001,4c45445f-4c5f-4417-926d-5f3030312e6b,rev?*%
%TF.SameCoordinates,Original*%
%TF.FileFunction,Copper,L1,Top*%
%TF.FilePolarity,Positive*%
%FSLAX46Y46*%
G04 Gerber Fmt 4.6, Leading zero omitted, Abs format (unit mm)*
G04 Created by KiCad (PCBNEW (5.1.9)-1) date 2021-08-28 05:28:57*
%MOMM*%
%LPD*%
G01*
G04 APERTURE LIST*
%TA.AperFunction,SMDPad,CuDef*%
%ADD10R,3.000000X1.500000*%
%TD*%
%TA.AperFunction,SMDPad,CuDef*%
%ADD11R,1.300000X3.300000*%
%TD*%
%TA.AperFunction,SMDPad,CuDef*%
%ADD12R,0.500000X3.300000*%
%TD*%
%TA.AperFunction,ComponentPad*%
%ADD13C,1.000000*%
%TD*%
%TA.AperFunction,ComponentPad*%
%ADD14C,1.900000*%
%TD*%
%TA.AperFunction,ComponentPad*%
%ADD15C,1.400000*%
%TD*%
%TA.AperFunction,ViaPad*%
%ADD16C,0.800000*%
%TD*%
%TA.AperFunction,Conductor*%
%ADD17C,0.700000*%
%TD*%
%TA.AperFunction,Conductor*%
%ADD18C,0.300000*%
%TD*%
%TA.AperFunction,Conductor*%
%ADD19C,0.100000*%
%TD*%
G04 APERTURE END LIST*
D10*
%TO.P,J3,1*%
%TO.N,GND*%
X2200000Y-9700000D03*
%TD*%
%TO.P,J4,1*%
%TO.N,GND*%
X43000000Y-9700000D03*
%TD*%
%TO.P,J5,1*%
%TO.N,GND*%
X41400000Y-4500000D03*
%TD*%
%TO.P,J6,1*%
%TO.N,GND*%
X3200000Y-4500000D03*
%TD*%
D11*
%TO.P,D1,3*%
%TO.N,N/C*%
X25531800Y-7050300D03*
D12*
%TO.P,D1,1*%
%TO.N,Net-(D1-Pad1)*%
X26931800Y-7050300D03*
%TO.P,D1,2*%
%TO.N,Net-(C1-Pad1)*%
X24131800Y-7050300D03*
%TD*%
%TO.P,D2,2*%
%TO.N,Net-(C1-Pad1)*%
X20931800Y-7050300D03*
%TO.P,D2,1*%
%TO.N,Net-(D2-Pad1)*%
X18131800Y-7050300D03*
D11*
%TO.P,D2,3*%
%TO.N,N/C*%
X19531800Y-7050300D03*
%TD*%
D12*
%TO.P,D3,2*%
%TO.N,Net-(D1-Pad1)*%
X30131800Y-7050300D03*
%TO.P,D3,1*%
%TO.N,Net-(D3-Pad1)*%
X32931800Y-7050300D03*
D11*
%TO.P,D3,3*%
%TO.N,N/C*%
X31531800Y-7050300D03*
%TD*%
%TO.P,D4,3*%
%TO.N,N/C*%
X13531800Y-7050300D03*
D12*
%TO.P,D4,1*%
%TO.N,Net-(D4-Pad1)*%
X12131800Y-7050300D03*
%TO.P,D4,2*%
%TO.N,Net-(D2-Pad1)*%
X14931800Y-7050300D03*
%TD*%
D11*
%TO.P,D5,3*%
%TO.N,N/C*%
X37531800Y-7050300D03*
D12*
%TO.P,D5,1*%
%TO.N,Net-(D5-Pad1)*%
X38931800Y-7050300D03*
%TO.P,D5,2*%
%TO.N,Net-(D3-Pad1)*%
X36131800Y-7050300D03*
%TD*%
%TO.P,D6,2*%
%TO.N,Net-(D4-Pad1)*%
X8931800Y-7050300D03*
%TO.P,D6,1*%
%TO.N,Net-(D6-Pad1)*%
X6131800Y-7050300D03*
D11*
%TO.P,D6,3*%
%TO.N,N/C*%
X7531800Y-7050300D03*
%TD*%
D13*
%TO.P,J1,1*%
%TO.N,Net-(C1-Pad1)*%
X23200000Y-9600000D03*
%TD*%
%TO.P,J2,1*%
%TO.N,Net-(C1-Pad2)*%
X21800000Y-9600000D03*
%TD*%
D14*
%TO.P,J7,1*%
%TO.N,GND*%
X2531800Y-7050300D03*
%TD*%
%TO.P,J8,1*%
%TO.N,GND*%
X42104300Y-7050300D03*
%TD*%
D15*
%TO.P,J9,1*%
%TO.N,GND*%
X10600000Y-9700000D03*
%TD*%
%TO.P,J10,1*%
%TO.N,GND*%
X34500000Y-9700000D03*
%TD*%
%TO.P,J11,1*%
%TO.N,GND*%
X28500000Y-4600000D03*
%TD*%
%TO.P,J12,1*%
%TO.N,GND*%
X16500000Y-4600000D03*
%TD*%
D16*
%TO.N,Net-(C1-Pad1)*%
X22500000Y-5225000D03*
%TO.N,Net-(D5-Pad1)*%
X39649700Y-7050300D03*
%TO.N,Net-(D6-Pad1)*%
X5250000Y-7050000D03*
%TD*%
D17*
%TO.N,Net-(C1-Pad1)*%
X22300000Y-7050000D02*
X22300300Y-7050300D01*
X24131800Y-7050300D02*
X22300300Y-7050300D01*
X21875000Y-7050000D02*
X21874700Y-7050300D01*
X22300000Y-7050000D02*
X21875000Y-7050000D01*
X21874700Y-7050300D02*
X20931800Y-7050300D01*
X22300300Y-7050300D02*
X21874700Y-7050300D01*
X22575000Y-7325000D02*
X22300300Y-7050300D01*
X22575000Y-8800000D02*
X22575000Y-7325000D01*
X22500000Y-6850600D02*
X22300300Y-7050300D01*
X22500000Y-5225000D02*
X22500000Y-6850600D01*
X23200000Y-9425000D02*
X22575000Y-8800000D01*
%TO.N,Net-(D1-Pad1)*%
X26931800Y-7050300D02*
X30131800Y-7050300D01*
%TO.N,Net-(D2-Pad1)*%
X18131800Y-7050300D02*
X14931800Y-7050300D01*
%TO.N,Net-(D3-Pad1)*%
X32931800Y-7050300D02*
X36131800Y-7050300D01*
%TO.N,Net-(D4-Pad1)*%
X12131800Y-7050300D02*
X8931800Y-7050300D01*
%TO.N,Net-(D5-Pad1)*%
X38932100Y-7050000D02*
X38931800Y-7050300D01*
X38931800Y-7050300D02*
X39649700Y-7050300D01*
%TO.N,Net-(D6-Pad1)*%
X5250300Y-7050300D02*
X5250000Y-7050000D01*
X6131800Y-7050300D02*
X5250300Y-7050300D01*
%TD*%
D18*
%TO.N,GND*%
X45069440Y-10475300D02*
X326543Y-10475300D01*
X1036024Y-6976131D01*
X4500000Y-6976131D01*
X4500000Y-7123869D01*
X4528822Y-7268767D01*
X4585359Y-7405258D01*
X4667437Y-7528097D01*
X4771903Y-7632563D01*
X4894742Y-7714641D01*
X5031233Y-7771178D01*
X5176131Y-7800000D01*
X5323869Y-7800000D01*
X5468767Y-7771178D01*
X5519170Y-7750300D01*
X5530107Y-7750300D01*
X5530107Y-8700300D01*
X5536865Y-8768912D01*
X5556878Y-8834887D01*
X5589378Y-8895690D01*
X5633115Y-8948985D01*
X5686410Y-8992722D01*
X5747213Y-9025222D01*
X5813188Y-9045235D01*
X5881800Y-9051993D01*
X6381800Y-9051993D01*
X6450412Y-9045235D01*
X6516387Y-9025222D01*
X6577190Y-8992722D01*
X6630485Y-8948985D01*
X6631800Y-8947383D01*
X6633115Y-8948985D01*
X6686410Y-8992722D01*
X6747213Y-9025222D01*
X6813188Y-9045235D01*
X6881800Y-9051993D01*
X8181800Y-9051993D01*
X8250412Y-9045235D01*
X8316387Y-9025222D01*
X8377190Y-8992722D01*
X8430485Y-8948985D01*
X8431800Y-8947383D01*
X8433115Y-8948985D01*
X8486410Y-8992722D01*
X8547213Y-9025222D01*
X8613188Y-9045235D01*
X8681800Y-9051993D01*
X9181800Y-9051993D01*
X9250412Y-9045235D01*
X9316387Y-9025222D01*
X9377190Y-8992722D01*
X9430485Y-8948985D01*
X9474222Y-8895690D01*
X9506722Y-8834887D01*
X9526735Y-8768912D01*
X9533493Y-8700300D01*
X9533493Y-7750300D01*
X11530107Y-7750300D01*
X11530107Y-8700300D01*
X11536865Y-8768912D01*
X11556878Y-8834887D01*
X11589378Y-8895690D01*
X11633115Y-8948985D01*
X11686410Y-8992722D01*
X11747213Y-9025222D01*
X11813188Y-9045235D01*
X11881800Y-9051993D01*
X12381800Y-9051993D01*
X12450412Y-9045235D01*
X12516387Y-9025222D01*
X12577190Y-8992722D01*
X12630485Y-8948985D01*
X12631800Y-8947383D01*
X12633115Y-8948985D01*
X12686410Y-8992722D01*
X12747213Y-9025222D01*
X12813188Y-9045235D01*
X12881800Y-9051993D01*
X14181800Y-9051993D01*
X14250412Y-9045235D01*
X14316387Y-9025222D01*
X14377190Y-8992722D01*
X14430485Y-8948985D01*
X14431800Y-8947383D01*
X14433115Y-8948985D01*
X14486410Y-8992722D01*
X14547213Y-9025222D01*
X14613188Y-9045235D01*
X14681800Y-9051993D01*
X15181800Y-9051993D01*
X15250412Y-9045235D01*
X15316387Y-9025222D01*
X15377190Y-8992722D01*
X15430485Y-8948985D01*
X15474222Y-8895690D01*
X15506722Y-8834887D01*
X15526735Y-8768912D01*
X15533493Y-8700300D01*
X15533493Y-7750300D01*
X17530107Y-7750300D01*
X17530107Y-8700300D01*
X17536865Y-8768912D01*
X17556878Y-8834887D01*
X17589378Y-8895690D01*
X17633115Y-8948985D01*
X17686410Y-8992722D01*
X17747213Y-9025222D01*
X17813188Y-9045235D01*
X17881800Y-9051993D01*
X18381800Y-9051993D01*
X18450412Y-9045235D01*
X18516387Y-9025222D01*
X18577190Y-8992722D01*
X18630485Y-8948985D01*
X18631800Y-8947383D01*
X18633115Y-8948985D01*
X18686410Y-8992722D01*
X18747213Y-9025222D01*
X18813188Y-9045235D01*
X18881800Y-9051993D01*
X20181800Y-9051993D01*
X20250412Y-9045235D01*
X20316387Y-9025222D01*
X20377190Y-8992722D01*
X20430485Y-8948985D01*
X20431800Y-8947383D01*
X20433115Y-8948985D01*
X20486410Y-8992722D01*
X20547213Y-9025222D01*
X20613188Y-9045235D01*
X20681800Y-9051993D01*
X21145925Y-9051993D01*
X21139762Y-9058156D01*
X21046740Y-9197374D01*
X20982665Y-9352064D01*
X20950000Y-9516282D01*
X20950000Y-9683718D01*
X20982665Y-9847936D01*
X21046740Y-10002626D01*
X21139762Y-10141844D01*
X21258156Y-10260238D01*
X21397374Y-10353260D01*
X21552064Y-10417335D01*
X21716282Y-10450000D01*
X21883718Y-10450000D01*
X22047936Y-10417335D01*
X22202626Y-10353260D01*
X22341844Y-10260238D01*
X22460238Y-10141844D01*
X22500000Y-10082336D01*
X22539762Y-10141844D01*
X22658156Y-10260238D01*
X22797374Y-10353260D01*
X22952064Y-10417335D01*
X23116282Y-10450000D01*
X23283718Y-10450000D01*
X23447936Y-10417335D01*
X23602626Y-10353260D01*
X23741844Y-10260238D01*
X23860238Y-10141844D01*
X23953260Y-10002626D01*
X24017335Y-9847936D01*
X24050000Y-9683718D01*
X24050000Y-9516282D01*
X24017335Y-9352064D01*
X23953260Y-9197374D01*
X23860238Y-9058156D01*
X23851046Y-9048964D01*
X23881800Y-9051993D01*
X24381800Y-9051993D01*
X24450412Y-9045235D01*
X24516387Y-9025222D01*
X24577190Y-8992722D01*
X24630485Y-8948985D01*
X24631800Y-8947383D01*
X24633115Y-8948985D01*
X24686410Y-8992722D01*
X24747213Y-9025222D01*
X24813188Y-9045235D01*
X24881800Y-9051993D01*
X26181800Y-9051993D01*
X26250412Y-9045235D01*
X26316387Y-9025222D01*
X26377190Y-8992722D01*
X26430485Y-8948985D01*
X26431800Y-8947383D01*
X26433115Y-8948985D01*
X26486410Y-8992722D01*
X26547213Y-9025222D01*
X26613188Y-9045235D01*
X26681800Y-9051993D01*
X27181800Y-9051993D01*
X27250412Y-9045235D01*
X27316387Y-9025222D01*
X27377190Y-8992722D01*
X27430485Y-8948985D01*
X27474222Y-8895690D01*
X27506722Y-8834887D01*
X27526735Y-8768912D01*
X27533493Y-8700300D01*
X27533493Y-7750300D01*
X29530107Y-7750300D01*
X29530107Y-8700300D01*
X29536865Y-8768912D01*
X29556878Y-8834887D01*
X29589378Y-8895690D01*
X29633115Y-8948985D01*
X29686410Y-8992722D01*
X29747213Y-9025222D01*
X29813188Y-9045235D01*
X29881800Y-9051993D01*
X30381800Y-9051993D01*
X30450412Y-9045235D01*
X30516387Y-9025222D01*
X30577190Y-8992722D01*
X30630485Y-8948985D01*
X30631800Y-8947383D01*
X30633115Y-8948985D01*
X30686410Y-8992722D01*
X30747213Y-9025222D01*
X30813188Y-9045235D01*
X30881800Y-9051993D01*
X32181800Y-9051993D01*
X32250412Y-9045235D01*
X32316387Y-9025222D01*
X32377190Y-8992722D01*
X32430485Y-8948985D01*
X32431800Y-8947383D01*
X32433115Y-8948985D01*
X32486410Y-8992722D01*
X32547213Y-9025222D01*
X32613188Y-9045235D01*
X32681800Y-9051993D01*
X33181800Y-9051993D01*
X33250412Y-9045235D01*
X33316387Y-9025222D01*
X33377190Y-8992722D01*
X33430485Y-8948985D01*
X33474222Y-8895690D01*
X33506722Y-8834887D01*
X33526735Y-8768912D01*
X33533493Y-8700300D01*
X33533493Y-7750300D01*
X35530107Y-7750300D01*
X35530107Y-8700300D01*
X35536865Y-8768912D01*
X35556878Y-8834887D01*
X35589378Y-8895690D01*
X35633115Y-8948985D01*
X35686410Y-8992722D01*
X35747213Y-9025222D01*
X35813188Y-9045235D01*
X35881800Y-9051993D01*
X36381800Y-9051993D01*
X36450412Y-9045235D01*
X36516387Y-9025222D01*
X36577190Y-8992722D01*
X36630485Y-8948985D01*
X36631800Y-8947383D01*
X36633115Y-8948985D01*
X36686410Y-8992722D01*
X36747213Y-9025222D01*
X36813188Y-9045235D01*
X36881800Y-9051993D01*
X38181800Y-9051993D01*
X38250412Y-9045235D01*
X38316387Y-9025222D01*
X38377190Y-8992722D01*
X38430485Y-8948985D01*
X38431800Y-8947383D01*
X38433115Y-8948985D01*
X38486410Y-8992722D01*
X38547213Y-9025222D01*
X38613188Y-9045235D01*
X38681800Y-9051993D01*
X39181800Y-9051993D01*
X39250412Y-9045235D01*
X39316387Y-9025222D01*
X39377190Y-8992722D01*
X39430485Y-8948985D01*
X39474222Y-8895690D01*
X39506722Y-8834887D01*
X39526735Y-8768912D01*
X39533493Y-8700300D01*
X39533493Y-7791878D01*
X39575831Y-7800300D01*
X39723569Y-7800300D01*
X39868467Y-7771478D01*
X40004958Y-7714941D01*
X40127797Y-7632863D01*
X40232263Y-7528397D01*
X40314341Y-7405558D01*
X40370878Y-7269067D01*
X40399700Y-7124169D01*
X40399700Y-6976431D01*
X40370878Y-6831533D01*
X40314341Y-6695042D01*
X40232263Y-6572203D01*
X40127797Y-6467737D01*
X40004958Y-6385659D01*
X39868467Y-6329122D01*
X39723569Y-6300300D01*
X39575831Y-6300300D01*
X39533493Y-6308722D01*
X39533493Y-5400300D01*
X39526735Y-5331688D01*
X39506722Y-5265713D01*
X39474222Y-5204910D01*
X39430485Y-5151615D01*
X39377190Y-5107878D01*
X39316387Y-5075378D01*
X39250412Y-5055365D01*
X39181800Y-5048607D01*
X38681800Y-5048607D01*
X38613188Y-5055365D01*
X38547213Y-5075378D01*
X38486410Y-5107878D01*
X38433115Y-5151615D01*
X38431800Y-5153217D01*
X38430485Y-5151615D01*
X38377190Y-5107878D01*
X38316387Y-5075378D01*
X38250412Y-5055365D01*
X38181800Y-5048607D01*
X36881800Y-5048607D01*
X36813188Y-5055365D01*
X36747213Y-5075378D01*
X36686410Y-5107878D01*
X36633115Y-5151615D01*
X36631800Y-5153217D01*
X36630485Y-5151615D01*
X36577190Y-5107878D01*
X36516387Y-5075378D01*
X36450412Y-5055365D01*
X36381800Y-5048607D01*
X35881800Y-5048607D01*
X35813188Y-5055365D01*
X35747213Y-5075378D01*
X35686410Y-5107878D01*
X35633115Y-5151615D01*
X35589378Y-5204910D01*
X35556878Y-5265713D01*
X35536865Y-5331688D01*
X35530107Y-5400300D01*
X35530107Y-6350300D01*
X33533493Y-6350300D01*
X33533493Y-5400300D01*
X33526735Y-5331688D01*
X33506722Y-5265713D01*
X33474222Y-5204910D01*
X33430485Y-5151615D01*
X33377190Y-5107878D01*
X33316387Y-5075378D01*
X33250412Y-5055365D01*
X33181800Y-5048607D01*
X32681800Y-5048607D01*
X32613188Y-5055365D01*
X32547213Y-5075378D01*
X32486410Y-5107878D01*
X32433115Y-5151615D01*
X32431800Y-5153217D01*
X32430485Y-5151615D01*
X32377190Y-5107878D01*
X32316387Y-5075378D01*
X32250412Y-5055365D01*
X32181800Y-5048607D01*
X30881800Y-5048607D01*
X30813188Y-5055365D01*
X30747213Y-5075378D01*
X30686410Y-5107878D01*
X30633115Y-5151615D01*
X30631800Y-5153217D01*
X30630485Y-5151615D01*
X30577190Y-5107878D01*
X30516387Y-5075378D01*
X30450412Y-5055365D01*
X30381800Y-5048607D01*
X29881800Y-5048607D01*
X29813188Y-5055365D01*
X29747213Y-5075378D01*
X29686410Y-5107878D01*
X29633115Y-5151615D01*
X29589378Y-5204910D01*
X29556878Y-5265713D01*
X29536865Y-5331688D01*
X29530107Y-5400300D01*
X29530107Y-6350300D01*
X27533493Y-6350300D01*
X27533493Y-5400300D01*
X27526735Y-5331688D01*
X27506722Y-5265713D01*
X27474222Y-5204910D01*
X27430485Y-5151615D01*
X27377190Y-5107878D01*
X27316387Y-5075378D01*
X27250412Y-5055365D01*
X27181800Y-5048607D01*
X26681800Y-5048607D01*
X26613188Y-5055365D01*
X26547213Y-5075378D01*
X26486410Y-5107878D01*
X26433115Y-5151615D01*
X26431800Y-5153217D01*
X26430485Y-5151615D01*
X26377190Y-5107878D01*
X26316387Y-5075378D01*
X26250412Y-5055365D01*
X26181800Y-5048607D01*
X24881800Y-5048607D01*
X24813188Y-5055365D01*
X24747213Y-5075378D01*
X24686410Y-5107878D01*
X24633115Y-5151615D01*
X24631800Y-5153217D01*
X24630485Y-5151615D01*
X24577190Y-5107878D01*
X24516387Y-5075378D01*
X24450412Y-5055365D01*
X24381800Y-5048607D01*
X23881800Y-5048607D01*
X23813188Y-5055365D01*
X23747213Y-5075378D01*
X23686410Y-5107878D01*
X23633115Y-5151615D01*
X23589378Y-5204910D01*
X23556878Y-5265713D01*
X23536865Y-5331688D01*
X23530107Y-5400300D01*
X23530107Y-6350300D01*
X23200000Y-6350300D01*
X23200000Y-5494895D01*
X23221178Y-5443767D01*
X23250000Y-5298869D01*
X23250000Y-5151131D01*
X23221178Y-5006233D01*
X23164641Y-4869742D01*
X23082563Y-4746903D01*
X22978097Y-4642437D01*
X22855258Y-4560359D01*
X22718767Y-4503822D01*
X22573869Y-4475000D01*
X22426131Y-4475000D01*
X22281233Y-4503822D01*
X22144742Y-4560359D01*
X22021903Y-4642437D01*
X21917437Y-4746903D01*
X21835359Y-4869742D01*
X21778822Y-5006233D01*
X21750000Y-5151131D01*
X21750000Y-5298869D01*
X21778822Y-5443767D01*
X21800000Y-5494895D01*
X21800001Y-6350300D01*
X21533493Y-6350300D01*
X21533493Y-5400300D01*
X21526735Y-5331688D01*
X21506722Y-5265713D01*
X21474222Y-5204910D01*
X21430485Y-5151615D01*
X21377190Y-5107878D01*
X21316387Y-5075378D01*
X21250412Y-5055365D01*
X21181800Y-5048607D01*
X20681800Y-5048607D01*
X20613188Y-5055365D01*
X20547213Y-5075378D01*
X20486410Y-5107878D01*
X20433115Y-5151615D01*
X20431800Y-5153217D01*
X20430485Y-5151615D01*
X20377190Y-5107878D01*
X20316387Y-5075378D01*
X20250412Y-5055365D01*
X20181800Y-5048607D01*
X18881800Y-5048607D01*
X18813188Y-5055365D01*
X18747213Y-5075378D01*
X18686410Y-5107878D01*
X18633115Y-5151615D01*
X18631800Y-5153217D01*
X18630485Y-5151615D01*
X18577190Y-5107878D01*
X18516387Y-5075378D01*
X18450412Y-5055365D01*
X18381800Y-5048607D01*
X17881800Y-5048607D01*
X17813188Y-5055365D01*
X17747213Y-5075378D01*
X17686410Y-5107878D01*
X17633115Y-5151615D01*
X17589378Y-5204910D01*
X17556878Y-5265713D01*
X17536865Y-5331688D01*
X17530107Y-5400300D01*
X17530107Y-6350300D01*
X15533493Y-6350300D01*
X15533493Y-5400300D01*
X15526735Y-5331688D01*
X15506722Y-5265713D01*
X15474222Y-5204910D01*
X15430485Y-5151615D01*
X15377190Y-5107878D01*
X15316387Y-5075378D01*
X15250412Y-5055365D01*
X15181800Y-5048607D01*
X14681800Y-5048607D01*
X14613188Y-5055365D01*
X14547213Y-5075378D01*
X14486410Y-5107878D01*
X14433115Y-5151615D01*
X14431800Y-5153217D01*
X14430485Y-5151615D01*
X14377190Y-5107878D01*
X14316387Y-5075378D01*
X14250412Y-5055365D01*
X14181800Y-5048607D01*
X12881800Y-5048607D01*
X12813188Y-5055365D01*
X12747213Y-5075378D01*
X12686410Y-5107878D01*
X12633115Y-5151615D01*
X12631800Y-5153217D01*
X12630485Y-5151615D01*
X12577190Y-5107878D01*
X12516387Y-5075378D01*
X12450412Y-5055365D01*
X12381800Y-5048607D01*
X11881800Y-5048607D01*
X11813188Y-5055365D01*
X11747213Y-5075378D01*
X11686410Y-5107878D01*
X11633115Y-5151615D01*
X11589378Y-5204910D01*
X11556878Y-5265713D01*
X11536865Y-5331688D01*
X11530107Y-5400300D01*
X11530107Y-6350300D01*
X9533493Y-6350300D01*
X9533493Y-5400300D01*
X9526735Y-5331688D01*
X9506722Y-5265713D01*
X9474222Y-5204910D01*
X9430485Y-5151615D01*
X9377190Y-5107878D01*
X9316387Y-5075378D01*
X9250412Y-5055365D01*
X9181800Y-5048607D01*
X8681800Y-5048607D01*
X8613188Y-5055365D01*
X8547213Y-5075378D01*
X8486410Y-5107878D01*
X8433115Y-5151615D01*
X8431800Y-5153217D01*
X8430485Y-5151615D01*
X8377190Y-5107878D01*
X8316387Y-5075378D01*
X8250412Y-5055365D01*
X8181800Y-5048607D01*
X6881800Y-5048607D01*
X6813188Y-5055365D01*
X6747213Y-5075378D01*
X6686410Y-5107878D01*
X6633115Y-5151615D01*
X6631800Y-5153217D01*
X6630485Y-5151615D01*
X6577190Y-5107878D01*
X6516387Y-5075378D01*
X6450412Y-5055365D01*
X6381800Y-5048607D01*
X5881800Y-5048607D01*
X5813188Y-5055365D01*
X5747213Y-5075378D01*
X5686410Y-5107878D01*
X5633115Y-5151615D01*
X5589378Y-5204910D01*
X5556878Y-5265713D01*
X5536865Y-5331688D01*
X5530107Y-5400300D01*
X5530107Y-6350300D01*
X5520619Y-6350300D01*
X5468767Y-6328822D01*
X5323869Y-6300000D01*
X5176131Y-6300000D01*
X5031233Y-6328822D01*
X4894742Y-6385359D01*
X4771903Y-6467437D01*
X4667437Y-6571903D01*
X4585359Y-6694742D01*
X4528822Y-6831233D01*
X4500000Y-6976131D01*
X1036024Y-6976131D01*
X1674878Y-3825300D01*
X42975926Y-3825300D01*
X45069440Y-10475300D01*
%TA.AperFunction,Conductor*%
D19*
G36*
X45069440Y-10475300D02*
G01*
X326543Y-10475300D01*
X1036024Y-6976131D01*
X4500000Y-6976131D01*
X4500000Y-7123869D01*
X4528822Y-7268767D01*
X4585359Y-7405258D01*
X4667437Y-7528097D01*
X4771903Y-7632563D01*
X4894742Y-7714641D01*
X5031233Y-7771178D01*
X5176131Y-7800000D01*
X5323869Y-7800000D01*
X5468767Y-7771178D01*
X5519170Y-7750300D01*
X5530107Y-7750300D01*
X5530107Y-8700300D01*
X5536865Y-8768912D01*
X5556878Y-8834887D01*
X5589378Y-8895690D01*
X5633115Y-8948985D01*
X5686410Y-8992722D01*
X5747213Y-9025222D01*
X5813188Y-9045235D01*
X5881800Y-9051993D01*
X6381800Y-9051993D01*
X6450412Y-9045235D01*
X6516387Y-9025222D01*
X6577190Y-8992722D01*
X6630485Y-8948985D01*
X6631800Y-8947383D01*
X6633115Y-8948985D01*
X6686410Y-8992722D01*
X6747213Y-9025222D01*
X6813188Y-9045235D01*
X6881800Y-9051993D01*
X8181800Y-9051993D01*
X8250412Y-9045235D01*
X8316387Y-9025222D01*
X8377190Y-8992722D01*
X8430485Y-8948985D01*
X8431800Y-8947383D01*
X8433115Y-8948985D01*
X8486410Y-8992722D01*
X8547213Y-9025222D01*
X8613188Y-9045235D01*
X8681800Y-9051993D01*
X9181800Y-9051993D01*
X9250412Y-9045235D01*
X9316387Y-9025222D01*
X9377190Y-8992722D01*
X9430485Y-8948985D01*
X9474222Y-8895690D01*
X9506722Y-8834887D01*
X9526735Y-8768912D01*
X9533493Y-8700300D01*
X9533493Y-7750300D01*
X11530107Y-7750300D01*
X11530107Y-8700300D01*
X11536865Y-8768912D01*
X11556878Y-8834887D01*
X11589378Y-8895690D01*
X11633115Y-8948985D01*
X11686410Y-8992722D01*
X11747213Y-9025222D01*
X11813188Y-9045235D01*
X11881800Y-9051993D01*
X12381800Y-9051993D01*
X12450412Y-9045235D01*
X12516387Y-9025222D01*
X12577190Y-8992722D01*
X12630485Y-8948985D01*
X12631800Y-8947383D01*
X12633115Y-8948985D01*
X12686410Y-8992722D01*
X12747213Y-9025222D01*
X12813188Y-9045235D01*
X12881800Y-9051993D01*
X14181800Y-9051993D01*
X14250412Y-9045235D01*
X14316387Y-9025222D01*
X14377190Y-8992722D01*
X14430485Y-8948985D01*
X14431800Y-8947383D01*
X14433115Y-8948985D01*
X14486410Y-8992722D01*
X14547213Y-9025222D01*
X14613188Y-9045235D01*
X14681800Y-9051993D01*
X15181800Y-9051993D01*
X15250412Y-9045235D01*
X15316387Y-9025222D01*
X15377190Y-8992722D01*
X15430485Y-8948985D01*
X15474222Y-8895690D01*
X15506722Y-8834887D01*
X15526735Y-8768912D01*
X15533493Y-8700300D01*
X15533493Y-7750300D01*
X17530107Y-7750300D01*
X17530107Y-8700300D01*
X17536865Y-8768912D01*
X17556878Y-8834887D01*
X17589378Y-8895690D01*
X17633115Y-8948985D01*
X17686410Y-8992722D01*
X17747213Y-9025222D01*
X17813188Y-9045235D01*
X17881800Y-9051993D01*
X18381800Y-9051993D01*
X18450412Y-9045235D01*
X18516387Y-9025222D01*
X18577190Y-8992722D01*
X18630485Y-8948985D01*
X18631800Y-8947383D01*
X18633115Y-8948985D01*
X18686410Y-8992722D01*
X18747213Y-9025222D01*
X18813188Y-9045235D01*
X18881800Y-9051993D01*
X20181800Y-9051993D01*
X20250412Y-9045235D01*
X20316387Y-9025222D01*
X20377190Y-8992722D01*
X20430485Y-8948985D01*
X20431800Y-8947383D01*
X20433115Y-8948985D01*
X20486410Y-8992722D01*
X20547213Y-9025222D01*
X20613188Y-9045235D01*
X20681800Y-9051993D01*
X21145925Y-9051993D01*
X21139762Y-9058156D01*
X21046740Y-9197374D01*
X20982665Y-9352064D01*
X20950000Y-9516282D01*
X20950000Y-9683718D01*
X20982665Y-9847936D01*
X21046740Y-10002626D01*
X21139762Y-10141844D01*
X21258156Y-10260238D01*
X21397374Y-10353260D01*
X21552064Y-10417335D01*
X21716282Y-10450000D01*
X21883718Y-10450000D01*
X22047936Y-10417335D01*
X22202626Y-10353260D01*
X22341844Y-10260238D01*
X22460238Y-10141844D01*
X22500000Y-10082336D01*
X22539762Y-10141844D01*
X22658156Y-10260238D01*
X22797374Y-10353260D01*
X22952064Y-10417335D01*
X23116282Y-10450000D01*
X23283718Y-10450000D01*
X23447936Y-10417335D01*
X23602626Y-10353260D01*
X23741844Y-10260238D01*
X23860238Y-10141844D01*
X23953260Y-10002626D01*
X24017335Y-9847936D01*
X24050000Y-9683718D01*
X24050000Y-9516282D01*
X24017335Y-9352064D01*
X23953260Y-9197374D01*
X23860238Y-9058156D01*
X23851046Y-9048964D01*
X23881800Y-9051993D01*
X24381800Y-9051993D01*
X24450412Y-9045235D01*
X24516387Y-9025222D01*
X24577190Y-8992722D01*
X24630485Y-8948985D01*
X24631800Y-8947383D01*
X24633115Y-8948985D01*
X24686410Y-8992722D01*
X24747213Y-9025222D01*
X24813188Y-9045235D01*
X24881800Y-9051993D01*
X26181800Y-9051993D01*
X26250412Y-9045235D01*
X26316387Y-9025222D01*
X26377190Y-8992722D01*
X26430485Y-8948985D01*
X26431800Y-8947383D01*
X26433115Y-8948985D01*
X26486410Y-8992722D01*
X26547213Y-9025222D01*
X26613188Y-9045235D01*
X26681800Y-9051993D01*
X27181800Y-9051993D01*
X27250412Y-9045235D01*
X27316387Y-9025222D01*
X27377190Y-8992722D01*
X27430485Y-8948985D01*
X27474222Y-8895690D01*
X27506722Y-8834887D01*
X27526735Y-8768912D01*
X27533493Y-8700300D01*
X27533493Y-7750300D01*
X29530107Y-7750300D01*
X29530107Y-8700300D01*
X29536865Y-8768912D01*
X29556878Y-8834887D01*
X29589378Y-8895690D01*
X29633115Y-8948985D01*
X29686410Y-8992722D01*
X29747213Y-9025222D01*
X29813188Y-9045235D01*
X29881800Y-9051993D01*
X30381800Y-9051993D01*
X30450412Y-9045235D01*
X30516387Y-9025222D01*
X30577190Y-8992722D01*
X30630485Y-8948985D01*
X30631800Y-8947383D01*
X30633115Y-8948985D01*
X30686410Y-8992722D01*
X30747213Y-9025222D01*
X30813188Y-9045235D01*
X30881800Y-9051993D01*
X32181800Y-9051993D01*
X32250412Y-9045235D01*
X32316387Y-9025222D01*
X32377190Y-8992722D01*
X32430485Y-8948985D01*
X32431800Y-8947383D01*
X32433115Y-8948985D01*
X32486410Y-8992722D01*
X32547213Y-9025222D01*
X32613188Y-9045235D01*
X32681800Y-9051993D01*
X33181800Y-9051993D01*
X33250412Y-9045235D01*
X33316387Y-9025222D01*
X33377190Y-8992722D01*
X33430485Y-8948985D01*
X33474222Y-8895690D01*
X33506722Y-8834887D01*
X33526735Y-8768912D01*
X33533493Y-8700300D01*
X33533493Y-7750300D01*
X35530107Y-7750300D01*
X35530107Y-8700300D01*
X35536865Y-8768912D01*
X35556878Y-8834887D01*
X35589378Y-8895690D01*
X35633115Y-8948985D01*
X35686410Y-8992722D01*
X35747213Y-9025222D01*
X35813188Y-9045235D01*
X35881800Y-9051993D01*
X36381800Y-9051993D01*
X36450412Y-9045235D01*
X36516387Y-9025222D01*
X36577190Y-8992722D01*
X36630485Y-8948985D01*
X36631800Y-8947383D01*
X36633115Y-8948985D01*
X36686410Y-8992722D01*
X36747213Y-9025222D01*
X36813188Y-9045235D01*
X36881800Y-9051993D01*
X38181800Y-9051993D01*
X38250412Y-9045235D01*
X38316387Y-9025222D01*
X38377190Y-8992722D01*
X38430485Y-8948985D01*
X38431800Y-8947383D01*
X38433115Y-8948985D01*
X38486410Y-8992722D01*
X38547213Y-9025222D01*
X38613188Y-9045235D01*
X38681800Y-9051993D01*
X39181800Y-9051993D01*
X39250412Y-9045235D01*
X39316387Y-9025222D01*
X39377190Y-8992722D01*
X39430485Y-8948985D01*
X39474222Y-8895690D01*
X39506722Y-8834887D01*
X39526735Y-8768912D01*
X39533493Y-8700300D01*
X39533493Y-7791878D01*
X39575831Y-7800300D01*
X39723569Y-7800300D01*
X39868467Y-7771478D01*
X40004958Y-7714941D01*
X40127797Y-7632863D01*
X40232263Y-7528397D01*
X40314341Y-7405558D01*
X40370878Y-7269067D01*
X40399700Y-7124169D01*
X40399700Y-6976431D01*
X40370878Y-6831533D01*
X40314341Y-6695042D01*
X40232263Y-6572203D01*
X40127797Y-6467737D01*
X40004958Y-6385659D01*
X39868467Y-6329122D01*
X39723569Y-6300300D01*
X39575831Y-6300300D01*
X39533493Y-6308722D01*
X39533493Y-5400300D01*
X39526735Y-5331688D01*
X39506722Y-5265713D01*
X39474222Y-5204910D01*
X39430485Y-5151615D01*
X39377190Y-5107878D01*
X39316387Y-5075378D01*
X39250412Y-5055365D01*
X39181800Y-5048607D01*
X38681800Y-5048607D01*
X38613188Y-5055365D01*
X38547213Y-5075378D01*
X38486410Y-5107878D01*
X38433115Y-5151615D01*
X38431800Y-5153217D01*
X38430485Y-5151615D01*
X38377190Y-5107878D01*
X38316387Y-5075378D01*
X38250412Y-5055365D01*
X38181800Y-5048607D01*
X36881800Y-5048607D01*
X36813188Y-5055365D01*
X36747213Y-5075378D01*
X36686410Y-5107878D01*
X36633115Y-5151615D01*
X36631800Y-5153217D01*
X36630485Y-5151615D01*
X36577190Y-5107878D01*
X36516387Y-5075378D01*
X36450412Y-5055365D01*
X36381800Y-5048607D01*
X35881800Y-5048607D01*
X35813188Y-5055365D01*
X35747213Y-5075378D01*
X35686410Y-5107878D01*
X35633115Y-5151615D01*
X35589378Y-5204910D01*
X35556878Y-5265713D01*
X35536865Y-5331688D01*
X35530107Y-5400300D01*
X35530107Y-6350300D01*
X33533493Y-6350300D01*
X33533493Y-5400300D01*
X33526735Y-5331688D01*
X33506722Y-5265713D01*
X33474222Y-5204910D01*
X33430485Y-5151615D01*
X33377190Y-5107878D01*
X33316387Y-5075378D01*
X33250412Y-5055365D01*
X33181800Y-5048607D01*
X32681800Y-5048607D01*
X32613188Y-5055365D01*
X32547213Y-5075378D01*
X32486410Y-5107878D01*
X32433115Y-5151615D01*
X32431800Y-5153217D01*
X32430485Y-5151615D01*
X32377190Y-5107878D01*
X32316387Y-5075378D01*
X32250412Y-5055365D01*
X32181800Y-5048607D01*
X30881800Y-5048607D01*
X30813188Y-5055365D01*
X30747213Y-5075378D01*
X30686410Y-5107878D01*
X30633115Y-5151615D01*
X30631800Y-5153217D01*
X30630485Y-5151615D01*
X30577190Y-5107878D01*
X30516387Y-5075378D01*
X30450412Y-5055365D01*
X30381800Y-5048607D01*
X29881800Y-5048607D01*
X29813188Y-5055365D01*
X29747213Y-5075378D01*
X29686410Y-5107878D01*
X29633115Y-5151615D01*
X29589378Y-5204910D01*
X29556878Y-5265713D01*
X29536865Y-5331688D01*
X29530107Y-5400300D01*
X29530107Y-6350300D01*
X27533493Y-6350300D01*
X27533493Y-5400300D01*
X27526735Y-5331688D01*
X27506722Y-5265713D01*
X27474222Y-5204910D01*
X27430485Y-5151615D01*
X27377190Y-5107878D01*
X27316387Y-5075378D01*
X27250412Y-5055365D01*
X27181800Y-5048607D01*
X26681800Y-5048607D01*
X26613188Y-5055365D01*
X26547213Y-5075378D01*
X26486410Y-5107878D01*
X26433115Y-5151615D01*
X26431800Y-5153217D01*
X26430485Y-5151615D01*
X26377190Y-5107878D01*
X26316387Y-5075378D01*
X26250412Y-5055365D01*
X26181800Y-5048607D01*
X24881800Y-5048607D01*
X24813188Y-5055365D01*
X24747213Y-5075378D01*
X24686410Y-5107878D01*
X24633115Y-5151615D01*
X24631800Y-5153217D01*
X24630485Y-5151615D01*
X24577190Y-5107878D01*
X24516387Y-5075378D01*
X24450412Y-5055365D01*
X24381800Y-5048607D01*
X23881800Y-5048607D01*
X23813188Y-5055365D01*
X23747213Y-5075378D01*
X23686410Y-5107878D01*
X23633115Y-5151615D01*
X23589378Y-5204910D01*
X23556878Y-5265713D01*
X23536865Y-5331688D01*
X23530107Y-5400300D01*
X23530107Y-6350300D01*
X23200000Y-6350300D01*
X23200000Y-5494895D01*
X23221178Y-5443767D01*
X23250000Y-5298869D01*
X23250000Y-5151131D01*
X23221178Y-5006233D01*
X23164641Y-4869742D01*
X23082563Y-4746903D01*
X22978097Y-4642437D01*
X22855258Y-4560359D01*
X22718767Y-4503822D01*
X22573869Y-4475000D01*
X22426131Y-4475000D01*
X22281233Y-4503822D01*
X22144742Y-4560359D01*
X22021903Y-4642437D01*
X21917437Y-4746903D01*
X21835359Y-4869742D01*
X21778822Y-5006233D01*
X21750000Y-5151131D01*
X21750000Y-5298869D01*
X21778822Y-5443767D01*
X21800000Y-5494895D01*
X21800001Y-6350300D01*
X21533493Y-6350300D01*
X21533493Y-5400300D01*
X21526735Y-5331688D01*
X21506722Y-5265713D01*
X21474222Y-5204910D01*
X21430485Y-5151615D01*
X21377190Y-5107878D01*
X21316387Y-5075378D01*
X21250412Y-5055365D01*
X21181800Y-5048607D01*
X20681800Y-5048607D01*
X20613188Y-5055365D01*
X20547213Y-5075378D01*
X20486410Y-5107878D01*
X20433115Y-5151615D01*
X20431800Y-5153217D01*
X20430485Y-5151615D01*
X20377190Y-5107878D01*
X20316387Y-5075378D01*
X20250412Y-5055365D01*
X20181800Y-5048607D01*
X18881800Y-5048607D01*
X18813188Y-5055365D01*
X18747213Y-5075378D01*
X18686410Y-5107878D01*
X18633115Y-5151615D01*
X18631800Y-5153217D01*
X18630485Y-5151615D01*
X18577190Y-5107878D01*
X18516387Y-5075378D01*
X18450412Y-5055365D01*
X18381800Y-5048607D01*
X17881800Y-5048607D01*
X17813188Y-5055365D01*
X17747213Y-5075378D01*
X17686410Y-5107878D01*
X17633115Y-5151615D01*
X17589378Y-5204910D01*
X17556878Y-5265713D01*
X17536865Y-5331688D01*
X17530107Y-5400300D01*
X17530107Y-6350300D01*
X15533493Y-6350300D01*
X15533493Y-5400300D01*
X15526735Y-5331688D01*
X15506722Y-5265713D01*
X15474222Y-5204910D01*
X15430485Y-5151615D01*
X15377190Y-5107878D01*
X15316387Y-5075378D01*
X15250412Y-5055365D01*
X15181800Y-5048607D01*
X14681800Y-5048607D01*
X14613188Y-5055365D01*
X14547213Y-5075378D01*
X14486410Y-5107878D01*
X14433115Y-5151615D01*
X14431800Y-5153217D01*
X14430485Y-5151615D01*
X14377190Y-5107878D01*
X14316387Y-5075378D01*
X14250412Y-5055365D01*
X14181800Y-5048607D01*
X12881800Y-5048607D01*
X12813188Y-5055365D01*
X12747213Y-5075378D01*
X12686410Y-5107878D01*
X12633115Y-5151615D01*
X12631800Y-5153217D01*
X12630485Y-5151615D01*
X12577190Y-5107878D01*
X12516387Y-5075378D01*
X12450412Y-5055365D01*
X12381800Y-5048607D01*
X11881800Y-5048607D01*
X11813188Y-5055365D01*
X11747213Y-5075378D01*
X11686410Y-5107878D01*
X11633115Y-5151615D01*
X11589378Y-5204910D01*
X11556878Y-5265713D01*
X11536865Y-5331688D01*
X11530107Y-5400300D01*
X11530107Y-6350300D01*
X9533493Y-6350300D01*
X9533493Y-5400300D01*
X9526735Y-5331688D01*
X9506722Y-5265713D01*
X9474222Y-5204910D01*
X9430485Y-5151615D01*
X9377190Y-5107878D01*
X9316387Y-5075378D01*
X9250412Y-5055365D01*
X9181800Y-5048607D01*
X8681800Y-5048607D01*
X8613188Y-5055365D01*
X8547213Y-5075378D01*
X8486410Y-5107878D01*
X8433115Y-5151615D01*
X8431800Y-5153217D01*
X8430485Y-5151615D01*
X8377190Y-5107878D01*
X8316387Y-5075378D01*
X8250412Y-5055365D01*
X8181800Y-5048607D01*
X6881800Y-5048607D01*
X6813188Y-5055365D01*
X6747213Y-5075378D01*
X6686410Y-5107878D01*
X6633115Y-5151615D01*
X6631800Y-5153217D01*
X6630485Y-5151615D01*
X6577190Y-5107878D01*
X6516387Y-5075378D01*
X6450412Y-5055365D01*
X6381800Y-5048607D01*
X5881800Y-5048607D01*
X5813188Y-5055365D01*
X5747213Y-5075378D01*
X5686410Y-5107878D01*
X5633115Y-5151615D01*
X5589378Y-5204910D01*
X5556878Y-5265713D01*
X5536865Y-5331688D01*
X5530107Y-5400300D01*
X5530107Y-6350300D01*
X5520619Y-6350300D01*
X5468767Y-6328822D01*
X5323869Y-6300000D01*
X5176131Y-6300000D01*
X5031233Y-6328822D01*
X4894742Y-6385359D01*
X4771903Y-6467437D01*
X4667437Y-6571903D01*
X4585359Y-6694742D01*
X4528822Y-6831233D01*
X4500000Y-6976131D01*
X1036024Y-6976131D01*
X1674878Y-3825300D01*
X42975926Y-3825300D01*
X45069440Y-10475300D01*
G37*
%TD.AperFunction*%
%TD*%
M02*
