M48
; DRILL file {KiCad (5.1.9)-1} date 08/27/21 14:24:02
; FORMAT={-:-/ absolute / inch / decimal}
; #@! TF.CreationDate,2021-08-27T14:24:02+03:00
; #@! TF.GenerationSoftware,Kicad,Pcbnew,(5.1.9)-1
; #@! TF.FileFunction,Plated,1,2,PTH
FMAT,2
INCH
T1C0.0157
T2C0.0315
T3C0.0787
%
G90
G05
T1
X2.328Y-4.679
X2.329Y-4.878
X2.329Y-4.976
X2.33Y-4.779
X2.385Y-4.521
X2.463Y-4.987
X2.469Y-4.678
X2.554Y-4.542
X2.597Y-4.945
X2.685Y-4.862
X2.685Y-5.013
X2.759Y-4.694
X2.801Y-4.952
X2.823Y-4.865
X3.012Y-4.917
X3.021Y-4.989
X3.089Y-4.552
X3.131Y-4.896
X3.146Y-5.029
X3.219Y-4.823
X3.242Y-4.592
X3.251Y-4.794
X3.267Y-4.927
X3.307Y-4.842
X3.403Y-4.592
X3.405Y-4.514
X3.526Y-4.515
X3.527Y-4.593
X3.568Y-4.98
X3.663Y-4.793
X3.678Y-4.704
X3.688Y-4.97
X3.736Y-4.854
X3.76Y-4.675
X3.813Y-4.637
X3.887Y-4.942
X3.888Y-4.625
X3.888Y-4.709
X3.888Y-4.777
X3.888Y-4.847
T2
X2.936Y-4.671
X2.936Y-4.774
X2.936Y-4.878
X3.183Y-4.737
X3.183Y-4.79
X3.45Y-5.006
X3.45Y-4.953
X3.836Y-4.674
X3.836Y-4.742
X3.836Y-4.811
X3.836Y-4.88
T3
X2.39Y-4.629
X2.39Y-4.7294
X2.39Y-4.8294
X2.391Y-4.9294
X2.935Y-4.9974
X2.936Y-4.5584
X3.836Y-4.5584
X3.836Y-4.9984
T0
M30
