%TF.GenerationSoftware,KiCad,Pcbnew,(5.1.9)-1*%
%TF.CreationDate,2021-08-27T14:21:39+03:00*%
%TF.ProjectId,Spina_SSM3J351,5370696e-615f-4535-934d-334a3335312e,rev?*%
%TF.SameCoordinates,Original*%
%TF.FileFunction,Copper,L1,Top*%
%TF.FilePolarity,Positive*%
%FSLAX46Y46*%
G04 Gerber Fmt 4.6, Leading zero omitted, Abs format (unit mm)*
G04 Created by KiCad (PCBNEW (5.1.9)-1) date 2021-08-27 14:21:39*
%MOMM*%
%LPD*%
G01*
G04 APERTURE LIST*
%TA.AperFunction,SMDPad,CuDef*%
%ADD10R,2.200000X1.100000*%
%TD*%
%TA.AperFunction,SMDPad,CuDef*%
%ADD11R,0.650000X1.100000*%
%TD*%
%TA.AperFunction,SMDPad,CuDef*%
%ADD12R,1.150000X1.000000*%
%TD*%
%TA.AperFunction,SMDPad,CuDef*%
%ADD13R,0.575000X0.620000*%
%TD*%
%TA.AperFunction,SMDPad,CuDef*%
%ADD14R,1.000000X1.000000*%
%TD*%
%TA.AperFunction,SMDPad,CuDef*%
%ADD15R,0.420000X0.550000*%
%TD*%
%TA.AperFunction,SMDPad,CuDef*%
%ADD16R,1.750000X0.650000*%
%TD*%
%TA.AperFunction,ComponentPad*%
%ADD17C,2.200000*%
%TD*%
%TA.AperFunction,ComponentPad*%
%ADD18C,1.000000*%
%TD*%
%TA.AperFunction,ViaPad*%
%ADD19C,0.800000*%
%TD*%
%TA.AperFunction,Conductor*%
%ADD20C,1.000000*%
%TD*%
%TA.AperFunction,Conductor*%
%ADD21C,0.500000*%
%TD*%
%TA.AperFunction,Conductor*%
%ADD22C,0.400000*%
%TD*%
%TA.AperFunction,Conductor*%
%ADD23C,0.254000*%
%TD*%
%TA.AperFunction,Conductor*%
%ADD24C,0.100000*%
%TD*%
G04 APERTURE END LIST*
D10*
%TO.P,C1,1*%
%TO.N,Net-(C1-Pad1)*%
X71424800Y-114503200D03*
%TO.P,C1,2*%
%TO.N,GND*%
X71424800Y-117803200D03*
%TD*%
%TO.P,C2,2*%
%TO.N,GND*%
X83947000Y-123951000D03*
%TO.P,C2,1*%
%TO.N,Net-(C2-Pad1)*%
X83947000Y-120651000D03*
%TD*%
%TO.P,C3,1*%
%TO.N,Net-(C1-Pad1)*%
%TA.AperFunction,SMDPad,CuDef*%
G36*
G01*
X68207900Y-121543100D02*
X67732900Y-121543100D01*
G75*
G02*
X67495400Y-121305600I0J237500D01*
G01*
X67495400Y-120705600D01*
G75*
G02*
X67732900Y-120468100I237500J0D01*
G01*
X68207900Y-120468100D01*
G75*
G02*
X68445400Y-120705600I0J-237500D01*
G01*
X68445400Y-121305600D01*
G75*
G02*
X68207900Y-121543100I-237500J0D01*
G01*
G37*
%TD.AperFunction*%
%TO.P,C3,2*%
%TO.N,GND*%
%TA.AperFunction,SMDPad,CuDef*%
G36*
G01*
X68207900Y-119818100D02*
X67732900Y-119818100D01*
G75*
G02*
X67495400Y-119580600I0J237500D01*
G01*
X67495400Y-118980600D01*
G75*
G02*
X67732900Y-118743100I237500J0D01*
G01*
X68207900Y-118743100D01*
G75*
G02*
X68445400Y-118980600I0J-237500D01*
G01*
X68445400Y-119580600D01*
G75*
G02*
X68207900Y-119818100I-237500J0D01*
G01*
G37*
%TD.AperFunction*%
%TD*%
%TO.P,C4,1*%
%TO.N,Net-(C2-Pad1)*%
%TA.AperFunction,SMDPad,CuDef*%
G36*
G01*
X89670900Y-124362500D02*
X89195900Y-124362500D01*
G75*
G02*
X88958400Y-124125000I0J237500D01*
G01*
X88958400Y-123525000D01*
G75*
G02*
X89195900Y-123287500I237500J0D01*
G01*
X89670900Y-123287500D01*
G75*
G02*
X89908400Y-123525000I0J-237500D01*
G01*
X89908400Y-124125000D01*
G75*
G02*
X89670900Y-124362500I-237500J0D01*
G01*
G37*
%TD.AperFunction*%
%TO.P,C4,2*%
%TO.N,GND*%
%TA.AperFunction,SMDPad,CuDef*%
G36*
G01*
X89670900Y-122637500D02*
X89195900Y-122637500D01*
G75*
G02*
X88958400Y-122400000I0J237500D01*
G01*
X88958400Y-121800000D01*
G75*
G02*
X89195900Y-121562500I237500J0D01*
G01*
X89670900Y-121562500D01*
G75*
G02*
X89908400Y-121800000I0J-237500D01*
G01*
X89908400Y-122400000D01*
G75*
G02*
X89670900Y-122637500I-237500J0D01*
G01*
G37*
%TD.AperFunction*%
%TD*%
%TO.P,C5,1*%
%TO.N,Net-(C2-Pad1)*%
%TA.AperFunction,SMDPad,CuDef*%
G36*
G01*
X77936100Y-127918500D02*
X77461100Y-127918500D01*
G75*
G02*
X77223600Y-127681000I0J237500D01*
G01*
X77223600Y-127081000D01*
G75*
G02*
X77461100Y-126843500I237500J0D01*
G01*
X77936100Y-126843500D01*
G75*
G02*
X78173600Y-127081000I0J-237500D01*
G01*
X78173600Y-127681000D01*
G75*
G02*
X77936100Y-127918500I-237500J0D01*
G01*
G37*
%TD.AperFunction*%
%TO.P,C5,2*%
%TO.N,GND*%
%TA.AperFunction,SMDPad,CuDef*%
G36*
G01*
X77936100Y-126193500D02*
X77461100Y-126193500D01*
G75*
G02*
X77223600Y-125956000I0J237500D01*
G01*
X77223600Y-125356000D01*
G75*
G02*
X77461100Y-125118500I237500J0D01*
G01*
X77936100Y-125118500D01*
G75*
G02*
X78173600Y-125356000I0J-237500D01*
G01*
X78173600Y-125956000D01*
G75*
G02*
X77936100Y-126193500I-237500J0D01*
G01*
G37*
%TD.AperFunction*%
%TD*%
%TO.P,C6,2*%
%TO.N,GND*%
%TA.AperFunction,SMDPad,CuDef*%
G36*
G01*
X87421600Y-120506500D02*
X87421600Y-120031500D01*
G75*
G02*
X87659100Y-119794000I237500J0D01*
G01*
X88259100Y-119794000D01*
G75*
G02*
X88496600Y-120031500I0J-237500D01*
G01*
X88496600Y-120506500D01*
G75*
G02*
X88259100Y-120744000I-237500J0D01*
G01*
X87659100Y-120744000D01*
G75*
G02*
X87421600Y-120506500I0J237500D01*
G01*
G37*
%TD.AperFunction*%
%TO.P,C6,1*%
%TO.N,Net-(C6-Pad1)*%
%TA.AperFunction,SMDPad,CuDef*%
G36*
G01*
X85696600Y-120506500D02*
X85696600Y-120031500D01*
G75*
G02*
X85934100Y-119794000I237500J0D01*
G01*
X86534100Y-119794000D01*
G75*
G02*
X86771600Y-120031500I0J-237500D01*
G01*
X86771600Y-120506500D01*
G75*
G02*
X86534100Y-120744000I-237500J0D01*
G01*
X85934100Y-120744000D01*
G75*
G02*
X85696600Y-120506500I0J237500D01*
G01*
G37*
%TD.AperFunction*%
%TD*%
%TO.P,C7,2*%
%TO.N,GND*%
%TA.AperFunction,SMDPad,CuDef*%
G36*
G01*
X65982900Y-123681500D02*
X65982900Y-123206500D01*
G75*
G02*
X66220400Y-122969000I237500J0D01*
G01*
X66820400Y-122969000D01*
G75*
G02*
X67057900Y-123206500I0J-237500D01*
G01*
X67057900Y-123681500D01*
G75*
G02*
X66820400Y-123919000I-237500J0D01*
G01*
X66220400Y-123919000D01*
G75*
G02*
X65982900Y-123681500I0J237500D01*
G01*
G37*
%TD.AperFunction*%
%TO.P,C7,1*%
%TO.N,Net-(C7-Pad1)*%
%TA.AperFunction,SMDPad,CuDef*%
G36*
G01*
X64257900Y-123681500D02*
X64257900Y-123206500D01*
G75*
G02*
X64495400Y-122969000I237500J0D01*
G01*
X65095400Y-122969000D01*
G75*
G02*
X65332900Y-123206500I0J-237500D01*
G01*
X65332900Y-123681500D01*
G75*
G02*
X65095400Y-123919000I-237500J0D01*
G01*
X64495400Y-123919000D01*
G75*
G02*
X64257900Y-123681500I0J237500D01*
G01*
G37*
%TD.AperFunction*%
%TD*%
%TO.P,C8,1*%
%TO.N,Net-(C8-Pad1)*%
%TA.AperFunction,SMDPad,CuDef*%
G36*
G01*
X95385900Y-116996500D02*
X94910900Y-116996500D01*
G75*
G02*
X94673400Y-116759000I0J237500D01*
G01*
X94673400Y-116159000D01*
G75*
G02*
X94910900Y-115921500I237500J0D01*
G01*
X95385900Y-115921500D01*
G75*
G02*
X95623400Y-116159000I0J-237500D01*
G01*
X95623400Y-116759000D01*
G75*
G02*
X95385900Y-116996500I-237500J0D01*
G01*
G37*
%TD.AperFunction*%
%TO.P,C8,2*%
%TO.N,GND*%
%TA.AperFunction,SMDPad,CuDef*%
G36*
G01*
X95385900Y-115271500D02*
X94910900Y-115271500D01*
G75*
G02*
X94673400Y-115034000I0J237500D01*
G01*
X94673400Y-114434000D01*
G75*
G02*
X94910900Y-114196500I237500J0D01*
G01*
X95385900Y-114196500D01*
G75*
G02*
X95623400Y-114434000I0J-237500D01*
G01*
X95623400Y-115034000D01*
G75*
G02*
X95385900Y-115271500I-237500J0D01*
G01*
G37*
%TD.AperFunction*%
%TD*%
%TO.P,C9,1*%
%TO.N,GND*%
%TA.AperFunction,SMDPad,CuDef*%
G36*
G01*
X71067300Y-120658900D02*
X71067300Y-120183900D01*
G75*
G02*
X71304800Y-119946400I237500J0D01*
G01*
X71904800Y-119946400D01*
G75*
G02*
X72142300Y-120183900I0J-237500D01*
G01*
X72142300Y-120658900D01*
G75*
G02*
X71904800Y-120896400I-237500J0D01*
G01*
X71304800Y-120896400D01*
G75*
G02*
X71067300Y-120658900I0J237500D01*
G01*
G37*
%TD.AperFunction*%
%TO.P,C9,2*%
%TO.N,Net-(C9-Pad2)*%
%TA.AperFunction,SMDPad,CuDef*%
G36*
G01*
X72792300Y-120658900D02*
X72792300Y-120183900D01*
G75*
G02*
X73029800Y-119946400I237500J0D01*
G01*
X73629800Y-119946400D01*
G75*
G02*
X73867300Y-120183900I0J-237500D01*
G01*
X73867300Y-120658900D01*
G75*
G02*
X73629800Y-120896400I-237500J0D01*
G01*
X73029800Y-120896400D01*
G75*
G02*
X72792300Y-120658900I0J237500D01*
G01*
G37*
%TD.AperFunction*%
%TD*%
%TO.P,C10,2*%
%TO.N,GND*%
%TA.AperFunction,SMDPad,CuDef*%
G36*
G01*
X72203300Y-126130100D02*
X72678300Y-126130100D01*
G75*
G02*
X72915800Y-126367600I0J-237500D01*
G01*
X72915800Y-126967600D01*
G75*
G02*
X72678300Y-127205100I-237500J0D01*
G01*
X72203300Y-127205100D01*
G75*
G02*
X71965800Y-126967600I0J237500D01*
G01*
X71965800Y-126367600D01*
G75*
G02*
X72203300Y-126130100I237500J0D01*
G01*
G37*
%TD.AperFunction*%
%TO.P,C10,1*%
%TO.N,GND3*%
%TA.AperFunction,SMDPad,CuDef*%
G36*
G01*
X72203300Y-124405100D02*
X72678300Y-124405100D01*
G75*
G02*
X72915800Y-124642600I0J-237500D01*
G01*
X72915800Y-125242600D01*
G75*
G02*
X72678300Y-125480100I-237500J0D01*
G01*
X72203300Y-125480100D01*
G75*
G02*
X71965800Y-125242600I0J237500D01*
G01*
X71965800Y-124642600D01*
G75*
G02*
X72203300Y-124405100I237500J0D01*
G01*
G37*
%TD.AperFunction*%
%TD*%
%TO.P,C11,2*%
%TO.N,Net-(C11-Pad2)*%
%TA.AperFunction,SMDPad,CuDef*%
G36*
G01*
X93463100Y-115919300D02*
X93938100Y-115919300D01*
G75*
G02*
X94175600Y-116156800I0J-237500D01*
G01*
X94175600Y-116756800D01*
G75*
G02*
X93938100Y-116994300I-237500J0D01*
G01*
X93463100Y-116994300D01*
G75*
G02*
X93225600Y-116756800I0J237500D01*
G01*
X93225600Y-116156800D01*
G75*
G02*
X93463100Y-115919300I237500J0D01*
G01*
G37*
%TD.AperFunction*%
%TO.P,C11,1*%
%TO.N,GND*%
%TA.AperFunction,SMDPad,CuDef*%
G36*
G01*
X93463100Y-114194300D02*
X93938100Y-114194300D01*
G75*
G02*
X94175600Y-114431800I0J-237500D01*
G01*
X94175600Y-115031800D01*
G75*
G02*
X93938100Y-115269300I-237500J0D01*
G01*
X93463100Y-115269300D01*
G75*
G02*
X93225600Y-115031800I0J237500D01*
G01*
X93225600Y-114431800D01*
G75*
G02*
X93463100Y-114194300I237500J0D01*
G01*
G37*
%TD.AperFunction*%
%TD*%
%TO.P,C12,1*%
%TO.N,GND1*%
%TA.AperFunction,SMDPad,CuDef*%
G36*
G01*
X91227900Y-121765700D02*
X91702900Y-121765700D01*
G75*
G02*
X91940400Y-122003200I0J-237500D01*
G01*
X91940400Y-122603200D01*
G75*
G02*
X91702900Y-122840700I-237500J0D01*
G01*
X91227900Y-122840700D01*
G75*
G02*
X90990400Y-122603200I0J237500D01*
G01*
X90990400Y-122003200D01*
G75*
G02*
X91227900Y-121765700I237500J0D01*
G01*
G37*
%TD.AperFunction*%
%TO.P,C12,2*%
%TO.N,GND*%
%TA.AperFunction,SMDPad,CuDef*%
G36*
G01*
X91227900Y-123490700D02*
X91702900Y-123490700D01*
G75*
G02*
X91940400Y-123728200I0J-237500D01*
G01*
X91940400Y-124328200D01*
G75*
G02*
X91702900Y-124565700I-237500J0D01*
G01*
X91227900Y-124565700D01*
G75*
G02*
X90990400Y-124328200I0J237500D01*
G01*
X90990400Y-123728200D01*
G75*
G02*
X91227900Y-123490700I237500J0D01*
G01*
G37*
%TD.AperFunction*%
%TD*%
%TO.P,C13,2*%
%TO.N,Net-(C13-Pad2)*%
%TA.AperFunction,SMDPad,CuDef*%
G36*
G01*
X78608900Y-115020100D02*
X78608900Y-114545100D01*
G75*
G02*
X78846400Y-114307600I237500J0D01*
G01*
X79446400Y-114307600D01*
G75*
G02*
X79683900Y-114545100I0J-237500D01*
G01*
X79683900Y-115020100D01*
G75*
G02*
X79446400Y-115257600I-237500J0D01*
G01*
X78846400Y-115257600D01*
G75*
G02*
X78608900Y-115020100I0J237500D01*
G01*
G37*
%TD.AperFunction*%
%TO.P,C13,1*%
%TO.N,GND*%
%TA.AperFunction,SMDPad,CuDef*%
G36*
G01*
X76883900Y-115020100D02*
X76883900Y-114545100D01*
G75*
G02*
X77121400Y-114307600I237500J0D01*
G01*
X77721400Y-114307600D01*
G75*
G02*
X77958900Y-114545100I0J-237500D01*
G01*
X77958900Y-115020100D01*
G75*
G02*
X77721400Y-115257600I-237500J0D01*
G01*
X77121400Y-115257600D01*
G75*
G02*
X76883900Y-115020100I0J237500D01*
G01*
G37*
%TD.AperFunction*%
%TD*%
%TO.P,C14,1*%
%TO.N,GND*%
%TA.AperFunction,SMDPad,CuDef*%
G36*
G01*
X71067300Y-119287300D02*
X71067300Y-118812300D01*
G75*
G02*
X71304800Y-118574800I237500J0D01*
G01*
X71904800Y-118574800D01*
G75*
G02*
X72142300Y-118812300I0J-237500D01*
G01*
X72142300Y-119287300D01*
G75*
G02*
X71904800Y-119524800I-237500J0D01*
G01*
X71304800Y-119524800D01*
G75*
G02*
X71067300Y-119287300I0J237500D01*
G01*
G37*
%TD.AperFunction*%
%TO.P,C14,2*%
%TO.N,Net-(C14-Pad2)*%
%TA.AperFunction,SMDPad,CuDef*%
G36*
G01*
X72792300Y-119287300D02*
X72792300Y-118812300D01*
G75*
G02*
X73029800Y-118574800I237500J0D01*
G01*
X73629800Y-118574800D01*
G75*
G02*
X73867300Y-118812300I0J-237500D01*
G01*
X73867300Y-119287300D01*
G75*
G02*
X73629800Y-119524800I-237500J0D01*
G01*
X73029800Y-119524800D01*
G75*
G02*
X72792300Y-119287300I0J237500D01*
G01*
G37*
%TD.AperFunction*%
%TD*%
%TO.P,C15,2*%
%TO.N,GND*%
%TA.AperFunction,SMDPad,CuDef*%
G36*
G01*
X76216500Y-122728700D02*
X76691500Y-122728700D01*
G75*
G02*
X76929000Y-122966200I0J-237500D01*
G01*
X76929000Y-123566200D01*
G75*
G02*
X76691500Y-123803700I-237500J0D01*
G01*
X76216500Y-123803700D01*
G75*
G02*
X75979000Y-123566200I0J237500D01*
G01*
X75979000Y-122966200D01*
G75*
G02*
X76216500Y-122728700I237500J0D01*
G01*
G37*
%TD.AperFunction*%
%TO.P,C15,1*%
%TO.N,GND3*%
%TA.AperFunction,SMDPad,CuDef*%
G36*
G01*
X76216500Y-121003700D02*
X76691500Y-121003700D01*
G75*
G02*
X76929000Y-121241200I0J-237500D01*
G01*
X76929000Y-121841200D01*
G75*
G02*
X76691500Y-122078700I-237500J0D01*
G01*
X76216500Y-122078700D01*
G75*
G02*
X75979000Y-121841200I0J237500D01*
G01*
X75979000Y-121241200D01*
G75*
G02*
X76216500Y-121003700I237500J0D01*
G01*
G37*
%TD.AperFunction*%
%TD*%
%TO.P,C16,2*%
%TO.N,Net-(C16-Pad2)*%
%TA.AperFunction,SMDPad,CuDef*%
G36*
G01*
X95081100Y-126244300D02*
X94606100Y-126244300D01*
G75*
G02*
X94368600Y-126006800I0J237500D01*
G01*
X94368600Y-125406800D01*
G75*
G02*
X94606100Y-125169300I237500J0D01*
G01*
X95081100Y-125169300D01*
G75*
G02*
X95318600Y-125406800I0J-237500D01*
G01*
X95318600Y-126006800D01*
G75*
G02*
X95081100Y-126244300I-237500J0D01*
G01*
G37*
%TD.AperFunction*%
%TO.P,C16,1*%
%TO.N,GND*%
%TA.AperFunction,SMDPad,CuDef*%
G36*
G01*
X95081100Y-127969300D02*
X94606100Y-127969300D01*
G75*
G02*
X94368600Y-127731800I0J237500D01*
G01*
X94368600Y-127131800D01*
G75*
G02*
X94606100Y-126894300I237500J0D01*
G01*
X95081100Y-126894300D01*
G75*
G02*
X95318600Y-127131800I0J-237500D01*
G01*
X95318600Y-127731800D01*
G75*
G02*
X95081100Y-127969300I-237500J0D01*
G01*
G37*
%TD.AperFunction*%
%TD*%
%TO.P,C17,1*%
%TO.N,GND1*%
%TA.AperFunction,SMDPad,CuDef*%
G36*
G01*
X92460100Y-120488700D02*
X92460100Y-120963700D01*
G75*
G02*
X92222600Y-121201200I-237500J0D01*
G01*
X91622600Y-121201200D01*
G75*
G02*
X91385100Y-120963700I0J237500D01*
G01*
X91385100Y-120488700D01*
G75*
G02*
X91622600Y-120251200I237500J0D01*
G01*
X92222600Y-120251200D01*
G75*
G02*
X92460100Y-120488700I0J-237500D01*
G01*
G37*
%TD.AperFunction*%
%TO.P,C17,2*%
%TO.N,GND*%
%TA.AperFunction,SMDPad,CuDef*%
G36*
G01*
X90735100Y-120488700D02*
X90735100Y-120963700D01*
G75*
G02*
X90497600Y-121201200I-237500J0D01*
G01*
X89897600Y-121201200D01*
G75*
G02*
X89660100Y-120963700I0J237500D01*
G01*
X89660100Y-120488700D01*
G75*
G02*
X89897600Y-120251200I237500J0D01*
G01*
X90497600Y-120251200D01*
G75*
G02*
X90735100Y-120488700I0J-237500D01*
G01*
G37*
%TD.AperFunction*%
%TD*%
%TO.P,C18,1*%
%TO.N,Net-(C18-Pad1)*%
%TA.AperFunction,SMDPad,CuDef*%
G36*
G01*
X81817500Y-123104900D02*
X81817500Y-123579900D01*
G75*
G02*
X81580000Y-123817400I-237500J0D01*
G01*
X80980000Y-123817400D01*
G75*
G02*
X80742500Y-123579900I0J237500D01*
G01*
X80742500Y-123104900D01*
G75*
G02*
X80980000Y-122867400I237500J0D01*
G01*
X81580000Y-122867400D01*
G75*
G02*
X81817500Y-123104900I0J-237500D01*
G01*
G37*
%TD.AperFunction*%
%TO.P,C18,2*%
%TO.N,GND*%
%TA.AperFunction,SMDPad,CuDef*%
G36*
G01*
X80092500Y-123104900D02*
X80092500Y-123579900D01*
G75*
G02*
X79855000Y-123817400I-237500J0D01*
G01*
X79255000Y-123817400D01*
G75*
G02*
X79017500Y-123579900I0J237500D01*
G01*
X79017500Y-123104900D01*
G75*
G02*
X79255000Y-122867400I237500J0D01*
G01*
X79855000Y-122867400D01*
G75*
G02*
X80092500Y-123104900I0J-237500D01*
G01*
G37*
%TD.AperFunction*%
%TD*%
%TO.P,C19,1*%
%TO.N,GND*%
%TA.AperFunction,SMDPad,CuDef*%
G36*
G01*
X81398100Y-116787300D02*
X81873100Y-116787300D01*
G75*
G02*
X82110600Y-117024800I0J-237500D01*
G01*
X82110600Y-117624800D01*
G75*
G02*
X81873100Y-117862300I-237500J0D01*
G01*
X81398100Y-117862300D01*
G75*
G02*
X81160600Y-117624800I0J237500D01*
G01*
X81160600Y-117024800D01*
G75*
G02*
X81398100Y-116787300I237500J0D01*
G01*
G37*
%TD.AperFunction*%
%TO.P,C19,2*%
%TO.N,Net-(C19-Pad2)*%
%TA.AperFunction,SMDPad,CuDef*%
G36*
G01*
X81398100Y-118512300D02*
X81873100Y-118512300D01*
G75*
G02*
X82110600Y-118749800I0J-237500D01*
G01*
X82110600Y-119349800D01*
G75*
G02*
X81873100Y-119587300I-237500J0D01*
G01*
X81398100Y-119587300D01*
G75*
G02*
X81160600Y-119349800I0J237500D01*
G01*
X81160600Y-118749800D01*
G75*
G02*
X81398100Y-118512300I237500J0D01*
G01*
G37*
%TD.AperFunction*%
%TD*%
%TO.P,C20,2*%
%TO.N,GND*%
%TA.AperFunction,SMDPad,CuDef*%
G36*
G01*
X77791300Y-122728700D02*
X78266300Y-122728700D01*
G75*
G02*
X78503800Y-122966200I0J-237500D01*
G01*
X78503800Y-123566200D01*
G75*
G02*
X78266300Y-123803700I-237500J0D01*
G01*
X77791300Y-123803700D01*
G75*
G02*
X77553800Y-123566200I0J237500D01*
G01*
X77553800Y-122966200D01*
G75*
G02*
X77791300Y-122728700I237500J0D01*
G01*
G37*
%TD.AperFunction*%
%TO.P,C20,1*%
%TO.N,GNDA*%
%TA.AperFunction,SMDPad,CuDef*%
G36*
G01*
X77791300Y-121003700D02*
X78266300Y-121003700D01*
G75*
G02*
X78503800Y-121241200I0J-237500D01*
G01*
X78503800Y-121841200D01*
G75*
G02*
X78266300Y-122078700I-237500J0D01*
G01*
X77791300Y-122078700D01*
G75*
G02*
X77553800Y-121841200I0J237500D01*
G01*
X77553800Y-121241200D01*
G75*
G02*
X77791300Y-121003700I237500J0D01*
G01*
G37*
%TD.AperFunction*%
%TD*%
%TO.P,C21,2*%
%TO.N,Net-(C21-Pad2)*%
%TA.AperFunction,SMDPad,CuDef*%
G36*
G01*
X92106700Y-127245100D02*
X92106700Y-127720100D01*
G75*
G02*
X91869200Y-127957600I-237500J0D01*
G01*
X91269200Y-127957600D01*
G75*
G02*
X91031700Y-127720100I0J237500D01*
G01*
X91031700Y-127245100D01*
G75*
G02*
X91269200Y-127007600I237500J0D01*
G01*
X91869200Y-127007600D01*
G75*
G02*
X92106700Y-127245100I0J-237500D01*
G01*
G37*
%TD.AperFunction*%
%TO.P,C21,1*%
%TO.N,GND*%
%TA.AperFunction,SMDPad,CuDef*%
G36*
G01*
X93831700Y-127245100D02*
X93831700Y-127720100D01*
G75*
G02*
X93594200Y-127957600I-237500J0D01*
G01*
X92994200Y-127957600D01*
G75*
G02*
X92756700Y-127720100I0J237500D01*
G01*
X92756700Y-127245100D01*
G75*
G02*
X92994200Y-127007600I237500J0D01*
G01*
X93594200Y-127007600D01*
G75*
G02*
X93831700Y-127245100I0J-237500D01*
G01*
G37*
%TD.AperFunction*%
%TD*%
%TO.P,C22,1*%
%TO.N,GND2*%
%TA.AperFunction,SMDPad,CuDef*%
G36*
G01*
X88618700Y-125815100D02*
X88618700Y-125340100D01*
G75*
G02*
X88856200Y-125102600I237500J0D01*
G01*
X89456200Y-125102600D01*
G75*
G02*
X89693700Y-125340100I0J-237500D01*
G01*
X89693700Y-125815100D01*
G75*
G02*
X89456200Y-126052600I-237500J0D01*
G01*
X88856200Y-126052600D01*
G75*
G02*
X88618700Y-125815100I0J237500D01*
G01*
G37*
%TD.AperFunction*%
%TO.P,C22,2*%
%TO.N,GND*%
%TA.AperFunction,SMDPad,CuDef*%
G36*
G01*
X90343700Y-125815100D02*
X90343700Y-125340100D01*
G75*
G02*
X90581200Y-125102600I237500J0D01*
G01*
X91181200Y-125102600D01*
G75*
G02*
X91418700Y-125340100I0J-237500D01*
G01*
X91418700Y-125815100D01*
G75*
G02*
X91181200Y-126052600I-237500J0D01*
G01*
X90581200Y-126052600D01*
G75*
G02*
X90343700Y-125815100I0J237500D01*
G01*
G37*
%TD.AperFunction*%
%TD*%
%TO.P,C23,2*%
%TO.N,GNDA*%
%TA.AperFunction,SMDPad,CuDef*%
G36*
G01*
X79442300Y-120188700D02*
X79917300Y-120188700D01*
G75*
G02*
X80154800Y-120426200I0J-237500D01*
G01*
X80154800Y-121026200D01*
G75*
G02*
X79917300Y-121263700I-237500J0D01*
G01*
X79442300Y-121263700D01*
G75*
G02*
X79204800Y-121026200I0J237500D01*
G01*
X79204800Y-120426200D01*
G75*
G02*
X79442300Y-120188700I237500J0D01*
G01*
G37*
%TD.AperFunction*%
%TO.P,C23,1*%
%TO.N,Net-(C19-Pad2)*%
%TA.AperFunction,SMDPad,CuDef*%
G36*
G01*
X79442300Y-118463700D02*
X79917300Y-118463700D01*
G75*
G02*
X80154800Y-118701200I0J-237500D01*
G01*
X80154800Y-119301200D01*
G75*
G02*
X79917300Y-119538700I-237500J0D01*
G01*
X79442300Y-119538700D01*
G75*
G02*
X79204800Y-119301200I0J237500D01*
G01*
X79204800Y-118701200D01*
G75*
G02*
X79442300Y-118463700I237500J0D01*
G01*
G37*
%TD.AperFunction*%
%TD*%
%TO.P,C24,2*%
%TO.N,GND2*%
%TA.AperFunction,SMDPad,CuDef*%
G36*
G01*
X86648300Y-126193500D02*
X86173300Y-126193500D01*
G75*
G02*
X85935800Y-125956000I0J237500D01*
G01*
X85935800Y-125356000D01*
G75*
G02*
X86173300Y-125118500I237500J0D01*
G01*
X86648300Y-125118500D01*
G75*
G02*
X86885800Y-125356000I0J-237500D01*
G01*
X86885800Y-125956000D01*
G75*
G02*
X86648300Y-126193500I-237500J0D01*
G01*
G37*
%TD.AperFunction*%
%TO.P,C24,1*%
%TO.N,Net-(C21-Pad2)*%
%TA.AperFunction,SMDPad,CuDef*%
G36*
G01*
X86648300Y-127918500D02*
X86173300Y-127918500D01*
G75*
G02*
X85935800Y-127681000I0J237500D01*
G01*
X85935800Y-127081000D01*
G75*
G02*
X86173300Y-126843500I237500J0D01*
G01*
X86648300Y-126843500D01*
G75*
G02*
X86885800Y-127081000I0J-237500D01*
G01*
X86885800Y-127681000D01*
G75*
G02*
X86648300Y-127918500I-237500J0D01*
G01*
G37*
%TD.AperFunction*%
%TD*%
D11*
%TO.P,IC1,1*%
%TO.N,GND*%
X88158200Y-121936800D03*
%TO.P,IC1,2*%
%TO.N,Net-(C6-Pad1)*%
X86238200Y-121936800D03*
%TO.P,IC1,3*%
%TO.N,Net-(C2-Pad1)*%
X87198200Y-124036800D03*
%TD*%
D12*
%TO.P,L3,1*%
%TO.N,Net-(L3-Pad1)*%
X80035400Y-116611400D03*
%TO.P,L3,2*%
%TO.N,Net-(C13-Pad2)*%
X77685400Y-116611400D03*
%TD*%
D13*
%TO.P,Q1,1*%
%TO.N,Net-(Q1-Pad1)*%
X64643000Y-120055600D03*
%TO.P,Q1,2*%
%TO.N,Net-(C7-Pad1)*%
X64643000Y-121955600D03*
%TO.P,Q1,3*%
%TO.N,Net-(C1-Pad1)*%
X67019000Y-121005600D03*
%TD*%
%TO.P,Q2,3*%
%TO.N,Net-(C2-Pad1)*%
X78999800Y-126517400D03*
%TO.P,Q2,2*%
%TO.N,Net-(C8-Pad1)*%
X81375800Y-125567400D03*
%TO.P,Q2,1*%
%TO.N,Net-(Q2-Pad1)*%
X81375800Y-127467400D03*
%TD*%
%TO.P,R1,2*%
%TO.N,GND*%
%TA.AperFunction,SMDPad,CuDef*%
G36*
G01*
X66263700Y-118804700D02*
X66263700Y-118329700D01*
G75*
G02*
X66501200Y-118092200I237500J0D01*
G01*
X67001200Y-118092200D01*
G75*
G02*
X67238700Y-118329700I0J-237500D01*
G01*
X67238700Y-118804700D01*
G75*
G02*
X67001200Y-119042200I-237500J0D01*
G01*
X66501200Y-119042200D01*
G75*
G02*
X66263700Y-118804700I0J237500D01*
G01*
G37*
%TD.AperFunction*%
%TO.P,R1,1*%
%TO.N,Net-(Q1-Pad1)*%
%TA.AperFunction,SMDPad,CuDef*%
G36*
G01*
X64438700Y-118804700D02*
X64438700Y-118329700D01*
G75*
G02*
X64676200Y-118092200I237500J0D01*
G01*
X65176200Y-118092200D01*
G75*
G02*
X65413700Y-118329700I0J-237500D01*
G01*
X65413700Y-118804700D01*
G75*
G02*
X65176200Y-119042200I-237500J0D01*
G01*
X64676200Y-119042200D01*
G75*
G02*
X64438700Y-118804700I0J237500D01*
G01*
G37*
%TD.AperFunction*%
%TD*%
%TO.P,R2,2*%
%TO.N,GND*%
%TA.AperFunction,SMDPad,CuDef*%
G36*
G01*
X84489300Y-126170500D02*
X84014300Y-126170500D01*
G75*
G02*
X83776800Y-125933000I0J237500D01*
G01*
X83776800Y-125433000D01*
G75*
G02*
X84014300Y-125195500I237500J0D01*
G01*
X84489300Y-125195500D01*
G75*
G02*
X84726800Y-125433000I0J-237500D01*
G01*
X84726800Y-125933000D01*
G75*
G02*
X84489300Y-126170500I-237500J0D01*
G01*
G37*
%TD.AperFunction*%
%TO.P,R2,1*%
%TO.N,Net-(Q2-Pad1)*%
%TA.AperFunction,SMDPad,CuDef*%
G36*
G01*
X84489300Y-127995500D02*
X84014300Y-127995500D01*
G75*
G02*
X83776800Y-127758000I0J237500D01*
G01*
X83776800Y-127258000D01*
G75*
G02*
X84014300Y-127020500I237500J0D01*
G01*
X84489300Y-127020500D01*
G75*
G02*
X84726800Y-127258000I0J-237500D01*
G01*
X84726800Y-127758000D01*
G75*
G02*
X84489300Y-127995500I-237500J0D01*
G01*
G37*
%TD.AperFunction*%
%TD*%
%TO.P,R3,1*%
%TO.N,Net-(IC2-Pad5)*%
%TA.AperFunction,SMDPad,CuDef*%
G36*
G01*
X83037500Y-114519700D02*
X83037500Y-114994700D01*
G75*
G02*
X82800000Y-115232200I-237500J0D01*
G01*
X82300000Y-115232200D01*
G75*
G02*
X82062500Y-114994700I0J237500D01*
G01*
X82062500Y-114519700D01*
G75*
G02*
X82300000Y-114282200I237500J0D01*
G01*
X82800000Y-114282200D01*
G75*
G02*
X83037500Y-114519700I0J-237500D01*
G01*
G37*
%TD.AperFunction*%
%TO.P,R3,2*%
%TO.N,Net-(L3-Pad1)*%
%TA.AperFunction,SMDPad,CuDef*%
G36*
G01*
X81212500Y-114519700D02*
X81212500Y-114994700D01*
G75*
G02*
X80975000Y-115232200I-237500J0D01*
G01*
X80475000Y-115232200D01*
G75*
G02*
X80237500Y-114994700I0J237500D01*
G01*
X80237500Y-114519700D01*
G75*
G02*
X80475000Y-114282200I237500J0D01*
G01*
X80975000Y-114282200D01*
G75*
G02*
X81212500Y-114519700I0J-237500D01*
G01*
G37*
%TD.AperFunction*%
%TD*%
%TO.P,R4,1*%
%TO.N,Net-(C18-Pad1)*%
%TA.AperFunction,SMDPad,CuDef*%
G36*
G01*
X62641300Y-127372100D02*
X62641300Y-127847100D01*
G75*
G02*
X62403800Y-128084600I-237500J0D01*
G01*
X61903800Y-128084600D01*
G75*
G02*
X61666300Y-127847100I0J237500D01*
G01*
X61666300Y-127372100D01*
G75*
G02*
X61903800Y-127134600I237500J0D01*
G01*
X62403800Y-127134600D01*
G75*
G02*
X62641300Y-127372100I0J-237500D01*
G01*
G37*
%TD.AperFunction*%
%TO.P,R4,2*%
%TO.N,Net-(J4-Pad1)*%
%TA.AperFunction,SMDPad,CuDef*%
G36*
G01*
X60816300Y-127372100D02*
X60816300Y-127847100D01*
G75*
G02*
X60578800Y-128084600I-237500J0D01*
G01*
X60078800Y-128084600D01*
G75*
G02*
X59841300Y-127847100I0J237500D01*
G01*
X59841300Y-127372100D01*
G75*
G02*
X60078800Y-127134600I237500J0D01*
G01*
X60578800Y-127134600D01*
G75*
G02*
X60816300Y-127372100I0J-237500D01*
G01*
G37*
%TD.AperFunction*%
%TD*%
D14*
%TO.P,Tr1,4*%
%TO.N,GND3*%
X73152000Y-123689800D03*
%TO.P,Tr1,3*%
%TO.N,Net-(C9-Pad2)*%
X73152000Y-121589800D03*
%TO.P,Tr1,2*%
%TO.N,GND*%
X70352000Y-123689800D03*
%TO.P,Tr1,1*%
%TO.N,Net-(C7-Pad1)*%
X70352000Y-121589800D03*
%TD*%
%TO.P,Tr2,1*%
%TO.N,Net-(C8-Pad1)*%
X95504000Y-117783000D03*
%TO.P,Tr2,2*%
%TO.N,GND*%
X93404000Y-117783000D03*
%TO.P,Tr2,3*%
%TO.N,Net-(C11-Pad2)*%
X95504000Y-120583000D03*
%TO.P,Tr2,4*%
%TO.N,GND1*%
X93404000Y-120583000D03*
%TD*%
%TO.P,Tr3,1*%
%TO.N,Net-(C14-Pad2)*%
X75660600Y-118016600D03*
%TO.P,Tr3,2*%
%TO.N,GND3*%
X75660600Y-120116600D03*
%TO.P,Tr3,3*%
%TO.N,Net-(C19-Pad2)*%
X78460600Y-118016600D03*
%TO.P,Tr3,4*%
%TO.N,GNDA*%
X78460600Y-120116600D03*
%TD*%
D15*
%TO.P,Z1,1*%
%TO.N,Net-(C7-Pad1)*%
X63398400Y-121691400D03*
%TO.P,Z1,2*%
%TO.N,Net-(Q1-Pad1)*%
X63398400Y-120141400D03*
%TD*%
%TO.P,Z2,2*%
%TO.N,Net-(Q2-Pad1)*%
X82575400Y-127267000D03*
%TO.P,Z2,1*%
%TO.N,Net-(C8-Pad1)*%
X82575400Y-125717000D03*
%TD*%
D16*
%TO.P,IC2,1*%
%TO.N,N/C*%
X91509000Y-118541800D03*
%TO.P,IC2,2*%
X91509000Y-117271800D03*
%TO.P,IC2,3*%
X91509000Y-116001800D03*
%TO.P,IC2,4*%
%TO.N,GND*%
X91509000Y-114731800D03*
%TO.P,IC2,5*%
%TO.N,Net-(IC2-Pad5)*%
X84259000Y-114731800D03*
%TO.P,IC2,6*%
%TO.N,N/C*%
X84259000Y-116001800D03*
%TO.P,IC2,7*%
%TO.N,Net-(C18-Pad1)*%
X84259000Y-117271800D03*
%TO.P,IC2,8*%
%TO.N,Net-(C6-Pad1)*%
X84259000Y-118541800D03*
%TD*%
%TO.P,L1,2*%
%TO.N,Net-(C1-Pad1)*%
%TA.AperFunction,SMDPad,CuDef*%
G36*
G01*
X68020700Y-117223601D02*
X68020700Y-114373599D01*
G75*
G02*
X68270699Y-114123600I249999J0D01*
G01*
X69295701Y-114123600D01*
G75*
G02*
X69545700Y-114373599I0J-249999D01*
G01*
X69545700Y-117223601D01*
G75*
G02*
X69295701Y-117473600I-249999J0D01*
G01*
X68270699Y-117473600D01*
G75*
G02*
X68020700Y-117223601I0J249999D01*
G01*
G37*
%TD.AperFunction*%
%TO.P,L1,1*%
%TO.N,Net-(J1-Pad1)*%
%TA.AperFunction,SMDPad,CuDef*%
G36*
G01*
X62045700Y-117223601D02*
X62045700Y-114373599D01*
G75*
G02*
X62295699Y-114123600I249999J0D01*
G01*
X63320701Y-114123600D01*
G75*
G02*
X63570700Y-114373599I0J-249999D01*
G01*
X63570700Y-117223601D01*
G75*
G02*
X63320701Y-117473600I-249999J0D01*
G01*
X62295699Y-117473600D01*
G75*
G02*
X62045700Y-117223601I0J249999D01*
G01*
G37*
%TD.AperFunction*%
%TD*%
%TO.P,L2,1*%
%TO.N,Net-(J3-Pad1)*%
%TA.AperFunction,SMDPad,CuDef*%
G36*
G01*
X63366500Y-127942401D02*
X63366500Y-125092399D01*
G75*
G02*
X63616499Y-124842400I249999J0D01*
G01*
X64641501Y-124842400D01*
G75*
G02*
X64891500Y-125092399I0J-249999D01*
G01*
X64891500Y-127942401D01*
G75*
G02*
X64641501Y-128192400I-249999J0D01*
G01*
X63616499Y-128192400D01*
G75*
G02*
X63366500Y-127942401I0J249999D01*
G01*
G37*
%TD.AperFunction*%
%TO.P,L2,2*%
%TO.N,Net-(C2-Pad1)*%
%TA.AperFunction,SMDPad,CuDef*%
G36*
G01*
X69341500Y-127942401D02*
X69341500Y-125092399D01*
G75*
G02*
X69591499Y-124842400I249999J0D01*
G01*
X70616501Y-124842400D01*
G75*
G02*
X70866500Y-125092399I0J-249999D01*
G01*
X70866500Y-127942401D01*
G75*
G02*
X70616501Y-128192400I-249999J0D01*
G01*
X69591499Y-128192400D01*
G75*
G02*
X69341500Y-127942401I0J249999D01*
G01*
G37*
%TD.AperFunction*%
%TD*%
D17*
%TO.P,J1,1*%
%TO.N,Net-(J1-Pad1)*%
X60706000Y-117576600D03*
%TD*%
%TO.P,J2,1*%
%TO.N,GND*%
X60706000Y-120126000D03*
%TD*%
%TO.P,J3,1*%
%TO.N,Net-(J3-Pad1)*%
X60706000Y-122666000D03*
%TD*%
%TO.P,J4,1*%
%TO.N,Net-(J4-Pad1)*%
X60731400Y-125206000D03*
%TD*%
D18*
%TO.P,J5,1*%
%TO.N,Net-(C9-Pad2)*%
X74574400Y-121259400D03*
%TD*%
%TO.P,J6,1*%
%TO.N,Net-(C11-Pad2)*%
X97434400Y-120446800D03*
%TD*%
%TO.P,J7,1*%
%TO.N,GND3*%
X74574400Y-123901200D03*
%TD*%
%TO.P,J8,1*%
%TO.N,Net-(C13-Pad2)*%
X97434400Y-118719600D03*
%TD*%
%TO.P,J9,1*%
%TO.N,GND1*%
X97434400Y-122199400D03*
%TD*%
%TO.P,J10,1*%
%TO.N,Net-(C14-Pad2)*%
X74574400Y-118643200D03*
%TD*%
%TO.P,J11,1*%
%TO.N,Net-(C16-Pad2)*%
X97434400Y-123952000D03*
%TD*%
%TO.P,J12,1*%
%TO.N,Net-(C19-Pad2)*%
X80848200Y-120319800D03*
%TD*%
%TO.P,J13,1*%
%TO.N,GNDA*%
X80848200Y-121666000D03*
%TD*%
%TO.P,J14,1*%
%TO.N,Net-(C21-Pad2)*%
X87629800Y-127152400D03*
%TD*%
%TO.P,J15,1*%
%TO.N,GND2*%
X87630000Y-125806200D03*
%TD*%
D17*
%TO.P,J16,1*%
%TO.N,GND*%
X74574400Y-115782600D03*
%TD*%
%TO.P,J17,1*%
%TO.N,GND*%
X74549000Y-126935000D03*
%TD*%
%TO.P,J18,1*%
%TO.N,GND*%
X97434400Y-126960400D03*
%TD*%
%TO.P,J19,1*%
%TO.N,GND*%
X97434400Y-115782600D03*
%TD*%
D19*
%TO.N,GND*%
X59156600Y-126390400D03*
X59131200Y-118846600D03*
X59182000Y-121386600D03*
X59156600Y-123901200D03*
X98755200Y-119608600D03*
X98755200Y-121335800D03*
X98755200Y-123113800D03*
X98729800Y-125526800D03*
X98755200Y-117475000D03*
X70078600Y-119227600D03*
X93040200Y-121742200D03*
X86436200Y-116636800D03*
X89560400Y-114681000D03*
X86487000Y-114655600D03*
X82346800Y-116636800D03*
X89585800Y-116662200D03*
X93421200Y-119481600D03*
X94894400Y-123291600D03*
X93675200Y-126238000D03*
X60579000Y-114833400D03*
X64871600Y-115366800D03*
X79527400Y-124358400D03*
X62712600Y-118821200D03*
X79908400Y-127736600D03*
X82575400Y-121767600D03*
X90627200Y-126492000D03*
X83997800Y-122986800D03*
X68199000Y-123494800D03*
X65963800Y-125603000D03*
X68199000Y-127330200D03*
X76504800Y-124891800D03*
X71704200Y-123571000D03*
%TO.N,Net-(C2-Pad1)*%
X76733400Y-126720600D03*
X71145400Y-125780800D03*
%TO.N,Net-(C8-Pad1)*%
X95504000Y-118745000D03*
X82981800Y-125145800D03*
%TO.N,Net-(C13-Pad2)*%
X78460600Y-115620800D03*
X96850200Y-117779800D03*
%TO.N,Net-(C18-Pad1)*%
X62560200Y-126669800D03*
X81762600Y-122504200D03*
%TD*%
D20*
%TO.N,Net-(C1-Pad1)*%
X71256990Y-114671010D02*
X71424800Y-114671010D01*
X68783200Y-115798600D02*
X70129400Y-115798600D01*
X70129400Y-115798600D02*
X71256990Y-114671010D01*
D21*
X67970400Y-121005600D02*
X67019000Y-121005600D01*
X68783200Y-115798600D02*
X68783200Y-116789200D01*
X68895410Y-120080590D02*
X67970400Y-121005600D01*
X68895410Y-116901410D02*
X68895410Y-120080590D01*
X68783200Y-116789200D02*
X68895410Y-116901410D01*
%TO.N,Net-(C2-Pad1)*%
X89433400Y-123825000D02*
X89433400Y-123901200D01*
X89297800Y-124036800D02*
X87198200Y-124036800D01*
X89433400Y-123901200D02*
X89297800Y-124036800D01*
X78136200Y-127381000D02*
X78999800Y-126517400D01*
X77698600Y-127381000D02*
X78136200Y-127381000D01*
X83947000Y-121330602D02*
X83947000Y-120651000D01*
X86653198Y-124036800D02*
X83947000Y-121330602D01*
X87198200Y-124036800D02*
X86653198Y-124036800D01*
D22*
X82448400Y-123113800D02*
X83948401Y-121613799D01*
X81314401Y-124857399D02*
X82446999Y-123724801D01*
X80659801Y-124857399D02*
X81314401Y-124857399D01*
X78999800Y-126517400D02*
X80659801Y-124857399D01*
X70104000Y-126517400D02*
X70408800Y-126517400D01*
X70408800Y-126517400D02*
X71145400Y-125780800D01*
X71145400Y-125780800D02*
X71145400Y-125780800D01*
X77698600Y-127381000D02*
X77393800Y-127381000D01*
X77393800Y-127381000D02*
X76733400Y-126720600D01*
X82446999Y-123115201D02*
X82448400Y-123113800D01*
X82446999Y-123724801D02*
X82446999Y-123115201D01*
D21*
%TO.N,Net-(C6-Pad1)*%
X86238200Y-120273100D02*
X86234100Y-120269000D01*
X86238200Y-121936800D02*
X86238200Y-120273100D01*
X84259000Y-118541800D02*
X85420200Y-118541800D01*
X86234100Y-119355700D02*
X86234100Y-120269000D01*
X85420200Y-118541800D02*
X86234100Y-119355700D01*
%TO.N,Net-(C7-Pad1)*%
X64378800Y-121691400D02*
X64643000Y-121955600D01*
X63398400Y-121691400D02*
X64378800Y-121691400D01*
X64795400Y-122108000D02*
X64643000Y-121955600D01*
X64795400Y-123444000D02*
X64795400Y-122108000D01*
X69948690Y-121993110D02*
X70352000Y-121589800D01*
X64680510Y-121993110D02*
X69948690Y-121993110D01*
X64643000Y-121955600D02*
X64680510Y-121993110D01*
%TO.N,Net-(C8-Pad1)*%
X82425800Y-125567400D02*
X82575400Y-125717000D01*
X81375800Y-125567400D02*
X82425800Y-125567400D01*
X95148400Y-117195600D02*
X95732600Y-117779800D01*
X95148400Y-116459000D02*
X95148400Y-117195600D01*
D22*
X82575400Y-125717000D02*
X82740800Y-125717000D01*
X82740800Y-125717000D02*
X82981800Y-125476000D01*
X82981800Y-125476000D02*
X82981800Y-125145800D01*
X82981800Y-125145800D02*
X82981800Y-125145800D01*
X95504000Y-117783000D02*
X95504000Y-118745000D01*
D21*
%TO.N,Net-(C9-Pad2)*%
X73329800Y-121412000D02*
X73152000Y-121589800D01*
X73329800Y-120421400D02*
X73329800Y-121412000D01*
X73482400Y-121259400D02*
X73152000Y-121589800D01*
X74574400Y-121259400D02*
X73482400Y-121259400D01*
%TO.N,GND3*%
X72440800Y-124401000D02*
X73152000Y-123689800D01*
X72440800Y-124942600D02*
X72440800Y-124401000D01*
X74363000Y-123689800D02*
X74574400Y-123901200D01*
X73152000Y-123689800D02*
X74363000Y-123689800D01*
X74574400Y-123420800D02*
X76454000Y-121541200D01*
X74574400Y-123901200D02*
X74574400Y-123420800D01*
X75660600Y-120747800D02*
X76454000Y-121541200D01*
X75660600Y-120116600D02*
X75660600Y-120747800D01*
%TO.N,Net-(C11-Pad2)*%
X95865600Y-120446800D02*
X95732600Y-120579800D01*
X97434400Y-120446800D02*
X95865600Y-120446800D01*
D22*
X94304001Y-119383001D02*
X95504000Y-120583000D01*
X94304001Y-117060201D02*
X94304001Y-119383001D01*
X93700600Y-116456800D02*
X94304001Y-117060201D01*
D21*
%TO.N,GND1*%
X95899000Y-122199400D02*
X95729400Y-122029800D01*
X97434400Y-122199400D02*
X95899000Y-122199400D01*
X95082600Y-122029800D02*
X95729400Y-122029800D01*
X93632600Y-120579800D02*
X95082600Y-122029800D01*
X93460800Y-120751600D02*
X93632600Y-120579800D01*
X92303600Y-120751600D02*
X93460800Y-120751600D01*
X91465400Y-122303200D02*
X91465400Y-121970800D01*
X91465400Y-121970800D02*
X91979399Y-121456801D01*
X92303600Y-120845598D02*
X92303600Y-120751600D01*
X91979399Y-121169799D02*
X92303600Y-120845598D01*
X91979399Y-121456801D02*
X91979399Y-121169799D01*
%TO.N,Net-(C13-Pad2)*%
X77343000Y-116586000D02*
X79146400Y-114782600D01*
D22*
X97434400Y-118364000D02*
X96850200Y-117779800D01*
X97434400Y-118719600D02*
X97434400Y-118364000D01*
D21*
%TO.N,Net-(C14-Pad2)*%
X74167800Y-119049800D02*
X74574400Y-118643200D01*
X73329800Y-119049800D02*
X74167800Y-119049800D01*
X74574400Y-118643200D02*
X74574600Y-118643200D01*
X75201200Y-118016600D02*
X75660600Y-118016600D01*
X74574600Y-118643200D02*
X75201200Y-118016600D01*
%TO.N,Net-(C16-Pad2)*%
X94843600Y-125015600D02*
X95729400Y-124129800D01*
X94843600Y-125706800D02*
X94843600Y-125015600D01*
X97256600Y-124129800D02*
X97434400Y-123952000D01*
X95729400Y-124129800D02*
X97256600Y-124129800D01*
D22*
%TO.N,Net-(C18-Pad1)*%
X83608998Y-117271800D02*
X84259000Y-117271800D01*
X82983999Y-117896799D02*
X83608998Y-117271800D01*
X82983999Y-119140477D02*
X82983999Y-117896799D01*
X81748201Y-120376275D02*
X82983999Y-119140477D01*
X81748201Y-122874199D02*
X81748201Y-120376275D01*
X81280000Y-123342400D02*
X81748201Y-122874199D01*
X62560200Y-126669800D02*
X62509400Y-126669800D01*
X62153800Y-127025400D02*
X62153800Y-127609600D01*
X62509400Y-126669800D02*
X62153800Y-127025400D01*
%TO.N,Net-(C19-Pad2)*%
X78695200Y-118016600D02*
X79679800Y-119001200D01*
X78460600Y-118016600D02*
X78695200Y-118016600D01*
X81635600Y-119532400D02*
X80848200Y-120319800D01*
X81635600Y-119049800D02*
X81635600Y-119532400D01*
X79679800Y-119151400D02*
X80848200Y-120319800D01*
X79679800Y-119001200D02*
X79679800Y-119151400D01*
D21*
%TO.N,GNDA*%
X80619600Y-121666000D02*
X79679800Y-120726200D01*
X80848200Y-121666000D02*
X80619600Y-121666000D01*
X79070200Y-120726200D02*
X78460600Y-120116600D01*
X79679800Y-120726200D02*
X79070200Y-120726200D01*
X78028800Y-120548400D02*
X78460600Y-120116600D01*
X78028800Y-121541200D02*
X78028800Y-120548400D01*
%TO.N,Net-(C21-Pad2)*%
X86639400Y-127152400D02*
X86410800Y-127381000D01*
X87629800Y-127152400D02*
X86639400Y-127152400D01*
X87629800Y-127152400D02*
X87655400Y-127152400D01*
X87985600Y-127482600D02*
X91569200Y-127482600D01*
X87655400Y-127152400D02*
X87985600Y-127482600D01*
X91569200Y-127482600D02*
X91567000Y-127480400D01*
%TO.N,GND2*%
X87479800Y-125656000D02*
X87630000Y-125806200D01*
X86410800Y-125656000D02*
X87479800Y-125656000D01*
X88927600Y-125806200D02*
X89156200Y-125577600D01*
X87630000Y-125806200D02*
X88927600Y-125806200D01*
D20*
%TO.N,Net-(J1-Pad1)*%
X60706000Y-117475000D02*
X61812190Y-116368810D01*
X60706000Y-117576600D02*
X60706000Y-117475000D01*
X62237990Y-116368810D02*
X62808200Y-115798600D01*
X61812190Y-116368810D02*
X62237990Y-116368810D01*
%TO.N,Net-(J3-Pad1)*%
X64129000Y-125939598D02*
X64129000Y-126517400D01*
X60706000Y-122666000D02*
X60855402Y-122666000D01*
X60855402Y-122666000D02*
X60890202Y-122631200D01*
X60890202Y-122631200D02*
X61671200Y-122631200D01*
X64129000Y-125089000D02*
X64129000Y-126517400D01*
X61671200Y-122631200D02*
X64129000Y-125089000D01*
D21*
%TO.N,Net-(J4-Pad1)*%
X60731400Y-125206000D02*
X60518800Y-125206000D01*
X60328800Y-125396000D02*
X60328800Y-127609600D01*
X60518800Y-125206000D02*
X60328800Y-125396000D01*
%TO.N,Net-(L3-Pad1)*%
X80725000Y-114757200D02*
X80725000Y-115109000D01*
D22*
X80725000Y-115921800D02*
X80035400Y-116611400D01*
X80725000Y-114757200D02*
X80725000Y-115921800D01*
D21*
%TO.N,Net-(Q1-Pad1)*%
X64557200Y-120141400D02*
X64643000Y-120055600D01*
X63398400Y-120141400D02*
X64557200Y-120141400D01*
X64643000Y-118850400D02*
X64926200Y-118567200D01*
X64643000Y-120055600D02*
X64643000Y-118850400D01*
%TO.N,Net-(Q2-Pad1)*%
X82375000Y-127467400D02*
X82575400Y-127267000D01*
X81375800Y-127467400D02*
X82375000Y-127467400D01*
X82816400Y-127508000D02*
X82575400Y-127267000D01*
X84251800Y-127508000D02*
X82816400Y-127508000D01*
%TO.N,Net-(IC2-Pad5)*%
X84233600Y-114757200D02*
X84259000Y-114731800D01*
X82550000Y-114757200D02*
X84233600Y-114757200D01*
%TD*%
D23*
%TO.N,GND*%
X61761160Y-114152186D02*
X61728235Y-114260723D01*
X61717118Y-114373599D01*
X61717118Y-115547173D01*
X61650070Y-115553776D01*
X61494180Y-115601065D01*
X61444539Y-115627599D01*
X61350510Y-115677858D01*
X61256138Y-115755308D01*
X61224584Y-115781204D01*
X61198689Y-115812757D01*
X60859308Y-116152138D01*
X60846547Y-116149600D01*
X60565453Y-116149600D01*
X60289759Y-116204438D01*
X60030062Y-116312009D01*
X59796340Y-116468176D01*
X59597576Y-116666940D01*
X59441409Y-116900662D01*
X59333838Y-117160359D01*
X59279000Y-117436053D01*
X59279000Y-117717147D01*
X59333838Y-117992841D01*
X59441409Y-118252538D01*
X59597576Y-118486260D01*
X59796340Y-118685024D01*
X60030062Y-118841191D01*
X60289759Y-118948762D01*
X60565453Y-119003600D01*
X60846547Y-119003600D01*
X61122241Y-118948762D01*
X61381938Y-118841191D01*
X61615660Y-118685024D01*
X61814424Y-118486260D01*
X61970591Y-118252538D01*
X62078162Y-117992841D01*
X62121969Y-117772605D01*
X62182823Y-117791065D01*
X62295699Y-117802182D01*
X63320701Y-117802182D01*
X63433577Y-117791065D01*
X63542114Y-117758140D01*
X63642143Y-117704674D01*
X63729820Y-117632720D01*
X63801774Y-117545043D01*
X63855240Y-117445014D01*
X63888165Y-117336477D01*
X63899282Y-117223601D01*
X63899282Y-114373599D01*
X63888165Y-114260723D01*
X63855240Y-114152186D01*
X63826277Y-114098000D01*
X67765123Y-114098000D01*
X67736160Y-114152186D01*
X67703235Y-114260723D01*
X67692118Y-114373599D01*
X67692118Y-117223601D01*
X67703235Y-117336477D01*
X67736160Y-117445014D01*
X67789626Y-117545043D01*
X67861580Y-117632720D01*
X67949257Y-117704674D01*
X68049286Y-117758140D01*
X68157823Y-117791065D01*
X68270699Y-117802182D01*
X68318410Y-117802182D01*
X68318411Y-119841588D01*
X68020481Y-120139518D01*
X67732900Y-120139518D01*
X67622463Y-120150395D01*
X67516270Y-120182608D01*
X67418402Y-120234920D01*
X67332620Y-120305320D01*
X67281985Y-120367018D01*
X66731500Y-120367018D01*
X66667397Y-120373332D01*
X66605757Y-120392030D01*
X66548950Y-120422394D01*
X66499157Y-120463257D01*
X66458294Y-120513050D01*
X66427930Y-120569857D01*
X66409232Y-120631497D01*
X66402918Y-120695600D01*
X66402918Y-121315600D01*
X66409232Y-121379703D01*
X66420276Y-121416110D01*
X65165184Y-121416110D01*
X65162843Y-121413257D01*
X65113050Y-121372394D01*
X65056243Y-121342030D01*
X64994603Y-121323332D01*
X64930500Y-121317018D01*
X64820419Y-121317018D01*
X64806839Y-121303438D01*
X64788774Y-121281426D01*
X64700915Y-121209321D01*
X64600676Y-121155743D01*
X64531267Y-121134688D01*
X64491911Y-121122749D01*
X64434051Y-121117051D01*
X64407136Y-121114400D01*
X64407131Y-121114400D01*
X64378800Y-121111610D01*
X64350469Y-121114400D01*
X63737080Y-121114400D01*
X63734143Y-121112830D01*
X63672503Y-121094132D01*
X63608400Y-121087818D01*
X63188400Y-121087818D01*
X63124297Y-121094132D01*
X63062657Y-121112830D01*
X63005850Y-121143194D01*
X62956057Y-121184057D01*
X62915194Y-121233850D01*
X62884830Y-121290657D01*
X62866132Y-121352297D01*
X62859818Y-121416400D01*
X62859818Y-121479166D01*
X62829750Y-121578288D01*
X62818609Y-121691400D01*
X62829750Y-121804512D01*
X62859818Y-121903634D01*
X62859818Y-121966400D01*
X62866132Y-122030503D01*
X62884830Y-122092143D01*
X62915194Y-122148950D01*
X62956057Y-122198743D01*
X63005850Y-122239606D01*
X63062657Y-122269970D01*
X63124297Y-122288668D01*
X63188400Y-122294982D01*
X63608400Y-122294982D01*
X63672503Y-122288668D01*
X63734143Y-122269970D01*
X63737080Y-122268400D01*
X64027194Y-122268400D01*
X64033232Y-122329703D01*
X64051930Y-122391343D01*
X64082294Y-122448150D01*
X64123157Y-122497943D01*
X64172950Y-122538806D01*
X64218401Y-122563100D01*
X64218401Y-122715776D01*
X64180902Y-122735820D01*
X64095120Y-122806220D01*
X64024720Y-122892002D01*
X63972408Y-122989870D01*
X63940195Y-123096063D01*
X63929318Y-123206500D01*
X63929318Y-123681500D01*
X63933498Y-123723945D01*
X62284705Y-122075152D01*
X62258806Y-122043594D01*
X62132879Y-121940248D01*
X61989210Y-121863455D01*
X61859757Y-121824186D01*
X61814424Y-121756340D01*
X61615660Y-121557576D01*
X61381938Y-121401409D01*
X61122241Y-121293838D01*
X60846547Y-121239000D01*
X60565453Y-121239000D01*
X60289759Y-121293838D01*
X60030062Y-121401409D01*
X59796340Y-121557576D01*
X59597576Y-121756340D01*
X59441409Y-121990062D01*
X59333838Y-122249759D01*
X59279000Y-122525453D01*
X59279000Y-122806547D01*
X59333838Y-123082241D01*
X59441409Y-123341938D01*
X59597576Y-123575660D01*
X59796340Y-123774424D01*
X60030062Y-123930591D01*
X60055820Y-123941261D01*
X60055462Y-123941409D01*
X59821740Y-124097576D01*
X59622976Y-124296340D01*
X59466809Y-124530062D01*
X59359238Y-124789759D01*
X59304400Y-125065453D01*
X59304400Y-125346547D01*
X59359238Y-125622241D01*
X59466809Y-125881938D01*
X59622976Y-126115660D01*
X59751800Y-126244484D01*
X59751801Y-126911680D01*
X59678520Y-126971820D01*
X59608120Y-127057602D01*
X59555808Y-127155470D01*
X59523595Y-127261663D01*
X59512718Y-127372100D01*
X59512718Y-127847100D01*
X59523595Y-127957537D01*
X59555808Y-128063730D01*
X59608120Y-128161598D01*
X59678520Y-128247380D01*
X59764302Y-128317780D01*
X59862170Y-128370092D01*
X59968363Y-128402305D01*
X60078800Y-128413182D01*
X60578800Y-128413182D01*
X60689237Y-128402305D01*
X60795430Y-128370092D01*
X60893298Y-128317780D01*
X60979080Y-128247380D01*
X61049480Y-128161598D01*
X61101792Y-128063730D01*
X61134005Y-127957537D01*
X61144882Y-127847100D01*
X61144882Y-127372100D01*
X61134005Y-127261663D01*
X61101792Y-127155470D01*
X61049480Y-127057602D01*
X60979080Y-126971820D01*
X60905800Y-126911680D01*
X60905800Y-126626266D01*
X61147641Y-126578162D01*
X61407338Y-126470591D01*
X61641060Y-126314424D01*
X61839824Y-126115660D01*
X61995991Y-125881938D01*
X62103562Y-125622241D01*
X62158400Y-125346547D01*
X62158400Y-125065453D01*
X62103562Y-124789759D01*
X61995991Y-124530062D01*
X61839824Y-124296340D01*
X61641060Y-124097576D01*
X61407338Y-123941409D01*
X61381580Y-123930739D01*
X61381938Y-123930591D01*
X61615660Y-123774424D01*
X61630265Y-123759819D01*
X63037918Y-125167472D01*
X63037918Y-126119384D01*
X63023636Y-126105102D01*
X62904564Y-126025541D01*
X62772258Y-125970738D01*
X62631803Y-125942800D01*
X62488597Y-125942800D01*
X62348142Y-125970738D01*
X62215836Y-126025541D01*
X62096764Y-126105102D01*
X61995502Y-126206364D01*
X61915941Y-126325436D01*
X61861138Y-126457742D01*
X61833200Y-126598197D01*
X61833200Y-126600711D01*
X61799466Y-126634445D01*
X61779352Y-126650952D01*
X61713496Y-126731198D01*
X61673505Y-126806018D01*
X61664561Y-126822751D01*
X61650643Y-126868632D01*
X61589302Y-126901420D01*
X61503520Y-126971820D01*
X61433120Y-127057602D01*
X61380808Y-127155470D01*
X61348595Y-127261663D01*
X61337718Y-127372100D01*
X61337718Y-127847100D01*
X61348595Y-127957537D01*
X61380808Y-128063730D01*
X61433120Y-128161598D01*
X61503520Y-128247380D01*
X61589302Y-128317780D01*
X61687170Y-128370092D01*
X61793363Y-128402305D01*
X61903800Y-128413182D01*
X62403800Y-128413182D01*
X62514237Y-128402305D01*
X62620430Y-128370092D01*
X62718298Y-128317780D01*
X62804080Y-128247380D01*
X62874480Y-128161598D01*
X62926792Y-128063730D01*
X62959005Y-127957537D01*
X62969882Y-127847100D01*
X62969882Y-127372100D01*
X62960485Y-127276694D01*
X63023636Y-127234498D01*
X63037918Y-127220216D01*
X63037918Y-127942401D01*
X63049035Y-128055277D01*
X63081960Y-128163814D01*
X63135426Y-128263843D01*
X63207380Y-128351520D01*
X63295057Y-128423474D01*
X63395086Y-128476940D01*
X63503623Y-128509865D01*
X63616499Y-128520982D01*
X64641501Y-128520982D01*
X64754377Y-128509865D01*
X64862914Y-128476940D01*
X64962943Y-128423474D01*
X65050620Y-128351520D01*
X65122574Y-128263843D01*
X65176040Y-128163814D01*
X65208965Y-128055277D01*
X65220082Y-127942401D01*
X65220082Y-125092399D01*
X65208965Y-124979523D01*
X65176040Y-124870986D01*
X65122574Y-124770957D01*
X65050620Y-124683280D01*
X64962943Y-124611326D01*
X64862914Y-124557860D01*
X64754377Y-124524935D01*
X64734303Y-124522958D01*
X64716606Y-124501394D01*
X64685054Y-124475500D01*
X64452956Y-124243402D01*
X64495400Y-124247582D01*
X65095400Y-124247582D01*
X65205837Y-124236705D01*
X65312030Y-124204492D01*
X65409898Y-124152180D01*
X65495680Y-124081780D01*
X65566080Y-123995998D01*
X65618392Y-123898130D01*
X65650605Y-123791937D01*
X65661482Y-123681500D01*
X65661482Y-123206500D01*
X65650605Y-123096063D01*
X65618392Y-122989870D01*
X65566080Y-122892002D01*
X65495680Y-122806220D01*
X65409898Y-122735820D01*
X65372400Y-122715777D01*
X65372400Y-122570110D01*
X69920359Y-122570110D01*
X69948690Y-122572900D01*
X69977021Y-122570110D01*
X69977026Y-122570110D01*
X70006735Y-122567184D01*
X70061801Y-122561761D01*
X70106460Y-122548213D01*
X70170566Y-122528767D01*
X70270805Y-122475189D01*
X70340024Y-122418382D01*
X70852000Y-122418382D01*
X70916103Y-122412068D01*
X70977743Y-122393370D01*
X71034550Y-122363006D01*
X71084343Y-122322143D01*
X71125206Y-122272350D01*
X71155570Y-122215543D01*
X71174268Y-122153903D01*
X71180582Y-122089800D01*
X71180582Y-121089800D01*
X71174268Y-121025697D01*
X71155570Y-120964057D01*
X71125206Y-120907250D01*
X71084343Y-120857457D01*
X71034550Y-120816594D01*
X70977743Y-120786230D01*
X70916103Y-120767532D01*
X70852000Y-120761218D01*
X69852000Y-120761218D01*
X69787897Y-120767532D01*
X69726257Y-120786230D01*
X69669450Y-120816594D01*
X69619657Y-120857457D01*
X69578794Y-120907250D01*
X69548430Y-120964057D01*
X69529732Y-121025697D01*
X69523418Y-121089800D01*
X69523418Y-121416110D01*
X68763083Y-121416110D01*
X68763105Y-121416037D01*
X68773982Y-121305600D01*
X68773982Y-121018019D01*
X69283372Y-120508629D01*
X69305384Y-120490564D01*
X69377489Y-120402705D01*
X69431067Y-120302466D01*
X69448571Y-120244764D01*
X69464061Y-120193702D01*
X69475201Y-120080590D01*
X69472410Y-120052251D01*
X69472410Y-117771701D01*
X69517114Y-117758140D01*
X69617143Y-117704674D01*
X69704820Y-117632720D01*
X69776774Y-117545043D01*
X69830240Y-117445014D01*
X69863165Y-117336477D01*
X69874282Y-117223601D01*
X69874282Y-116625600D01*
X70088786Y-116625600D01*
X70129400Y-116629600D01*
X70170014Y-116625600D01*
X70170024Y-116625600D01*
X70291520Y-116613634D01*
X70447410Y-116566345D01*
X70591079Y-116489552D01*
X70717006Y-116386206D01*
X70742905Y-116354648D01*
X71622217Y-115475337D01*
X71742810Y-115438755D01*
X71849399Y-115381782D01*
X72524800Y-115381782D01*
X72588903Y-115375468D01*
X72650543Y-115356770D01*
X72707350Y-115326406D01*
X72757143Y-115285543D01*
X72798006Y-115235750D01*
X72828370Y-115178943D01*
X72847068Y-115117303D01*
X72853382Y-115053200D01*
X72853382Y-114098000D01*
X78503170Y-114098000D01*
X78446120Y-114144820D01*
X78375720Y-114230602D01*
X78323408Y-114328470D01*
X78291195Y-114434663D01*
X78280318Y-114545100D01*
X78280318Y-114832681D01*
X78150757Y-114962242D01*
X78116236Y-114976541D01*
X77997164Y-115056102D01*
X77895902Y-115157364D01*
X77816341Y-115276436D01*
X77802042Y-115310957D01*
X77330181Y-115782818D01*
X77110400Y-115782818D01*
X77046297Y-115789132D01*
X76984657Y-115807830D01*
X76927850Y-115838194D01*
X76878057Y-115879057D01*
X76837194Y-115928850D01*
X76806830Y-115985657D01*
X76788132Y-116047297D01*
X76781818Y-116111400D01*
X76781818Y-116448268D01*
X76774349Y-116472889D01*
X76763210Y-116586000D01*
X76774349Y-116699111D01*
X76781818Y-116723732D01*
X76781818Y-117111400D01*
X76788132Y-117175503D01*
X76806830Y-117237143D01*
X76837194Y-117293950D01*
X76878057Y-117343743D01*
X76927850Y-117384606D01*
X76984657Y-117414970D01*
X77046297Y-117433668D01*
X77110400Y-117439982D01*
X77642128Y-117439982D01*
X77638332Y-117452497D01*
X77632018Y-117516600D01*
X77632018Y-118516600D01*
X77638332Y-118580703D01*
X77657030Y-118642343D01*
X77687394Y-118699150D01*
X77728257Y-118748943D01*
X77778050Y-118789806D01*
X77834857Y-118820170D01*
X77896497Y-118838868D01*
X77960600Y-118845182D01*
X78778492Y-118845182D01*
X78876218Y-118942908D01*
X78876218Y-119288018D01*
X77960600Y-119288018D01*
X77896497Y-119294332D01*
X77834857Y-119313030D01*
X77778050Y-119343394D01*
X77728257Y-119384257D01*
X77687394Y-119434050D01*
X77657030Y-119490857D01*
X77638332Y-119552497D01*
X77632018Y-119616600D01*
X77632018Y-120127600D01*
X77618827Y-120138426D01*
X77600766Y-120160433D01*
X77600763Y-120160436D01*
X77581507Y-120183900D01*
X77546722Y-120226285D01*
X77513309Y-120288798D01*
X77493144Y-120326524D01*
X77460149Y-120435289D01*
X77449010Y-120548400D01*
X77451801Y-120576741D01*
X77451801Y-120791038D01*
X77391020Y-120840920D01*
X77320620Y-120926702D01*
X77268308Y-121024570D01*
X77241400Y-121113275D01*
X77214492Y-121024570D01*
X77162180Y-120926702D01*
X77091780Y-120840920D01*
X77005998Y-120770520D01*
X76908130Y-120718208D01*
X76801937Y-120685995D01*
X76691500Y-120675118D01*
X76483418Y-120675118D01*
X76489182Y-120616600D01*
X76489182Y-119616600D01*
X76482868Y-119552497D01*
X76464170Y-119490857D01*
X76433806Y-119434050D01*
X76392943Y-119384257D01*
X76343150Y-119343394D01*
X76286343Y-119313030D01*
X76224703Y-119294332D01*
X76160600Y-119288018D01*
X75160600Y-119288018D01*
X75096497Y-119294332D01*
X75081797Y-119298791D01*
X75101581Y-119285572D01*
X75216772Y-119170381D01*
X75307277Y-119034931D01*
X75369618Y-118884427D01*
X75377425Y-118845182D01*
X76160600Y-118845182D01*
X76224703Y-118838868D01*
X76286343Y-118820170D01*
X76343150Y-118789806D01*
X76392943Y-118748943D01*
X76433806Y-118699150D01*
X76464170Y-118642343D01*
X76482868Y-118580703D01*
X76489182Y-118516600D01*
X76489182Y-117516600D01*
X76482868Y-117452497D01*
X76464170Y-117390857D01*
X76433806Y-117334050D01*
X76392943Y-117284257D01*
X76343150Y-117243394D01*
X76286343Y-117213030D01*
X76224703Y-117194332D01*
X76160600Y-117188018D01*
X75160600Y-117188018D01*
X75096497Y-117194332D01*
X75034857Y-117213030D01*
X74978050Y-117243394D01*
X74928257Y-117284257D01*
X74887394Y-117334050D01*
X74857030Y-117390857D01*
X74838332Y-117452497D01*
X74832018Y-117516600D01*
X74832018Y-117573148D01*
X74813235Y-117588563D01*
X74813233Y-117588565D01*
X74791226Y-117606626D01*
X74773165Y-117628633D01*
X74585598Y-117816200D01*
X74492948Y-117816200D01*
X74333173Y-117847982D01*
X74182669Y-117910323D01*
X74047219Y-118000828D01*
X73932028Y-118116019D01*
X73841523Y-118251469D01*
X73828147Y-118283762D01*
X73740237Y-118257095D01*
X73629800Y-118246218D01*
X73029800Y-118246218D01*
X72919363Y-118257095D01*
X72813170Y-118289308D01*
X72715302Y-118341620D01*
X72629520Y-118412020D01*
X72559120Y-118497802D01*
X72506808Y-118595670D01*
X72474595Y-118701863D01*
X72463718Y-118812300D01*
X72463718Y-119287300D01*
X72474595Y-119397737D01*
X72506808Y-119503930D01*
X72559120Y-119601798D01*
X72629520Y-119687580D01*
X72688032Y-119735600D01*
X72629520Y-119783620D01*
X72559120Y-119869402D01*
X72506808Y-119967270D01*
X72474595Y-120073463D01*
X72463718Y-120183900D01*
X72463718Y-120658900D01*
X72474595Y-120769337D01*
X72486212Y-120807634D01*
X72469450Y-120816594D01*
X72419657Y-120857457D01*
X72378794Y-120907250D01*
X72348430Y-120964057D01*
X72329732Y-121025697D01*
X72323418Y-121089800D01*
X72323418Y-122089800D01*
X72329732Y-122153903D01*
X72348430Y-122215543D01*
X72378794Y-122272350D01*
X72419657Y-122322143D01*
X72469450Y-122363006D01*
X72526257Y-122393370D01*
X72587897Y-122412068D01*
X72652000Y-122418382D01*
X73652000Y-122418382D01*
X73716103Y-122412068D01*
X73777743Y-122393370D01*
X73834550Y-122363006D01*
X73884343Y-122322143D01*
X73925206Y-122272350D01*
X73955570Y-122215543D01*
X73974268Y-122153903D01*
X73980582Y-122089800D01*
X73980582Y-121836400D01*
X73981847Y-121836400D01*
X74047219Y-121901772D01*
X74182669Y-121992277D01*
X74333173Y-122054618D01*
X74492948Y-122086400D01*
X74655852Y-122086400D01*
X74815627Y-122054618D01*
X74966131Y-121992277D01*
X75101581Y-121901772D01*
X75216772Y-121786581D01*
X75307277Y-121651131D01*
X75369618Y-121500627D01*
X75401400Y-121340852D01*
X75401400Y-121304601D01*
X75637999Y-121541200D01*
X74186434Y-122992765D01*
X74164427Y-123010826D01*
X74146366Y-123032833D01*
X74146363Y-123032836D01*
X74133755Y-123048199D01*
X74092322Y-123098685D01*
X74084777Y-123112800D01*
X73970356Y-123112800D01*
X73955570Y-123064057D01*
X73925206Y-123007250D01*
X73884343Y-122957457D01*
X73834550Y-122916594D01*
X73777743Y-122886230D01*
X73716103Y-122867532D01*
X73652000Y-122861218D01*
X72652000Y-122861218D01*
X72587897Y-122867532D01*
X72526257Y-122886230D01*
X72469450Y-122916594D01*
X72419657Y-122957457D01*
X72378794Y-123007250D01*
X72348430Y-123064057D01*
X72329732Y-123125697D01*
X72323418Y-123189800D01*
X72323418Y-123702381D01*
X72052834Y-123972965D01*
X72030827Y-123991026D01*
X72012766Y-124013033D01*
X72012763Y-124013036D01*
X72003937Y-124023791D01*
X71958722Y-124078885D01*
X71917070Y-124156810D01*
X71888802Y-124171920D01*
X71803020Y-124242320D01*
X71732620Y-124328102D01*
X71680308Y-124425970D01*
X71648095Y-124532163D01*
X71637218Y-124642600D01*
X71637218Y-125242600D01*
X71637424Y-125244690D01*
X71608836Y-125216102D01*
X71489764Y-125136541D01*
X71357458Y-125081738D01*
X71217003Y-125053800D01*
X71191280Y-125053800D01*
X71183965Y-124979523D01*
X71151040Y-124870986D01*
X71097574Y-124770957D01*
X71025620Y-124683280D01*
X70937943Y-124611326D01*
X70837914Y-124557860D01*
X70729377Y-124524935D01*
X70616501Y-124513818D01*
X69591499Y-124513818D01*
X69478623Y-124524935D01*
X69370086Y-124557860D01*
X69270057Y-124611326D01*
X69182380Y-124683280D01*
X69110426Y-124770957D01*
X69056960Y-124870986D01*
X69024035Y-124979523D01*
X69012918Y-125092399D01*
X69012918Y-127942401D01*
X69024035Y-128055277D01*
X69056960Y-128163814D01*
X69110426Y-128263843D01*
X69182380Y-128351520D01*
X69270057Y-128423474D01*
X69370086Y-128476940D01*
X69478623Y-128509865D01*
X69591499Y-128520982D01*
X70616501Y-128520982D01*
X70729377Y-128509865D01*
X70837914Y-128476940D01*
X70937943Y-128423474D01*
X71025620Y-128351520D01*
X71097574Y-128263843D01*
X71151040Y-128163814D01*
X71183965Y-128055277D01*
X71195082Y-127942401D01*
X71195082Y-126507800D01*
X71217003Y-126507800D01*
X71357458Y-126479862D01*
X71489764Y-126425059D01*
X71608836Y-126345498D01*
X71710098Y-126244236D01*
X71789659Y-126125164D01*
X71844462Y-125992858D01*
X71872400Y-125852403D01*
X71872400Y-125709197D01*
X71870171Y-125697990D01*
X71888802Y-125713280D01*
X71986670Y-125765592D01*
X72092863Y-125797805D01*
X72203300Y-125808682D01*
X72678300Y-125808682D01*
X72788737Y-125797805D01*
X72894930Y-125765592D01*
X72992798Y-125713280D01*
X73078580Y-125642880D01*
X73148980Y-125557098D01*
X73201292Y-125459230D01*
X73233505Y-125353037D01*
X73244382Y-125242600D01*
X73244382Y-124642600D01*
X73233505Y-124532163D01*
X73229325Y-124518382D01*
X73652000Y-124518382D01*
X73716103Y-124512068D01*
X73777743Y-124493370D01*
X73834550Y-124463006D01*
X73884343Y-124422143D01*
X73908330Y-124392914D01*
X73932028Y-124428381D01*
X74047219Y-124543572D01*
X74182669Y-124634077D01*
X74333173Y-124696418D01*
X74492948Y-124728200D01*
X74655852Y-124728200D01*
X74815627Y-124696418D01*
X74966131Y-124634077D01*
X75101581Y-124543572D01*
X75216772Y-124428381D01*
X75307277Y-124292931D01*
X75369618Y-124142427D01*
X75401400Y-123982652D01*
X75401400Y-123819748D01*
X75369618Y-123659973D01*
X75307277Y-123509469D01*
X75305056Y-123506145D01*
X76403919Y-122407282D01*
X76691500Y-122407282D01*
X76801937Y-122396405D01*
X76908130Y-122364192D01*
X77005998Y-122311880D01*
X77091780Y-122241480D01*
X77162180Y-122155698D01*
X77214492Y-122057830D01*
X77241400Y-121969125D01*
X77268308Y-122057830D01*
X77320620Y-122155698D01*
X77391020Y-122241480D01*
X77476802Y-122311880D01*
X77574670Y-122364192D01*
X77680863Y-122396405D01*
X77791300Y-122407282D01*
X78266300Y-122407282D01*
X78376737Y-122396405D01*
X78482930Y-122364192D01*
X78580798Y-122311880D01*
X78666580Y-122241480D01*
X78736980Y-122155698D01*
X78789292Y-122057830D01*
X78821505Y-121951637D01*
X78832382Y-121841200D01*
X78832382Y-121253336D01*
X78848323Y-121261857D01*
X78945184Y-121291240D01*
X78971620Y-121340698D01*
X79042020Y-121426480D01*
X79127802Y-121496880D01*
X79225670Y-121549192D01*
X79331863Y-121581405D01*
X79442300Y-121592282D01*
X79729881Y-121592282D01*
X80058749Y-121921150D01*
X80115323Y-122057731D01*
X80205828Y-122193181D01*
X80321019Y-122308372D01*
X80456469Y-122398877D01*
X80606973Y-122461218D01*
X80766748Y-122493000D01*
X80929652Y-122493000D01*
X81035600Y-122471925D01*
X81035600Y-122538818D01*
X80980000Y-122538818D01*
X80869563Y-122549695D01*
X80763370Y-122581908D01*
X80665502Y-122634220D01*
X80579720Y-122704620D01*
X80509320Y-122790402D01*
X80457008Y-122888270D01*
X80424795Y-122994463D01*
X80413918Y-123104900D01*
X80413918Y-123579900D01*
X80424795Y-123690337D01*
X80457008Y-123796530D01*
X80509320Y-123894398D01*
X80579720Y-123980180D01*
X80665502Y-124050580D01*
X80763370Y-124102892D01*
X80869563Y-124135105D01*
X80980000Y-124145982D01*
X81280529Y-124145982D01*
X81096112Y-124330399D01*
X80685682Y-124330399D01*
X80659801Y-124327850D01*
X80633920Y-124330399D01*
X80556491Y-124338025D01*
X80457151Y-124368160D01*
X80365599Y-124417095D01*
X80285353Y-124482951D01*
X80268850Y-124503060D01*
X78893093Y-125878818D01*
X78712300Y-125878818D01*
X78648197Y-125885132D01*
X78586557Y-125903830D01*
X78529750Y-125934194D01*
X78479957Y-125975057D01*
X78439094Y-126024850D01*
X78408730Y-126081657D01*
X78390032Y-126143297D01*
X78383718Y-126207400D01*
X78383718Y-126317481D01*
X78145411Y-126555788D01*
X78046537Y-126525795D01*
X77936100Y-126514918D01*
X77461100Y-126514918D01*
X77434256Y-126517562D01*
X77432462Y-126508542D01*
X77377659Y-126376236D01*
X77298098Y-126257164D01*
X77196836Y-126155902D01*
X77077764Y-126076341D01*
X76945458Y-126021538D01*
X76805003Y-125993600D01*
X76661797Y-125993600D01*
X76521342Y-126021538D01*
X76389036Y-126076341D01*
X76269964Y-126155902D01*
X76168702Y-126257164D01*
X76089141Y-126376236D01*
X76034338Y-126508542D01*
X76006400Y-126648997D01*
X76006400Y-126792203D01*
X76034338Y-126932658D01*
X76089141Y-127064964D01*
X76168702Y-127184036D01*
X76269964Y-127285298D01*
X76389036Y-127364859D01*
X76521342Y-127419662D01*
X76661797Y-127447600D01*
X76715110Y-127447600D01*
X76895018Y-127627509D01*
X76895018Y-127681000D01*
X76905895Y-127791437D01*
X76938108Y-127897630D01*
X76990420Y-127995498D01*
X77060820Y-128081280D01*
X77146602Y-128151680D01*
X77244470Y-128203992D01*
X77350663Y-128236205D01*
X77461100Y-128247082D01*
X77936100Y-128247082D01*
X78046537Y-128236205D01*
X78152730Y-128203992D01*
X78250598Y-128151680D01*
X78336380Y-128081280D01*
X78406780Y-127995498D01*
X78459092Y-127897630D01*
X78473304Y-127850777D01*
X78546174Y-127790974D01*
X78564239Y-127768962D01*
X79175801Y-127157400D01*
X80759718Y-127157400D01*
X80759718Y-127777400D01*
X80766032Y-127841503D01*
X80784730Y-127903143D01*
X80815094Y-127959950D01*
X80855957Y-128009743D01*
X80905750Y-128050606D01*
X80962557Y-128080970D01*
X81024197Y-128099668D01*
X81088300Y-128105982D01*
X81663300Y-128105982D01*
X81727403Y-128099668D01*
X81789043Y-128080970D01*
X81845850Y-128050606D01*
X81853412Y-128044400D01*
X82346669Y-128044400D01*
X82375000Y-128047190D01*
X82403331Y-128044400D01*
X82403336Y-128044400D01*
X82433045Y-128041474D01*
X82488111Y-128036051D01*
X82542426Y-128019574D01*
X82546918Y-128018211D01*
X82594524Y-128043657D01*
X82703288Y-128076650D01*
X82788064Y-128085000D01*
X82788070Y-128085000D01*
X82816399Y-128087790D01*
X82844728Y-128085000D01*
X83553880Y-128085000D01*
X83614020Y-128158280D01*
X83699802Y-128228680D01*
X83797670Y-128280992D01*
X83903863Y-128313205D01*
X84014300Y-128324082D01*
X84489300Y-128324082D01*
X84599737Y-128313205D01*
X84705930Y-128280992D01*
X84803798Y-128228680D01*
X84889580Y-128158280D01*
X84959980Y-128072498D01*
X85012292Y-127974630D01*
X85044505Y-127868437D01*
X85055382Y-127758000D01*
X85055382Y-127258000D01*
X85044505Y-127147563D01*
X85012292Y-127041370D01*
X84959980Y-126943502D01*
X84889580Y-126857720D01*
X84803798Y-126787320D01*
X84705930Y-126735008D01*
X84599737Y-126702795D01*
X84489300Y-126691918D01*
X84014300Y-126691918D01*
X83903863Y-126702795D01*
X83797670Y-126735008D01*
X83699802Y-126787320D01*
X83614020Y-126857720D01*
X83553880Y-126931000D01*
X83107974Y-126931000D01*
X83107668Y-126927897D01*
X83088970Y-126866257D01*
X83058606Y-126809450D01*
X83017743Y-126759657D01*
X82967950Y-126718794D01*
X82911143Y-126688430D01*
X82849503Y-126669732D01*
X82785400Y-126663418D01*
X82365400Y-126663418D01*
X82301297Y-126669732D01*
X82239657Y-126688430D01*
X82182850Y-126718794D01*
X82133057Y-126759657D01*
X82092194Y-126809450D01*
X82061830Y-126866257D01*
X82054506Y-126890400D01*
X81853412Y-126890400D01*
X81845850Y-126884194D01*
X81789043Y-126853830D01*
X81727403Y-126835132D01*
X81663300Y-126828818D01*
X81088300Y-126828818D01*
X81024197Y-126835132D01*
X80962557Y-126853830D01*
X80905750Y-126884194D01*
X80855957Y-126925057D01*
X80815094Y-126974850D01*
X80784730Y-127031657D01*
X80766032Y-127093297D01*
X80759718Y-127157400D01*
X79175801Y-127157400D01*
X79177219Y-127155982D01*
X79287300Y-127155982D01*
X79351403Y-127149668D01*
X79413043Y-127130970D01*
X79469850Y-127100606D01*
X79519643Y-127059743D01*
X79560506Y-127009950D01*
X79590870Y-126953143D01*
X79609568Y-126891503D01*
X79615882Y-126827400D01*
X79615882Y-126646607D01*
X80759718Y-125502772D01*
X80759718Y-125877400D01*
X80766032Y-125941503D01*
X80784730Y-126003143D01*
X80815094Y-126059950D01*
X80855957Y-126109743D01*
X80905750Y-126150606D01*
X80962557Y-126180970D01*
X81024197Y-126199668D01*
X81088300Y-126205982D01*
X81663300Y-126205982D01*
X81727403Y-126199668D01*
X81789043Y-126180970D01*
X81845850Y-126150606D01*
X81853412Y-126144400D01*
X82076078Y-126144400D01*
X82092194Y-126174550D01*
X82133057Y-126224343D01*
X82182850Y-126265206D01*
X82239657Y-126295570D01*
X82301297Y-126314268D01*
X82365400Y-126320582D01*
X82785400Y-126320582D01*
X82849503Y-126314268D01*
X82911143Y-126295570D01*
X82967950Y-126265206D01*
X83017743Y-126224343D01*
X83058606Y-126174550D01*
X83088970Y-126117743D01*
X83090880Y-126111446D01*
X83115248Y-126091448D01*
X83131755Y-126071334D01*
X83336134Y-125866955D01*
X83356248Y-125850448D01*
X83422104Y-125770202D01*
X83464098Y-125691636D01*
X83546498Y-125609236D01*
X83626059Y-125490164D01*
X83680862Y-125357858D01*
X83708800Y-125217403D01*
X83708800Y-125074197D01*
X83680862Y-124933742D01*
X83626059Y-124801436D01*
X83546498Y-124682364D01*
X83445236Y-124581102D01*
X83326164Y-124501541D01*
X83193858Y-124446738D01*
X83053403Y-124418800D01*
X82910197Y-124418800D01*
X82769742Y-124446738D01*
X82637436Y-124501541D01*
X82518364Y-124581102D01*
X82417102Y-124682364D01*
X82337541Y-124801436D01*
X82282738Y-124933742D01*
X82271468Y-124990400D01*
X81926689Y-124990400D01*
X82801338Y-124115752D01*
X82821447Y-124099249D01*
X82887303Y-124019003D01*
X82936238Y-123927451D01*
X82966373Y-123828111D01*
X82973999Y-123750682D01*
X82973999Y-123750680D01*
X82976548Y-123724802D01*
X82973999Y-123698924D01*
X82973999Y-123333490D01*
X84053944Y-122253547D01*
X86225159Y-124424762D01*
X86243224Y-124446774D01*
X86331083Y-124518879D01*
X86431322Y-124572457D01*
X86475980Y-124586004D01*
X86540086Y-124605451D01*
X86546517Y-124606084D01*
X86550932Y-124650903D01*
X86569630Y-124712543D01*
X86599994Y-124769350D01*
X86616873Y-124789918D01*
X86173300Y-124789918D01*
X86062863Y-124800795D01*
X85956670Y-124833008D01*
X85858802Y-124885320D01*
X85773020Y-124955720D01*
X85702620Y-125041502D01*
X85650308Y-125139370D01*
X85618095Y-125245563D01*
X85607218Y-125356000D01*
X85607218Y-125956000D01*
X85618095Y-126066437D01*
X85650308Y-126172630D01*
X85702620Y-126270498D01*
X85773020Y-126356280D01*
X85858802Y-126426680D01*
X85956670Y-126478992D01*
X86062863Y-126511205D01*
X86136931Y-126518500D01*
X86062863Y-126525795D01*
X85956670Y-126558008D01*
X85858802Y-126610320D01*
X85773020Y-126680720D01*
X85702620Y-126766502D01*
X85650308Y-126864370D01*
X85618095Y-126970563D01*
X85607218Y-127081000D01*
X85607218Y-127681000D01*
X85618095Y-127791437D01*
X85650308Y-127897630D01*
X85702620Y-127995498D01*
X85773020Y-128081280D01*
X85858802Y-128151680D01*
X85956670Y-128203992D01*
X86062863Y-128236205D01*
X86173300Y-128247082D01*
X86648300Y-128247082D01*
X86758737Y-128236205D01*
X86864930Y-128203992D01*
X86962798Y-128151680D01*
X87048580Y-128081280D01*
X87118980Y-127995498D01*
X87171292Y-127897630D01*
X87185662Y-127850259D01*
X87238069Y-127885277D01*
X87388573Y-127947618D01*
X87548348Y-127979400D01*
X87691026Y-127979400D01*
X87763724Y-128018257D01*
X87872488Y-128051250D01*
X87957264Y-128059600D01*
X87957270Y-128059600D01*
X87985599Y-128062390D01*
X88013928Y-128059600D01*
X90819039Y-128059600D01*
X90868920Y-128120380D01*
X90954702Y-128190780D01*
X91052570Y-128243092D01*
X91158763Y-128275305D01*
X91269200Y-128286182D01*
X91869200Y-128286182D01*
X91979637Y-128275305D01*
X92085830Y-128243092D01*
X92183698Y-128190780D01*
X92269480Y-128120380D01*
X92339880Y-128034598D01*
X92392192Y-127936730D01*
X92424405Y-127830537D01*
X92435282Y-127720100D01*
X92435282Y-127245100D01*
X92424405Y-127134663D01*
X92392192Y-127028470D01*
X92339880Y-126930602D01*
X92269480Y-126844820D01*
X92183698Y-126774420D01*
X92085830Y-126722108D01*
X91979637Y-126689895D01*
X91869200Y-126679018D01*
X91269200Y-126679018D01*
X91158763Y-126689895D01*
X91052570Y-126722108D01*
X90954702Y-126774420D01*
X90868920Y-126844820D01*
X90819039Y-126905600D01*
X88422710Y-126905600D01*
X88362677Y-126760669D01*
X88272172Y-126625219D01*
X88156981Y-126510028D01*
X88111093Y-126479367D01*
X88157181Y-126448572D01*
X88222553Y-126383200D01*
X88899269Y-126383200D01*
X88927600Y-126385990D01*
X88955931Y-126383200D01*
X88955936Y-126383200D01*
X88976424Y-126381182D01*
X89456200Y-126381182D01*
X89566637Y-126370305D01*
X89672830Y-126338092D01*
X89770698Y-126285780D01*
X89856480Y-126215380D01*
X89926880Y-126129598D01*
X89979192Y-126031730D01*
X90011405Y-125925537D01*
X90022282Y-125815100D01*
X90022282Y-125406800D01*
X94040018Y-125406800D01*
X94040018Y-126006800D01*
X94050895Y-126117237D01*
X94083108Y-126223430D01*
X94135420Y-126321298D01*
X94205820Y-126407080D01*
X94291602Y-126477480D01*
X94389470Y-126529792D01*
X94495663Y-126562005D01*
X94606100Y-126572882D01*
X95081100Y-126572882D01*
X95191537Y-126562005D01*
X95297730Y-126529792D01*
X95395598Y-126477480D01*
X95481380Y-126407080D01*
X95551780Y-126321298D01*
X95604092Y-126223430D01*
X95636305Y-126117237D01*
X95647182Y-126006800D01*
X95647182Y-125406800D01*
X95636305Y-125296363D01*
X95604092Y-125190170D01*
X95562620Y-125112581D01*
X95968401Y-124706800D01*
X97095596Y-124706800D01*
X97193173Y-124747218D01*
X97352948Y-124779000D01*
X97515852Y-124779000D01*
X97675627Y-124747218D01*
X97826131Y-124684877D01*
X97961581Y-124594372D01*
X98076772Y-124479181D01*
X98167277Y-124343731D01*
X98229618Y-124193227D01*
X98261400Y-124033452D01*
X98261400Y-123870548D01*
X98229618Y-123710773D01*
X98167277Y-123560269D01*
X98076772Y-123424819D01*
X97961581Y-123309628D01*
X97826131Y-123219123D01*
X97675627Y-123156782D01*
X97515852Y-123125000D01*
X97352948Y-123125000D01*
X97193173Y-123156782D01*
X97042669Y-123219123D01*
X96907219Y-123309628D01*
X96792028Y-123424819D01*
X96706514Y-123552800D01*
X95757728Y-123552800D01*
X95729399Y-123550010D01*
X95701070Y-123552800D01*
X95701064Y-123552800D01*
X95616288Y-123561150D01*
X95507524Y-123594143D01*
X95407285Y-123647721D01*
X95319426Y-123719826D01*
X95301363Y-123741836D01*
X94455634Y-124587565D01*
X94433627Y-124605626D01*
X94415566Y-124627633D01*
X94415563Y-124627636D01*
X94396469Y-124650903D01*
X94361522Y-124693485D01*
X94307943Y-124793724D01*
X94293688Y-124840718D01*
X94274949Y-124902489D01*
X94271273Y-124939820D01*
X94269882Y-124953946D01*
X94205820Y-125006520D01*
X94135420Y-125092302D01*
X94083108Y-125190170D01*
X94050895Y-125296363D01*
X94040018Y-125406800D01*
X90022282Y-125406800D01*
X90022282Y-125340100D01*
X90011405Y-125229663D01*
X89979192Y-125123470D01*
X89926880Y-125025602D01*
X89856480Y-124939820D01*
X89770698Y-124869420D01*
X89672830Y-124817108D01*
X89566637Y-124784895D01*
X89456200Y-124774018D01*
X88856200Y-124774018D01*
X88745763Y-124784895D01*
X88639570Y-124817108D01*
X88541702Y-124869420D01*
X88455920Y-124939820D01*
X88385520Y-125025602D01*
X88333208Y-125123470D01*
X88301135Y-125229200D01*
X88222553Y-125229200D01*
X88157181Y-125163828D01*
X88021731Y-125073323D01*
X87871227Y-125010982D01*
X87711452Y-124979200D01*
X87548548Y-124979200D01*
X87388773Y-125010982D01*
X87238269Y-125073323D01*
X87229773Y-125079000D01*
X87139023Y-125079000D01*
X87118980Y-125041502D01*
X87048580Y-124955720D01*
X86999428Y-124915382D01*
X87523200Y-124915382D01*
X87587303Y-124909068D01*
X87648943Y-124890370D01*
X87705750Y-124860006D01*
X87755543Y-124819143D01*
X87796406Y-124769350D01*
X87826770Y-124712543D01*
X87845468Y-124650903D01*
X87849123Y-124613800D01*
X88915302Y-124613800D01*
X88979270Y-124647992D01*
X89085463Y-124680205D01*
X89195900Y-124691082D01*
X89670900Y-124691082D01*
X89781337Y-124680205D01*
X89887530Y-124647992D01*
X89985398Y-124595680D01*
X90071180Y-124525280D01*
X90141580Y-124439498D01*
X90193892Y-124341630D01*
X90226105Y-124235437D01*
X90236982Y-124125000D01*
X90236982Y-123525000D01*
X90226105Y-123414563D01*
X90193892Y-123308370D01*
X90141580Y-123210502D01*
X90071180Y-123124720D01*
X89985398Y-123054320D01*
X89887530Y-123002008D01*
X89781337Y-122969795D01*
X89670900Y-122958918D01*
X89195900Y-122958918D01*
X89085463Y-122969795D01*
X88979270Y-123002008D01*
X88881402Y-123054320D01*
X88795620Y-123124720D01*
X88725220Y-123210502D01*
X88672908Y-123308370D01*
X88640695Y-123414563D01*
X88636240Y-123459800D01*
X87849123Y-123459800D01*
X87845468Y-123422697D01*
X87826770Y-123361057D01*
X87796406Y-123304250D01*
X87755543Y-123254457D01*
X87705750Y-123213594D01*
X87648943Y-123183230D01*
X87587303Y-123164532D01*
X87523200Y-123158218D01*
X86873200Y-123158218D01*
X86809097Y-123164532D01*
X86747457Y-123183230D01*
X86690650Y-123213594D01*
X86666122Y-123233723D01*
X86247781Y-122815382D01*
X86563200Y-122815382D01*
X86627303Y-122809068D01*
X86688943Y-122790370D01*
X86745750Y-122760006D01*
X86795543Y-122719143D01*
X86836406Y-122669350D01*
X86866770Y-122612543D01*
X86885468Y-122550903D01*
X86891782Y-122486800D01*
X86891782Y-122003200D01*
X90661818Y-122003200D01*
X90661818Y-122603200D01*
X90672695Y-122713637D01*
X90704908Y-122819830D01*
X90757220Y-122917698D01*
X90827620Y-123003480D01*
X90913402Y-123073880D01*
X91011270Y-123126192D01*
X91117463Y-123158405D01*
X91227900Y-123169282D01*
X91702900Y-123169282D01*
X91813337Y-123158405D01*
X91919530Y-123126192D01*
X92017398Y-123073880D01*
X92103180Y-123003480D01*
X92173580Y-122917698D01*
X92225892Y-122819830D01*
X92258105Y-122713637D01*
X92268982Y-122603200D01*
X92268982Y-122003200D01*
X92267191Y-121985010D01*
X92367362Y-121884839D01*
X92389373Y-121866775D01*
X92461478Y-121778916D01*
X92515056Y-121678677D01*
X92548049Y-121569913D01*
X92556399Y-121485137D01*
X92556399Y-121485131D01*
X92559189Y-121456802D01*
X92556399Y-121428473D01*
X92556399Y-121418540D01*
X92622880Y-121363980D01*
X92651916Y-121328600D01*
X92687811Y-121328600D01*
X92721450Y-121356206D01*
X92778257Y-121386570D01*
X92839897Y-121405268D01*
X92904000Y-121411582D01*
X93648381Y-121411582D01*
X94654561Y-122417762D01*
X94672626Y-122439774D01*
X94760485Y-122511879D01*
X94860724Y-122565457D01*
X94905382Y-122579004D01*
X94969488Y-122598451D01*
X95082600Y-122609591D01*
X95110939Y-122606800D01*
X95486914Y-122606800D01*
X95489026Y-122609374D01*
X95576885Y-122681479D01*
X95677124Y-122735057D01*
X95785888Y-122768051D01*
X95899000Y-122779191D01*
X95927339Y-122776400D01*
X96841847Y-122776400D01*
X96907219Y-122841772D01*
X97042669Y-122932277D01*
X97193173Y-122994618D01*
X97352948Y-123026400D01*
X97515852Y-123026400D01*
X97675627Y-122994618D01*
X97826131Y-122932277D01*
X97961581Y-122841772D01*
X98076772Y-122726581D01*
X98167277Y-122591131D01*
X98229618Y-122440627D01*
X98261400Y-122280852D01*
X98261400Y-122117948D01*
X98229618Y-121958173D01*
X98167277Y-121807669D01*
X98076772Y-121672219D01*
X97961581Y-121557028D01*
X97826131Y-121466523D01*
X97675627Y-121404182D01*
X97515852Y-121372400D01*
X97352948Y-121372400D01*
X97193173Y-121404182D01*
X97042669Y-121466523D01*
X96907219Y-121557028D01*
X96841847Y-121622400D01*
X96141486Y-121622400D01*
X96139374Y-121619826D01*
X96051515Y-121547721D01*
X95951276Y-121494143D01*
X95870118Y-121469524D01*
X95842511Y-121461149D01*
X95787445Y-121455726D01*
X95757736Y-121452800D01*
X95757731Y-121452800D01*
X95729400Y-121450010D01*
X95701069Y-121452800D01*
X95321601Y-121452800D01*
X95280383Y-121411582D01*
X96004000Y-121411582D01*
X96068103Y-121405268D01*
X96129743Y-121386570D01*
X96186550Y-121356206D01*
X96236343Y-121315343D01*
X96277206Y-121265550D01*
X96307570Y-121208743D01*
X96326268Y-121147103D01*
X96332582Y-121083000D01*
X96332582Y-121023800D01*
X96841847Y-121023800D01*
X96907219Y-121089172D01*
X97042669Y-121179677D01*
X97193173Y-121242018D01*
X97352948Y-121273800D01*
X97515852Y-121273800D01*
X97675627Y-121242018D01*
X97826131Y-121179677D01*
X97961581Y-121089172D01*
X98076772Y-120973981D01*
X98167277Y-120838531D01*
X98229618Y-120688027D01*
X98261400Y-120528252D01*
X98261400Y-120365348D01*
X98229618Y-120205573D01*
X98167277Y-120055069D01*
X98076772Y-119919619D01*
X97961581Y-119804428D01*
X97826131Y-119713923D01*
X97675627Y-119651582D01*
X97515852Y-119619800D01*
X97352948Y-119619800D01*
X97193173Y-119651582D01*
X97042669Y-119713923D01*
X96907219Y-119804428D01*
X96841847Y-119869800D01*
X96252053Y-119869800D01*
X96236343Y-119850657D01*
X96186550Y-119809794D01*
X96129743Y-119779430D01*
X96068103Y-119760732D01*
X96004000Y-119754418D01*
X95420708Y-119754418D01*
X94831001Y-119164712D01*
X94831001Y-119019980D01*
X94859741Y-119089364D01*
X94939302Y-119208436D01*
X95040564Y-119309698D01*
X95159636Y-119389259D01*
X95291942Y-119444062D01*
X95432397Y-119472000D01*
X95575603Y-119472000D01*
X95716058Y-119444062D01*
X95848364Y-119389259D01*
X95967436Y-119309698D01*
X96068698Y-119208436D01*
X96148259Y-119089364D01*
X96203062Y-118957058D01*
X96231000Y-118816603D01*
X96231000Y-118673397D01*
X96204723Y-118541292D01*
X96236343Y-118515343D01*
X96277206Y-118465550D01*
X96307570Y-118408743D01*
X96326268Y-118347103D01*
X96331926Y-118289660D01*
X96386764Y-118344498D01*
X96505836Y-118424059D01*
X96638142Y-118478862D01*
X96639049Y-118479042D01*
X96607400Y-118638148D01*
X96607400Y-118801052D01*
X96639182Y-118960827D01*
X96701523Y-119111331D01*
X96792028Y-119246781D01*
X96907219Y-119361972D01*
X97042669Y-119452477D01*
X97193173Y-119514818D01*
X97352948Y-119546600D01*
X97515852Y-119546600D01*
X97675627Y-119514818D01*
X97826131Y-119452477D01*
X97961581Y-119361972D01*
X98076772Y-119246781D01*
X98167277Y-119111331D01*
X98229618Y-118960827D01*
X98261400Y-118801052D01*
X98261400Y-118638148D01*
X98229618Y-118478373D01*
X98167277Y-118327869D01*
X98076772Y-118192419D01*
X97961581Y-118077228D01*
X97826131Y-117986723D01*
X97785643Y-117969952D01*
X97577200Y-117761510D01*
X97577200Y-117708197D01*
X97549262Y-117567742D01*
X97494459Y-117435436D01*
X97414898Y-117316364D01*
X97313636Y-117215102D01*
X97194564Y-117135541D01*
X97062258Y-117080738D01*
X96921803Y-117052800D01*
X96778597Y-117052800D01*
X96638142Y-117080738D01*
X96505836Y-117135541D01*
X96386764Y-117215102D01*
X96331352Y-117270514D01*
X96326268Y-117218897D01*
X96307570Y-117157257D01*
X96277206Y-117100450D01*
X96236343Y-117050657D01*
X96186550Y-117009794D01*
X96129743Y-116979430D01*
X96068103Y-116960732D01*
X96004000Y-116954418D01*
X95915327Y-116954418D01*
X95941105Y-116869437D01*
X95951982Y-116759000D01*
X95951982Y-116159000D01*
X95941105Y-116048563D01*
X95908892Y-115942370D01*
X95856580Y-115844502D01*
X95786180Y-115758720D01*
X95700398Y-115688320D01*
X95602530Y-115636008D01*
X95496337Y-115603795D01*
X95385900Y-115592918D01*
X94910900Y-115592918D01*
X94800463Y-115603795D01*
X94694270Y-115636008D01*
X94596402Y-115688320D01*
X94510620Y-115758720D01*
X94440220Y-115844502D01*
X94425088Y-115872812D01*
X94408780Y-115842302D01*
X94338380Y-115756520D01*
X94252598Y-115686120D01*
X94154730Y-115633808D01*
X94048537Y-115601595D01*
X93938100Y-115590718D01*
X93463100Y-115590718D01*
X93352663Y-115601595D01*
X93246470Y-115633808D01*
X93148602Y-115686120D01*
X93062820Y-115756520D01*
X92992420Y-115842302D01*
X92940108Y-115940170D01*
X92907895Y-116046363D01*
X92897018Y-116156800D01*
X92897018Y-116756800D01*
X92907895Y-116867237D01*
X92940108Y-116973430D01*
X92992420Y-117071298D01*
X93062820Y-117157080D01*
X93148602Y-117227480D01*
X93246470Y-117279792D01*
X93352663Y-117312005D01*
X93463100Y-117322882D01*
X93777001Y-117322882D01*
X93777002Y-119357111D01*
X93774452Y-119383001D01*
X93784627Y-119486310D01*
X93814762Y-119585650D01*
X93863697Y-119677202D01*
X93866772Y-119680949D01*
X93929095Y-119756890D01*
X93904000Y-119754418D01*
X92904000Y-119754418D01*
X92839897Y-119760732D01*
X92778257Y-119779430D01*
X92721450Y-119809794D01*
X92671657Y-119850657D01*
X92630794Y-119900450D01*
X92600430Y-119957257D01*
X92581732Y-120018897D01*
X92578474Y-120051976D01*
X92537098Y-120018020D01*
X92439230Y-119965708D01*
X92333037Y-119933495D01*
X92222600Y-119922618D01*
X91622600Y-119922618D01*
X91512163Y-119933495D01*
X91405970Y-119965708D01*
X91308102Y-120018020D01*
X91222320Y-120088420D01*
X91151920Y-120174202D01*
X91099608Y-120272070D01*
X91067395Y-120378263D01*
X91056518Y-120488700D01*
X91056518Y-120963700D01*
X91067395Y-121074137D01*
X91099608Y-121180330D01*
X91151920Y-121278198D01*
X91222320Y-121363980D01*
X91240939Y-121379260D01*
X91178184Y-121442015D01*
X91117463Y-121447995D01*
X91011270Y-121480208D01*
X90913402Y-121532520D01*
X90827620Y-121602920D01*
X90757220Y-121688702D01*
X90704908Y-121786570D01*
X90672695Y-121892763D01*
X90661818Y-122003200D01*
X86891782Y-122003200D01*
X86891782Y-121386800D01*
X86885468Y-121322697D01*
X86866770Y-121261057D01*
X86836406Y-121204250D01*
X86815200Y-121178410D01*
X86815200Y-120995032D01*
X86848598Y-120977180D01*
X86934380Y-120906780D01*
X87004780Y-120820998D01*
X87057092Y-120723130D01*
X87089305Y-120616937D01*
X87100182Y-120506500D01*
X87100182Y-120031500D01*
X87089305Y-119921063D01*
X87057092Y-119814870D01*
X87004780Y-119717002D01*
X86934380Y-119631220D01*
X86848598Y-119560820D01*
X86811100Y-119540777D01*
X86811100Y-119384028D01*
X86813890Y-119355699D01*
X86811100Y-119327370D01*
X86811100Y-119327364D01*
X86802750Y-119242588D01*
X86769757Y-119133824D01*
X86716179Y-119033585D01*
X86644074Y-118945726D01*
X86622063Y-118927662D01*
X85848239Y-118153838D01*
X85830174Y-118131826D01*
X85742315Y-118059721D01*
X85642076Y-118006143D01*
X85577970Y-117986697D01*
X85533311Y-117973149D01*
X85478245Y-117967726D01*
X85448536Y-117964800D01*
X85448531Y-117964800D01*
X85420200Y-117962010D01*
X85391869Y-117964800D01*
X85342390Y-117964800D01*
X85316550Y-117943594D01*
X85259743Y-117913230D01*
X85238546Y-117906800D01*
X85259743Y-117900370D01*
X85316550Y-117870006D01*
X85366343Y-117829143D01*
X85407206Y-117779350D01*
X85437570Y-117722543D01*
X85456268Y-117660903D01*
X85462582Y-117596800D01*
X85462582Y-116946800D01*
X85456268Y-116882697D01*
X85437570Y-116821057D01*
X85407206Y-116764250D01*
X85366343Y-116714457D01*
X85316550Y-116673594D01*
X85259743Y-116643230D01*
X85238546Y-116636800D01*
X85259743Y-116630370D01*
X85316550Y-116600006D01*
X85366343Y-116559143D01*
X85407206Y-116509350D01*
X85437570Y-116452543D01*
X85456268Y-116390903D01*
X85462582Y-116326800D01*
X85462582Y-115676800D01*
X90305418Y-115676800D01*
X90305418Y-116326800D01*
X90311732Y-116390903D01*
X90330430Y-116452543D01*
X90360794Y-116509350D01*
X90401657Y-116559143D01*
X90451450Y-116600006D01*
X90508257Y-116630370D01*
X90529454Y-116636800D01*
X90508257Y-116643230D01*
X90451450Y-116673594D01*
X90401657Y-116714457D01*
X90360794Y-116764250D01*
X90330430Y-116821057D01*
X90311732Y-116882697D01*
X90305418Y-116946800D01*
X90305418Y-117596800D01*
X90311732Y-117660903D01*
X90330430Y-117722543D01*
X90360794Y-117779350D01*
X90401657Y-117829143D01*
X90451450Y-117870006D01*
X90508257Y-117900370D01*
X90529454Y-117906800D01*
X90508257Y-117913230D01*
X90451450Y-117943594D01*
X90401657Y-117984457D01*
X90360794Y-118034250D01*
X90330430Y-118091057D01*
X90311732Y-118152697D01*
X90305418Y-118216800D01*
X90305418Y-118866800D01*
X90311732Y-118930903D01*
X90330430Y-118992543D01*
X90360794Y-119049350D01*
X90401657Y-119099143D01*
X90451450Y-119140006D01*
X90508257Y-119170370D01*
X90569897Y-119189068D01*
X90634000Y-119195382D01*
X92384000Y-119195382D01*
X92448103Y-119189068D01*
X92509743Y-119170370D01*
X92566550Y-119140006D01*
X92616343Y-119099143D01*
X92657206Y-119049350D01*
X92687570Y-118992543D01*
X92706268Y-118930903D01*
X92712582Y-118866800D01*
X92712582Y-118216800D01*
X92706268Y-118152697D01*
X92687570Y-118091057D01*
X92657206Y-118034250D01*
X92616343Y-117984457D01*
X92566550Y-117943594D01*
X92509743Y-117913230D01*
X92488546Y-117906800D01*
X92509743Y-117900370D01*
X92566550Y-117870006D01*
X92616343Y-117829143D01*
X92657206Y-117779350D01*
X92687570Y-117722543D01*
X92706268Y-117660903D01*
X92712582Y-117596800D01*
X92712582Y-116946800D01*
X92706268Y-116882697D01*
X92687570Y-116821057D01*
X92657206Y-116764250D01*
X92616343Y-116714457D01*
X92566550Y-116673594D01*
X92509743Y-116643230D01*
X92488546Y-116636800D01*
X92509743Y-116630370D01*
X92566550Y-116600006D01*
X92616343Y-116559143D01*
X92657206Y-116509350D01*
X92687570Y-116452543D01*
X92706268Y-116390903D01*
X92712582Y-116326800D01*
X92712582Y-115676800D01*
X92706268Y-115612697D01*
X92687570Y-115551057D01*
X92657206Y-115494250D01*
X92616343Y-115444457D01*
X92566550Y-115403594D01*
X92509743Y-115373230D01*
X92448103Y-115354532D01*
X92384000Y-115348218D01*
X90634000Y-115348218D01*
X90569897Y-115354532D01*
X90508257Y-115373230D01*
X90451450Y-115403594D01*
X90401657Y-115444457D01*
X90360794Y-115494250D01*
X90330430Y-115551057D01*
X90311732Y-115612697D01*
X90305418Y-115676800D01*
X85462582Y-115676800D01*
X85456268Y-115612697D01*
X85437570Y-115551057D01*
X85407206Y-115494250D01*
X85366343Y-115444457D01*
X85316550Y-115403594D01*
X85259743Y-115373230D01*
X85238546Y-115366800D01*
X85259743Y-115360370D01*
X85316550Y-115330006D01*
X85366343Y-115289143D01*
X85407206Y-115239350D01*
X85437570Y-115182543D01*
X85456268Y-115120903D01*
X85462582Y-115056800D01*
X85462582Y-114406800D01*
X85456268Y-114342697D01*
X85437570Y-114281057D01*
X85407206Y-114224250D01*
X85366343Y-114174457D01*
X85316550Y-114133594D01*
X85259743Y-114103230D01*
X85242502Y-114098000D01*
X99385201Y-114098000D01*
X99385200Y-128744042D01*
X58698600Y-128753365D01*
X58698600Y-120141400D01*
X62818609Y-120141400D01*
X62829750Y-120254512D01*
X62859818Y-120353634D01*
X62859818Y-120416400D01*
X62866132Y-120480503D01*
X62884830Y-120542143D01*
X62915194Y-120598950D01*
X62956057Y-120648743D01*
X63005850Y-120689606D01*
X63062657Y-120719970D01*
X63124297Y-120738668D01*
X63188400Y-120744982D01*
X63608400Y-120744982D01*
X63672503Y-120738668D01*
X63734143Y-120719970D01*
X63737080Y-120718400D01*
X64528869Y-120718400D01*
X64557200Y-120721190D01*
X64585531Y-120718400D01*
X64585536Y-120718400D01*
X64615245Y-120715474D01*
X64670311Y-120710051D01*
X64714970Y-120696503D01*
X64722622Y-120694182D01*
X64930500Y-120694182D01*
X64994603Y-120687868D01*
X65056243Y-120669170D01*
X65113050Y-120638806D01*
X65162843Y-120597943D01*
X65203706Y-120548150D01*
X65234070Y-120491343D01*
X65252768Y-120429703D01*
X65259082Y-120365600D01*
X65259082Y-119745600D01*
X65252768Y-119681497D01*
X65234070Y-119619857D01*
X65220000Y-119593534D01*
X65220000Y-119366468D01*
X65286637Y-119359905D01*
X65392830Y-119327692D01*
X65490698Y-119275380D01*
X65576480Y-119204980D01*
X65646880Y-119119198D01*
X65699192Y-119021330D01*
X65731405Y-118915137D01*
X65742282Y-118804700D01*
X65742282Y-118329700D01*
X65731405Y-118219263D01*
X65699192Y-118113070D01*
X65646880Y-118015202D01*
X65576480Y-117929420D01*
X65490698Y-117859020D01*
X65392830Y-117806708D01*
X65286637Y-117774495D01*
X65176200Y-117763618D01*
X64676200Y-117763618D01*
X64565763Y-117774495D01*
X64459570Y-117806708D01*
X64361702Y-117859020D01*
X64275920Y-117929420D01*
X64205520Y-118015202D01*
X64153208Y-118113070D01*
X64120995Y-118219263D01*
X64110118Y-118329700D01*
X64110118Y-118623334D01*
X64107344Y-118628524D01*
X64074349Y-118737289D01*
X64063210Y-118850400D01*
X64066001Y-118878741D01*
X64066000Y-119564400D01*
X63737080Y-119564400D01*
X63734143Y-119562830D01*
X63672503Y-119544132D01*
X63608400Y-119537818D01*
X63188400Y-119537818D01*
X63124297Y-119544132D01*
X63062657Y-119562830D01*
X63005850Y-119593194D01*
X62956057Y-119634057D01*
X62915194Y-119683850D01*
X62884830Y-119740657D01*
X62866132Y-119802297D01*
X62859818Y-119866400D01*
X62859818Y-119929166D01*
X62829750Y-120028288D01*
X62818609Y-120141400D01*
X58698600Y-120141400D01*
X58698600Y-114098000D01*
X61790123Y-114098000D01*
X61761160Y-114152186D01*
%TA.AperFunction,Conductor*%
D24*
G36*
X61761160Y-114152186D02*
G01*
X61728235Y-114260723D01*
X61717118Y-114373599D01*
X61717118Y-115547173D01*
X61650070Y-115553776D01*
X61494180Y-115601065D01*
X61444539Y-115627599D01*
X61350510Y-115677858D01*
X61256138Y-115755308D01*
X61224584Y-115781204D01*
X61198689Y-115812757D01*
X60859308Y-116152138D01*
X60846547Y-116149600D01*
X60565453Y-116149600D01*
X60289759Y-116204438D01*
X60030062Y-116312009D01*
X59796340Y-116468176D01*
X59597576Y-116666940D01*
X59441409Y-116900662D01*
X59333838Y-117160359D01*
X59279000Y-117436053D01*
X59279000Y-117717147D01*
X59333838Y-117992841D01*
X59441409Y-118252538D01*
X59597576Y-118486260D01*
X59796340Y-118685024D01*
X60030062Y-118841191D01*
X60289759Y-118948762D01*
X60565453Y-119003600D01*
X60846547Y-119003600D01*
X61122241Y-118948762D01*
X61381938Y-118841191D01*
X61615660Y-118685024D01*
X61814424Y-118486260D01*
X61970591Y-118252538D01*
X62078162Y-117992841D01*
X62121969Y-117772605D01*
X62182823Y-117791065D01*
X62295699Y-117802182D01*
X63320701Y-117802182D01*
X63433577Y-117791065D01*
X63542114Y-117758140D01*
X63642143Y-117704674D01*
X63729820Y-117632720D01*
X63801774Y-117545043D01*
X63855240Y-117445014D01*
X63888165Y-117336477D01*
X63899282Y-117223601D01*
X63899282Y-114373599D01*
X63888165Y-114260723D01*
X63855240Y-114152186D01*
X63826277Y-114098000D01*
X67765123Y-114098000D01*
X67736160Y-114152186D01*
X67703235Y-114260723D01*
X67692118Y-114373599D01*
X67692118Y-117223601D01*
X67703235Y-117336477D01*
X67736160Y-117445014D01*
X67789626Y-117545043D01*
X67861580Y-117632720D01*
X67949257Y-117704674D01*
X68049286Y-117758140D01*
X68157823Y-117791065D01*
X68270699Y-117802182D01*
X68318410Y-117802182D01*
X68318411Y-119841588D01*
X68020481Y-120139518D01*
X67732900Y-120139518D01*
X67622463Y-120150395D01*
X67516270Y-120182608D01*
X67418402Y-120234920D01*
X67332620Y-120305320D01*
X67281985Y-120367018D01*
X66731500Y-120367018D01*
X66667397Y-120373332D01*
X66605757Y-120392030D01*
X66548950Y-120422394D01*
X66499157Y-120463257D01*
X66458294Y-120513050D01*
X66427930Y-120569857D01*
X66409232Y-120631497D01*
X66402918Y-120695600D01*
X66402918Y-121315600D01*
X66409232Y-121379703D01*
X66420276Y-121416110D01*
X65165184Y-121416110D01*
X65162843Y-121413257D01*
X65113050Y-121372394D01*
X65056243Y-121342030D01*
X64994603Y-121323332D01*
X64930500Y-121317018D01*
X64820419Y-121317018D01*
X64806839Y-121303438D01*
X64788774Y-121281426D01*
X64700915Y-121209321D01*
X64600676Y-121155743D01*
X64531267Y-121134688D01*
X64491911Y-121122749D01*
X64434051Y-121117051D01*
X64407136Y-121114400D01*
X64407131Y-121114400D01*
X64378800Y-121111610D01*
X64350469Y-121114400D01*
X63737080Y-121114400D01*
X63734143Y-121112830D01*
X63672503Y-121094132D01*
X63608400Y-121087818D01*
X63188400Y-121087818D01*
X63124297Y-121094132D01*
X63062657Y-121112830D01*
X63005850Y-121143194D01*
X62956057Y-121184057D01*
X62915194Y-121233850D01*
X62884830Y-121290657D01*
X62866132Y-121352297D01*
X62859818Y-121416400D01*
X62859818Y-121479166D01*
X62829750Y-121578288D01*
X62818609Y-121691400D01*
X62829750Y-121804512D01*
X62859818Y-121903634D01*
X62859818Y-121966400D01*
X62866132Y-122030503D01*
X62884830Y-122092143D01*
X62915194Y-122148950D01*
X62956057Y-122198743D01*
X63005850Y-122239606D01*
X63062657Y-122269970D01*
X63124297Y-122288668D01*
X63188400Y-122294982D01*
X63608400Y-122294982D01*
X63672503Y-122288668D01*
X63734143Y-122269970D01*
X63737080Y-122268400D01*
X64027194Y-122268400D01*
X64033232Y-122329703D01*
X64051930Y-122391343D01*
X64082294Y-122448150D01*
X64123157Y-122497943D01*
X64172950Y-122538806D01*
X64218401Y-122563100D01*
X64218401Y-122715776D01*
X64180902Y-122735820D01*
X64095120Y-122806220D01*
X64024720Y-122892002D01*
X63972408Y-122989870D01*
X63940195Y-123096063D01*
X63929318Y-123206500D01*
X63929318Y-123681500D01*
X63933498Y-123723945D01*
X62284705Y-122075152D01*
X62258806Y-122043594D01*
X62132879Y-121940248D01*
X61989210Y-121863455D01*
X61859757Y-121824186D01*
X61814424Y-121756340D01*
X61615660Y-121557576D01*
X61381938Y-121401409D01*
X61122241Y-121293838D01*
X60846547Y-121239000D01*
X60565453Y-121239000D01*
X60289759Y-121293838D01*
X60030062Y-121401409D01*
X59796340Y-121557576D01*
X59597576Y-121756340D01*
X59441409Y-121990062D01*
X59333838Y-122249759D01*
X59279000Y-122525453D01*
X59279000Y-122806547D01*
X59333838Y-123082241D01*
X59441409Y-123341938D01*
X59597576Y-123575660D01*
X59796340Y-123774424D01*
X60030062Y-123930591D01*
X60055820Y-123941261D01*
X60055462Y-123941409D01*
X59821740Y-124097576D01*
X59622976Y-124296340D01*
X59466809Y-124530062D01*
X59359238Y-124789759D01*
X59304400Y-125065453D01*
X59304400Y-125346547D01*
X59359238Y-125622241D01*
X59466809Y-125881938D01*
X59622976Y-126115660D01*
X59751800Y-126244484D01*
X59751801Y-126911680D01*
X59678520Y-126971820D01*
X59608120Y-127057602D01*
X59555808Y-127155470D01*
X59523595Y-127261663D01*
X59512718Y-127372100D01*
X59512718Y-127847100D01*
X59523595Y-127957537D01*
X59555808Y-128063730D01*
X59608120Y-128161598D01*
X59678520Y-128247380D01*
X59764302Y-128317780D01*
X59862170Y-128370092D01*
X59968363Y-128402305D01*
X60078800Y-128413182D01*
X60578800Y-128413182D01*
X60689237Y-128402305D01*
X60795430Y-128370092D01*
X60893298Y-128317780D01*
X60979080Y-128247380D01*
X61049480Y-128161598D01*
X61101792Y-128063730D01*
X61134005Y-127957537D01*
X61144882Y-127847100D01*
X61144882Y-127372100D01*
X61134005Y-127261663D01*
X61101792Y-127155470D01*
X61049480Y-127057602D01*
X60979080Y-126971820D01*
X60905800Y-126911680D01*
X60905800Y-126626266D01*
X61147641Y-126578162D01*
X61407338Y-126470591D01*
X61641060Y-126314424D01*
X61839824Y-126115660D01*
X61995991Y-125881938D01*
X62103562Y-125622241D01*
X62158400Y-125346547D01*
X62158400Y-125065453D01*
X62103562Y-124789759D01*
X61995991Y-124530062D01*
X61839824Y-124296340D01*
X61641060Y-124097576D01*
X61407338Y-123941409D01*
X61381580Y-123930739D01*
X61381938Y-123930591D01*
X61615660Y-123774424D01*
X61630265Y-123759819D01*
X63037918Y-125167472D01*
X63037918Y-126119384D01*
X63023636Y-126105102D01*
X62904564Y-126025541D01*
X62772258Y-125970738D01*
X62631803Y-125942800D01*
X62488597Y-125942800D01*
X62348142Y-125970738D01*
X62215836Y-126025541D01*
X62096764Y-126105102D01*
X61995502Y-126206364D01*
X61915941Y-126325436D01*
X61861138Y-126457742D01*
X61833200Y-126598197D01*
X61833200Y-126600711D01*
X61799466Y-126634445D01*
X61779352Y-126650952D01*
X61713496Y-126731198D01*
X61673505Y-126806018D01*
X61664561Y-126822751D01*
X61650643Y-126868632D01*
X61589302Y-126901420D01*
X61503520Y-126971820D01*
X61433120Y-127057602D01*
X61380808Y-127155470D01*
X61348595Y-127261663D01*
X61337718Y-127372100D01*
X61337718Y-127847100D01*
X61348595Y-127957537D01*
X61380808Y-128063730D01*
X61433120Y-128161598D01*
X61503520Y-128247380D01*
X61589302Y-128317780D01*
X61687170Y-128370092D01*
X61793363Y-128402305D01*
X61903800Y-128413182D01*
X62403800Y-128413182D01*
X62514237Y-128402305D01*
X62620430Y-128370092D01*
X62718298Y-128317780D01*
X62804080Y-128247380D01*
X62874480Y-128161598D01*
X62926792Y-128063730D01*
X62959005Y-127957537D01*
X62969882Y-127847100D01*
X62969882Y-127372100D01*
X62960485Y-127276694D01*
X63023636Y-127234498D01*
X63037918Y-127220216D01*
X63037918Y-127942401D01*
X63049035Y-128055277D01*
X63081960Y-128163814D01*
X63135426Y-128263843D01*
X63207380Y-128351520D01*
X63295057Y-128423474D01*
X63395086Y-128476940D01*
X63503623Y-128509865D01*
X63616499Y-128520982D01*
X64641501Y-128520982D01*
X64754377Y-128509865D01*
X64862914Y-128476940D01*
X64962943Y-128423474D01*
X65050620Y-128351520D01*
X65122574Y-128263843D01*
X65176040Y-128163814D01*
X65208965Y-128055277D01*
X65220082Y-127942401D01*
X65220082Y-125092399D01*
X65208965Y-124979523D01*
X65176040Y-124870986D01*
X65122574Y-124770957D01*
X65050620Y-124683280D01*
X64962943Y-124611326D01*
X64862914Y-124557860D01*
X64754377Y-124524935D01*
X64734303Y-124522958D01*
X64716606Y-124501394D01*
X64685054Y-124475500D01*
X64452956Y-124243402D01*
X64495400Y-124247582D01*
X65095400Y-124247582D01*
X65205837Y-124236705D01*
X65312030Y-124204492D01*
X65409898Y-124152180D01*
X65495680Y-124081780D01*
X65566080Y-123995998D01*
X65618392Y-123898130D01*
X65650605Y-123791937D01*
X65661482Y-123681500D01*
X65661482Y-123206500D01*
X65650605Y-123096063D01*
X65618392Y-122989870D01*
X65566080Y-122892002D01*
X65495680Y-122806220D01*
X65409898Y-122735820D01*
X65372400Y-122715777D01*
X65372400Y-122570110D01*
X69920359Y-122570110D01*
X69948690Y-122572900D01*
X69977021Y-122570110D01*
X69977026Y-122570110D01*
X70006735Y-122567184D01*
X70061801Y-122561761D01*
X70106460Y-122548213D01*
X70170566Y-122528767D01*
X70270805Y-122475189D01*
X70340024Y-122418382D01*
X70852000Y-122418382D01*
X70916103Y-122412068D01*
X70977743Y-122393370D01*
X71034550Y-122363006D01*
X71084343Y-122322143D01*
X71125206Y-122272350D01*
X71155570Y-122215543D01*
X71174268Y-122153903D01*
X71180582Y-122089800D01*
X71180582Y-121089800D01*
X71174268Y-121025697D01*
X71155570Y-120964057D01*
X71125206Y-120907250D01*
X71084343Y-120857457D01*
X71034550Y-120816594D01*
X70977743Y-120786230D01*
X70916103Y-120767532D01*
X70852000Y-120761218D01*
X69852000Y-120761218D01*
X69787897Y-120767532D01*
X69726257Y-120786230D01*
X69669450Y-120816594D01*
X69619657Y-120857457D01*
X69578794Y-120907250D01*
X69548430Y-120964057D01*
X69529732Y-121025697D01*
X69523418Y-121089800D01*
X69523418Y-121416110D01*
X68763083Y-121416110D01*
X68763105Y-121416037D01*
X68773982Y-121305600D01*
X68773982Y-121018019D01*
X69283372Y-120508629D01*
X69305384Y-120490564D01*
X69377489Y-120402705D01*
X69431067Y-120302466D01*
X69448571Y-120244764D01*
X69464061Y-120193702D01*
X69475201Y-120080590D01*
X69472410Y-120052251D01*
X69472410Y-117771701D01*
X69517114Y-117758140D01*
X69617143Y-117704674D01*
X69704820Y-117632720D01*
X69776774Y-117545043D01*
X69830240Y-117445014D01*
X69863165Y-117336477D01*
X69874282Y-117223601D01*
X69874282Y-116625600D01*
X70088786Y-116625600D01*
X70129400Y-116629600D01*
X70170014Y-116625600D01*
X70170024Y-116625600D01*
X70291520Y-116613634D01*
X70447410Y-116566345D01*
X70591079Y-116489552D01*
X70717006Y-116386206D01*
X70742905Y-116354648D01*
X71622217Y-115475337D01*
X71742810Y-115438755D01*
X71849399Y-115381782D01*
X72524800Y-115381782D01*
X72588903Y-115375468D01*
X72650543Y-115356770D01*
X72707350Y-115326406D01*
X72757143Y-115285543D01*
X72798006Y-115235750D01*
X72828370Y-115178943D01*
X72847068Y-115117303D01*
X72853382Y-115053200D01*
X72853382Y-114098000D01*
X78503170Y-114098000D01*
X78446120Y-114144820D01*
X78375720Y-114230602D01*
X78323408Y-114328470D01*
X78291195Y-114434663D01*
X78280318Y-114545100D01*
X78280318Y-114832681D01*
X78150757Y-114962242D01*
X78116236Y-114976541D01*
X77997164Y-115056102D01*
X77895902Y-115157364D01*
X77816341Y-115276436D01*
X77802042Y-115310957D01*
X77330181Y-115782818D01*
X77110400Y-115782818D01*
X77046297Y-115789132D01*
X76984657Y-115807830D01*
X76927850Y-115838194D01*
X76878057Y-115879057D01*
X76837194Y-115928850D01*
X76806830Y-115985657D01*
X76788132Y-116047297D01*
X76781818Y-116111400D01*
X76781818Y-116448268D01*
X76774349Y-116472889D01*
X76763210Y-116586000D01*
X76774349Y-116699111D01*
X76781818Y-116723732D01*
X76781818Y-117111400D01*
X76788132Y-117175503D01*
X76806830Y-117237143D01*
X76837194Y-117293950D01*
X76878057Y-117343743D01*
X76927850Y-117384606D01*
X76984657Y-117414970D01*
X77046297Y-117433668D01*
X77110400Y-117439982D01*
X77642128Y-117439982D01*
X77638332Y-117452497D01*
X77632018Y-117516600D01*
X77632018Y-118516600D01*
X77638332Y-118580703D01*
X77657030Y-118642343D01*
X77687394Y-118699150D01*
X77728257Y-118748943D01*
X77778050Y-118789806D01*
X77834857Y-118820170D01*
X77896497Y-118838868D01*
X77960600Y-118845182D01*
X78778492Y-118845182D01*
X78876218Y-118942908D01*
X78876218Y-119288018D01*
X77960600Y-119288018D01*
X77896497Y-119294332D01*
X77834857Y-119313030D01*
X77778050Y-119343394D01*
X77728257Y-119384257D01*
X77687394Y-119434050D01*
X77657030Y-119490857D01*
X77638332Y-119552497D01*
X77632018Y-119616600D01*
X77632018Y-120127600D01*
X77618827Y-120138426D01*
X77600766Y-120160433D01*
X77600763Y-120160436D01*
X77581507Y-120183900D01*
X77546722Y-120226285D01*
X77513309Y-120288798D01*
X77493144Y-120326524D01*
X77460149Y-120435289D01*
X77449010Y-120548400D01*
X77451801Y-120576741D01*
X77451801Y-120791038D01*
X77391020Y-120840920D01*
X77320620Y-120926702D01*
X77268308Y-121024570D01*
X77241400Y-121113275D01*
X77214492Y-121024570D01*
X77162180Y-120926702D01*
X77091780Y-120840920D01*
X77005998Y-120770520D01*
X76908130Y-120718208D01*
X76801937Y-120685995D01*
X76691500Y-120675118D01*
X76483418Y-120675118D01*
X76489182Y-120616600D01*
X76489182Y-119616600D01*
X76482868Y-119552497D01*
X76464170Y-119490857D01*
X76433806Y-119434050D01*
X76392943Y-119384257D01*
X76343150Y-119343394D01*
X76286343Y-119313030D01*
X76224703Y-119294332D01*
X76160600Y-119288018D01*
X75160600Y-119288018D01*
X75096497Y-119294332D01*
X75081797Y-119298791D01*
X75101581Y-119285572D01*
X75216772Y-119170381D01*
X75307277Y-119034931D01*
X75369618Y-118884427D01*
X75377425Y-118845182D01*
X76160600Y-118845182D01*
X76224703Y-118838868D01*
X76286343Y-118820170D01*
X76343150Y-118789806D01*
X76392943Y-118748943D01*
X76433806Y-118699150D01*
X76464170Y-118642343D01*
X76482868Y-118580703D01*
X76489182Y-118516600D01*
X76489182Y-117516600D01*
X76482868Y-117452497D01*
X76464170Y-117390857D01*
X76433806Y-117334050D01*
X76392943Y-117284257D01*
X76343150Y-117243394D01*
X76286343Y-117213030D01*
X76224703Y-117194332D01*
X76160600Y-117188018D01*
X75160600Y-117188018D01*
X75096497Y-117194332D01*
X75034857Y-117213030D01*
X74978050Y-117243394D01*
X74928257Y-117284257D01*
X74887394Y-117334050D01*
X74857030Y-117390857D01*
X74838332Y-117452497D01*
X74832018Y-117516600D01*
X74832018Y-117573148D01*
X74813235Y-117588563D01*
X74813233Y-117588565D01*
X74791226Y-117606626D01*
X74773165Y-117628633D01*
X74585598Y-117816200D01*
X74492948Y-117816200D01*
X74333173Y-117847982D01*
X74182669Y-117910323D01*
X74047219Y-118000828D01*
X73932028Y-118116019D01*
X73841523Y-118251469D01*
X73828147Y-118283762D01*
X73740237Y-118257095D01*
X73629800Y-118246218D01*
X73029800Y-118246218D01*
X72919363Y-118257095D01*
X72813170Y-118289308D01*
X72715302Y-118341620D01*
X72629520Y-118412020D01*
X72559120Y-118497802D01*
X72506808Y-118595670D01*
X72474595Y-118701863D01*
X72463718Y-118812300D01*
X72463718Y-119287300D01*
X72474595Y-119397737D01*
X72506808Y-119503930D01*
X72559120Y-119601798D01*
X72629520Y-119687580D01*
X72688032Y-119735600D01*
X72629520Y-119783620D01*
X72559120Y-119869402D01*
X72506808Y-119967270D01*
X72474595Y-120073463D01*
X72463718Y-120183900D01*
X72463718Y-120658900D01*
X72474595Y-120769337D01*
X72486212Y-120807634D01*
X72469450Y-120816594D01*
X72419657Y-120857457D01*
X72378794Y-120907250D01*
X72348430Y-120964057D01*
X72329732Y-121025697D01*
X72323418Y-121089800D01*
X72323418Y-122089800D01*
X72329732Y-122153903D01*
X72348430Y-122215543D01*
X72378794Y-122272350D01*
X72419657Y-122322143D01*
X72469450Y-122363006D01*
X72526257Y-122393370D01*
X72587897Y-122412068D01*
X72652000Y-122418382D01*
X73652000Y-122418382D01*
X73716103Y-122412068D01*
X73777743Y-122393370D01*
X73834550Y-122363006D01*
X73884343Y-122322143D01*
X73925206Y-122272350D01*
X73955570Y-122215543D01*
X73974268Y-122153903D01*
X73980582Y-122089800D01*
X73980582Y-121836400D01*
X73981847Y-121836400D01*
X74047219Y-121901772D01*
X74182669Y-121992277D01*
X74333173Y-122054618D01*
X74492948Y-122086400D01*
X74655852Y-122086400D01*
X74815627Y-122054618D01*
X74966131Y-121992277D01*
X75101581Y-121901772D01*
X75216772Y-121786581D01*
X75307277Y-121651131D01*
X75369618Y-121500627D01*
X75401400Y-121340852D01*
X75401400Y-121304601D01*
X75637999Y-121541200D01*
X74186434Y-122992765D01*
X74164427Y-123010826D01*
X74146366Y-123032833D01*
X74146363Y-123032836D01*
X74133755Y-123048199D01*
X74092322Y-123098685D01*
X74084777Y-123112800D01*
X73970356Y-123112800D01*
X73955570Y-123064057D01*
X73925206Y-123007250D01*
X73884343Y-122957457D01*
X73834550Y-122916594D01*
X73777743Y-122886230D01*
X73716103Y-122867532D01*
X73652000Y-122861218D01*
X72652000Y-122861218D01*
X72587897Y-122867532D01*
X72526257Y-122886230D01*
X72469450Y-122916594D01*
X72419657Y-122957457D01*
X72378794Y-123007250D01*
X72348430Y-123064057D01*
X72329732Y-123125697D01*
X72323418Y-123189800D01*
X72323418Y-123702381D01*
X72052834Y-123972965D01*
X72030827Y-123991026D01*
X72012766Y-124013033D01*
X72012763Y-124013036D01*
X72003937Y-124023791D01*
X71958722Y-124078885D01*
X71917070Y-124156810D01*
X71888802Y-124171920D01*
X71803020Y-124242320D01*
X71732620Y-124328102D01*
X71680308Y-124425970D01*
X71648095Y-124532163D01*
X71637218Y-124642600D01*
X71637218Y-125242600D01*
X71637424Y-125244690D01*
X71608836Y-125216102D01*
X71489764Y-125136541D01*
X71357458Y-125081738D01*
X71217003Y-125053800D01*
X71191280Y-125053800D01*
X71183965Y-124979523D01*
X71151040Y-124870986D01*
X71097574Y-124770957D01*
X71025620Y-124683280D01*
X70937943Y-124611326D01*
X70837914Y-124557860D01*
X70729377Y-124524935D01*
X70616501Y-124513818D01*
X69591499Y-124513818D01*
X69478623Y-124524935D01*
X69370086Y-124557860D01*
X69270057Y-124611326D01*
X69182380Y-124683280D01*
X69110426Y-124770957D01*
X69056960Y-124870986D01*
X69024035Y-124979523D01*
X69012918Y-125092399D01*
X69012918Y-127942401D01*
X69024035Y-128055277D01*
X69056960Y-128163814D01*
X69110426Y-128263843D01*
X69182380Y-128351520D01*
X69270057Y-128423474D01*
X69370086Y-128476940D01*
X69478623Y-128509865D01*
X69591499Y-128520982D01*
X70616501Y-128520982D01*
X70729377Y-128509865D01*
X70837914Y-128476940D01*
X70937943Y-128423474D01*
X71025620Y-128351520D01*
X71097574Y-128263843D01*
X71151040Y-128163814D01*
X71183965Y-128055277D01*
X71195082Y-127942401D01*
X71195082Y-126507800D01*
X71217003Y-126507800D01*
X71357458Y-126479862D01*
X71489764Y-126425059D01*
X71608836Y-126345498D01*
X71710098Y-126244236D01*
X71789659Y-126125164D01*
X71844462Y-125992858D01*
X71872400Y-125852403D01*
X71872400Y-125709197D01*
X71870171Y-125697990D01*
X71888802Y-125713280D01*
X71986670Y-125765592D01*
X72092863Y-125797805D01*
X72203300Y-125808682D01*
X72678300Y-125808682D01*
X72788737Y-125797805D01*
X72894930Y-125765592D01*
X72992798Y-125713280D01*
X73078580Y-125642880D01*
X73148980Y-125557098D01*
X73201292Y-125459230D01*
X73233505Y-125353037D01*
X73244382Y-125242600D01*
X73244382Y-124642600D01*
X73233505Y-124532163D01*
X73229325Y-124518382D01*
X73652000Y-124518382D01*
X73716103Y-124512068D01*
X73777743Y-124493370D01*
X73834550Y-124463006D01*
X73884343Y-124422143D01*
X73908330Y-124392914D01*
X73932028Y-124428381D01*
X74047219Y-124543572D01*
X74182669Y-124634077D01*
X74333173Y-124696418D01*
X74492948Y-124728200D01*
X74655852Y-124728200D01*
X74815627Y-124696418D01*
X74966131Y-124634077D01*
X75101581Y-124543572D01*
X75216772Y-124428381D01*
X75307277Y-124292931D01*
X75369618Y-124142427D01*
X75401400Y-123982652D01*
X75401400Y-123819748D01*
X75369618Y-123659973D01*
X75307277Y-123509469D01*
X75305056Y-123506145D01*
X76403919Y-122407282D01*
X76691500Y-122407282D01*
X76801937Y-122396405D01*
X76908130Y-122364192D01*
X77005998Y-122311880D01*
X77091780Y-122241480D01*
X77162180Y-122155698D01*
X77214492Y-122057830D01*
X77241400Y-121969125D01*
X77268308Y-122057830D01*
X77320620Y-122155698D01*
X77391020Y-122241480D01*
X77476802Y-122311880D01*
X77574670Y-122364192D01*
X77680863Y-122396405D01*
X77791300Y-122407282D01*
X78266300Y-122407282D01*
X78376737Y-122396405D01*
X78482930Y-122364192D01*
X78580798Y-122311880D01*
X78666580Y-122241480D01*
X78736980Y-122155698D01*
X78789292Y-122057830D01*
X78821505Y-121951637D01*
X78832382Y-121841200D01*
X78832382Y-121253336D01*
X78848323Y-121261857D01*
X78945184Y-121291240D01*
X78971620Y-121340698D01*
X79042020Y-121426480D01*
X79127802Y-121496880D01*
X79225670Y-121549192D01*
X79331863Y-121581405D01*
X79442300Y-121592282D01*
X79729881Y-121592282D01*
X80058749Y-121921150D01*
X80115323Y-122057731D01*
X80205828Y-122193181D01*
X80321019Y-122308372D01*
X80456469Y-122398877D01*
X80606973Y-122461218D01*
X80766748Y-122493000D01*
X80929652Y-122493000D01*
X81035600Y-122471925D01*
X81035600Y-122538818D01*
X80980000Y-122538818D01*
X80869563Y-122549695D01*
X80763370Y-122581908D01*
X80665502Y-122634220D01*
X80579720Y-122704620D01*
X80509320Y-122790402D01*
X80457008Y-122888270D01*
X80424795Y-122994463D01*
X80413918Y-123104900D01*
X80413918Y-123579900D01*
X80424795Y-123690337D01*
X80457008Y-123796530D01*
X80509320Y-123894398D01*
X80579720Y-123980180D01*
X80665502Y-124050580D01*
X80763370Y-124102892D01*
X80869563Y-124135105D01*
X80980000Y-124145982D01*
X81280529Y-124145982D01*
X81096112Y-124330399D01*
X80685682Y-124330399D01*
X80659801Y-124327850D01*
X80633920Y-124330399D01*
X80556491Y-124338025D01*
X80457151Y-124368160D01*
X80365599Y-124417095D01*
X80285353Y-124482951D01*
X80268850Y-124503060D01*
X78893093Y-125878818D01*
X78712300Y-125878818D01*
X78648197Y-125885132D01*
X78586557Y-125903830D01*
X78529750Y-125934194D01*
X78479957Y-125975057D01*
X78439094Y-126024850D01*
X78408730Y-126081657D01*
X78390032Y-126143297D01*
X78383718Y-126207400D01*
X78383718Y-126317481D01*
X78145411Y-126555788D01*
X78046537Y-126525795D01*
X77936100Y-126514918D01*
X77461100Y-126514918D01*
X77434256Y-126517562D01*
X77432462Y-126508542D01*
X77377659Y-126376236D01*
X77298098Y-126257164D01*
X77196836Y-126155902D01*
X77077764Y-126076341D01*
X76945458Y-126021538D01*
X76805003Y-125993600D01*
X76661797Y-125993600D01*
X76521342Y-126021538D01*
X76389036Y-126076341D01*
X76269964Y-126155902D01*
X76168702Y-126257164D01*
X76089141Y-126376236D01*
X76034338Y-126508542D01*
X76006400Y-126648997D01*
X76006400Y-126792203D01*
X76034338Y-126932658D01*
X76089141Y-127064964D01*
X76168702Y-127184036D01*
X76269964Y-127285298D01*
X76389036Y-127364859D01*
X76521342Y-127419662D01*
X76661797Y-127447600D01*
X76715110Y-127447600D01*
X76895018Y-127627509D01*
X76895018Y-127681000D01*
X76905895Y-127791437D01*
X76938108Y-127897630D01*
X76990420Y-127995498D01*
X77060820Y-128081280D01*
X77146602Y-128151680D01*
X77244470Y-128203992D01*
X77350663Y-128236205D01*
X77461100Y-128247082D01*
X77936100Y-128247082D01*
X78046537Y-128236205D01*
X78152730Y-128203992D01*
X78250598Y-128151680D01*
X78336380Y-128081280D01*
X78406780Y-127995498D01*
X78459092Y-127897630D01*
X78473304Y-127850777D01*
X78546174Y-127790974D01*
X78564239Y-127768962D01*
X79175801Y-127157400D01*
X80759718Y-127157400D01*
X80759718Y-127777400D01*
X80766032Y-127841503D01*
X80784730Y-127903143D01*
X80815094Y-127959950D01*
X80855957Y-128009743D01*
X80905750Y-128050606D01*
X80962557Y-128080970D01*
X81024197Y-128099668D01*
X81088300Y-128105982D01*
X81663300Y-128105982D01*
X81727403Y-128099668D01*
X81789043Y-128080970D01*
X81845850Y-128050606D01*
X81853412Y-128044400D01*
X82346669Y-128044400D01*
X82375000Y-128047190D01*
X82403331Y-128044400D01*
X82403336Y-128044400D01*
X82433045Y-128041474D01*
X82488111Y-128036051D01*
X82542426Y-128019574D01*
X82546918Y-128018211D01*
X82594524Y-128043657D01*
X82703288Y-128076650D01*
X82788064Y-128085000D01*
X82788070Y-128085000D01*
X82816399Y-128087790D01*
X82844728Y-128085000D01*
X83553880Y-128085000D01*
X83614020Y-128158280D01*
X83699802Y-128228680D01*
X83797670Y-128280992D01*
X83903863Y-128313205D01*
X84014300Y-128324082D01*
X84489300Y-128324082D01*
X84599737Y-128313205D01*
X84705930Y-128280992D01*
X84803798Y-128228680D01*
X84889580Y-128158280D01*
X84959980Y-128072498D01*
X85012292Y-127974630D01*
X85044505Y-127868437D01*
X85055382Y-127758000D01*
X85055382Y-127258000D01*
X85044505Y-127147563D01*
X85012292Y-127041370D01*
X84959980Y-126943502D01*
X84889580Y-126857720D01*
X84803798Y-126787320D01*
X84705930Y-126735008D01*
X84599737Y-126702795D01*
X84489300Y-126691918D01*
X84014300Y-126691918D01*
X83903863Y-126702795D01*
X83797670Y-126735008D01*
X83699802Y-126787320D01*
X83614020Y-126857720D01*
X83553880Y-126931000D01*
X83107974Y-126931000D01*
X83107668Y-126927897D01*
X83088970Y-126866257D01*
X83058606Y-126809450D01*
X83017743Y-126759657D01*
X82967950Y-126718794D01*
X82911143Y-126688430D01*
X82849503Y-126669732D01*
X82785400Y-126663418D01*
X82365400Y-126663418D01*
X82301297Y-126669732D01*
X82239657Y-126688430D01*
X82182850Y-126718794D01*
X82133057Y-126759657D01*
X82092194Y-126809450D01*
X82061830Y-126866257D01*
X82054506Y-126890400D01*
X81853412Y-126890400D01*
X81845850Y-126884194D01*
X81789043Y-126853830D01*
X81727403Y-126835132D01*
X81663300Y-126828818D01*
X81088300Y-126828818D01*
X81024197Y-126835132D01*
X80962557Y-126853830D01*
X80905750Y-126884194D01*
X80855957Y-126925057D01*
X80815094Y-126974850D01*
X80784730Y-127031657D01*
X80766032Y-127093297D01*
X80759718Y-127157400D01*
X79175801Y-127157400D01*
X79177219Y-127155982D01*
X79287300Y-127155982D01*
X79351403Y-127149668D01*
X79413043Y-127130970D01*
X79469850Y-127100606D01*
X79519643Y-127059743D01*
X79560506Y-127009950D01*
X79590870Y-126953143D01*
X79609568Y-126891503D01*
X79615882Y-126827400D01*
X79615882Y-126646607D01*
X80759718Y-125502772D01*
X80759718Y-125877400D01*
X80766032Y-125941503D01*
X80784730Y-126003143D01*
X80815094Y-126059950D01*
X80855957Y-126109743D01*
X80905750Y-126150606D01*
X80962557Y-126180970D01*
X81024197Y-126199668D01*
X81088300Y-126205982D01*
X81663300Y-126205982D01*
X81727403Y-126199668D01*
X81789043Y-126180970D01*
X81845850Y-126150606D01*
X81853412Y-126144400D01*
X82076078Y-126144400D01*
X82092194Y-126174550D01*
X82133057Y-126224343D01*
X82182850Y-126265206D01*
X82239657Y-126295570D01*
X82301297Y-126314268D01*
X82365400Y-126320582D01*
X82785400Y-126320582D01*
X82849503Y-126314268D01*
X82911143Y-126295570D01*
X82967950Y-126265206D01*
X83017743Y-126224343D01*
X83058606Y-126174550D01*
X83088970Y-126117743D01*
X83090880Y-126111446D01*
X83115248Y-126091448D01*
X83131755Y-126071334D01*
X83336134Y-125866955D01*
X83356248Y-125850448D01*
X83422104Y-125770202D01*
X83464098Y-125691636D01*
X83546498Y-125609236D01*
X83626059Y-125490164D01*
X83680862Y-125357858D01*
X83708800Y-125217403D01*
X83708800Y-125074197D01*
X83680862Y-124933742D01*
X83626059Y-124801436D01*
X83546498Y-124682364D01*
X83445236Y-124581102D01*
X83326164Y-124501541D01*
X83193858Y-124446738D01*
X83053403Y-124418800D01*
X82910197Y-124418800D01*
X82769742Y-124446738D01*
X82637436Y-124501541D01*
X82518364Y-124581102D01*
X82417102Y-124682364D01*
X82337541Y-124801436D01*
X82282738Y-124933742D01*
X82271468Y-124990400D01*
X81926689Y-124990400D01*
X82801338Y-124115752D01*
X82821447Y-124099249D01*
X82887303Y-124019003D01*
X82936238Y-123927451D01*
X82966373Y-123828111D01*
X82973999Y-123750682D01*
X82973999Y-123750680D01*
X82976548Y-123724802D01*
X82973999Y-123698924D01*
X82973999Y-123333490D01*
X84053944Y-122253547D01*
X86225159Y-124424762D01*
X86243224Y-124446774D01*
X86331083Y-124518879D01*
X86431322Y-124572457D01*
X86475980Y-124586004D01*
X86540086Y-124605451D01*
X86546517Y-124606084D01*
X86550932Y-124650903D01*
X86569630Y-124712543D01*
X86599994Y-124769350D01*
X86616873Y-124789918D01*
X86173300Y-124789918D01*
X86062863Y-124800795D01*
X85956670Y-124833008D01*
X85858802Y-124885320D01*
X85773020Y-124955720D01*
X85702620Y-125041502D01*
X85650308Y-125139370D01*
X85618095Y-125245563D01*
X85607218Y-125356000D01*
X85607218Y-125956000D01*
X85618095Y-126066437D01*
X85650308Y-126172630D01*
X85702620Y-126270498D01*
X85773020Y-126356280D01*
X85858802Y-126426680D01*
X85956670Y-126478992D01*
X86062863Y-126511205D01*
X86136931Y-126518500D01*
X86062863Y-126525795D01*
X85956670Y-126558008D01*
X85858802Y-126610320D01*
X85773020Y-126680720D01*
X85702620Y-126766502D01*
X85650308Y-126864370D01*
X85618095Y-126970563D01*
X85607218Y-127081000D01*
X85607218Y-127681000D01*
X85618095Y-127791437D01*
X85650308Y-127897630D01*
X85702620Y-127995498D01*
X85773020Y-128081280D01*
X85858802Y-128151680D01*
X85956670Y-128203992D01*
X86062863Y-128236205D01*
X86173300Y-128247082D01*
X86648300Y-128247082D01*
X86758737Y-128236205D01*
X86864930Y-128203992D01*
X86962798Y-128151680D01*
X87048580Y-128081280D01*
X87118980Y-127995498D01*
X87171292Y-127897630D01*
X87185662Y-127850259D01*
X87238069Y-127885277D01*
X87388573Y-127947618D01*
X87548348Y-127979400D01*
X87691026Y-127979400D01*
X87763724Y-128018257D01*
X87872488Y-128051250D01*
X87957264Y-128059600D01*
X87957270Y-128059600D01*
X87985599Y-128062390D01*
X88013928Y-128059600D01*
X90819039Y-128059600D01*
X90868920Y-128120380D01*
X90954702Y-128190780D01*
X91052570Y-128243092D01*
X91158763Y-128275305D01*
X91269200Y-128286182D01*
X91869200Y-128286182D01*
X91979637Y-128275305D01*
X92085830Y-128243092D01*
X92183698Y-128190780D01*
X92269480Y-128120380D01*
X92339880Y-128034598D01*
X92392192Y-127936730D01*
X92424405Y-127830537D01*
X92435282Y-127720100D01*
X92435282Y-127245100D01*
X92424405Y-127134663D01*
X92392192Y-127028470D01*
X92339880Y-126930602D01*
X92269480Y-126844820D01*
X92183698Y-126774420D01*
X92085830Y-126722108D01*
X91979637Y-126689895D01*
X91869200Y-126679018D01*
X91269200Y-126679018D01*
X91158763Y-126689895D01*
X91052570Y-126722108D01*
X90954702Y-126774420D01*
X90868920Y-126844820D01*
X90819039Y-126905600D01*
X88422710Y-126905600D01*
X88362677Y-126760669D01*
X88272172Y-126625219D01*
X88156981Y-126510028D01*
X88111093Y-126479367D01*
X88157181Y-126448572D01*
X88222553Y-126383200D01*
X88899269Y-126383200D01*
X88927600Y-126385990D01*
X88955931Y-126383200D01*
X88955936Y-126383200D01*
X88976424Y-126381182D01*
X89456200Y-126381182D01*
X89566637Y-126370305D01*
X89672830Y-126338092D01*
X89770698Y-126285780D01*
X89856480Y-126215380D01*
X89926880Y-126129598D01*
X89979192Y-126031730D01*
X90011405Y-125925537D01*
X90022282Y-125815100D01*
X90022282Y-125406800D01*
X94040018Y-125406800D01*
X94040018Y-126006800D01*
X94050895Y-126117237D01*
X94083108Y-126223430D01*
X94135420Y-126321298D01*
X94205820Y-126407080D01*
X94291602Y-126477480D01*
X94389470Y-126529792D01*
X94495663Y-126562005D01*
X94606100Y-126572882D01*
X95081100Y-126572882D01*
X95191537Y-126562005D01*
X95297730Y-126529792D01*
X95395598Y-126477480D01*
X95481380Y-126407080D01*
X95551780Y-126321298D01*
X95604092Y-126223430D01*
X95636305Y-126117237D01*
X95647182Y-126006800D01*
X95647182Y-125406800D01*
X95636305Y-125296363D01*
X95604092Y-125190170D01*
X95562620Y-125112581D01*
X95968401Y-124706800D01*
X97095596Y-124706800D01*
X97193173Y-124747218D01*
X97352948Y-124779000D01*
X97515852Y-124779000D01*
X97675627Y-124747218D01*
X97826131Y-124684877D01*
X97961581Y-124594372D01*
X98076772Y-124479181D01*
X98167277Y-124343731D01*
X98229618Y-124193227D01*
X98261400Y-124033452D01*
X98261400Y-123870548D01*
X98229618Y-123710773D01*
X98167277Y-123560269D01*
X98076772Y-123424819D01*
X97961581Y-123309628D01*
X97826131Y-123219123D01*
X97675627Y-123156782D01*
X97515852Y-123125000D01*
X97352948Y-123125000D01*
X97193173Y-123156782D01*
X97042669Y-123219123D01*
X96907219Y-123309628D01*
X96792028Y-123424819D01*
X96706514Y-123552800D01*
X95757728Y-123552800D01*
X95729399Y-123550010D01*
X95701070Y-123552800D01*
X95701064Y-123552800D01*
X95616288Y-123561150D01*
X95507524Y-123594143D01*
X95407285Y-123647721D01*
X95319426Y-123719826D01*
X95301363Y-123741836D01*
X94455634Y-124587565D01*
X94433627Y-124605626D01*
X94415566Y-124627633D01*
X94415563Y-124627636D01*
X94396469Y-124650903D01*
X94361522Y-124693485D01*
X94307943Y-124793724D01*
X94293688Y-124840718D01*
X94274949Y-124902489D01*
X94271273Y-124939820D01*
X94269882Y-124953946D01*
X94205820Y-125006520D01*
X94135420Y-125092302D01*
X94083108Y-125190170D01*
X94050895Y-125296363D01*
X94040018Y-125406800D01*
X90022282Y-125406800D01*
X90022282Y-125340100D01*
X90011405Y-125229663D01*
X89979192Y-125123470D01*
X89926880Y-125025602D01*
X89856480Y-124939820D01*
X89770698Y-124869420D01*
X89672830Y-124817108D01*
X89566637Y-124784895D01*
X89456200Y-124774018D01*
X88856200Y-124774018D01*
X88745763Y-124784895D01*
X88639570Y-124817108D01*
X88541702Y-124869420D01*
X88455920Y-124939820D01*
X88385520Y-125025602D01*
X88333208Y-125123470D01*
X88301135Y-125229200D01*
X88222553Y-125229200D01*
X88157181Y-125163828D01*
X88021731Y-125073323D01*
X87871227Y-125010982D01*
X87711452Y-124979200D01*
X87548548Y-124979200D01*
X87388773Y-125010982D01*
X87238269Y-125073323D01*
X87229773Y-125079000D01*
X87139023Y-125079000D01*
X87118980Y-125041502D01*
X87048580Y-124955720D01*
X86999428Y-124915382D01*
X87523200Y-124915382D01*
X87587303Y-124909068D01*
X87648943Y-124890370D01*
X87705750Y-124860006D01*
X87755543Y-124819143D01*
X87796406Y-124769350D01*
X87826770Y-124712543D01*
X87845468Y-124650903D01*
X87849123Y-124613800D01*
X88915302Y-124613800D01*
X88979270Y-124647992D01*
X89085463Y-124680205D01*
X89195900Y-124691082D01*
X89670900Y-124691082D01*
X89781337Y-124680205D01*
X89887530Y-124647992D01*
X89985398Y-124595680D01*
X90071180Y-124525280D01*
X90141580Y-124439498D01*
X90193892Y-124341630D01*
X90226105Y-124235437D01*
X90236982Y-124125000D01*
X90236982Y-123525000D01*
X90226105Y-123414563D01*
X90193892Y-123308370D01*
X90141580Y-123210502D01*
X90071180Y-123124720D01*
X89985398Y-123054320D01*
X89887530Y-123002008D01*
X89781337Y-122969795D01*
X89670900Y-122958918D01*
X89195900Y-122958918D01*
X89085463Y-122969795D01*
X88979270Y-123002008D01*
X88881402Y-123054320D01*
X88795620Y-123124720D01*
X88725220Y-123210502D01*
X88672908Y-123308370D01*
X88640695Y-123414563D01*
X88636240Y-123459800D01*
X87849123Y-123459800D01*
X87845468Y-123422697D01*
X87826770Y-123361057D01*
X87796406Y-123304250D01*
X87755543Y-123254457D01*
X87705750Y-123213594D01*
X87648943Y-123183230D01*
X87587303Y-123164532D01*
X87523200Y-123158218D01*
X86873200Y-123158218D01*
X86809097Y-123164532D01*
X86747457Y-123183230D01*
X86690650Y-123213594D01*
X86666122Y-123233723D01*
X86247781Y-122815382D01*
X86563200Y-122815382D01*
X86627303Y-122809068D01*
X86688943Y-122790370D01*
X86745750Y-122760006D01*
X86795543Y-122719143D01*
X86836406Y-122669350D01*
X86866770Y-122612543D01*
X86885468Y-122550903D01*
X86891782Y-122486800D01*
X86891782Y-122003200D01*
X90661818Y-122003200D01*
X90661818Y-122603200D01*
X90672695Y-122713637D01*
X90704908Y-122819830D01*
X90757220Y-122917698D01*
X90827620Y-123003480D01*
X90913402Y-123073880D01*
X91011270Y-123126192D01*
X91117463Y-123158405D01*
X91227900Y-123169282D01*
X91702900Y-123169282D01*
X91813337Y-123158405D01*
X91919530Y-123126192D01*
X92017398Y-123073880D01*
X92103180Y-123003480D01*
X92173580Y-122917698D01*
X92225892Y-122819830D01*
X92258105Y-122713637D01*
X92268982Y-122603200D01*
X92268982Y-122003200D01*
X92267191Y-121985010D01*
X92367362Y-121884839D01*
X92389373Y-121866775D01*
X92461478Y-121778916D01*
X92515056Y-121678677D01*
X92548049Y-121569913D01*
X92556399Y-121485137D01*
X92556399Y-121485131D01*
X92559189Y-121456802D01*
X92556399Y-121428473D01*
X92556399Y-121418540D01*
X92622880Y-121363980D01*
X92651916Y-121328600D01*
X92687811Y-121328600D01*
X92721450Y-121356206D01*
X92778257Y-121386570D01*
X92839897Y-121405268D01*
X92904000Y-121411582D01*
X93648381Y-121411582D01*
X94654561Y-122417762D01*
X94672626Y-122439774D01*
X94760485Y-122511879D01*
X94860724Y-122565457D01*
X94905382Y-122579004D01*
X94969488Y-122598451D01*
X95082600Y-122609591D01*
X95110939Y-122606800D01*
X95486914Y-122606800D01*
X95489026Y-122609374D01*
X95576885Y-122681479D01*
X95677124Y-122735057D01*
X95785888Y-122768051D01*
X95899000Y-122779191D01*
X95927339Y-122776400D01*
X96841847Y-122776400D01*
X96907219Y-122841772D01*
X97042669Y-122932277D01*
X97193173Y-122994618D01*
X97352948Y-123026400D01*
X97515852Y-123026400D01*
X97675627Y-122994618D01*
X97826131Y-122932277D01*
X97961581Y-122841772D01*
X98076772Y-122726581D01*
X98167277Y-122591131D01*
X98229618Y-122440627D01*
X98261400Y-122280852D01*
X98261400Y-122117948D01*
X98229618Y-121958173D01*
X98167277Y-121807669D01*
X98076772Y-121672219D01*
X97961581Y-121557028D01*
X97826131Y-121466523D01*
X97675627Y-121404182D01*
X97515852Y-121372400D01*
X97352948Y-121372400D01*
X97193173Y-121404182D01*
X97042669Y-121466523D01*
X96907219Y-121557028D01*
X96841847Y-121622400D01*
X96141486Y-121622400D01*
X96139374Y-121619826D01*
X96051515Y-121547721D01*
X95951276Y-121494143D01*
X95870118Y-121469524D01*
X95842511Y-121461149D01*
X95787445Y-121455726D01*
X95757736Y-121452800D01*
X95757731Y-121452800D01*
X95729400Y-121450010D01*
X95701069Y-121452800D01*
X95321601Y-121452800D01*
X95280383Y-121411582D01*
X96004000Y-121411582D01*
X96068103Y-121405268D01*
X96129743Y-121386570D01*
X96186550Y-121356206D01*
X96236343Y-121315343D01*
X96277206Y-121265550D01*
X96307570Y-121208743D01*
X96326268Y-121147103D01*
X96332582Y-121083000D01*
X96332582Y-121023800D01*
X96841847Y-121023800D01*
X96907219Y-121089172D01*
X97042669Y-121179677D01*
X97193173Y-121242018D01*
X97352948Y-121273800D01*
X97515852Y-121273800D01*
X97675627Y-121242018D01*
X97826131Y-121179677D01*
X97961581Y-121089172D01*
X98076772Y-120973981D01*
X98167277Y-120838531D01*
X98229618Y-120688027D01*
X98261400Y-120528252D01*
X98261400Y-120365348D01*
X98229618Y-120205573D01*
X98167277Y-120055069D01*
X98076772Y-119919619D01*
X97961581Y-119804428D01*
X97826131Y-119713923D01*
X97675627Y-119651582D01*
X97515852Y-119619800D01*
X97352948Y-119619800D01*
X97193173Y-119651582D01*
X97042669Y-119713923D01*
X96907219Y-119804428D01*
X96841847Y-119869800D01*
X96252053Y-119869800D01*
X96236343Y-119850657D01*
X96186550Y-119809794D01*
X96129743Y-119779430D01*
X96068103Y-119760732D01*
X96004000Y-119754418D01*
X95420708Y-119754418D01*
X94831001Y-119164712D01*
X94831001Y-119019980D01*
X94859741Y-119089364D01*
X94939302Y-119208436D01*
X95040564Y-119309698D01*
X95159636Y-119389259D01*
X95291942Y-119444062D01*
X95432397Y-119472000D01*
X95575603Y-119472000D01*
X95716058Y-119444062D01*
X95848364Y-119389259D01*
X95967436Y-119309698D01*
X96068698Y-119208436D01*
X96148259Y-119089364D01*
X96203062Y-118957058D01*
X96231000Y-118816603D01*
X96231000Y-118673397D01*
X96204723Y-118541292D01*
X96236343Y-118515343D01*
X96277206Y-118465550D01*
X96307570Y-118408743D01*
X96326268Y-118347103D01*
X96331926Y-118289660D01*
X96386764Y-118344498D01*
X96505836Y-118424059D01*
X96638142Y-118478862D01*
X96639049Y-118479042D01*
X96607400Y-118638148D01*
X96607400Y-118801052D01*
X96639182Y-118960827D01*
X96701523Y-119111331D01*
X96792028Y-119246781D01*
X96907219Y-119361972D01*
X97042669Y-119452477D01*
X97193173Y-119514818D01*
X97352948Y-119546600D01*
X97515852Y-119546600D01*
X97675627Y-119514818D01*
X97826131Y-119452477D01*
X97961581Y-119361972D01*
X98076772Y-119246781D01*
X98167277Y-119111331D01*
X98229618Y-118960827D01*
X98261400Y-118801052D01*
X98261400Y-118638148D01*
X98229618Y-118478373D01*
X98167277Y-118327869D01*
X98076772Y-118192419D01*
X97961581Y-118077228D01*
X97826131Y-117986723D01*
X97785643Y-117969952D01*
X97577200Y-117761510D01*
X97577200Y-117708197D01*
X97549262Y-117567742D01*
X97494459Y-117435436D01*
X97414898Y-117316364D01*
X97313636Y-117215102D01*
X97194564Y-117135541D01*
X97062258Y-117080738D01*
X96921803Y-117052800D01*
X96778597Y-117052800D01*
X96638142Y-117080738D01*
X96505836Y-117135541D01*
X96386764Y-117215102D01*
X96331352Y-117270514D01*
X96326268Y-117218897D01*
X96307570Y-117157257D01*
X96277206Y-117100450D01*
X96236343Y-117050657D01*
X96186550Y-117009794D01*
X96129743Y-116979430D01*
X96068103Y-116960732D01*
X96004000Y-116954418D01*
X95915327Y-116954418D01*
X95941105Y-116869437D01*
X95951982Y-116759000D01*
X95951982Y-116159000D01*
X95941105Y-116048563D01*
X95908892Y-115942370D01*
X95856580Y-115844502D01*
X95786180Y-115758720D01*
X95700398Y-115688320D01*
X95602530Y-115636008D01*
X95496337Y-115603795D01*
X95385900Y-115592918D01*
X94910900Y-115592918D01*
X94800463Y-115603795D01*
X94694270Y-115636008D01*
X94596402Y-115688320D01*
X94510620Y-115758720D01*
X94440220Y-115844502D01*
X94425088Y-115872812D01*
X94408780Y-115842302D01*
X94338380Y-115756520D01*
X94252598Y-115686120D01*
X94154730Y-115633808D01*
X94048537Y-115601595D01*
X93938100Y-115590718D01*
X93463100Y-115590718D01*
X93352663Y-115601595D01*
X93246470Y-115633808D01*
X93148602Y-115686120D01*
X93062820Y-115756520D01*
X92992420Y-115842302D01*
X92940108Y-115940170D01*
X92907895Y-116046363D01*
X92897018Y-116156800D01*
X92897018Y-116756800D01*
X92907895Y-116867237D01*
X92940108Y-116973430D01*
X92992420Y-117071298D01*
X93062820Y-117157080D01*
X93148602Y-117227480D01*
X93246470Y-117279792D01*
X93352663Y-117312005D01*
X93463100Y-117322882D01*
X93777001Y-117322882D01*
X93777002Y-119357111D01*
X93774452Y-119383001D01*
X93784627Y-119486310D01*
X93814762Y-119585650D01*
X93863697Y-119677202D01*
X93866772Y-119680949D01*
X93929095Y-119756890D01*
X93904000Y-119754418D01*
X92904000Y-119754418D01*
X92839897Y-119760732D01*
X92778257Y-119779430D01*
X92721450Y-119809794D01*
X92671657Y-119850657D01*
X92630794Y-119900450D01*
X92600430Y-119957257D01*
X92581732Y-120018897D01*
X92578474Y-120051976D01*
X92537098Y-120018020D01*
X92439230Y-119965708D01*
X92333037Y-119933495D01*
X92222600Y-119922618D01*
X91622600Y-119922618D01*
X91512163Y-119933495D01*
X91405970Y-119965708D01*
X91308102Y-120018020D01*
X91222320Y-120088420D01*
X91151920Y-120174202D01*
X91099608Y-120272070D01*
X91067395Y-120378263D01*
X91056518Y-120488700D01*
X91056518Y-120963700D01*
X91067395Y-121074137D01*
X91099608Y-121180330D01*
X91151920Y-121278198D01*
X91222320Y-121363980D01*
X91240939Y-121379260D01*
X91178184Y-121442015D01*
X91117463Y-121447995D01*
X91011270Y-121480208D01*
X90913402Y-121532520D01*
X90827620Y-121602920D01*
X90757220Y-121688702D01*
X90704908Y-121786570D01*
X90672695Y-121892763D01*
X90661818Y-122003200D01*
X86891782Y-122003200D01*
X86891782Y-121386800D01*
X86885468Y-121322697D01*
X86866770Y-121261057D01*
X86836406Y-121204250D01*
X86815200Y-121178410D01*
X86815200Y-120995032D01*
X86848598Y-120977180D01*
X86934380Y-120906780D01*
X87004780Y-120820998D01*
X87057092Y-120723130D01*
X87089305Y-120616937D01*
X87100182Y-120506500D01*
X87100182Y-120031500D01*
X87089305Y-119921063D01*
X87057092Y-119814870D01*
X87004780Y-119717002D01*
X86934380Y-119631220D01*
X86848598Y-119560820D01*
X86811100Y-119540777D01*
X86811100Y-119384028D01*
X86813890Y-119355699D01*
X86811100Y-119327370D01*
X86811100Y-119327364D01*
X86802750Y-119242588D01*
X86769757Y-119133824D01*
X86716179Y-119033585D01*
X86644074Y-118945726D01*
X86622063Y-118927662D01*
X85848239Y-118153838D01*
X85830174Y-118131826D01*
X85742315Y-118059721D01*
X85642076Y-118006143D01*
X85577970Y-117986697D01*
X85533311Y-117973149D01*
X85478245Y-117967726D01*
X85448536Y-117964800D01*
X85448531Y-117964800D01*
X85420200Y-117962010D01*
X85391869Y-117964800D01*
X85342390Y-117964800D01*
X85316550Y-117943594D01*
X85259743Y-117913230D01*
X85238546Y-117906800D01*
X85259743Y-117900370D01*
X85316550Y-117870006D01*
X85366343Y-117829143D01*
X85407206Y-117779350D01*
X85437570Y-117722543D01*
X85456268Y-117660903D01*
X85462582Y-117596800D01*
X85462582Y-116946800D01*
X85456268Y-116882697D01*
X85437570Y-116821057D01*
X85407206Y-116764250D01*
X85366343Y-116714457D01*
X85316550Y-116673594D01*
X85259743Y-116643230D01*
X85238546Y-116636800D01*
X85259743Y-116630370D01*
X85316550Y-116600006D01*
X85366343Y-116559143D01*
X85407206Y-116509350D01*
X85437570Y-116452543D01*
X85456268Y-116390903D01*
X85462582Y-116326800D01*
X85462582Y-115676800D01*
X90305418Y-115676800D01*
X90305418Y-116326800D01*
X90311732Y-116390903D01*
X90330430Y-116452543D01*
X90360794Y-116509350D01*
X90401657Y-116559143D01*
X90451450Y-116600006D01*
X90508257Y-116630370D01*
X90529454Y-116636800D01*
X90508257Y-116643230D01*
X90451450Y-116673594D01*
X90401657Y-116714457D01*
X90360794Y-116764250D01*
X90330430Y-116821057D01*
X90311732Y-116882697D01*
X90305418Y-116946800D01*
X90305418Y-117596800D01*
X90311732Y-117660903D01*
X90330430Y-117722543D01*
X90360794Y-117779350D01*
X90401657Y-117829143D01*
X90451450Y-117870006D01*
X90508257Y-117900370D01*
X90529454Y-117906800D01*
X90508257Y-117913230D01*
X90451450Y-117943594D01*
X90401657Y-117984457D01*
X90360794Y-118034250D01*
X90330430Y-118091057D01*
X90311732Y-118152697D01*
X90305418Y-118216800D01*
X90305418Y-118866800D01*
X90311732Y-118930903D01*
X90330430Y-118992543D01*
X90360794Y-119049350D01*
X90401657Y-119099143D01*
X90451450Y-119140006D01*
X90508257Y-119170370D01*
X90569897Y-119189068D01*
X90634000Y-119195382D01*
X92384000Y-119195382D01*
X92448103Y-119189068D01*
X92509743Y-119170370D01*
X92566550Y-119140006D01*
X92616343Y-119099143D01*
X92657206Y-119049350D01*
X92687570Y-118992543D01*
X92706268Y-118930903D01*
X92712582Y-118866800D01*
X92712582Y-118216800D01*
X92706268Y-118152697D01*
X92687570Y-118091057D01*
X92657206Y-118034250D01*
X92616343Y-117984457D01*
X92566550Y-117943594D01*
X92509743Y-117913230D01*
X92488546Y-117906800D01*
X92509743Y-117900370D01*
X92566550Y-117870006D01*
X92616343Y-117829143D01*
X92657206Y-117779350D01*
X92687570Y-117722543D01*
X92706268Y-117660903D01*
X92712582Y-117596800D01*
X92712582Y-116946800D01*
X92706268Y-116882697D01*
X92687570Y-116821057D01*
X92657206Y-116764250D01*
X92616343Y-116714457D01*
X92566550Y-116673594D01*
X92509743Y-116643230D01*
X92488546Y-116636800D01*
X92509743Y-116630370D01*
X92566550Y-116600006D01*
X92616343Y-116559143D01*
X92657206Y-116509350D01*
X92687570Y-116452543D01*
X92706268Y-116390903D01*
X92712582Y-116326800D01*
X92712582Y-115676800D01*
X92706268Y-115612697D01*
X92687570Y-115551057D01*
X92657206Y-115494250D01*
X92616343Y-115444457D01*
X92566550Y-115403594D01*
X92509743Y-115373230D01*
X92448103Y-115354532D01*
X92384000Y-115348218D01*
X90634000Y-115348218D01*
X90569897Y-115354532D01*
X90508257Y-115373230D01*
X90451450Y-115403594D01*
X90401657Y-115444457D01*
X90360794Y-115494250D01*
X90330430Y-115551057D01*
X90311732Y-115612697D01*
X90305418Y-115676800D01*
X85462582Y-115676800D01*
X85456268Y-115612697D01*
X85437570Y-115551057D01*
X85407206Y-115494250D01*
X85366343Y-115444457D01*
X85316550Y-115403594D01*
X85259743Y-115373230D01*
X85238546Y-115366800D01*
X85259743Y-115360370D01*
X85316550Y-115330006D01*
X85366343Y-115289143D01*
X85407206Y-115239350D01*
X85437570Y-115182543D01*
X85456268Y-115120903D01*
X85462582Y-115056800D01*
X85462582Y-114406800D01*
X85456268Y-114342697D01*
X85437570Y-114281057D01*
X85407206Y-114224250D01*
X85366343Y-114174457D01*
X85316550Y-114133594D01*
X85259743Y-114103230D01*
X85242502Y-114098000D01*
X99385201Y-114098000D01*
X99385200Y-128744042D01*
X58698600Y-128753365D01*
X58698600Y-120141400D01*
X62818609Y-120141400D01*
X62829750Y-120254512D01*
X62859818Y-120353634D01*
X62859818Y-120416400D01*
X62866132Y-120480503D01*
X62884830Y-120542143D01*
X62915194Y-120598950D01*
X62956057Y-120648743D01*
X63005850Y-120689606D01*
X63062657Y-120719970D01*
X63124297Y-120738668D01*
X63188400Y-120744982D01*
X63608400Y-120744982D01*
X63672503Y-120738668D01*
X63734143Y-120719970D01*
X63737080Y-120718400D01*
X64528869Y-120718400D01*
X64557200Y-120721190D01*
X64585531Y-120718400D01*
X64585536Y-120718400D01*
X64615245Y-120715474D01*
X64670311Y-120710051D01*
X64714970Y-120696503D01*
X64722622Y-120694182D01*
X64930500Y-120694182D01*
X64994603Y-120687868D01*
X65056243Y-120669170D01*
X65113050Y-120638806D01*
X65162843Y-120597943D01*
X65203706Y-120548150D01*
X65234070Y-120491343D01*
X65252768Y-120429703D01*
X65259082Y-120365600D01*
X65259082Y-119745600D01*
X65252768Y-119681497D01*
X65234070Y-119619857D01*
X65220000Y-119593534D01*
X65220000Y-119366468D01*
X65286637Y-119359905D01*
X65392830Y-119327692D01*
X65490698Y-119275380D01*
X65576480Y-119204980D01*
X65646880Y-119119198D01*
X65699192Y-119021330D01*
X65731405Y-118915137D01*
X65742282Y-118804700D01*
X65742282Y-118329700D01*
X65731405Y-118219263D01*
X65699192Y-118113070D01*
X65646880Y-118015202D01*
X65576480Y-117929420D01*
X65490698Y-117859020D01*
X65392830Y-117806708D01*
X65286637Y-117774495D01*
X65176200Y-117763618D01*
X64676200Y-117763618D01*
X64565763Y-117774495D01*
X64459570Y-117806708D01*
X64361702Y-117859020D01*
X64275920Y-117929420D01*
X64205520Y-118015202D01*
X64153208Y-118113070D01*
X64120995Y-118219263D01*
X64110118Y-118329700D01*
X64110118Y-118623334D01*
X64107344Y-118628524D01*
X64074349Y-118737289D01*
X64063210Y-118850400D01*
X64066001Y-118878741D01*
X64066000Y-119564400D01*
X63737080Y-119564400D01*
X63734143Y-119562830D01*
X63672503Y-119544132D01*
X63608400Y-119537818D01*
X63188400Y-119537818D01*
X63124297Y-119544132D01*
X63062657Y-119562830D01*
X63005850Y-119593194D01*
X62956057Y-119634057D01*
X62915194Y-119683850D01*
X62884830Y-119740657D01*
X62866132Y-119802297D01*
X62859818Y-119866400D01*
X62859818Y-119929166D01*
X62829750Y-120028288D01*
X62818609Y-120141400D01*
X58698600Y-120141400D01*
X58698600Y-114098000D01*
X61790123Y-114098000D01*
X61761160Y-114152186D01*
G37*
%TD.AperFunction*%
D23*
X82518418Y-121201000D02*
X82524732Y-121265103D01*
X82543430Y-121326743D01*
X82573794Y-121383550D01*
X82614657Y-121433343D01*
X82664450Y-121474206D01*
X82721257Y-121504570D01*
X82782897Y-121523268D01*
X82847000Y-121529582D01*
X83287327Y-121529582D01*
X82472132Y-122344778D01*
X82461662Y-122292142D01*
X82406859Y-122159836D01*
X82327298Y-122040764D01*
X82275201Y-121988667D01*
X82275201Y-120594564D01*
X82518418Y-120351347D01*
X82518418Y-121201000D01*
%TA.AperFunction,Conductor*%
D24*
G36*
X82518418Y-121201000D02*
G01*
X82524732Y-121265103D01*
X82543430Y-121326743D01*
X82573794Y-121383550D01*
X82614657Y-121433343D01*
X82664450Y-121474206D01*
X82721257Y-121504570D01*
X82782897Y-121523268D01*
X82847000Y-121529582D01*
X83287327Y-121529582D01*
X82472132Y-122344778D01*
X82461662Y-122292142D01*
X82406859Y-122159836D01*
X82327298Y-122040764D01*
X82275201Y-121988667D01*
X82275201Y-120594564D01*
X82518418Y-120351347D01*
X82518418Y-121201000D01*
G37*
%TD.AperFunction*%
D23*
X81899720Y-114119420D02*
X81829320Y-114205202D01*
X81777008Y-114303070D01*
X81744795Y-114409263D01*
X81733918Y-114519700D01*
X81733918Y-114994700D01*
X81744795Y-115105137D01*
X81777008Y-115211330D01*
X81829320Y-115309198D01*
X81899720Y-115394980D01*
X81985502Y-115465380D01*
X82083370Y-115517692D01*
X82189563Y-115549905D01*
X82300000Y-115560782D01*
X82800000Y-115560782D01*
X82910437Y-115549905D01*
X83016630Y-115517692D01*
X83114498Y-115465380D01*
X83200280Y-115394980D01*
X83237701Y-115349383D01*
X83258257Y-115360370D01*
X83279454Y-115366800D01*
X83258257Y-115373230D01*
X83201450Y-115403594D01*
X83151657Y-115444457D01*
X83110794Y-115494250D01*
X83080430Y-115551057D01*
X83061732Y-115612697D01*
X83055418Y-115676800D01*
X83055418Y-116326800D01*
X83061732Y-116390903D01*
X83080430Y-116452543D01*
X83110794Y-116509350D01*
X83151657Y-116559143D01*
X83201450Y-116600006D01*
X83258257Y-116630370D01*
X83279454Y-116636800D01*
X83258257Y-116643230D01*
X83201450Y-116673594D01*
X83151657Y-116714457D01*
X83110794Y-116764250D01*
X83080430Y-116821057D01*
X83061732Y-116882697D01*
X83055418Y-116946800D01*
X83055418Y-117080090D01*
X82629661Y-117505848D01*
X82609552Y-117522351D01*
X82573729Y-117566002D01*
X82543695Y-117602598D01*
X82494760Y-117694150D01*
X82464625Y-117793490D01*
X82454450Y-117896799D01*
X82457000Y-117922689D01*
X82456999Y-118922187D01*
X82439182Y-118940004D01*
X82439182Y-118749800D01*
X82428305Y-118639363D01*
X82396092Y-118533170D01*
X82343780Y-118435302D01*
X82273380Y-118349520D01*
X82187598Y-118279120D01*
X82089730Y-118226808D01*
X81983537Y-118194595D01*
X81873100Y-118183718D01*
X81398100Y-118183718D01*
X81287663Y-118194595D01*
X81181470Y-118226808D01*
X81083602Y-118279120D01*
X80997820Y-118349520D01*
X80927420Y-118435302D01*
X80875108Y-118533170D01*
X80842895Y-118639363D01*
X80832018Y-118749800D01*
X80832018Y-119349800D01*
X80842895Y-119460237D01*
X80852773Y-119492800D01*
X80766748Y-119492800D01*
X80766532Y-119492843D01*
X80483382Y-119209693D01*
X80483382Y-118701200D01*
X80472505Y-118590763D01*
X80440292Y-118484570D01*
X80387980Y-118386702D01*
X80317580Y-118300920D01*
X80231798Y-118230520D01*
X80133930Y-118178208D01*
X80027737Y-118145995D01*
X79917300Y-118135118D01*
X79559008Y-118135118D01*
X79289182Y-117865293D01*
X79289182Y-117516600D01*
X79282868Y-117452497D01*
X79264170Y-117390857D01*
X79247528Y-117359722D01*
X79277850Y-117384606D01*
X79334657Y-117414970D01*
X79396297Y-117433668D01*
X79460400Y-117439982D01*
X80610400Y-117439982D01*
X80674503Y-117433668D01*
X80736143Y-117414970D01*
X80792950Y-117384606D01*
X80842743Y-117343743D01*
X80883606Y-117293950D01*
X80913970Y-117237143D01*
X80932668Y-117175503D01*
X80938982Y-117111400D01*
X80938982Y-116453109D01*
X81079344Y-116312747D01*
X81099448Y-116296248D01*
X81165304Y-116216002D01*
X81214239Y-116124450D01*
X81244374Y-116025110D01*
X81252000Y-115947681D01*
X81254549Y-115921800D01*
X81252000Y-115895919D01*
X81252000Y-115485423D01*
X81289498Y-115465380D01*
X81375280Y-115394980D01*
X81445680Y-115309198D01*
X81497992Y-115211330D01*
X81530205Y-115105137D01*
X81541082Y-114994700D01*
X81541082Y-114519700D01*
X81530205Y-114409263D01*
X81497992Y-114303070D01*
X81445680Y-114205202D01*
X81375280Y-114119420D01*
X81349180Y-114098000D01*
X81925820Y-114098000D01*
X81899720Y-114119420D01*
%TA.AperFunction,Conductor*%
D24*
G36*
X81899720Y-114119420D02*
G01*
X81829320Y-114205202D01*
X81777008Y-114303070D01*
X81744795Y-114409263D01*
X81733918Y-114519700D01*
X81733918Y-114994700D01*
X81744795Y-115105137D01*
X81777008Y-115211330D01*
X81829320Y-115309198D01*
X81899720Y-115394980D01*
X81985502Y-115465380D01*
X82083370Y-115517692D01*
X82189563Y-115549905D01*
X82300000Y-115560782D01*
X82800000Y-115560782D01*
X82910437Y-115549905D01*
X83016630Y-115517692D01*
X83114498Y-115465380D01*
X83200280Y-115394980D01*
X83237701Y-115349383D01*
X83258257Y-115360370D01*
X83279454Y-115366800D01*
X83258257Y-115373230D01*
X83201450Y-115403594D01*
X83151657Y-115444457D01*
X83110794Y-115494250D01*
X83080430Y-115551057D01*
X83061732Y-115612697D01*
X83055418Y-115676800D01*
X83055418Y-116326800D01*
X83061732Y-116390903D01*
X83080430Y-116452543D01*
X83110794Y-116509350D01*
X83151657Y-116559143D01*
X83201450Y-116600006D01*
X83258257Y-116630370D01*
X83279454Y-116636800D01*
X83258257Y-116643230D01*
X83201450Y-116673594D01*
X83151657Y-116714457D01*
X83110794Y-116764250D01*
X83080430Y-116821057D01*
X83061732Y-116882697D01*
X83055418Y-116946800D01*
X83055418Y-117080090D01*
X82629661Y-117505848D01*
X82609552Y-117522351D01*
X82573729Y-117566002D01*
X82543695Y-117602598D01*
X82494760Y-117694150D01*
X82464625Y-117793490D01*
X82454450Y-117896799D01*
X82457000Y-117922689D01*
X82456999Y-118922187D01*
X82439182Y-118940004D01*
X82439182Y-118749800D01*
X82428305Y-118639363D01*
X82396092Y-118533170D01*
X82343780Y-118435302D01*
X82273380Y-118349520D01*
X82187598Y-118279120D01*
X82089730Y-118226808D01*
X81983537Y-118194595D01*
X81873100Y-118183718D01*
X81398100Y-118183718D01*
X81287663Y-118194595D01*
X81181470Y-118226808D01*
X81083602Y-118279120D01*
X80997820Y-118349520D01*
X80927420Y-118435302D01*
X80875108Y-118533170D01*
X80842895Y-118639363D01*
X80832018Y-118749800D01*
X80832018Y-119349800D01*
X80842895Y-119460237D01*
X80852773Y-119492800D01*
X80766748Y-119492800D01*
X80766532Y-119492843D01*
X80483382Y-119209693D01*
X80483382Y-118701200D01*
X80472505Y-118590763D01*
X80440292Y-118484570D01*
X80387980Y-118386702D01*
X80317580Y-118300920D01*
X80231798Y-118230520D01*
X80133930Y-118178208D01*
X80027737Y-118145995D01*
X79917300Y-118135118D01*
X79559008Y-118135118D01*
X79289182Y-117865293D01*
X79289182Y-117516600D01*
X79282868Y-117452497D01*
X79264170Y-117390857D01*
X79247528Y-117359722D01*
X79277850Y-117384606D01*
X79334657Y-117414970D01*
X79396297Y-117433668D01*
X79460400Y-117439982D01*
X80610400Y-117439982D01*
X80674503Y-117433668D01*
X80736143Y-117414970D01*
X80792950Y-117384606D01*
X80842743Y-117343743D01*
X80883606Y-117293950D01*
X80913970Y-117237143D01*
X80932668Y-117175503D01*
X80938982Y-117111400D01*
X80938982Y-116453109D01*
X81079344Y-116312747D01*
X81099448Y-116296248D01*
X81165304Y-116216002D01*
X81214239Y-116124450D01*
X81244374Y-116025110D01*
X81252000Y-115947681D01*
X81254549Y-115921800D01*
X81252000Y-115895919D01*
X81252000Y-115485423D01*
X81289498Y-115465380D01*
X81375280Y-115394980D01*
X81445680Y-115309198D01*
X81497992Y-115211330D01*
X81530205Y-115105137D01*
X81541082Y-114994700D01*
X81541082Y-114519700D01*
X81530205Y-114409263D01*
X81497992Y-114303070D01*
X81445680Y-114205202D01*
X81375280Y-114119420D01*
X81349180Y-114098000D01*
X81925820Y-114098000D01*
X81899720Y-114119420D01*
G37*
%TD.AperFunction*%
%TD*%
M02*
