%TF.GenerationSoftware,KiCad,Pcbnew,(5.1.9)-1*%
%TF.CreationDate,2021-08-28T05:23:55+03:00*%
%TF.ProjectId,LED_Center_001,4c45445f-4365-46e7-9465-725f3030312e,rev?*%
%TF.SameCoordinates,Original*%
%TF.FileFunction,Soldermask,Top*%
%TF.FilePolarity,Negative*%
%FSLAX46Y46*%
G04 Gerber Fmt 4.6, Leading zero omitted, Abs format (unit mm)*
G04 Created by KiCad (PCBNEW (5.1.9)-1) date 2021-08-28 05:23:55*
%MOMM*%
%LPD*%
G01*
G04 APERTURE LIST*
%ADD10R,3.000000X1.500000*%
%ADD11C,1.000000*%
%ADD12C,1.400000*%
G04 APERTURE END LIST*
D10*
%TO.C,J1*%
X41550000Y-4475000D03*
%TD*%
D11*
%TO.C,J3*%
X16500000Y-10775000D03*
%TD*%
%TO.C,J4*%
X15000000Y-10775000D03*
%TD*%
D10*
%TO.C,J5*%
X44450000Y-10668000D03*
%TD*%
D11*
%TO.C,J7*%
X27305000Y-10795000D03*
%TD*%
%TO.C,J8*%
X28702000Y-10795000D03*
%TD*%
D12*
%TO.C,J9*%
X11055000Y-10500000D03*
%TD*%
%TO.C,J10*%
X28955000Y-4500000D03*
%TD*%
%TO.C,J11*%
X34955000Y-10500000D03*
%TD*%
%TO.C,J12*%
X16962120Y-4500000D03*
%TD*%
D10*
%TO.C,J13*%
X3425000Y-4500000D03*
%TD*%
D11*
%TO.C,J15*%
X22255000Y-10800400D03*
%TD*%
%TO.C,J16*%
X23655000Y-10800400D03*
%TD*%
%TO.C,C1*%
G36*
G01*
X24859000Y-6916000D02*
X23909000Y-6916000D01*
G75*
G02*
X23659000Y-6666000I0J250000D01*
G01*
X23659000Y-5991000D01*
G75*
G02*
X23909000Y-5741000I250000J0D01*
G01*
X24859000Y-5741000D01*
G75*
G02*
X25109000Y-5991000I0J-250000D01*
G01*
X25109000Y-6666000D01*
G75*
G02*
X24859000Y-6916000I-250000J0D01*
G01*
G37*
G36*
G01*
X24859000Y-8991000D02*
X23909000Y-8991000D01*
G75*
G02*
X23659000Y-8741000I0J250000D01*
G01*
X23659000Y-8066000D01*
G75*
G02*
X23909000Y-7816000I250000J0D01*
G01*
X24859000Y-7816000D01*
G75*
G02*
X25109000Y-8066000I0J-250000D01*
G01*
X25109000Y-8741000D01*
G75*
G02*
X24859000Y-8991000I-250000J0D01*
G01*
G37*
%TD*%
%TO.C,C2*%
G36*
G01*
X27399000Y-8991000D02*
X26449000Y-8991000D01*
G75*
G02*
X26199000Y-8741000I0J250000D01*
G01*
X26199000Y-8066000D01*
G75*
G02*
X26449000Y-7816000I250000J0D01*
G01*
X27399000Y-7816000D01*
G75*
G02*
X27649000Y-8066000I0J-250000D01*
G01*
X27649000Y-8741000D01*
G75*
G02*
X27399000Y-8991000I-250000J0D01*
G01*
G37*
G36*
G01*
X27399000Y-6916000D02*
X26449000Y-6916000D01*
G75*
G02*
X26199000Y-6666000I0J250000D01*
G01*
X26199000Y-5991000D01*
G75*
G02*
X26449000Y-5741000I250000J0D01*
G01*
X27399000Y-5741000D01*
G75*
G02*
X27649000Y-5991000I0J-250000D01*
G01*
X27649000Y-6666000D01*
G75*
G02*
X27399000Y-6916000I-250000J0D01*
G01*
G37*
%TD*%
%TO.C,C3*%
G36*
G01*
X17747000Y-6916000D02*
X16797000Y-6916000D01*
G75*
G02*
X16547000Y-6666000I0J250000D01*
G01*
X16547000Y-5991000D01*
G75*
G02*
X16797000Y-5741000I250000J0D01*
G01*
X17747000Y-5741000D01*
G75*
G02*
X17997000Y-5991000I0J-250000D01*
G01*
X17997000Y-6666000D01*
G75*
G02*
X17747000Y-6916000I-250000J0D01*
G01*
G37*
G36*
G01*
X17747000Y-8991000D02*
X16797000Y-8991000D01*
G75*
G02*
X16547000Y-8741000I0J250000D01*
G01*
X16547000Y-8066000D01*
G75*
G02*
X16797000Y-7816000I250000J0D01*
G01*
X17747000Y-7816000D01*
G75*
G02*
X17997000Y-8066000I0J-250000D01*
G01*
X17997000Y-8741000D01*
G75*
G02*
X17747000Y-8991000I-250000J0D01*
G01*
G37*
%TD*%
%TO.C,C4*%
G36*
G01*
X20287000Y-8991000D02*
X19337000Y-8991000D01*
G75*
G02*
X19087000Y-8741000I0J250000D01*
G01*
X19087000Y-8066000D01*
G75*
G02*
X19337000Y-7816000I250000J0D01*
G01*
X20287000Y-7816000D01*
G75*
G02*
X20537000Y-8066000I0J-250000D01*
G01*
X20537000Y-8741000D01*
G75*
G02*
X20287000Y-8991000I-250000J0D01*
G01*
G37*
G36*
G01*
X20287000Y-6916000D02*
X19337000Y-6916000D01*
G75*
G02*
X19087000Y-6666000I0J250000D01*
G01*
X19087000Y-5991000D01*
G75*
G02*
X19337000Y-5741000I250000J0D01*
G01*
X20287000Y-5741000D01*
G75*
G02*
X20537000Y-5991000I0J-250000D01*
G01*
X20537000Y-6666000D01*
G75*
G02*
X20287000Y-6916000I-250000J0D01*
G01*
G37*
%TD*%
%TO.C,C9*%
G36*
G01*
X10508000Y-7594000D02*
X9558000Y-7594000D01*
G75*
G02*
X9308000Y-7344000I0J250000D01*
G01*
X9308000Y-6669000D01*
G75*
G02*
X9558000Y-6419000I250000J0D01*
G01*
X10508000Y-6419000D01*
G75*
G02*
X10758000Y-6669000I0J-250000D01*
G01*
X10758000Y-7344000D01*
G75*
G02*
X10508000Y-7594000I-250000J0D01*
G01*
G37*
G36*
G01*
X10508000Y-5519000D02*
X9558000Y-5519000D01*
G75*
G02*
X9308000Y-5269000I0J250000D01*
G01*
X9308000Y-4594000D01*
G75*
G02*
X9558000Y-4344000I250000J0D01*
G01*
X10508000Y-4344000D01*
G75*
G02*
X10758000Y-4594000I0J-250000D01*
G01*
X10758000Y-5269000D01*
G75*
G02*
X10508000Y-5519000I-250000J0D01*
G01*
G37*
%TD*%
%TO.C,C10*%
G36*
G01*
X8349000Y-5497500D02*
X7399000Y-5497500D01*
G75*
G02*
X7149000Y-5247500I0J250000D01*
G01*
X7149000Y-4572500D01*
G75*
G02*
X7399000Y-4322500I250000J0D01*
G01*
X8349000Y-4322500D01*
G75*
G02*
X8599000Y-4572500I0J-250000D01*
G01*
X8599000Y-5247500D01*
G75*
G02*
X8349000Y-5497500I-250000J0D01*
G01*
G37*
G36*
G01*
X8349000Y-7572500D02*
X7399000Y-7572500D01*
G75*
G02*
X7149000Y-7322500I0J250000D01*
G01*
X7149000Y-6647500D01*
G75*
G02*
X7399000Y-6397500I250000J0D01*
G01*
X8349000Y-6397500D01*
G75*
G02*
X8599000Y-6647500I0J-250000D01*
G01*
X8599000Y-7322500D01*
G75*
G02*
X8349000Y-7572500I-250000J0D01*
G01*
G37*
%TD*%
M02*
