%TF.GenerationSoftware,KiCad,Pcbnew,(5.1.9)-1*%
%TF.CreationDate,2021-08-28T05:23:55+03:00*%
%TF.ProjectId,LED_Center_001,4c45445f-4365-46e7-9465-725f3030312e,rev?*%
%TF.SameCoordinates,Original*%
%TF.FileFunction,Legend,Bot*%
%TF.FilePolarity,Positive*%
%FSLAX46Y46*%
G04 Gerber Fmt 4.6, Leading zero omitted, Abs format (unit mm)*
G04 Created by KiCad (PCBNEW (5.1.9)-1) date 2021-08-28 05:23:55*
%MOMM*%
%LPD*%
G01*
G04 APERTURE LIST*
%ADD10C,0.120000*%
%ADD11C,0.150000*%
G04 APERTURE END LIST*
D10*
X21300000Y-11150000D02*
X21300000Y-10350000D01*
X24350000Y-10750000D02*
X25100000Y-10750000D01*
X24700000Y-11150000D02*
X24700000Y-10400000D01*
X26500000Y-10500000D02*
X26500000Y-11150000D01*
X29950000Y-11200000D02*
X29950000Y-10450000D01*
X29550000Y-10800000D02*
X30300000Y-10800000D01*
X39500000Y-5200000D02*
X38700000Y-5200000D01*
X6000000Y-4700000D02*
X6000000Y-3900000D01*
X5550000Y-4300000D02*
X6400000Y-4300000D01*
%TO.C,C5*%
X33936000Y-7358748D02*
X33936000Y-7881252D01*
X35406000Y-7358748D02*
X35406000Y-7881252D01*
%TO.C,C6*%
X37946000Y-7358748D02*
X37946000Y-7881252D01*
X36476000Y-7358748D02*
X36476000Y-7881252D01*
%TO.C,C7*%
X39016000Y-7358748D02*
X39016000Y-7881252D01*
X40486000Y-7358748D02*
X40486000Y-7881252D01*
%TO.C,C8*%
X43026000Y-7358748D02*
X43026000Y-7881252D01*
X41556000Y-7358748D02*
X41556000Y-7881252D01*
%TO.C,J2*%
D11*
X41908333Y-5627380D02*
X41908333Y-6341666D01*
X41955952Y-6484523D01*
X42051190Y-6579761D01*
X42194047Y-6627380D01*
X42289285Y-6627380D01*
X41479761Y-5722619D02*
X41432142Y-5675000D01*
X41336904Y-5627380D01*
X41098809Y-5627380D01*
X41003571Y-5675000D01*
X40955952Y-5722619D01*
X40908333Y-5817857D01*
X40908333Y-5913095D01*
X40955952Y-6055952D01*
X41527380Y-6627380D01*
X40908333Y-6627380D01*
%TO.C,J6*%
X44783333Y-11820380D02*
X44783333Y-12534666D01*
X44830952Y-12677523D01*
X44926190Y-12772761D01*
X45069047Y-12820380D01*
X45164285Y-12820380D01*
X43878571Y-11820380D02*
X44069047Y-11820380D01*
X44164285Y-11868000D01*
X44211904Y-11915619D01*
X44307142Y-12058476D01*
X44354761Y-12248952D01*
X44354761Y-12629904D01*
X44307142Y-12725142D01*
X44259523Y-12772761D01*
X44164285Y-12820380D01*
X43973809Y-12820380D01*
X43878571Y-12772761D01*
X43830952Y-12725142D01*
X43783333Y-12629904D01*
X43783333Y-12391809D01*
X43830952Y-12296571D01*
X43878571Y-12248952D01*
X43973809Y-12201333D01*
X44164285Y-12201333D01*
X44259523Y-12248952D01*
X44307142Y-12296571D01*
X44354761Y-12391809D01*
%TO.C,J14*%
X4234523Y-5627380D02*
X4234523Y-6341666D01*
X4282142Y-6484523D01*
X4377380Y-6579761D01*
X4520238Y-6627380D01*
X4615476Y-6627380D01*
X3234523Y-6627380D02*
X3805952Y-6627380D01*
X3520238Y-6627380D02*
X3520238Y-5627380D01*
X3615476Y-5770238D01*
X3710714Y-5865476D01*
X3805952Y-5913095D01*
X2377380Y-5960714D02*
X2377380Y-6627380D01*
X2615476Y-5579761D02*
X2853571Y-6294047D01*
X2234523Y-6294047D01*
%TO.C,C5*%
X33348142Y-7453333D02*
X33395761Y-7405714D01*
X33443380Y-7262857D01*
X33443380Y-7167619D01*
X33395761Y-7024761D01*
X33300523Y-6929523D01*
X33205285Y-6881904D01*
X33014809Y-6834285D01*
X32871952Y-6834285D01*
X32681476Y-6881904D01*
X32586238Y-6929523D01*
X32491000Y-7024761D01*
X32443380Y-7167619D01*
X32443380Y-7262857D01*
X32491000Y-7405714D01*
X32538619Y-7453333D01*
X32443380Y-8358095D02*
X32443380Y-7881904D01*
X32919571Y-7834285D01*
X32871952Y-7881904D01*
X32824333Y-7977142D01*
X32824333Y-8215238D01*
X32871952Y-8310476D01*
X32919571Y-8358095D01*
X33014809Y-8405714D01*
X33252904Y-8405714D01*
X33348142Y-8358095D01*
X33395761Y-8310476D01*
X33443380Y-8215238D01*
X33443380Y-7977142D01*
X33395761Y-7881904D01*
X33348142Y-7834285D01*
%TO.C,C6*%
X35888142Y-7453333D02*
X35935761Y-7405714D01*
X35983380Y-7262857D01*
X35983380Y-7167619D01*
X35935761Y-7024761D01*
X35840523Y-6929523D01*
X35745285Y-6881904D01*
X35554809Y-6834285D01*
X35411952Y-6834285D01*
X35221476Y-6881904D01*
X35126238Y-6929523D01*
X35031000Y-7024761D01*
X34983380Y-7167619D01*
X34983380Y-7262857D01*
X35031000Y-7405714D01*
X35078619Y-7453333D01*
X34983380Y-8310476D02*
X34983380Y-8120000D01*
X35031000Y-8024761D01*
X35078619Y-7977142D01*
X35221476Y-7881904D01*
X35411952Y-7834285D01*
X35792904Y-7834285D01*
X35888142Y-7881904D01*
X35935761Y-7929523D01*
X35983380Y-8024761D01*
X35983380Y-8215238D01*
X35935761Y-8310476D01*
X35888142Y-8358095D01*
X35792904Y-8405714D01*
X35554809Y-8405714D01*
X35459571Y-8358095D01*
X35411952Y-8310476D01*
X35364333Y-8215238D01*
X35364333Y-8024761D01*
X35411952Y-7929523D01*
X35459571Y-7881904D01*
X35554809Y-7834285D01*
%TO.C,C7*%
X38428142Y-7453333D02*
X38475761Y-7405714D01*
X38523380Y-7262857D01*
X38523380Y-7167619D01*
X38475761Y-7024761D01*
X38380523Y-6929523D01*
X38285285Y-6881904D01*
X38094809Y-6834285D01*
X37951952Y-6834285D01*
X37761476Y-6881904D01*
X37666238Y-6929523D01*
X37571000Y-7024761D01*
X37523380Y-7167619D01*
X37523380Y-7262857D01*
X37571000Y-7405714D01*
X37618619Y-7453333D01*
X37523380Y-7786666D02*
X37523380Y-8453333D01*
X38523380Y-8024761D01*
%TO.C,C8*%
X40968142Y-7453333D02*
X41015761Y-7405714D01*
X41063380Y-7262857D01*
X41063380Y-7167619D01*
X41015761Y-7024761D01*
X40920523Y-6929523D01*
X40825285Y-6881904D01*
X40634809Y-6834285D01*
X40491952Y-6834285D01*
X40301476Y-6881904D01*
X40206238Y-6929523D01*
X40111000Y-7024761D01*
X40063380Y-7167619D01*
X40063380Y-7262857D01*
X40111000Y-7405714D01*
X40158619Y-7453333D01*
X40491952Y-8024761D02*
X40444333Y-7929523D01*
X40396714Y-7881904D01*
X40301476Y-7834285D01*
X40253857Y-7834285D01*
X40158619Y-7881904D01*
X40111000Y-7929523D01*
X40063380Y-8024761D01*
X40063380Y-8215238D01*
X40111000Y-8310476D01*
X40158619Y-8358095D01*
X40253857Y-8405714D01*
X40301476Y-8405714D01*
X40396714Y-8358095D01*
X40444333Y-8310476D01*
X40491952Y-8215238D01*
X40491952Y-8024761D01*
X40539571Y-7929523D01*
X40587190Y-7881904D01*
X40682428Y-7834285D01*
X40872904Y-7834285D01*
X40968142Y-7881904D01*
X41015761Y-7929523D01*
X41063380Y-8024761D01*
X41063380Y-8215238D01*
X41015761Y-8310476D01*
X40968142Y-8358095D01*
X40872904Y-8405714D01*
X40682428Y-8405714D01*
X40587190Y-8358095D01*
X40539571Y-8310476D01*
X40491952Y-8215238D01*
%TD*%
M02*
