%TF.GenerationSoftware,KiCad,Pcbnew,(5.1.9)-1*%
%TF.CreationDate,2021-08-28T05:23:55+03:00*%
%TF.ProjectId,LED_Center_001,4c45445f-4365-46e7-9465-725f3030312e,rev?*%
%TF.SameCoordinates,Original*%
%TF.FileFunction,Copper,L2,Bot*%
%TF.FilePolarity,Positive*%
%FSLAX46Y46*%
G04 Gerber Fmt 4.6, Leading zero omitted, Abs format (unit mm)*
G04 Created by KiCad (PCBNEW (5.1.9)-1) date 2021-08-28 05:23:55*
%MOMM*%
%LPD*%
G01*
G04 APERTURE LIST*
%TA.AperFunction,SMDPad,CuDef*%
%ADD10R,3.000000X1.500000*%
%TD*%
%TA.AperFunction,ComponentPad*%
%ADD11C,1.000000*%
%TD*%
%TA.AperFunction,ComponentPad*%
%ADD12C,1.400000*%
%TD*%
%TA.AperFunction,ViaPad*%
%ADD13C,0.800000*%
%TD*%
%TA.AperFunction,Conductor*%
%ADD14C,0.700000*%
%TD*%
%TA.AperFunction,Conductor*%
%ADD15C,0.400000*%
%TD*%
%TA.AperFunction,Conductor*%
%ADD16C,0.100000*%
%TD*%
G04 APERTURE END LIST*
D10*
%TO.P,J2,1*%
%TO.N,Net-(C1-Pad2)*%
X41575000Y-4475000D03*
%TD*%
D11*
%TO.P,J3,1*%
%TO.N,Net-(C1-Pad1)*%
X16500000Y-10775000D03*
%TD*%
%TO.P,J4,1*%
%TO.N,Net-(C10-Pad1)*%
X15000000Y-10775000D03*
%TD*%
D10*
%TO.P,J6,1*%
%TO.N,Net-(C5-Pad2)*%
X44450000Y-10668000D03*
%TD*%
D11*
%TO.P,J7,1*%
%TO.N,Net-(C5-Pad1)*%
X27305000Y-10795000D03*
%TD*%
%TO.P,J8,1*%
%TO.N,Net-(C5-Pad2)*%
X28702000Y-10795000D03*
%TD*%
D12*
%TO.P,J9,1*%
%TO.N,GND*%
X11055000Y-10500000D03*
%TD*%
%TO.P,J10,1*%
%TO.N,GND*%
X28955000Y-4500000D03*
%TD*%
%TO.P,J11,1*%
%TO.N,GND*%
X34955000Y-10500000D03*
%TD*%
%TO.P,J12,1*%
%TO.N,GND*%
X16962120Y-4500000D03*
%TD*%
D10*
%TO.P,J14,1*%
%TO.N,Net-(C1-Pad2)*%
X3425000Y-4475000D03*
%TD*%
D11*
%TO.P,J15,1*%
%TO.N,Net-(C5-Pad1)*%
X22255000Y-10800400D03*
%TD*%
%TO.P,J16,1*%
%TO.N,Net-(C5-Pad2)*%
X23655000Y-10800400D03*
%TD*%
%TO.P,C5,1*%
%TO.N,Net-(C5-Pad1)*%
%TA.AperFunction,SMDPad,CuDef*%
G36*
G01*
X34196000Y-5995000D02*
X35146000Y-5995000D01*
G75*
G02*
X35396000Y-6245000I0J-250000D01*
G01*
X35396000Y-6920000D01*
G75*
G02*
X35146000Y-7170000I-250000J0D01*
G01*
X34196000Y-7170000D01*
G75*
G02*
X33946000Y-6920000I0J250000D01*
G01*
X33946000Y-6245000D01*
G75*
G02*
X34196000Y-5995000I250000J0D01*
G01*
G37*
%TD.AperFunction*%
%TO.P,C5,2*%
%TO.N,Net-(C5-Pad2)*%
%TA.AperFunction,SMDPad,CuDef*%
G36*
G01*
X34196000Y-8070000D02*
X35146000Y-8070000D01*
G75*
G02*
X35396000Y-8320000I0J-250000D01*
G01*
X35396000Y-8995000D01*
G75*
G02*
X35146000Y-9245000I-250000J0D01*
G01*
X34196000Y-9245000D01*
G75*
G02*
X33946000Y-8995000I0J250000D01*
G01*
X33946000Y-8320000D01*
G75*
G02*
X34196000Y-8070000I250000J0D01*
G01*
G37*
%TD.AperFunction*%
%TD*%
%TO.P,C6,2*%
%TO.N,Net-(C5-Pad2)*%
%TA.AperFunction,SMDPad,CuDef*%
G36*
G01*
X36736000Y-8070000D02*
X37686000Y-8070000D01*
G75*
G02*
X37936000Y-8320000I0J-250000D01*
G01*
X37936000Y-8995000D01*
G75*
G02*
X37686000Y-9245000I-250000J0D01*
G01*
X36736000Y-9245000D01*
G75*
G02*
X36486000Y-8995000I0J250000D01*
G01*
X36486000Y-8320000D01*
G75*
G02*
X36736000Y-8070000I250000J0D01*
G01*
G37*
%TD.AperFunction*%
%TO.P,C6,1*%
%TO.N,Net-(C5-Pad1)*%
%TA.AperFunction,SMDPad,CuDef*%
G36*
G01*
X36736000Y-5995000D02*
X37686000Y-5995000D01*
G75*
G02*
X37936000Y-6245000I0J-250000D01*
G01*
X37936000Y-6920000D01*
G75*
G02*
X37686000Y-7170000I-250000J0D01*
G01*
X36736000Y-7170000D01*
G75*
G02*
X36486000Y-6920000I0J250000D01*
G01*
X36486000Y-6245000D01*
G75*
G02*
X36736000Y-5995000I250000J0D01*
G01*
G37*
%TD.AperFunction*%
%TD*%
%TO.P,C7,1*%
%TO.N,Net-(C5-Pad1)*%
%TA.AperFunction,SMDPad,CuDef*%
G36*
G01*
X39276000Y-5995000D02*
X40226000Y-5995000D01*
G75*
G02*
X40476000Y-6245000I0J-250000D01*
G01*
X40476000Y-6920000D01*
G75*
G02*
X40226000Y-7170000I-250000J0D01*
G01*
X39276000Y-7170000D01*
G75*
G02*
X39026000Y-6920000I0J250000D01*
G01*
X39026000Y-6245000D01*
G75*
G02*
X39276000Y-5995000I250000J0D01*
G01*
G37*
%TD.AperFunction*%
%TO.P,C7,2*%
%TO.N,Net-(C5-Pad2)*%
%TA.AperFunction,SMDPad,CuDef*%
G36*
G01*
X39276000Y-8070000D02*
X40226000Y-8070000D01*
G75*
G02*
X40476000Y-8320000I0J-250000D01*
G01*
X40476000Y-8995000D01*
G75*
G02*
X40226000Y-9245000I-250000J0D01*
G01*
X39276000Y-9245000D01*
G75*
G02*
X39026000Y-8995000I0J250000D01*
G01*
X39026000Y-8320000D01*
G75*
G02*
X39276000Y-8070000I250000J0D01*
G01*
G37*
%TD.AperFunction*%
%TD*%
%TO.P,C8,2*%
%TO.N,Net-(C5-Pad2)*%
%TA.AperFunction,SMDPad,CuDef*%
G36*
G01*
X41816000Y-8070000D02*
X42766000Y-8070000D01*
G75*
G02*
X43016000Y-8320000I0J-250000D01*
G01*
X43016000Y-8995000D01*
G75*
G02*
X42766000Y-9245000I-250000J0D01*
G01*
X41816000Y-9245000D01*
G75*
G02*
X41566000Y-8995000I0J250000D01*
G01*
X41566000Y-8320000D01*
G75*
G02*
X41816000Y-8070000I250000J0D01*
G01*
G37*
%TD.AperFunction*%
%TO.P,C8,1*%
%TO.N,Net-(C5-Pad1)*%
%TA.AperFunction,SMDPad,CuDef*%
G36*
G01*
X41816000Y-5995000D02*
X42766000Y-5995000D01*
G75*
G02*
X43016000Y-6245000I0J-250000D01*
G01*
X43016000Y-6920000D01*
G75*
G02*
X42766000Y-7170000I-250000J0D01*
G01*
X41816000Y-7170000D01*
G75*
G02*
X41566000Y-6920000I0J250000D01*
G01*
X41566000Y-6245000D01*
G75*
G02*
X41816000Y-5995000I250000J0D01*
G01*
G37*
%TD.AperFunction*%
%TD*%
D13*
%TO.N,Net-(C1-Pad2)*%
X22203500Y-6328500D03*
X6550000Y-5750000D03*
%TO.N,GND*%
X19400000Y-10650000D03*
%TO.N,Net-(C5-Pad1)*%
X32893000Y-7366000D03*
%TD*%
D14*
%TO.N,Net-(C1-Pad2)*%
X41575000Y-4475000D02*
X32736000Y-4475000D01*
X32736000Y-4475000D02*
X28829000Y-8382000D01*
X28829000Y-8382000D02*
X22225000Y-8382000D01*
X22203500Y-8360500D02*
X22225000Y-8382000D01*
X22203500Y-6328500D02*
X22203500Y-8360500D01*
X3425000Y-4475000D02*
X3425000Y-4568000D01*
X22182000Y-8382000D02*
X22203500Y-8360500D01*
X7239000Y-8382000D02*
X22182000Y-8382000D01*
X6550000Y-5750000D02*
X5578500Y-6721500D01*
X5578500Y-6721500D02*
X7239000Y-8382000D01*
X3425000Y-4568000D02*
X5578500Y-6721500D01*
%TO.N,Net-(C5-Pad2)*%
X32236500Y-8657500D02*
X34671000Y-8657500D01*
X34671000Y-8657500D02*
X37211000Y-8657500D01*
X37211000Y-8657500D02*
X39751000Y-8657500D01*
X39751000Y-8657500D02*
X42291000Y-8657500D01*
X42439500Y-8657500D02*
X44450000Y-10668000D01*
X42291000Y-8657500D02*
X42439500Y-8657500D01*
X28702000Y-10795000D02*
X28702000Y-10033000D01*
X32236500Y-8657500D02*
X32236500Y-8663500D01*
X32236500Y-8663500D02*
X31150000Y-9750000D01*
X27809001Y-9744999D02*
X23155001Y-9744999D01*
X27814002Y-9750000D02*
X27809001Y-9744999D01*
X31150000Y-9750000D02*
X27814002Y-9750000D01*
X23100000Y-9800000D02*
X23100000Y-10100000D01*
X23155001Y-9744999D02*
X23100000Y-9800000D01*
X23655000Y-10655000D02*
X23655000Y-10800400D01*
X23100000Y-10100000D02*
X23655000Y-10655000D01*
%TO.N,Net-(C5-Pad1)*%
X22225000Y-10745000D02*
X22255000Y-10775000D01*
X42291000Y-6582500D02*
X39751000Y-6582500D01*
X39751000Y-6582500D02*
X37211000Y-6582500D01*
X37211000Y-6582500D02*
X34671000Y-6582500D01*
X34671000Y-6582500D02*
X33676500Y-6582500D01*
X33676500Y-6582500D02*
X32893000Y-7366000D01*
%TD*%
D15*
%TO.N,GND*%
X1640789Y-5509211D02*
X1701697Y-5559197D01*
X1771186Y-5596340D01*
X1846586Y-5619212D01*
X1925000Y-5626935D01*
X3423276Y-5626935D01*
X5022128Y-7225788D01*
X5045605Y-7254395D01*
X5074212Y-7277872D01*
X5074216Y-7277876D01*
X5074221Y-7277880D01*
X6682626Y-8886286D01*
X6706105Y-8914895D01*
X6734714Y-8938374D01*
X6734716Y-8938376D01*
X6794109Y-8987119D01*
X6820307Y-9008619D01*
X6950599Y-9078261D01*
X7091974Y-9121147D01*
X7202165Y-9132000D01*
X7202172Y-9132000D01*
X7239000Y-9135627D01*
X7275828Y-9132000D01*
X22145173Y-9132000D01*
X22182000Y-9135627D01*
X22203500Y-9133510D01*
X22225000Y-9135627D01*
X22261828Y-9132000D01*
X22719712Y-9132000D01*
X22622106Y-9212104D01*
X22598622Y-9240719D01*
X22595720Y-9243621D01*
X22567105Y-9267105D01*
X22473381Y-9381308D01*
X22403739Y-9511600D01*
X22360853Y-9652975D01*
X22350000Y-9763166D01*
X22350000Y-9763173D01*
X22346373Y-9800000D01*
X22350000Y-9836827D01*
X22350000Y-9901665D01*
X22343642Y-9900400D01*
X22166358Y-9900400D01*
X21992480Y-9934986D01*
X21828690Y-10002830D01*
X21681283Y-10101324D01*
X21555924Y-10226683D01*
X21457430Y-10374090D01*
X21389586Y-10537880D01*
X21355000Y-10711758D01*
X21355000Y-10889042D01*
X21389586Y-11062920D01*
X21415425Y-11125300D01*
X17329054Y-11125300D01*
X17365414Y-11037520D01*
X17400000Y-10863642D01*
X17400000Y-10686358D01*
X17365414Y-10512480D01*
X17297570Y-10348690D01*
X17199076Y-10201283D01*
X17073717Y-10075924D01*
X16926310Y-9977430D01*
X16762520Y-9909586D01*
X16588642Y-9875000D01*
X16411358Y-9875000D01*
X16237480Y-9909586D01*
X16073690Y-9977430D01*
X15926283Y-10075924D01*
X15800924Y-10201283D01*
X15750000Y-10277496D01*
X15699076Y-10201283D01*
X15573717Y-10075924D01*
X15426310Y-9977430D01*
X15262520Y-9909586D01*
X15088642Y-9875000D01*
X14911358Y-9875000D01*
X14737480Y-9909586D01*
X14573690Y-9977430D01*
X14426283Y-10075924D01*
X14300924Y-10201283D01*
X14202430Y-10348690D01*
X14134586Y-10512480D01*
X14100000Y-10686358D01*
X14100000Y-10863642D01*
X14134586Y-11037520D01*
X14170946Y-11125300D01*
X13589Y-11125300D01*
X1628297Y-5493990D01*
X1640789Y-5509211D01*
%TA.AperFunction,Conductor*%
D16*
G36*
X1640789Y-5509211D02*
G01*
X1701697Y-5559197D01*
X1771186Y-5596340D01*
X1846586Y-5619212D01*
X1925000Y-5626935D01*
X3423276Y-5626935D01*
X5022128Y-7225788D01*
X5045605Y-7254395D01*
X5074212Y-7277872D01*
X5074216Y-7277876D01*
X5074221Y-7277880D01*
X6682626Y-8886286D01*
X6706105Y-8914895D01*
X6734714Y-8938374D01*
X6734716Y-8938376D01*
X6794109Y-8987119D01*
X6820307Y-9008619D01*
X6950599Y-9078261D01*
X7091974Y-9121147D01*
X7202165Y-9132000D01*
X7202172Y-9132000D01*
X7239000Y-9135627D01*
X7275828Y-9132000D01*
X22145173Y-9132000D01*
X22182000Y-9135627D01*
X22203500Y-9133510D01*
X22225000Y-9135627D01*
X22261828Y-9132000D01*
X22719712Y-9132000D01*
X22622106Y-9212104D01*
X22598622Y-9240719D01*
X22595720Y-9243621D01*
X22567105Y-9267105D01*
X22473381Y-9381308D01*
X22403739Y-9511600D01*
X22360853Y-9652975D01*
X22350000Y-9763166D01*
X22350000Y-9763173D01*
X22346373Y-9800000D01*
X22350000Y-9836827D01*
X22350000Y-9901665D01*
X22343642Y-9900400D01*
X22166358Y-9900400D01*
X21992480Y-9934986D01*
X21828690Y-10002830D01*
X21681283Y-10101324D01*
X21555924Y-10226683D01*
X21457430Y-10374090D01*
X21389586Y-10537880D01*
X21355000Y-10711758D01*
X21355000Y-10889042D01*
X21389586Y-11062920D01*
X21415425Y-11125300D01*
X17329054Y-11125300D01*
X17365414Y-11037520D01*
X17400000Y-10863642D01*
X17400000Y-10686358D01*
X17365414Y-10512480D01*
X17297570Y-10348690D01*
X17199076Y-10201283D01*
X17073717Y-10075924D01*
X16926310Y-9977430D01*
X16762520Y-9909586D01*
X16588642Y-9875000D01*
X16411358Y-9875000D01*
X16237480Y-9909586D01*
X16073690Y-9977430D01*
X15926283Y-10075924D01*
X15800924Y-10201283D01*
X15750000Y-10277496D01*
X15699076Y-10201283D01*
X15573717Y-10075924D01*
X15426310Y-9977430D01*
X15262520Y-9909586D01*
X15088642Y-9875000D01*
X14911358Y-9875000D01*
X14737480Y-9909586D01*
X14573690Y-9977430D01*
X14426283Y-10075924D01*
X14300924Y-10201283D01*
X14202430Y-10348690D01*
X14134586Y-10512480D01*
X14100000Y-10686358D01*
X14100000Y-10863642D01*
X14134586Y-11037520D01*
X14170946Y-11125300D01*
X13589Y-11125300D01*
X1628297Y-5493990D01*
X1640789Y-5509211D01*
G37*
%TD.AperFunction*%
D15*
X33735012Y-9455988D02*
X33833804Y-9537064D01*
X33946515Y-9597309D01*
X34068814Y-9634408D01*
X34196000Y-9646935D01*
X35146000Y-9646935D01*
X35273186Y-9634408D01*
X35395485Y-9597309D01*
X35508196Y-9537064D01*
X35606988Y-9455988D01*
X35646781Y-9407500D01*
X36235219Y-9407500D01*
X36275012Y-9455988D01*
X36373804Y-9537064D01*
X36486515Y-9597309D01*
X36608814Y-9634408D01*
X36736000Y-9646935D01*
X37686000Y-9646935D01*
X37813186Y-9634408D01*
X37935485Y-9597309D01*
X38048196Y-9537064D01*
X38146988Y-9455988D01*
X38186781Y-9407500D01*
X38775219Y-9407500D01*
X38815012Y-9455988D01*
X38913804Y-9537064D01*
X39026515Y-9597309D01*
X39148814Y-9634408D01*
X39276000Y-9646935D01*
X40226000Y-9646935D01*
X40353186Y-9634408D01*
X40475485Y-9597309D01*
X40588196Y-9537064D01*
X40686988Y-9455988D01*
X40726781Y-9407500D01*
X41315219Y-9407500D01*
X41355012Y-9455988D01*
X41453804Y-9537064D01*
X41566515Y-9597309D01*
X41688814Y-9634408D01*
X41816000Y-9646935D01*
X42368276Y-9646935D01*
X42556984Y-9835644D01*
X42555788Y-9839586D01*
X42548065Y-9918000D01*
X42548065Y-11125300D01*
X29539339Y-11125300D01*
X29567414Y-11057520D01*
X29602000Y-10883642D01*
X29602000Y-10706358D01*
X29567414Y-10532480D01*
X29553960Y-10500000D01*
X31113173Y-10500000D01*
X31150000Y-10503627D01*
X31186827Y-10500000D01*
X31186835Y-10500000D01*
X31297026Y-10489147D01*
X31438401Y-10446261D01*
X31568693Y-10376619D01*
X31682895Y-10282895D01*
X31706378Y-10254281D01*
X32553160Y-9407500D01*
X33695219Y-9407500D01*
X33735012Y-9455988D01*
%TA.AperFunction,Conductor*%
D16*
G36*
X33735012Y-9455988D02*
G01*
X33833804Y-9537064D01*
X33946515Y-9597309D01*
X34068814Y-9634408D01*
X34196000Y-9646935D01*
X35146000Y-9646935D01*
X35273186Y-9634408D01*
X35395485Y-9597309D01*
X35508196Y-9537064D01*
X35606988Y-9455988D01*
X35646781Y-9407500D01*
X36235219Y-9407500D01*
X36275012Y-9455988D01*
X36373804Y-9537064D01*
X36486515Y-9597309D01*
X36608814Y-9634408D01*
X36736000Y-9646935D01*
X37686000Y-9646935D01*
X37813186Y-9634408D01*
X37935485Y-9597309D01*
X38048196Y-9537064D01*
X38146988Y-9455988D01*
X38186781Y-9407500D01*
X38775219Y-9407500D01*
X38815012Y-9455988D01*
X38913804Y-9537064D01*
X39026515Y-9597309D01*
X39148814Y-9634408D01*
X39276000Y-9646935D01*
X40226000Y-9646935D01*
X40353186Y-9634408D01*
X40475485Y-9597309D01*
X40588196Y-9537064D01*
X40686988Y-9455988D01*
X40726781Y-9407500D01*
X41315219Y-9407500D01*
X41355012Y-9455988D01*
X41453804Y-9537064D01*
X41566515Y-9597309D01*
X41688814Y-9634408D01*
X41816000Y-9646935D01*
X42368276Y-9646935D01*
X42556984Y-9835644D01*
X42555788Y-9839586D01*
X42548065Y-9918000D01*
X42548065Y-11125300D01*
X29539339Y-11125300D01*
X29567414Y-11057520D01*
X29602000Y-10883642D01*
X29602000Y-10706358D01*
X29567414Y-10532480D01*
X29553960Y-10500000D01*
X31113173Y-10500000D01*
X31150000Y-10503627D01*
X31186827Y-10500000D01*
X31186835Y-10500000D01*
X31297026Y-10489147D01*
X31438401Y-10446261D01*
X31568693Y-10376619D01*
X31682895Y-10282895D01*
X31706378Y-10254281D01*
X32553160Y-9407500D01*
X33695219Y-9407500D01*
X33735012Y-9455988D01*
G37*
%TD.AperFunction*%
D15*
X28518341Y-7632000D02*
X22953500Y-7632000D01*
X22953500Y-6608341D01*
X22972757Y-6561851D01*
X23003500Y-6407293D01*
X23003500Y-6249707D01*
X22972757Y-6095149D01*
X22912451Y-5949558D01*
X22824901Y-5818530D01*
X22713470Y-5707099D01*
X22582442Y-5619549D01*
X22436851Y-5559243D01*
X22282293Y-5528500D01*
X22124707Y-5528500D01*
X21970149Y-5559243D01*
X21824558Y-5619549D01*
X21693530Y-5707099D01*
X21582099Y-5818530D01*
X21494549Y-5949558D01*
X21434243Y-6095149D01*
X21403500Y-6249707D01*
X21403500Y-6407293D01*
X21434243Y-6561851D01*
X21453500Y-6608342D01*
X21453501Y-7632000D01*
X7549660Y-7632000D01*
X6639160Y-6721500D01*
X6882453Y-6478207D01*
X6928942Y-6458951D01*
X7059970Y-6371401D01*
X7171401Y-6259970D01*
X7258951Y-6128942D01*
X7319257Y-5983351D01*
X7350000Y-5828793D01*
X7350000Y-5671207D01*
X7319257Y-5516649D01*
X7258951Y-5371058D01*
X7171401Y-5240030D01*
X7059970Y-5128599D01*
X6928942Y-5041049D01*
X6783351Y-4980743D01*
X6628793Y-4950000D01*
X6471207Y-4950000D01*
X6316649Y-4980743D01*
X6171058Y-5041049D01*
X6040030Y-5128599D01*
X5928599Y-5240030D01*
X5841049Y-5371058D01*
X5821793Y-5417547D01*
X5578500Y-5660840D01*
X5296371Y-5378711D01*
X5319212Y-5303414D01*
X5326935Y-5225000D01*
X5326935Y-3975300D01*
X32175039Y-3975300D01*
X28518341Y-7632000D01*
%TA.AperFunction,Conductor*%
D16*
G36*
X28518341Y-7632000D02*
G01*
X22953500Y-7632000D01*
X22953500Y-6608341D01*
X22972757Y-6561851D01*
X23003500Y-6407293D01*
X23003500Y-6249707D01*
X22972757Y-6095149D01*
X22912451Y-5949558D01*
X22824901Y-5818530D01*
X22713470Y-5707099D01*
X22582442Y-5619549D01*
X22436851Y-5559243D01*
X22282293Y-5528500D01*
X22124707Y-5528500D01*
X21970149Y-5559243D01*
X21824558Y-5619549D01*
X21693530Y-5707099D01*
X21582099Y-5818530D01*
X21494549Y-5949558D01*
X21434243Y-6095149D01*
X21403500Y-6249707D01*
X21403500Y-6407293D01*
X21434243Y-6561851D01*
X21453500Y-6608342D01*
X21453501Y-7632000D01*
X7549660Y-7632000D01*
X6639160Y-6721500D01*
X6882453Y-6478207D01*
X6928942Y-6458951D01*
X7059970Y-6371401D01*
X7171401Y-6259970D01*
X7258951Y-6128942D01*
X7319257Y-5983351D01*
X7350000Y-5828793D01*
X7350000Y-5671207D01*
X7319257Y-5516649D01*
X7258951Y-5371058D01*
X7171401Y-5240030D01*
X7059970Y-5128599D01*
X6928942Y-5041049D01*
X6783351Y-4980743D01*
X6628793Y-4950000D01*
X6471207Y-4950000D01*
X6316649Y-4980743D01*
X6171058Y-5041049D01*
X6040030Y-5128599D01*
X5928599Y-5240030D01*
X5841049Y-5371058D01*
X5821793Y-5417547D01*
X5578500Y-5660840D01*
X5296371Y-5378711D01*
X5319212Y-5303414D01*
X5326935Y-5225000D01*
X5326935Y-3975300D01*
X32175039Y-3975300D01*
X28518341Y-7632000D01*
G37*
%TD.AperFunction*%
%TD*%
M02*
