G04 #@! TF.GenerationSoftware,KiCad,Pcbnew,(5.1.9)-1*
G04 #@! TF.CreationDate,2021-08-28T05:16:06+03:00*
G04 #@! TF.ProjectId,BANO3,42414e4f-332e-46b6-9963-61645f706362,0000*
G04 #@! TF.SameCoordinates,Original*
G04 #@! TF.FileFunction,Paste,Top*
G04 #@! TF.FilePolarity,Positive*
%FSLAX46Y46*%
G04 Gerber Fmt 4.6, Leading zero omitted, Abs format (unit mm)*
G04 Created by KiCad (PCBNEW (5.1.9)-1) date 2021-08-28 05:16:06*
%MOMM*%
%LPD*%
G01*
G04 APERTURE LIST*
%ADD10C,0.100000*%
%ADD11R,0.449999X1.100000*%
%ADD12R,0.349999X0.650001*%
%ADD13C,0.244109*%
%ADD14R,0.650001X0.249999*%
%ADD15C,1.200000*%
G04 APERTURE END LIST*
D10*
G36*
X1020006969Y-999230244D02*
G01*
X1020056967Y-999180244D01*
X1020381967Y-999180244D01*
X1020431967Y-999130245D01*
X1020431970Y-998805246D01*
X1020481967Y-998755244D01*
X1020631969Y-998755244D01*
X1020681969Y-998805244D01*
X1020681969Y-999380244D01*
X1020631969Y-999430244D01*
X1020056969Y-999430244D01*
X1020006969Y-999380257D01*
X1020006969Y-999230244D01*
G37*
X1020006969Y-999230244D02*
X1020056967Y-999180244D01*
X1020381967Y-999180244D01*
X1020431967Y-999130245D01*
X1020431970Y-998805246D01*
X1020481967Y-998755244D01*
X1020631969Y-998755244D01*
X1020681969Y-998805244D01*
X1020681969Y-999380244D01*
X1020631969Y-999430244D01*
X1020056969Y-999430244D01*
X1020006969Y-999380257D01*
X1020006969Y-999230244D01*
G36*
X1022407000Y-1001530235D02*
G01*
X1022406998Y-1001680234D01*
X1022357000Y-1001730234D01*
X1022032000Y-1001730234D01*
X1021982000Y-1001780234D01*
X1021982000Y-1002105235D01*
X1021932000Y-1002155235D01*
X1021782000Y-1002155235D01*
X1021732000Y-1002105235D01*
X1021732000Y-1001530235D01*
X1021782000Y-1001480235D01*
X1022357000Y-1001480235D01*
X1022407000Y-1001530225D01*
X1022407000Y-1001530235D01*
G37*
X1022407000Y-1001530235D02*
X1022406998Y-1001680234D01*
X1022357000Y-1001730234D01*
X1022032000Y-1001730234D01*
X1021982000Y-1001780234D01*
X1021982000Y-1002105235D01*
X1021932000Y-1002155235D01*
X1021782000Y-1002155235D01*
X1021732000Y-1002105235D01*
X1021732000Y-1001530235D01*
X1021782000Y-1001480235D01*
X1022357000Y-1001480235D01*
X1022407000Y-1001530225D01*
X1022407000Y-1001530235D01*
G36*
X1020632002Y-1002155232D02*
G01*
X1020482003Y-1002155230D01*
X1020432003Y-1002105232D01*
X1020432003Y-1001780232D01*
X1020382003Y-1001730232D01*
X1020057002Y-1001730232D01*
X1020007002Y-1001680232D01*
X1020007002Y-1001530232D01*
X1020057002Y-1001480232D01*
X1020632002Y-1001480232D01*
X1020682002Y-1001530232D01*
X1020682002Y-1002105232D01*
X1020632013Y-1002155232D01*
X1020632002Y-1002155232D01*
G37*
X1020632002Y-1002155232D02*
X1020482003Y-1002155230D01*
X1020432003Y-1002105232D01*
X1020432003Y-1001780232D01*
X1020382003Y-1001730232D01*
X1020057002Y-1001730232D01*
X1020007002Y-1001680232D01*
X1020007002Y-1001530232D01*
X1020057002Y-1001480232D01*
X1020632002Y-1001480232D01*
X1020682002Y-1001530232D01*
X1020682002Y-1002105232D01*
X1020632013Y-1002155232D01*
X1020632002Y-1002155232D01*
G36*
X1021782000Y-998755168D02*
G01*
X1021931997Y-998755170D01*
X1021982000Y-998805168D01*
X1021982000Y-999130168D01*
X1022032000Y-999180168D01*
X1022356998Y-999180168D01*
X1022407000Y-999230168D01*
X1022406998Y-999380168D01*
X1022357000Y-999430168D01*
X1021782000Y-999430168D01*
X1021732000Y-999380168D01*
X1021731998Y-998805168D01*
X1021781990Y-998755168D01*
X1021782000Y-998755168D01*
G37*
X1021782000Y-998755168D02*
X1021931997Y-998755170D01*
X1021982000Y-998805168D01*
X1021982000Y-999130168D01*
X1022032000Y-999180168D01*
X1022356998Y-999180168D01*
X1022407000Y-999230168D01*
X1022406998Y-999380168D01*
X1022357000Y-999430168D01*
X1021782000Y-999430168D01*
X1021732000Y-999380168D01*
X1021731998Y-998805168D01*
X1021781990Y-998755168D01*
X1021782000Y-998755168D01*
G36*
G01*
X1020896400Y-1003519700D02*
X1020896400Y-1003994700D01*
G75*
G02*
X1020658900Y-1004232200I-237500J0D01*
G01*
X1020083900Y-1004232200D01*
G75*
G02*
X1019846400Y-1003994700I0J237500D01*
G01*
X1019846400Y-1003519700D01*
G75*
G02*
X1020083900Y-1003282200I237500J0D01*
G01*
X1020658900Y-1003282200D01*
G75*
G02*
X1020896400Y-1003519700I0J-237500D01*
G01*
G37*
G36*
G01*
X1022646400Y-1003519700D02*
X1022646400Y-1003994700D01*
G75*
G02*
X1022408900Y-1004232200I-237500J0D01*
G01*
X1021833900Y-1004232200D01*
G75*
G02*
X1021596400Y-1003994700I0J237500D01*
G01*
X1021596400Y-1003519700D01*
G75*
G02*
X1021833900Y-1003282200I237500J0D01*
G01*
X1022408900Y-1003282200D01*
G75*
G02*
X1022646400Y-1003519700I0J-237500D01*
G01*
G37*
G36*
G01*
X1026279801Y-999691400D02*
X1025379799Y-999691400D01*
G75*
G02*
X1025129800Y-999441401I0J249999D01*
G01*
X1025129800Y-998791399D01*
G75*
G02*
X1025379799Y-998541400I249999J0D01*
G01*
X1026279801Y-998541400D01*
G75*
G02*
X1026529800Y-998791399I0J-249999D01*
G01*
X1026529800Y-999441401D01*
G75*
G02*
X1026279801Y-999691400I-249999J0D01*
G01*
G37*
G36*
G01*
X1026279801Y-1001741400D02*
X1025379799Y-1001741400D01*
G75*
G02*
X1025129800Y-1001491401I0J249999D01*
G01*
X1025129800Y-1000841399D01*
G75*
G02*
X1025379799Y-1000591400I249999J0D01*
G01*
X1026279801Y-1000591400D01*
G75*
G02*
X1026529800Y-1000841399I0J-249999D01*
G01*
X1026529800Y-1001491401D01*
G75*
G02*
X1026279801Y-1001741400I-249999J0D01*
G01*
G37*
G36*
G01*
X1025328999Y-996697800D02*
X1026229001Y-996697800D01*
G75*
G02*
X1026479000Y-996947799I0J-249999D01*
G01*
X1026479000Y-997597801D01*
G75*
G02*
X1026229001Y-997847800I-249999J0D01*
G01*
X1025328999Y-997847800D01*
G75*
G02*
X1025079000Y-997597801I0J249999D01*
G01*
X1025079000Y-996947799D01*
G75*
G02*
X1025328999Y-996697800I249999J0D01*
G01*
G37*
G36*
G01*
X1025328999Y-994647800D02*
X1026229001Y-994647800D01*
G75*
G02*
X1026479000Y-994897799I0J-249999D01*
G01*
X1026479000Y-995547801D01*
G75*
G02*
X1026229001Y-995797800I-249999J0D01*
G01*
X1025328999Y-995797800D01*
G75*
G02*
X1025079000Y-995547801I0J249999D01*
G01*
X1025079000Y-994897799D01*
G75*
G02*
X1025328999Y-994647800I249999J0D01*
G01*
G37*
G36*
G01*
X1018369399Y-995765400D02*
X1019269401Y-995765400D01*
G75*
G02*
X1019519400Y-996015399I0J-249999D01*
G01*
X1019519400Y-996665401D01*
G75*
G02*
X1019269401Y-996915400I-249999J0D01*
G01*
X1018369399Y-996915400D01*
G75*
G02*
X1018119400Y-996665401I0J249999D01*
G01*
X1018119400Y-996015399D01*
G75*
G02*
X1018369399Y-995765400I249999J0D01*
G01*
G37*
G36*
G01*
X1018369399Y-993715400D02*
X1019269401Y-993715400D01*
G75*
G02*
X1019519400Y-993965399I0J-249999D01*
G01*
X1019519400Y-994615401D01*
G75*
G02*
X1019269401Y-994865400I-249999J0D01*
G01*
X1018369399Y-994865400D01*
G75*
G02*
X1018119400Y-994615401I0J249999D01*
G01*
X1018119400Y-993965399D01*
G75*
G02*
X1018369399Y-993715400I249999J0D01*
G01*
G37*
D11*
X1021207000Y-1000655200D03*
D12*
X1021207000Y-999080199D03*
D13*
X1021900748Y-999261418D03*
D14*
X1022082000Y-999955201D03*
X1022082000Y-1000455200D03*
X1022082000Y-1000955199D03*
D13*
X1021900750Y-1001648985D03*
D12*
X1021207000Y-1001830201D03*
D13*
X1020513252Y-1001648982D03*
D14*
X1020332000Y-1000955199D03*
X1020332000Y-1000455200D03*
X1020332000Y-999955201D03*
D13*
X1020513219Y-999261494D03*
G36*
G01*
X1024263900Y-999992200D02*
X1023788900Y-999992200D01*
G75*
G02*
X1023551400Y-999754700I0J237500D01*
G01*
X1023551400Y-999179700D01*
G75*
G02*
X1023788900Y-998942200I237500J0D01*
G01*
X1024263900Y-998942200D01*
G75*
G02*
X1024501400Y-999179700I0J-237500D01*
G01*
X1024501400Y-999754700D01*
G75*
G02*
X1024263900Y-999992200I-237500J0D01*
G01*
G37*
G36*
G01*
X1024263900Y-1001742200D02*
X1023788900Y-1001742200D01*
G75*
G02*
X1023551400Y-1001504700I0J237500D01*
G01*
X1023551400Y-1000929700D01*
G75*
G02*
X1023788900Y-1000692200I237500J0D01*
G01*
X1024263900Y-1000692200D01*
G75*
G02*
X1024501400Y-1000929700I0J-237500D01*
G01*
X1024501400Y-1001504700D01*
G75*
G02*
X1024263900Y-1001742200I-237500J0D01*
G01*
G37*
G36*
G01*
X1023681800Y-1003435900D02*
X1023681800Y-1002960900D01*
G75*
G02*
X1023919300Y-1002723400I237500J0D01*
G01*
X1024494300Y-1002723400D01*
G75*
G02*
X1024731800Y-1002960900I0J-237500D01*
G01*
X1024731800Y-1003435900D01*
G75*
G02*
X1024494300Y-1003673400I-237500J0D01*
G01*
X1023919300Y-1003673400D01*
G75*
G02*
X1023681800Y-1003435900I0J237500D01*
G01*
G37*
G36*
G01*
X1025431800Y-1003435900D02*
X1025431800Y-1002960900D01*
G75*
G02*
X1025669300Y-1002723400I237500J0D01*
G01*
X1026244300Y-1002723400D01*
G75*
G02*
X1026481800Y-1002960900I0J-237500D01*
G01*
X1026481800Y-1003435900D01*
G75*
G02*
X1026244300Y-1003673400I-237500J0D01*
G01*
X1025669300Y-1003673400D01*
G75*
G02*
X1025431800Y-1003435900I0J237500D01*
G01*
G37*
G36*
G01*
X1018454900Y-1001251000D02*
X1018929900Y-1001251000D01*
G75*
G02*
X1019167400Y-1001488500I0J-237500D01*
G01*
X1019167400Y-1002063500D01*
G75*
G02*
X1018929900Y-1002301000I-237500J0D01*
G01*
X1018454900Y-1002301000D01*
G75*
G02*
X1018217400Y-1002063500I0J237500D01*
G01*
X1018217400Y-1001488500D01*
G75*
G02*
X1018454900Y-1001251000I237500J0D01*
G01*
G37*
G36*
G01*
X1018454900Y-1003001000D02*
X1018929900Y-1003001000D01*
G75*
G02*
X1019167400Y-1003238500I0J-237500D01*
G01*
X1019167400Y-1003813500D01*
G75*
G02*
X1018929900Y-1004051000I-237500J0D01*
G01*
X1018454900Y-1004051000D01*
G75*
G02*
X1018217400Y-1003813500I0J237500D01*
G01*
X1018217400Y-1003238500D01*
G75*
G02*
X1018454900Y-1003001000I237500J0D01*
G01*
G37*
G36*
G01*
X1022595600Y-1005145300D02*
X1022595600Y-1005620300D01*
G75*
G02*
X1022358100Y-1005857800I-237500J0D01*
G01*
X1021783100Y-1005857800D01*
G75*
G02*
X1021545600Y-1005620300I0J237500D01*
G01*
X1021545600Y-1005145300D01*
G75*
G02*
X1021783100Y-1004907800I237500J0D01*
G01*
X1022358100Y-1004907800D01*
G75*
G02*
X1022595600Y-1005145300I0J-237500D01*
G01*
G37*
G36*
G01*
X1024345600Y-1005145300D02*
X1024345600Y-1005620300D01*
G75*
G02*
X1024108100Y-1005857800I-237500J0D01*
G01*
X1023533100Y-1005857800D01*
G75*
G02*
X1023295600Y-1005620300I0J237500D01*
G01*
X1023295600Y-1005145300D01*
G75*
G02*
X1023533100Y-1004907800I237500J0D01*
G01*
X1024108100Y-1004907800D01*
G75*
G02*
X1024345600Y-1005145300I0J-237500D01*
G01*
G37*
G36*
G01*
X1020916600Y-1005119900D02*
X1020916600Y-1005594900D01*
G75*
G02*
X1020679100Y-1005832400I-237500J0D01*
G01*
X1020104100Y-1005832400D01*
G75*
G02*
X1019866600Y-1005594900I0J237500D01*
G01*
X1019866600Y-1005119900D01*
G75*
G02*
X1020104100Y-1004882400I237500J0D01*
G01*
X1020679100Y-1004882400D01*
G75*
G02*
X1020916600Y-1005119900I0J-237500D01*
G01*
G37*
G36*
G01*
X1019166600Y-1005119900D02*
X1019166600Y-1005594900D01*
G75*
G02*
X1018929100Y-1005832400I-237500J0D01*
G01*
X1018354100Y-1005832400D01*
G75*
G02*
X1018116600Y-1005594900I0J237500D01*
G01*
X1018116600Y-1005119900D01*
G75*
G02*
X1018354100Y-1004882400I237500J0D01*
G01*
X1018929100Y-1004882400D01*
G75*
G02*
X1019166600Y-1005119900I0J-237500D01*
G01*
G37*
G36*
G01*
X1023374200Y-998094300D02*
X1021224200Y-998094300D01*
G75*
G02*
X1020974200Y-997844300I0J250000D01*
G01*
X1020974200Y-996919300D01*
G75*
G02*
X1021224200Y-996669300I250000J0D01*
G01*
X1023374200Y-996669300D01*
G75*
G02*
X1023624200Y-996919300I0J-250000D01*
G01*
X1023624200Y-997844300D01*
G75*
G02*
X1023374200Y-998094300I-250000J0D01*
G01*
G37*
G36*
G01*
X1023374200Y-995119300D02*
X1021224200Y-995119300D01*
G75*
G02*
X1020974200Y-994869300I0J250000D01*
G01*
X1020974200Y-993944300D01*
G75*
G02*
X1021224200Y-993694300I250000J0D01*
G01*
X1023374200Y-993694300D01*
G75*
G02*
X1023624200Y-993944300I0J-250000D01*
G01*
X1023624200Y-994869300D01*
G75*
G02*
X1023374200Y-995119300I-250000J0D01*
G01*
G37*
D15*
X1035278600Y-1002969800D03*
X1046175200Y-1005001800D03*
X1033603800Y-1004944400D03*
G36*
G01*
X1018369399Y-997432800D02*
X1019269401Y-997432800D01*
G75*
G02*
X1019519400Y-997682799I0J-249999D01*
G01*
X1019519400Y-998332801D01*
G75*
G02*
X1019269401Y-998582800I-249999J0D01*
G01*
X1018369399Y-998582800D01*
G75*
G02*
X1018119400Y-998332801I0J249999D01*
G01*
X1018119400Y-997682799D01*
G75*
G02*
X1018369399Y-997432800I249999J0D01*
G01*
G37*
G36*
G01*
X1018368950Y-999482800D02*
X1019269850Y-999482800D01*
G75*
G02*
X1019519400Y-999732350I0J-249550D01*
G01*
X1019519400Y-1000383250D01*
G75*
G02*
X1019269850Y-1000632800I-249550J0D01*
G01*
X1018368950Y-1000632800D01*
G75*
G02*
X1018119400Y-1000383250I0J249550D01*
G01*
X1018119400Y-999732350D01*
G75*
G02*
X1018368950Y-999482800I249550J0D01*
G01*
G37*
M02*
