G04 #@! TF.GenerationSoftware,KiCad,Pcbnew,(5.1.9)-1*
G04 #@! TF.CreationDate,2021-08-28T05:16:06+03:00*
G04 #@! TF.ProjectId,BANO3,42414e4f-332e-46b6-9963-61645f706362,0000*
G04 #@! TF.SameCoordinates,Original*
G04 #@! TF.FileFunction,Copper,L1,Top*
G04 #@! TF.FilePolarity,Positive*
%FSLAX46Y46*%
G04 Gerber Fmt 4.6, Leading zero omitted, Abs format (unit mm)*
G04 Created by KiCad (PCBNEW (5.1.9)-1) date 2021-08-28 05:16:06*
%MOMM*%
%LPD*%
G01*
G04 APERTURE LIST*
G04 #@! TA.AperFunction,EtchedComponent*
%ADD10C,0.100000*%
G04 #@! TD*
G04 #@! TA.AperFunction,ComponentPad*
%ADD11C,1.000000*%
G04 #@! TD*
G04 #@! TA.AperFunction,SMDPad,CuDef*
%ADD12R,0.449999X1.100000*%
G04 #@! TD*
G04 #@! TA.AperFunction,SMDPad,CuDef*
%ADD13R,0.349999X0.650001*%
G04 #@! TD*
G04 #@! TA.AperFunction,SMDPad,CuDef*
%ADD14C,0.244109*%
G04 #@! TD*
G04 #@! TA.AperFunction,SMDPad,CuDef*
%ADD15R,0.650001X0.249999*%
G04 #@! TD*
G04 #@! TA.AperFunction,SMDPad,CuDef*
%ADD16C,1.200000*%
G04 #@! TD*
G04 #@! TA.AperFunction,ComponentPad*
%ADD17C,2.500000*%
G04 #@! TD*
G04 #@! TA.AperFunction,Conductor*
%ADD18C,1.000000*%
G04 #@! TD*
G04 #@! TA.AperFunction,Conductor*
%ADD19C,0.300000*%
G04 #@! TD*
G04 #@! TA.AperFunction,Conductor*
%ADD20C,0.400000*%
G04 #@! TD*
G04 #@! TA.AperFunction,Conductor*
%ADD21C,0.700000*%
G04 #@! TD*
G04 #@! TA.AperFunction,Conductor*
%ADD22C,0.200000*%
G04 #@! TD*
G04 #@! TA.AperFunction,Conductor*
%ADD23C,0.250000*%
G04 #@! TD*
G04 #@! TA.AperFunction,Conductor*
%ADD24C,0.100000*%
G04 #@! TD*
G04 APERTURE END LIST*
D10*
G36*
X1020006969Y-999230244D02*
G01*
X1020056967Y-999180244D01*
X1020381967Y-999180244D01*
X1020431967Y-999130245D01*
X1020431970Y-998805246D01*
X1020481967Y-998755244D01*
X1020631969Y-998755244D01*
X1020681969Y-998805244D01*
X1020681969Y-999380244D01*
X1020631969Y-999430244D01*
X1020056969Y-999430244D01*
X1020006969Y-999380257D01*
X1020006969Y-999230244D01*
G37*
X1020006969Y-999230244D02*
X1020056967Y-999180244D01*
X1020381967Y-999180244D01*
X1020431967Y-999130245D01*
X1020431970Y-998805246D01*
X1020481967Y-998755244D01*
X1020631969Y-998755244D01*
X1020681969Y-998805244D01*
X1020681969Y-999380244D01*
X1020631969Y-999430244D01*
X1020056969Y-999430244D01*
X1020006969Y-999380257D01*
X1020006969Y-999230244D01*
G36*
X1022407000Y-1001530235D02*
G01*
X1022406998Y-1001680234D01*
X1022357000Y-1001730234D01*
X1022032000Y-1001730234D01*
X1021982000Y-1001780234D01*
X1021982000Y-1002105235D01*
X1021932000Y-1002155235D01*
X1021782000Y-1002155235D01*
X1021732000Y-1002105235D01*
X1021732000Y-1001530235D01*
X1021782000Y-1001480235D01*
X1022357000Y-1001480235D01*
X1022407000Y-1001530225D01*
X1022407000Y-1001530235D01*
G37*
X1022407000Y-1001530235D02*
X1022406998Y-1001680234D01*
X1022357000Y-1001730234D01*
X1022032000Y-1001730234D01*
X1021982000Y-1001780234D01*
X1021982000Y-1002105235D01*
X1021932000Y-1002155235D01*
X1021782000Y-1002155235D01*
X1021732000Y-1002105235D01*
X1021732000Y-1001530235D01*
X1021782000Y-1001480235D01*
X1022357000Y-1001480235D01*
X1022407000Y-1001530225D01*
X1022407000Y-1001530235D01*
G36*
X1020632002Y-1002155232D02*
G01*
X1020482003Y-1002155230D01*
X1020432003Y-1002105232D01*
X1020432003Y-1001780232D01*
X1020382003Y-1001730232D01*
X1020057002Y-1001730232D01*
X1020007002Y-1001680232D01*
X1020007002Y-1001530232D01*
X1020057002Y-1001480232D01*
X1020632002Y-1001480232D01*
X1020682002Y-1001530232D01*
X1020682002Y-1002105232D01*
X1020632013Y-1002155232D01*
X1020632002Y-1002155232D01*
G37*
X1020632002Y-1002155232D02*
X1020482003Y-1002155230D01*
X1020432003Y-1002105232D01*
X1020432003Y-1001780232D01*
X1020382003Y-1001730232D01*
X1020057002Y-1001730232D01*
X1020007002Y-1001680232D01*
X1020007002Y-1001530232D01*
X1020057002Y-1001480232D01*
X1020632002Y-1001480232D01*
X1020682002Y-1001530232D01*
X1020682002Y-1002105232D01*
X1020632013Y-1002155232D01*
X1020632002Y-1002155232D01*
G36*
X1021782000Y-998755168D02*
G01*
X1021931997Y-998755170D01*
X1021982000Y-998805168D01*
X1021982000Y-999130168D01*
X1022032000Y-999180168D01*
X1022356998Y-999180168D01*
X1022407000Y-999230168D01*
X1022406998Y-999380168D01*
X1022357000Y-999430168D01*
X1021782000Y-999430168D01*
X1021732000Y-999380168D01*
X1021731998Y-998805168D01*
X1021781990Y-998755168D01*
X1021782000Y-998755168D01*
G37*
X1021782000Y-998755168D02*
X1021931997Y-998755170D01*
X1021982000Y-998805168D01*
X1021982000Y-999130168D01*
X1022032000Y-999180168D01*
X1022356998Y-999180168D01*
X1022407000Y-999230168D01*
X1022406998Y-999380168D01*
X1022357000Y-999430168D01*
X1021782000Y-999430168D01*
X1021732000Y-999380168D01*
X1021731998Y-998805168D01*
X1021781990Y-998755168D01*
X1021782000Y-998755168D01*
D11*
X1051610800Y-1000556800D03*
G04 #@! TA.AperFunction,SMDPad,CuDef*
G36*
G01*
X1020896400Y-1003519700D02*
X1020896400Y-1003994700D01*
G75*
G02*
X1020658900Y-1004232200I-237500J0D01*
G01*
X1020083900Y-1004232200D01*
G75*
G02*
X1019846400Y-1003994700I0J237500D01*
G01*
X1019846400Y-1003519700D01*
G75*
G02*
X1020083900Y-1003282200I237500J0D01*
G01*
X1020658900Y-1003282200D01*
G75*
G02*
X1020896400Y-1003519700I0J-237500D01*
G01*
G37*
G04 #@! TD.AperFunction*
G04 #@! TA.AperFunction,SMDPad,CuDef*
G36*
G01*
X1022646400Y-1003519700D02*
X1022646400Y-1003994700D01*
G75*
G02*
X1022408900Y-1004232200I-237500J0D01*
G01*
X1021833900Y-1004232200D01*
G75*
G02*
X1021596400Y-1003994700I0J237500D01*
G01*
X1021596400Y-1003519700D01*
G75*
G02*
X1021833900Y-1003282200I237500J0D01*
G01*
X1022408900Y-1003282200D01*
G75*
G02*
X1022646400Y-1003519700I0J-237500D01*
G01*
G37*
G04 #@! TD.AperFunction*
G04 #@! TA.AperFunction,SMDPad,CuDef*
G36*
G01*
X1026279801Y-999691400D02*
X1025379799Y-999691400D01*
G75*
G02*
X1025129800Y-999441401I0J249999D01*
G01*
X1025129800Y-998791399D01*
G75*
G02*
X1025379799Y-998541400I249999J0D01*
G01*
X1026279801Y-998541400D01*
G75*
G02*
X1026529800Y-998791399I0J-249999D01*
G01*
X1026529800Y-999441401D01*
G75*
G02*
X1026279801Y-999691400I-249999J0D01*
G01*
G37*
G04 #@! TD.AperFunction*
G04 #@! TA.AperFunction,SMDPad,CuDef*
G36*
G01*
X1026279801Y-1001741400D02*
X1025379799Y-1001741400D01*
G75*
G02*
X1025129800Y-1001491401I0J249999D01*
G01*
X1025129800Y-1000841399D01*
G75*
G02*
X1025379799Y-1000591400I249999J0D01*
G01*
X1026279801Y-1000591400D01*
G75*
G02*
X1026529800Y-1000841399I0J-249999D01*
G01*
X1026529800Y-1001491401D01*
G75*
G02*
X1026279801Y-1001741400I-249999J0D01*
G01*
G37*
G04 #@! TD.AperFunction*
G04 #@! TA.AperFunction,SMDPad,CuDef*
G36*
G01*
X1025328999Y-996697800D02*
X1026229001Y-996697800D01*
G75*
G02*
X1026479000Y-996947799I0J-249999D01*
G01*
X1026479000Y-997597801D01*
G75*
G02*
X1026229001Y-997847800I-249999J0D01*
G01*
X1025328999Y-997847800D01*
G75*
G02*
X1025079000Y-997597801I0J249999D01*
G01*
X1025079000Y-996947799D01*
G75*
G02*
X1025328999Y-996697800I249999J0D01*
G01*
G37*
G04 #@! TD.AperFunction*
G04 #@! TA.AperFunction,SMDPad,CuDef*
G36*
G01*
X1025328999Y-994647800D02*
X1026229001Y-994647800D01*
G75*
G02*
X1026479000Y-994897799I0J-249999D01*
G01*
X1026479000Y-995547801D01*
G75*
G02*
X1026229001Y-995797800I-249999J0D01*
G01*
X1025328999Y-995797800D01*
G75*
G02*
X1025079000Y-995547801I0J249999D01*
G01*
X1025079000Y-994897799D01*
G75*
G02*
X1025328999Y-994647800I249999J0D01*
G01*
G37*
G04 #@! TD.AperFunction*
G04 #@! TA.AperFunction,SMDPad,CuDef*
G36*
G01*
X1018369399Y-995765400D02*
X1019269401Y-995765400D01*
G75*
G02*
X1019519400Y-996015399I0J-249999D01*
G01*
X1019519400Y-996665401D01*
G75*
G02*
X1019269401Y-996915400I-249999J0D01*
G01*
X1018369399Y-996915400D01*
G75*
G02*
X1018119400Y-996665401I0J249999D01*
G01*
X1018119400Y-996015399D01*
G75*
G02*
X1018369399Y-995765400I249999J0D01*
G01*
G37*
G04 #@! TD.AperFunction*
G04 #@! TA.AperFunction,SMDPad,CuDef*
G36*
G01*
X1018369399Y-993715400D02*
X1019269401Y-993715400D01*
G75*
G02*
X1019519400Y-993965399I0J-249999D01*
G01*
X1019519400Y-994615401D01*
G75*
G02*
X1019269401Y-994865400I-249999J0D01*
G01*
X1018369399Y-994865400D01*
G75*
G02*
X1018119400Y-994615401I0J249999D01*
G01*
X1018119400Y-993965399D01*
G75*
G02*
X1018369399Y-993715400I249999J0D01*
G01*
G37*
G04 #@! TD.AperFunction*
D12*
X1021207000Y-1000655200D03*
D13*
X1021207000Y-999080199D03*
D14*
X1021900748Y-999261418D03*
D15*
X1022082000Y-999955201D03*
X1022082000Y-1000455200D03*
X1022082000Y-1000955199D03*
D14*
X1021900750Y-1001648985D03*
D13*
X1021207000Y-1001830201D03*
D14*
X1020513252Y-1001648982D03*
D15*
X1020332000Y-1000955199D03*
X1020332000Y-1000455200D03*
X1020332000Y-999955201D03*
D14*
X1020513219Y-999261494D03*
G04 #@! TA.AperFunction,SMDPad,CuDef*
G36*
G01*
X1024263900Y-999992200D02*
X1023788900Y-999992200D01*
G75*
G02*
X1023551400Y-999754700I0J237500D01*
G01*
X1023551400Y-999179700D01*
G75*
G02*
X1023788900Y-998942200I237500J0D01*
G01*
X1024263900Y-998942200D01*
G75*
G02*
X1024501400Y-999179700I0J-237500D01*
G01*
X1024501400Y-999754700D01*
G75*
G02*
X1024263900Y-999992200I-237500J0D01*
G01*
G37*
G04 #@! TD.AperFunction*
G04 #@! TA.AperFunction,SMDPad,CuDef*
G36*
G01*
X1024263900Y-1001742200D02*
X1023788900Y-1001742200D01*
G75*
G02*
X1023551400Y-1001504700I0J237500D01*
G01*
X1023551400Y-1000929700D01*
G75*
G02*
X1023788900Y-1000692200I237500J0D01*
G01*
X1024263900Y-1000692200D01*
G75*
G02*
X1024501400Y-1000929700I0J-237500D01*
G01*
X1024501400Y-1001504700D01*
G75*
G02*
X1024263900Y-1001742200I-237500J0D01*
G01*
G37*
G04 #@! TD.AperFunction*
G04 #@! TA.AperFunction,SMDPad,CuDef*
G36*
G01*
X1023681800Y-1003435900D02*
X1023681800Y-1002960900D01*
G75*
G02*
X1023919300Y-1002723400I237500J0D01*
G01*
X1024494300Y-1002723400D01*
G75*
G02*
X1024731800Y-1002960900I0J-237500D01*
G01*
X1024731800Y-1003435900D01*
G75*
G02*
X1024494300Y-1003673400I-237500J0D01*
G01*
X1023919300Y-1003673400D01*
G75*
G02*
X1023681800Y-1003435900I0J237500D01*
G01*
G37*
G04 #@! TD.AperFunction*
G04 #@! TA.AperFunction,SMDPad,CuDef*
G36*
G01*
X1025431800Y-1003435900D02*
X1025431800Y-1002960900D01*
G75*
G02*
X1025669300Y-1002723400I237500J0D01*
G01*
X1026244300Y-1002723400D01*
G75*
G02*
X1026481800Y-1002960900I0J-237500D01*
G01*
X1026481800Y-1003435900D01*
G75*
G02*
X1026244300Y-1003673400I-237500J0D01*
G01*
X1025669300Y-1003673400D01*
G75*
G02*
X1025431800Y-1003435900I0J237500D01*
G01*
G37*
G04 #@! TD.AperFunction*
G04 #@! TA.AperFunction,SMDPad,CuDef*
G36*
G01*
X1018454900Y-1001251000D02*
X1018929900Y-1001251000D01*
G75*
G02*
X1019167400Y-1001488500I0J-237500D01*
G01*
X1019167400Y-1002063500D01*
G75*
G02*
X1018929900Y-1002301000I-237500J0D01*
G01*
X1018454900Y-1002301000D01*
G75*
G02*
X1018217400Y-1002063500I0J237500D01*
G01*
X1018217400Y-1001488500D01*
G75*
G02*
X1018454900Y-1001251000I237500J0D01*
G01*
G37*
G04 #@! TD.AperFunction*
G04 #@! TA.AperFunction,SMDPad,CuDef*
G36*
G01*
X1018454900Y-1003001000D02*
X1018929900Y-1003001000D01*
G75*
G02*
X1019167400Y-1003238500I0J-237500D01*
G01*
X1019167400Y-1003813500D01*
G75*
G02*
X1018929900Y-1004051000I-237500J0D01*
G01*
X1018454900Y-1004051000D01*
G75*
G02*
X1018217400Y-1003813500I0J237500D01*
G01*
X1018217400Y-1003238500D01*
G75*
G02*
X1018454900Y-1003001000I237500J0D01*
G01*
G37*
G04 #@! TD.AperFunction*
G04 #@! TA.AperFunction,SMDPad,CuDef*
G36*
G01*
X1022595600Y-1005145300D02*
X1022595600Y-1005620300D01*
G75*
G02*
X1022358100Y-1005857800I-237500J0D01*
G01*
X1021783100Y-1005857800D01*
G75*
G02*
X1021545600Y-1005620300I0J237500D01*
G01*
X1021545600Y-1005145300D01*
G75*
G02*
X1021783100Y-1004907800I237500J0D01*
G01*
X1022358100Y-1004907800D01*
G75*
G02*
X1022595600Y-1005145300I0J-237500D01*
G01*
G37*
G04 #@! TD.AperFunction*
G04 #@! TA.AperFunction,SMDPad,CuDef*
G36*
G01*
X1024345600Y-1005145300D02*
X1024345600Y-1005620300D01*
G75*
G02*
X1024108100Y-1005857800I-237500J0D01*
G01*
X1023533100Y-1005857800D01*
G75*
G02*
X1023295600Y-1005620300I0J237500D01*
G01*
X1023295600Y-1005145300D01*
G75*
G02*
X1023533100Y-1004907800I237500J0D01*
G01*
X1024108100Y-1004907800D01*
G75*
G02*
X1024345600Y-1005145300I0J-237500D01*
G01*
G37*
G04 #@! TD.AperFunction*
G04 #@! TA.AperFunction,SMDPad,CuDef*
G36*
G01*
X1020916600Y-1005119900D02*
X1020916600Y-1005594900D01*
G75*
G02*
X1020679100Y-1005832400I-237500J0D01*
G01*
X1020104100Y-1005832400D01*
G75*
G02*
X1019866600Y-1005594900I0J237500D01*
G01*
X1019866600Y-1005119900D01*
G75*
G02*
X1020104100Y-1004882400I237500J0D01*
G01*
X1020679100Y-1004882400D01*
G75*
G02*
X1020916600Y-1005119900I0J-237500D01*
G01*
G37*
G04 #@! TD.AperFunction*
G04 #@! TA.AperFunction,SMDPad,CuDef*
G36*
G01*
X1019166600Y-1005119900D02*
X1019166600Y-1005594900D01*
G75*
G02*
X1018929100Y-1005832400I-237500J0D01*
G01*
X1018354100Y-1005832400D01*
G75*
G02*
X1018116600Y-1005594900I0J237500D01*
G01*
X1018116600Y-1005119900D01*
G75*
G02*
X1018354100Y-1004882400I237500J0D01*
G01*
X1018929100Y-1004882400D01*
G75*
G02*
X1019166600Y-1005119900I0J-237500D01*
G01*
G37*
G04 #@! TD.AperFunction*
G04 #@! TA.AperFunction,SMDPad,CuDef*
G36*
G01*
X1023374200Y-998094300D02*
X1021224200Y-998094300D01*
G75*
G02*
X1020974200Y-997844300I0J250000D01*
G01*
X1020974200Y-996919300D01*
G75*
G02*
X1021224200Y-996669300I250000J0D01*
G01*
X1023374200Y-996669300D01*
G75*
G02*
X1023624200Y-996919300I0J-250000D01*
G01*
X1023624200Y-997844300D01*
G75*
G02*
X1023374200Y-998094300I-250000J0D01*
G01*
G37*
G04 #@! TD.AperFunction*
G04 #@! TA.AperFunction,SMDPad,CuDef*
G36*
G01*
X1023374200Y-995119300D02*
X1021224200Y-995119300D01*
G75*
G02*
X1020974200Y-994869300I0J250000D01*
G01*
X1020974200Y-993944300D01*
G75*
G02*
X1021224200Y-993694300I250000J0D01*
G01*
X1023374200Y-993694300D01*
G75*
G02*
X1023624200Y-993944300I0J-250000D01*
G01*
X1023624200Y-994869300D01*
G75*
G02*
X1023374200Y-995119300I-250000J0D01*
G01*
G37*
G04 #@! TD.AperFunction*
D16*
X1035278600Y-1002969800D03*
X1046175200Y-1005001800D03*
X1033603800Y-1004944400D03*
D11*
X1028750800Y-999617000D03*
X1028750800Y-1002258600D03*
X1028750800Y-997000600D03*
X1048105600Y-994435400D03*
X1031798800Y-997864400D03*
X1051610800Y-997077000D03*
X1051610800Y-1002309200D03*
X1051610800Y-998804200D03*
X1048105600Y-1005027200D03*
X1031798800Y-1005077800D03*
D17*
X1028725400Y-1005332000D03*
X1051610800Y-1005357400D03*
X1028725400Y-994156000D03*
X1051610800Y-994181400D03*
G04 #@! TA.AperFunction,SMDPad,CuDef*
G36*
G01*
X1018369399Y-997432800D02*
X1019269401Y-997432800D01*
G75*
G02*
X1019519400Y-997682799I0J-249999D01*
G01*
X1019519400Y-998332801D01*
G75*
G02*
X1019269401Y-998582800I-249999J0D01*
G01*
X1018369399Y-998582800D01*
G75*
G02*
X1018119400Y-998332801I0J249999D01*
G01*
X1018119400Y-997682799D01*
G75*
G02*
X1018369399Y-997432800I249999J0D01*
G01*
G37*
G04 #@! TD.AperFunction*
G04 #@! TA.AperFunction,SMDPad,CuDef*
G36*
G01*
X1018368950Y-999482800D02*
X1019269850Y-999482800D01*
G75*
G02*
X1019519400Y-999732350I0J-249550D01*
G01*
X1019519400Y-1000383250D01*
G75*
G02*
X1019269850Y-1000632800I-249550J0D01*
G01*
X1018368950Y-1000632800D01*
G75*
G02*
X1018119400Y-1000383250I0J249550D01*
G01*
X1018119400Y-999732350D01*
G75*
G02*
X1018368950Y-999482800I249550J0D01*
G01*
G37*
G04 #@! TD.AperFunction*
D18*
X1026439400Y-1003198400D02*
X1027049000Y-1002588800D01*
X1025956800Y-1003198400D02*
X1026439400Y-1003198400D01*
X1028420600Y-1002588800D02*
X1028750800Y-1002258600D01*
X1027049000Y-1002588800D02*
X1028420600Y-1002588800D01*
D19*
X1023820618Y-999261418D02*
X1024026400Y-999467200D01*
X1021900748Y-999261418D02*
X1023820618Y-999261418D01*
X1020513219Y-999261494D02*
X1020306542Y-999261494D01*
X1020513219Y-999261494D02*
X1020309925Y-999058200D01*
X1017769390Y-998581336D02*
X1017769390Y-997390410D01*
X1018246254Y-999058200D02*
X1017769390Y-998581336D01*
X1017769390Y-997390410D02*
X1018819400Y-996340400D01*
X1020309925Y-999058200D02*
X1018246254Y-999058200D01*
D20*
X1024024210Y-996650054D02*
X1024024210Y-998113546D01*
X1023643446Y-996269290D02*
X1024024210Y-996650054D01*
X1024024210Y-998113546D02*
X1023155756Y-998982000D01*
X1020309925Y-999058200D02*
X1018175544Y-999058200D01*
X1018175544Y-999058200D02*
X1017719390Y-998602046D01*
X1017719390Y-998602046D02*
X1017719390Y-997413554D01*
X1017719390Y-997413554D02*
X1018863654Y-996269290D01*
X1018863654Y-996269290D02*
X1023643446Y-996269290D01*
X1023155756Y-998982000D02*
X1021969000Y-998982000D01*
X1021969000Y-998651800D02*
X1022146800Y-998829600D01*
X1021969000Y-998626400D02*
X1021969000Y-998651800D01*
X1021969000Y-998982000D02*
X1022146800Y-998829600D01*
X1020210624Y-999165576D02*
X1020210624Y-998886176D01*
D19*
X1020210624Y-999165576D02*
X1020154048Y-999109000D01*
X1020306542Y-999261494D02*
X1020210624Y-999165576D01*
D20*
X1020210624Y-998886176D02*
X1020318000Y-998778800D01*
X1020318000Y-998778800D02*
X1020368800Y-998778800D01*
X1020368800Y-999139726D02*
X1020276787Y-999231739D01*
X1020368800Y-998778800D02*
X1020368800Y-999139726D01*
X1020210624Y-999165576D02*
X1020159824Y-999165576D01*
X1020159824Y-999165576D02*
X1020064000Y-999261400D01*
X1020064000Y-999261400D02*
X1019784600Y-999261400D01*
D18*
X1051610800Y-1000556800D02*
X1045845000Y-1000556800D01*
X1045845000Y-1000556800D02*
X1043863800Y-1002538000D01*
X1043863800Y-1002538000D02*
X1043863800Y-1004646200D01*
X1043482800Y-1005027200D02*
X1043609800Y-1005027200D01*
X1043203400Y-1005306600D02*
X1043482800Y-1005027200D01*
X1043863800Y-1004646200D02*
X1043609800Y-1005027200D01*
D21*
X1024206800Y-1001397600D02*
X1024026400Y-1001217200D01*
X1024206800Y-1003198400D02*
X1024206800Y-1001397600D01*
X1024077200Y-1001166400D02*
X1024026400Y-1001217200D01*
X1025829800Y-1001166400D02*
X1024077200Y-1001166400D01*
D22*
X1020332000Y-999955201D02*
X1020516998Y-999955201D01*
D20*
X1022082000Y-999955201D02*
X1022082000Y-1000430199D01*
X1023239399Y-1000430199D02*
X1022082000Y-1000430199D01*
X1024026400Y-1001217200D02*
X1023239399Y-1000430199D01*
D18*
X1026134600Y-1001217200D02*
X1027734800Y-999617000D01*
D23*
X1021918200Y-999744000D02*
X1022093202Y-999919002D01*
X1020507002Y-999744000D02*
X1021906998Y-999744000D01*
X1020318000Y-999921800D02*
X1020493002Y-999746798D01*
D18*
X1027734800Y-999617000D02*
X1028750800Y-999617000D01*
D19*
X1018819418Y-1001648982D02*
X1018692400Y-1001776000D01*
X1020513252Y-1001648982D02*
X1018819418Y-1001648982D01*
D18*
X1022293800Y-997387200D02*
X1022299200Y-997381800D01*
D20*
X1021207000Y-999080199D02*
X1021207000Y-998169200D01*
X1021994400Y-997381800D02*
X1022299200Y-997381800D01*
X1021207000Y-998169200D02*
X1021994400Y-997381800D01*
D18*
X1020292600Y-997381800D02*
X1022299200Y-997381800D01*
X1018946400Y-997915200D02*
X1019759200Y-997915200D01*
X1019759200Y-997915200D02*
X1020292600Y-997381800D01*
D19*
X1019674999Y-1000955199D02*
X1018667000Y-999947200D01*
X1020332000Y-1000955199D02*
X1019674999Y-1000955199D01*
D21*
X1020417000Y-1005382800D02*
X1020391600Y-1005357400D01*
X1022070600Y-1005382800D02*
X1020417000Y-1005382800D01*
X1020391600Y-1003709000D02*
X1020495800Y-1003604800D01*
X1020391600Y-1005357400D02*
X1020391600Y-1003709000D01*
D20*
X1020652404Y-1003604800D02*
X1020495800Y-1003604800D01*
X1021900750Y-1002356454D02*
X1020652404Y-1003604800D01*
X1021900750Y-1001648985D02*
X1021900750Y-1002356454D01*
D18*
X1022182800Y-994290400D02*
X1022299200Y-994406800D01*
X1018819400Y-994290400D02*
X1022182800Y-994290400D01*
X1024963000Y-994406800D02*
X1025779000Y-995222800D01*
X1022299200Y-994406800D02*
X1024963000Y-994406800D01*
X1025779000Y-995222800D02*
X1026134600Y-995222800D01*
X1027912400Y-997000600D02*
X1028750800Y-997000600D01*
X1026134600Y-995222800D02*
X1027912400Y-997000600D01*
D21*
X1023820600Y-1005382800D02*
X1023820600Y-1005179600D01*
X1023820600Y-1005179600D02*
X1022245800Y-1003604800D01*
D20*
X1029868400Y-997864400D02*
X1028968391Y-996964391D01*
X1030147800Y-998143800D02*
X1029868400Y-997864400D01*
X1030147800Y-1002334800D02*
X1030147800Y-998143800D01*
X1023820600Y-1005382800D02*
X1025728200Y-1005382800D01*
X1025728200Y-1005382800D02*
X1027622190Y-1003488810D01*
X1027622190Y-1003488810D02*
X1028993791Y-1003488809D01*
X1028993791Y-1003488809D02*
X1030147800Y-1002334800D01*
D18*
X1041171400Y-997077000D02*
X1051610800Y-997077000D01*
X1035278600Y-1002969800D02*
X1041171400Y-997077000D01*
X1046175200Y-1005001800D02*
X1046175200Y-1003985800D01*
X1047851800Y-1002309200D02*
X1051610800Y-1002309200D01*
X1046175200Y-1003985800D02*
X1047851800Y-1002309200D01*
X1033603800Y-1004944400D02*
X1038257000Y-1004944400D01*
X1044397200Y-998804200D02*
X1051610800Y-998804200D01*
X1038257000Y-1004944400D02*
X1044397200Y-998804200D01*
D22*
X1026695000Y-993867222D02*
X1026695000Y-994605434D01*
X1026687515Y-994591430D01*
X1026618935Y-994507865D01*
X1026535370Y-994439285D01*
X1026440032Y-994388326D01*
X1026336584Y-994356945D01*
X1026229001Y-994346349D01*
X1026033920Y-994346349D01*
X1025556473Y-993868903D01*
X1025531422Y-993838378D01*
X1025409606Y-993738407D01*
X1025270628Y-993664121D01*
X1025119827Y-993618376D01*
X1025002293Y-993606800D01*
X1025002291Y-993606800D01*
X1024963000Y-993602930D01*
X1024923709Y-993606800D01*
X1023807167Y-993606800D01*
X1023764135Y-993554365D01*
X1023680570Y-993485785D01*
X1023585231Y-993434826D01*
X1023481783Y-993403445D01*
X1023374200Y-993392849D01*
X1021224200Y-993392849D01*
X1021116617Y-993403445D01*
X1021013169Y-993434826D01*
X1020917830Y-993485785D01*
X1020912207Y-993490400D01*
X1019544929Y-993490400D01*
X1019480432Y-993455926D01*
X1019376984Y-993424545D01*
X1019269401Y-993413949D01*
X1018369399Y-993413949D01*
X1018261816Y-993424545D01*
X1018158368Y-993455926D01*
X1018063030Y-993506885D01*
X1017979465Y-993575465D01*
X1017910885Y-993659030D01*
X1017859926Y-993754368D01*
X1017828545Y-993857816D01*
X1017817949Y-993965399D01*
X1017817949Y-994615401D01*
X1017828545Y-994722984D01*
X1017859926Y-994826432D01*
X1017910885Y-994921770D01*
X1017979465Y-995005335D01*
X1018063030Y-995073915D01*
X1018158368Y-995124874D01*
X1018261816Y-995156255D01*
X1018369399Y-995166851D01*
X1019269401Y-995166851D01*
X1019376984Y-995156255D01*
X1019480432Y-995124874D01*
X1019544929Y-995090400D01*
X1020720108Y-995090400D01*
X1020765685Y-995175670D01*
X1020834265Y-995259235D01*
X1020917830Y-995327815D01*
X1021013169Y-995378774D01*
X1021116617Y-995410155D01*
X1021224200Y-995420751D01*
X1023374200Y-995420751D01*
X1023481783Y-995410155D01*
X1023585231Y-995378774D01*
X1023680570Y-995327815D01*
X1023764135Y-995259235D01*
X1023807167Y-995206800D01*
X1024631630Y-995206800D01*
X1024777549Y-995352719D01*
X1024777549Y-995547801D01*
X1024788145Y-995655384D01*
X1024819526Y-995758832D01*
X1024870485Y-995854170D01*
X1024939065Y-995937735D01*
X1025022630Y-996006315D01*
X1025117968Y-996057274D01*
X1025221416Y-996088655D01*
X1025328999Y-996099251D01*
X1025879681Y-996099251D01*
X1027318927Y-997538497D01*
X1027343978Y-997569022D01*
X1027390952Y-997607572D01*
X1027465793Y-997668993D01*
X1027593145Y-997737064D01*
X1027604772Y-997743279D01*
X1027755573Y-997789024D01*
X1027873107Y-997800600D01*
X1027873109Y-997800600D01*
X1027912400Y-997804470D01*
X1027951691Y-997800600D01*
X1028829593Y-997800600D01*
X1028868335Y-997792894D01*
X1028907627Y-997789024D01*
X1028945407Y-997777563D01*
X1028984151Y-997769857D01*
X1029020648Y-997754740D01*
X1029044422Y-997747528D01*
X1029532213Y-998235319D01*
X1029532218Y-998235323D01*
X1029647801Y-998350906D01*
X1029647800Y-1002127694D01*
X1028786686Y-1002988809D01*
X1027646748Y-1002988811D01*
X1027622189Y-1002986392D01*
X1027524172Y-1002996046D01*
X1027429921Y-1003024636D01*
X1027343060Y-1003071065D01*
X1027286002Y-1003117891D01*
X1027285997Y-1003117896D01*
X1027266926Y-1003133547D01*
X1027251274Y-1003152619D01*
X1025521095Y-1004882800D01*
X1024575958Y-1004882800D01*
X1024556221Y-1004845875D01*
X1024489196Y-1004764204D01*
X1024407525Y-1004697179D01*
X1024314348Y-1004647374D01*
X1024213244Y-1004616705D01*
X1024172978Y-1004612739D01*
X1022921254Y-1003361016D01*
X1022906826Y-1003313452D01*
X1022857021Y-1003220275D01*
X1022789996Y-1003138604D01*
X1022708325Y-1003071579D01*
X1022615148Y-1003021774D01*
X1022514044Y-1002991105D01*
X1022436825Y-1002983499D01*
X1022373222Y-1002964206D01*
X1022245800Y-1002951656D01*
X1022118378Y-1002964206D01*
X1022063842Y-1002980749D01*
X1021983562Y-1002980749D01*
X1022236937Y-1002727374D01*
X1022256014Y-1002711718D01*
X1022318496Y-1002635583D01*
X1022364925Y-1002548721D01*
X1022393515Y-1002454471D01*
X1022400750Y-1002381014D01*
X1022403169Y-1002356454D01*
X1022400750Y-1002331894D01*
X1022400750Y-1002076066D01*
X1022421390Y-1002074260D01*
X1022423155Y-1002073747D01*
X1022424982Y-1002073568D01*
X1022455947Y-1002064219D01*
X1022486985Y-1002055201D01*
X1022488614Y-1002054357D01*
X1022490375Y-1002053825D01*
X1022518917Y-1002038649D01*
X1022547630Y-1002023765D01*
X1022549069Y-1002022617D01*
X1022550687Y-1002021756D01*
X1022575713Y-1002001345D01*
X1022601013Y-1001981148D01*
X1022603565Y-1001978631D01*
X1022603622Y-1001978584D01*
X1022603666Y-1001978531D01*
X1022604492Y-1001977716D01*
X1022654490Y-1001927717D01*
X1022675025Y-1001902717D01*
X1022695785Y-1001877976D01*
X1022696674Y-1001876359D01*
X1022697846Y-1001874932D01*
X1022713126Y-1001846433D01*
X1022728693Y-1001818118D01*
X1022729251Y-1001816359D01*
X1022730124Y-1001814731D01*
X1022739567Y-1001783842D01*
X1022749349Y-1001753008D01*
X1022749555Y-1001751169D01*
X1022750094Y-1001749407D01*
X1022753356Y-1001717286D01*
X1022756964Y-1001685126D01*
X1022756989Y-1001681517D01*
X1022756996Y-1001681449D01*
X1022756990Y-1001681386D01*
X1022756998Y-1001680239D01*
X1022757000Y-1001530240D01*
X1022757000Y-1001530225D01*
X1022753845Y-1001498044D01*
X1022751021Y-1001465807D01*
X1022750512Y-1001464054D01*
X1022750334Y-1001462243D01*
X1022740987Y-1001431282D01*
X1022731957Y-1001400215D01*
X1022731119Y-1001398598D01*
X1022730591Y-1001396850D01*
X1022715406Y-1001368292D01*
X1022700516Y-1001339572D01*
X1022699376Y-1001338144D01*
X1022698522Y-1001336538D01*
X1022678111Y-1001311511D01*
X1022657895Y-1001286192D01*
X1022655393Y-1001283656D01*
X1022655350Y-1001283603D01*
X1022655301Y-1001283562D01*
X1022654463Y-1001282713D01*
X1022604463Y-1001232723D01*
X1022579478Y-1001212204D01*
X1022554738Y-1001191445D01*
X1022553109Y-1001190549D01*
X1022551674Y-1001189371D01*
X1022523200Y-1001174107D01*
X1022494880Y-1001158538D01*
X1022493109Y-1001157976D01*
X1022491471Y-1001157098D01*
X1022460618Y-1001147669D01*
X1022429769Y-1001137883D01*
X1022427916Y-1001137675D01*
X1022426145Y-1001137134D01*
X1022394063Y-1001133878D01*
X1022361887Y-1001130269D01*
X1022358253Y-1001130244D01*
X1022358187Y-1001130237D01*
X1022358125Y-1001130243D01*
X1022357000Y-1001130235D01*
X1021782000Y-1001130235D01*
X1021749828Y-1001133390D01*
X1021717617Y-1001136208D01*
X1021715850Y-1001136721D01*
X1021714018Y-1001136901D01*
X1021683055Y-1001146249D01*
X1021652022Y-1001155265D01*
X1021650389Y-1001156111D01*
X1021648625Y-1001156644D01*
X1021620096Y-1001171813D01*
X1021591376Y-1001186700D01*
X1021589934Y-1001187851D01*
X1021588313Y-1001188713D01*
X1021563271Y-1001209136D01*
X1021537993Y-1001229316D01*
X1021535432Y-1001231841D01*
X1021535378Y-1001231885D01*
X1021535337Y-1001231935D01*
X1021534513Y-1001232747D01*
X1021484513Y-1001282748D01*
X1021464016Y-1001307702D01*
X1021443210Y-1001332497D01*
X1021442322Y-1001334113D01*
X1021441156Y-1001335532D01*
X1021425887Y-1001364007D01*
X1021410303Y-1001392355D01*
X1021409747Y-1001394108D01*
X1021408876Y-1001395732D01*
X1021399420Y-1001426663D01*
X1021389648Y-1001457466D01*
X1021389443Y-1001459296D01*
X1021388905Y-1001461055D01*
X1021385639Y-1001493209D01*
X1021382034Y-1001525348D01*
X1021382009Y-1001528944D01*
X1021382002Y-1001529013D01*
X1021382008Y-1001529077D01*
X1021382000Y-1001530235D01*
X1021382000Y-1002105235D01*
X1021385159Y-1002137451D01*
X1021387370Y-1002162727D01*
X1020589239Y-1002960859D01*
X1020495799Y-1002951656D01*
X1020368378Y-1002964206D01*
X1020313842Y-1002980749D01*
X1020083900Y-1002980749D01*
X1019978756Y-1002991105D01*
X1019877652Y-1003021774D01*
X1019784475Y-1003071579D01*
X1019702804Y-1003138604D01*
X1019635779Y-1003220275D01*
X1019585974Y-1003313452D01*
X1019555305Y-1003414556D01*
X1019544949Y-1003519700D01*
X1019544949Y-1003994700D01*
X1019555305Y-1004099844D01*
X1019585974Y-1004200948D01*
X1019635779Y-1004294125D01*
X1019702804Y-1004375796D01*
X1019741601Y-1004407635D01*
X1019741600Y-1004723542D01*
X1019723004Y-1004738804D01*
X1019655979Y-1004820475D01*
X1019606174Y-1004913652D01*
X1019575505Y-1005014756D01*
X1019565149Y-1005119900D01*
X1019565149Y-1005594900D01*
X1019575505Y-1005700044D01*
X1019606174Y-1005801148D01*
X1019655979Y-1005894325D01*
X1019723004Y-1005975996D01*
X1019804675Y-1006043021D01*
X1019897852Y-1006092826D01*
X1019998956Y-1006123495D01*
X1020104100Y-1006133851D01*
X1020679100Y-1006133851D01*
X1020784244Y-1006123495D01*
X1020885348Y-1006092826D01*
X1020978525Y-1006043021D01*
X1020990979Y-1006032800D01*
X1021440270Y-1006032800D01*
X1021483675Y-1006068421D01*
X1021576852Y-1006118226D01*
X1021677956Y-1006148895D01*
X1021783100Y-1006159251D01*
X1022358100Y-1006159251D01*
X1022463244Y-1006148895D01*
X1022564348Y-1006118226D01*
X1022657525Y-1006068421D01*
X1022739196Y-1006001396D01*
X1022806221Y-1005919725D01*
X1022856026Y-1005826548D01*
X1022886695Y-1005725444D01*
X1022897051Y-1005620300D01*
X1022897051Y-1005175290D01*
X1022994149Y-1005272388D01*
X1022994149Y-1005620300D01*
X1023004505Y-1005725444D01*
X1023035174Y-1005826548D01*
X1023084979Y-1005919725D01*
X1023152004Y-1006001396D01*
X1023233675Y-1006068421D01*
X1023326852Y-1006118226D01*
X1023427956Y-1006148895D01*
X1023533100Y-1006159251D01*
X1024108100Y-1006159251D01*
X1024213244Y-1006148895D01*
X1024314348Y-1006118226D01*
X1024407525Y-1006068421D01*
X1024489196Y-1006001396D01*
X1024556221Y-1005919725D01*
X1024575958Y-1005882800D01*
X1025703640Y-1005882800D01*
X1025728200Y-1005885219D01*
X1025752760Y-1005882800D01*
X1025826217Y-1005875565D01*
X1025920467Y-1005846975D01*
X1026007329Y-1005800546D01*
X1026083464Y-1005738064D01*
X1026099129Y-1005718976D01*
X1026822000Y-1004996106D01*
X1026822000Y-1005671578D01*
X1026118578Y-1006375000D01*
X1018378222Y-1006375000D01*
X1017649400Y-1005646178D01*
X1017649400Y-997682799D01*
X1017817949Y-997682799D01*
X1017817949Y-998332801D01*
X1017828545Y-998440384D01*
X1017859926Y-998543832D01*
X1017910885Y-998639170D01*
X1017979465Y-998722735D01*
X1018063030Y-998791315D01*
X1018158368Y-998842274D01*
X1018261816Y-998873655D01*
X1018369399Y-998884251D01*
X1019269401Y-998884251D01*
X1019376984Y-998873655D01*
X1019480432Y-998842274D01*
X1019575770Y-998791315D01*
X1019659335Y-998722735D01*
X1019665519Y-998715200D01*
X1019719909Y-998715200D01*
X1019759200Y-998719070D01*
X1019798491Y-998715200D01*
X1019798493Y-998715200D01*
X1019916027Y-998703624D01*
X1020066828Y-998657879D01*
X1020135394Y-998621229D01*
X1020125861Y-998639012D01*
X1020110274Y-998667363D01*
X1020109714Y-998669130D01*
X1020108840Y-998670759D01*
X1020099401Y-998701639D01*
X1020089619Y-998732474D01*
X1020089413Y-998734315D01*
X1020088872Y-998736083D01*
X1020085610Y-998768215D01*
X1020082004Y-998800356D01*
X1020081979Y-998803974D01*
X1020081972Y-998804042D01*
X1020081978Y-998804105D01*
X1020081970Y-998805243D01*
X1020081970Y-998830244D01*
X1020056967Y-998830244D01*
X1020024763Y-998833402D01*
X1019992576Y-998836218D01*
X1019990810Y-998836731D01*
X1019988985Y-998836910D01*
X1019958033Y-998846255D01*
X1019926982Y-998855277D01*
X1019925353Y-998856121D01*
X1019923592Y-998856653D01*
X1019895050Y-998871829D01*
X1019866337Y-998886713D01*
X1019864898Y-998887861D01*
X1019863280Y-998888722D01*
X1019838254Y-998909133D01*
X1019812954Y-998929330D01*
X1019810398Y-998931851D01*
X1019810345Y-998931894D01*
X1019810305Y-998931943D01*
X1019809474Y-998932762D01*
X1019759477Y-998982762D01*
X1019738983Y-999007713D01*
X1019718179Y-999032506D01*
X1019717289Y-999034125D01*
X1019716121Y-999035547D01*
X1019700863Y-999064004D01*
X1019685272Y-999092364D01*
X1019684714Y-999094122D01*
X1019683843Y-999095747D01*
X1019674401Y-999126633D01*
X1019664617Y-999157475D01*
X1019664411Y-999159311D01*
X1019663873Y-999161071D01*
X1019660610Y-999193201D01*
X1019657003Y-999225357D01*
X1019656978Y-999228961D01*
X1019656971Y-999229029D01*
X1019656977Y-999229093D01*
X1019656969Y-999230244D01*
X1019656969Y-999340683D01*
X1019575970Y-999274209D01*
X1019480709Y-999223291D01*
X1019377345Y-999191936D01*
X1019269850Y-999181349D01*
X1018368950Y-999181349D01*
X1018261455Y-999191936D01*
X1018158091Y-999223291D01*
X1018062830Y-999274209D01*
X1017979333Y-999342733D01*
X1017910809Y-999426230D01*
X1017859891Y-999521491D01*
X1017828536Y-999624855D01*
X1017817949Y-999732350D01*
X1017817949Y-1000383250D01*
X1017828536Y-1000490745D01*
X1017859891Y-1000594109D01*
X1017910809Y-1000689370D01*
X1017979333Y-1000772867D01*
X1018062830Y-1000841391D01*
X1018158091Y-1000892309D01*
X1018261455Y-1000923664D01*
X1018368950Y-1000934251D01*
X1019017655Y-1000934251D01*
X1019046908Y-1000963504D01*
X1019035044Y-1000959905D01*
X1018929900Y-1000949549D01*
X1018454900Y-1000949549D01*
X1018349756Y-1000959905D01*
X1018248652Y-1000990574D01*
X1018155475Y-1001040379D01*
X1018073804Y-1001107404D01*
X1018006779Y-1001189075D01*
X1017956974Y-1001282252D01*
X1017926305Y-1001383356D01*
X1017915949Y-1001488500D01*
X1017915949Y-1002063500D01*
X1017926305Y-1002168644D01*
X1017956974Y-1002269748D01*
X1018006779Y-1002362925D01*
X1018073804Y-1002444596D01*
X1018155475Y-1002511621D01*
X1018248652Y-1002561426D01*
X1018349756Y-1002592095D01*
X1018454900Y-1002602451D01*
X1018929900Y-1002602451D01*
X1019035044Y-1002592095D01*
X1019136148Y-1002561426D01*
X1019229325Y-1002511621D01*
X1019310996Y-1002444596D01*
X1019378021Y-1002362925D01*
X1019427826Y-1002269748D01*
X1019458495Y-1002168644D01*
X1019465356Y-1002098982D01*
X1020082003Y-1002098982D01*
X1020082003Y-1002105232D01*
X1020085161Y-1002137440D01*
X1020087977Y-1002169622D01*
X1020088490Y-1002171387D01*
X1020088669Y-1002173214D01*
X1020098018Y-1002204179D01*
X1020107036Y-1002235217D01*
X1020107880Y-1002236846D01*
X1020108412Y-1002238607D01*
X1020123588Y-1002267149D01*
X1020138472Y-1002295862D01*
X1020139620Y-1002297301D01*
X1020140481Y-1002298919D01*
X1020160892Y-1002323945D01*
X1020181089Y-1002349245D01*
X1020183606Y-1002351797D01*
X1020183653Y-1002351854D01*
X1020183706Y-1002351898D01*
X1020184521Y-1002352724D01*
X1020234520Y-1002402722D01*
X1020259520Y-1002423257D01*
X1020284261Y-1002444017D01*
X1020285878Y-1002444906D01*
X1020287305Y-1002446078D01*
X1020315804Y-1002461358D01*
X1020344119Y-1002476925D01*
X1020345878Y-1002477483D01*
X1020347506Y-1002478356D01*
X1020378395Y-1002487799D01*
X1020409229Y-1002497581D01*
X1020411068Y-1002497787D01*
X1020412830Y-1002498326D01*
X1020444951Y-1002501588D01*
X1020477111Y-1002505196D01*
X1020480720Y-1002505221D01*
X1020480788Y-1002505228D01*
X1020480851Y-1002505222D01*
X1020481998Y-1002505230D01*
X1020631997Y-1002505232D01*
X1020632013Y-1002505232D01*
X1020664215Y-1002502074D01*
X1020696434Y-1002499252D01*
X1020698183Y-1002498744D01*
X1020699995Y-1002498566D01*
X1020730953Y-1002489219D01*
X1020762027Y-1002480188D01*
X1020763644Y-1002479349D01*
X1020765388Y-1002478823D01*
X1020793925Y-1002463649D01*
X1020822669Y-1002448746D01*
X1020824095Y-1002447607D01*
X1020825700Y-1002446754D01*
X1020850759Y-1002426317D01*
X1020876048Y-1002406124D01*
X1020878580Y-1002403627D01*
X1020878635Y-1002403582D01*
X1020878677Y-1002403531D01*
X1020879528Y-1002402692D01*
X1020929517Y-1002352692D01*
X1020950036Y-1002327706D01*
X1020970792Y-1002302970D01*
X1020971688Y-1002301339D01*
X1020972868Y-1002299903D01*
X1020988135Y-1002271422D01*
X1021003699Y-1002243112D01*
X1021004261Y-1002241341D01*
X1021005141Y-1002239699D01*
X1021014580Y-1002208811D01*
X1021024354Y-1002178001D01*
X1021024562Y-1002176148D01*
X1021025104Y-1002174374D01*
X1021028361Y-1002142278D01*
X1021031968Y-1002110119D01*
X1021031993Y-1002106481D01*
X1021032000Y-1002106415D01*
X1021031994Y-1002106354D01*
X1021032002Y-1002105232D01*
X1021032002Y-1001530232D01*
X1021028847Y-1001498060D01*
X1021026029Y-1001465849D01*
X1021025516Y-1001464082D01*
X1021025336Y-1001462250D01*
X1021015988Y-1001431287D01*
X1021006972Y-1001400254D01*
X1021006126Y-1001398621D01*
X1021005593Y-1001396857D01*
X1020990424Y-1001368328D01*
X1020975537Y-1001339608D01*
X1020974386Y-1001338166D01*
X1020973524Y-1001336545D01*
X1020953101Y-1001311503D01*
X1020932921Y-1001286225D01*
X1020930396Y-1001283664D01*
X1020930352Y-1001283610D01*
X1020930302Y-1001283569D01*
X1020929490Y-1001282745D01*
X1020901685Y-1001254940D01*
X1020907647Y-1001247675D01*
X1020935504Y-1001195558D01*
X1020952659Y-1001139008D01*
X1020958451Y-1001080198D01*
X1020958451Y-1000830200D01*
X1020952659Y-1000771390D01*
X1020935504Y-1000714840D01*
X1020930351Y-1000705200D01*
X1020935504Y-1000695559D01*
X1020952659Y-1000639009D01*
X1020958451Y-1000580199D01*
X1020958451Y-1000330201D01*
X1020952659Y-1000271391D01*
X1020935504Y-1000214841D01*
X1020930351Y-1000205201D01*
X1020935504Y-1000195560D01*
X1020943561Y-1000169000D01*
X1021470439Y-1000169000D01*
X1021478496Y-1000195560D01*
X1021483649Y-1000205201D01*
X1021478496Y-1000214841D01*
X1021461341Y-1000271391D01*
X1021455549Y-1000330201D01*
X1021455549Y-1000580199D01*
X1021461341Y-1000639009D01*
X1021478496Y-1000695559D01*
X1021506353Y-1000747676D01*
X1021543842Y-1000793357D01*
X1021589523Y-1000830846D01*
X1021641640Y-1000858703D01*
X1021698190Y-1000875858D01*
X1021757000Y-1000881650D01*
X1021865928Y-1000881650D01*
X1021889733Y-1000894374D01*
X1021983983Y-1000922964D01*
X1022057440Y-1000930199D01*
X1022082000Y-1000932618D01*
X1022106560Y-1000930199D01*
X1023032294Y-1000930199D01*
X1023249949Y-1001147855D01*
X1023249949Y-1001504700D01*
X1023260305Y-1001609844D01*
X1023290974Y-1001710948D01*
X1023340779Y-1001804125D01*
X1023407804Y-1001885796D01*
X1023489475Y-1001952821D01*
X1023556801Y-1001988808D01*
X1023556800Y-1002564543D01*
X1023538204Y-1002579804D01*
X1023471179Y-1002661475D01*
X1023421374Y-1002754652D01*
X1023390705Y-1002855756D01*
X1023380349Y-1002960900D01*
X1023380349Y-1003435900D01*
X1023390705Y-1003541044D01*
X1023421374Y-1003642148D01*
X1023471179Y-1003735325D01*
X1023538204Y-1003816996D01*
X1023619875Y-1003884021D01*
X1023713052Y-1003933826D01*
X1023814156Y-1003964495D01*
X1023919300Y-1003974851D01*
X1024494300Y-1003974851D01*
X1024599444Y-1003964495D01*
X1024700548Y-1003933826D01*
X1024793725Y-1003884021D01*
X1024875396Y-1003816996D01*
X1024942421Y-1003735325D01*
X1024992226Y-1003642148D01*
X1025022895Y-1003541044D01*
X1025033251Y-1003435900D01*
X1025033251Y-1002960900D01*
X1025022895Y-1002855756D01*
X1024992226Y-1002754652D01*
X1024942421Y-1002661475D01*
X1024875396Y-1002579804D01*
X1024856800Y-1002564543D01*
X1024856800Y-1001816400D01*
X1024936574Y-1001816400D01*
X1024989865Y-1001881335D01*
X1025073430Y-1001949915D01*
X1025168768Y-1002000874D01*
X1025272216Y-1002032255D01*
X1025379799Y-1002042851D01*
X1026279801Y-1002042851D01*
X1026387384Y-1002032255D01*
X1026490832Y-1002000874D01*
X1026586170Y-1001949915D01*
X1026669735Y-1001881335D01*
X1026738315Y-1001797770D01*
X1026789274Y-1001702432D01*
X1026792991Y-1001690179D01*
X1028066171Y-1000417000D01*
X1028829593Y-1000417000D01*
X1028868335Y-1000409294D01*
X1028907627Y-1000405424D01*
X1028945407Y-1000393963D01*
X1028984151Y-1000386257D01*
X1029020648Y-1000371140D01*
X1029058428Y-1000359679D01*
X1029093246Y-1000341068D01*
X1029129742Y-1000325951D01*
X1029162590Y-1000304003D01*
X1029197406Y-1000285393D01*
X1029227922Y-1000260349D01*
X1029260770Y-1000238401D01*
X1029288702Y-1000210469D01*
X1029319222Y-1000185422D01*
X1029344270Y-1000154901D01*
X1029372201Y-1000126970D01*
X1029394149Y-1000094122D01*
X1029419193Y-1000063606D01*
X1029437803Y-1000028790D01*
X1029459751Y-999995942D01*
X1029474868Y-999959446D01*
X1029493479Y-999924628D01*
X1029504940Y-999886848D01*
X1029520057Y-999850351D01*
X1029527763Y-999811607D01*
X1029539224Y-999773827D01*
X1029543094Y-999734535D01*
X1029550800Y-999695793D01*
X1029550800Y-999656293D01*
X1029554670Y-999617000D01*
X1029550800Y-999577707D01*
X1029550800Y-999538207D01*
X1029543094Y-999499465D01*
X1029539224Y-999460173D01*
X1029527763Y-999422393D01*
X1029520057Y-999383649D01*
X1029504940Y-999347152D01*
X1029493479Y-999309372D01*
X1029474868Y-999274554D01*
X1029459751Y-999238058D01*
X1029437803Y-999205210D01*
X1029419193Y-999170394D01*
X1029394149Y-999139878D01*
X1029372201Y-999107030D01*
X1029344269Y-999079098D01*
X1029319222Y-999048578D01*
X1029288701Y-999023530D01*
X1029260770Y-998995599D01*
X1029227922Y-998973651D01*
X1029197406Y-998948607D01*
X1029162590Y-998929997D01*
X1029129742Y-998908049D01*
X1029093246Y-998892932D01*
X1029058428Y-998874321D01*
X1029020648Y-998862860D01*
X1028984151Y-998847743D01*
X1028945407Y-998840037D01*
X1028907627Y-998828576D01*
X1028868335Y-998824706D01*
X1028829593Y-998817000D01*
X1027774091Y-998817000D01*
X1027734800Y-998813130D01*
X1027695509Y-998817000D01*
X1027695507Y-998817000D01*
X1027577973Y-998828576D01*
X1027434896Y-998871978D01*
X1027427172Y-998874321D01*
X1027288193Y-998948607D01*
X1027196899Y-999023530D01*
X1027166378Y-999048578D01*
X1027141331Y-999079098D01*
X1025930481Y-1000289949D01*
X1025379799Y-1000289949D01*
X1025272216Y-1000300545D01*
X1025168768Y-1000331926D01*
X1025073430Y-1000382885D01*
X1024989865Y-1000451465D01*
X1024936574Y-1000516400D01*
X1024605755Y-1000516400D01*
X1024563325Y-1000481579D01*
X1024470148Y-1000431774D01*
X1024369044Y-1000401105D01*
X1024263900Y-1000390749D01*
X1023907055Y-1000390749D01*
X1023610328Y-1000094023D01*
X1023594663Y-1000074935D01*
X1023518528Y-1000012453D01*
X1023431666Y-999966024D01*
X1023337416Y-999937434D01*
X1023263959Y-999930199D01*
X1023239399Y-999927780D01*
X1023214839Y-999930199D01*
X1022708451Y-999930199D01*
X1022708451Y-999830202D01*
X1022702659Y-999771392D01*
X1022685504Y-999714842D01*
X1022657647Y-999662725D01*
X1022640414Y-999641727D01*
X1022654490Y-999627651D01*
X1022675025Y-999602651D01*
X1022695785Y-999577910D01*
X1022696674Y-999576293D01*
X1022697846Y-999574866D01*
X1022713126Y-999546367D01*
X1022728693Y-999518052D01*
X1022729251Y-999516293D01*
X1022730124Y-999514665D01*
X1022739567Y-999483776D01*
X1022749349Y-999452942D01*
X1022749555Y-999451103D01*
X1022750094Y-999449341D01*
X1022753356Y-999417220D01*
X1022756964Y-999385060D01*
X1022756989Y-999381451D01*
X1022756996Y-999381383D01*
X1022756990Y-999381320D01*
X1022756998Y-999380173D01*
X1022757000Y-999230173D01*
X1022753842Y-999197961D01*
X1022751026Y-999165778D01*
X1022750514Y-999164015D01*
X1022750335Y-999162191D01*
X1022740983Y-999131212D01*
X1022731967Y-999100183D01*
X1022731125Y-999098558D01*
X1022730593Y-999096797D01*
X1022715401Y-999068225D01*
X1022700531Y-999039538D01*
X1022699385Y-999038103D01*
X1022698525Y-999036485D01*
X1022678106Y-999011447D01*
X1022657914Y-998986155D01*
X1022655400Y-998983606D01*
X1022655353Y-998983549D01*
X1022655300Y-998983505D01*
X1022654482Y-998982676D01*
X1022604480Y-998932676D01*
X1022579529Y-998912182D01*
X1022554736Y-998891378D01*
X1022553117Y-998890488D01*
X1022551695Y-998889320D01*
X1022523238Y-998874062D01*
X1022494878Y-998858471D01*
X1022493120Y-998857913D01*
X1022491495Y-998857042D01*
X1022460609Y-998847600D01*
X1022429767Y-998837816D01*
X1022427931Y-998837610D01*
X1022426171Y-998837072D01*
X1022394041Y-998833809D01*
X1022361885Y-998830202D01*
X1022358281Y-998830177D01*
X1022358213Y-998830170D01*
X1022358149Y-998830176D01*
X1022356998Y-998830168D01*
X1022332000Y-998830168D01*
X1022332000Y-998805168D01*
X1022328841Y-998772951D01*
X1022326024Y-998740767D01*
X1022325513Y-998739007D01*
X1022325334Y-998737186D01*
X1022315985Y-998706221D01*
X1022306963Y-998675173D01*
X1022306121Y-998673549D01*
X1022305591Y-998671793D01*
X1022290409Y-998643241D01*
X1022275525Y-998614529D01*
X1022274380Y-998613095D01*
X1022273522Y-998611481D01*
X1022253098Y-998586438D01*
X1022232906Y-998561147D01*
X1022230394Y-998558599D01*
X1022230350Y-998558546D01*
X1022230301Y-998558505D01*
X1022229475Y-998557668D01*
X1022179472Y-998507670D01*
X1022154474Y-998487139D01*
X1022129739Y-998466383D01*
X1022128117Y-998465491D01*
X1022126686Y-998464316D01*
X1022098198Y-998449043D01*
X1022069881Y-998433475D01*
X1022068116Y-998432915D01*
X1022066484Y-998432040D01*
X1022035605Y-998422601D01*
X1022004771Y-998412819D01*
X1022002927Y-998412612D01*
X1022001160Y-998412072D01*
X1021969049Y-998408812D01*
X1021936889Y-998405204D01*
X1021933268Y-998405179D01*
X1021933201Y-998405172D01*
X1021933139Y-998405178D01*
X1021932002Y-998405170D01*
X1021782005Y-998405168D01*
X1021781990Y-998405168D01*
X1021749801Y-998408324D01*
X1021717579Y-998411146D01*
X1021715824Y-998411656D01*
X1021714008Y-998411834D01*
X1021707000Y-998413950D01*
X1021707000Y-998395751D01*
X1023374200Y-998395751D01*
X1023481783Y-998385155D01*
X1023585231Y-998353774D01*
X1023680570Y-998302815D01*
X1023764135Y-998234235D01*
X1023832715Y-998150670D01*
X1023883674Y-998055331D01*
X1023915055Y-997951883D01*
X1023925651Y-997844300D01*
X1023925651Y-996919300D01*
X1023915055Y-996811717D01*
X1023883674Y-996708269D01*
X1023832715Y-996612930D01*
X1023764135Y-996529365D01*
X1023680570Y-996460785D01*
X1023585231Y-996409826D01*
X1023481783Y-996378445D01*
X1023374200Y-996367849D01*
X1021224200Y-996367849D01*
X1021116617Y-996378445D01*
X1021013169Y-996409826D01*
X1020917830Y-996460785D01*
X1020834265Y-996529365D01*
X1020791233Y-996581800D01*
X1020331891Y-996581800D01*
X1020292600Y-996577930D01*
X1020253309Y-996581800D01*
X1020253307Y-996581800D01*
X1020135773Y-996593376D01*
X1019984972Y-996639121D01*
X1019845993Y-996713407D01*
X1019791559Y-996758080D01*
X1019724178Y-996813378D01*
X1019699127Y-996843903D01*
X1019427830Y-997115200D01*
X1018907107Y-997115200D01*
X1018789573Y-997126776D01*
X1018774498Y-997131349D01*
X1018369399Y-997131349D01*
X1018261816Y-997141945D01*
X1018158368Y-997173326D01*
X1018063030Y-997224285D01*
X1017979465Y-997292865D01*
X1017910885Y-997376430D01*
X1017859926Y-997471768D01*
X1017828545Y-997575216D01*
X1017817949Y-997682799D01*
X1017649400Y-997682799D01*
X1017649400Y-993816422D01*
X1018225822Y-993240000D01*
X1026067778Y-993240000D01*
X1026695000Y-993867222D01*
G04 #@! TA.AperFunction,Conductor*
D24*
G36*
X1026695000Y-993867222D02*
G01*
X1026695000Y-994605434D01*
X1026687515Y-994591430D01*
X1026618935Y-994507865D01*
X1026535370Y-994439285D01*
X1026440032Y-994388326D01*
X1026336584Y-994356945D01*
X1026229001Y-994346349D01*
X1026033920Y-994346349D01*
X1025556473Y-993868903D01*
X1025531422Y-993838378D01*
X1025409606Y-993738407D01*
X1025270628Y-993664121D01*
X1025119827Y-993618376D01*
X1025002293Y-993606800D01*
X1025002291Y-993606800D01*
X1024963000Y-993602930D01*
X1024923709Y-993606800D01*
X1023807167Y-993606800D01*
X1023764135Y-993554365D01*
X1023680570Y-993485785D01*
X1023585231Y-993434826D01*
X1023481783Y-993403445D01*
X1023374200Y-993392849D01*
X1021224200Y-993392849D01*
X1021116617Y-993403445D01*
X1021013169Y-993434826D01*
X1020917830Y-993485785D01*
X1020912207Y-993490400D01*
X1019544929Y-993490400D01*
X1019480432Y-993455926D01*
X1019376984Y-993424545D01*
X1019269401Y-993413949D01*
X1018369399Y-993413949D01*
X1018261816Y-993424545D01*
X1018158368Y-993455926D01*
X1018063030Y-993506885D01*
X1017979465Y-993575465D01*
X1017910885Y-993659030D01*
X1017859926Y-993754368D01*
X1017828545Y-993857816D01*
X1017817949Y-993965399D01*
X1017817949Y-994615401D01*
X1017828545Y-994722984D01*
X1017859926Y-994826432D01*
X1017910885Y-994921770D01*
X1017979465Y-995005335D01*
X1018063030Y-995073915D01*
X1018158368Y-995124874D01*
X1018261816Y-995156255D01*
X1018369399Y-995166851D01*
X1019269401Y-995166851D01*
X1019376984Y-995156255D01*
X1019480432Y-995124874D01*
X1019544929Y-995090400D01*
X1020720108Y-995090400D01*
X1020765685Y-995175670D01*
X1020834265Y-995259235D01*
X1020917830Y-995327815D01*
X1021013169Y-995378774D01*
X1021116617Y-995410155D01*
X1021224200Y-995420751D01*
X1023374200Y-995420751D01*
X1023481783Y-995410155D01*
X1023585231Y-995378774D01*
X1023680570Y-995327815D01*
X1023764135Y-995259235D01*
X1023807167Y-995206800D01*
X1024631630Y-995206800D01*
X1024777549Y-995352719D01*
X1024777549Y-995547801D01*
X1024788145Y-995655384D01*
X1024819526Y-995758832D01*
X1024870485Y-995854170D01*
X1024939065Y-995937735D01*
X1025022630Y-996006315D01*
X1025117968Y-996057274D01*
X1025221416Y-996088655D01*
X1025328999Y-996099251D01*
X1025879681Y-996099251D01*
X1027318927Y-997538497D01*
X1027343978Y-997569022D01*
X1027390952Y-997607572D01*
X1027465793Y-997668993D01*
X1027593145Y-997737064D01*
X1027604772Y-997743279D01*
X1027755573Y-997789024D01*
X1027873107Y-997800600D01*
X1027873109Y-997800600D01*
X1027912400Y-997804470D01*
X1027951691Y-997800600D01*
X1028829593Y-997800600D01*
X1028868335Y-997792894D01*
X1028907627Y-997789024D01*
X1028945407Y-997777563D01*
X1028984151Y-997769857D01*
X1029020648Y-997754740D01*
X1029044422Y-997747528D01*
X1029532213Y-998235319D01*
X1029532218Y-998235323D01*
X1029647801Y-998350906D01*
X1029647800Y-1002127694D01*
X1028786686Y-1002988809D01*
X1027646748Y-1002988811D01*
X1027622189Y-1002986392D01*
X1027524172Y-1002996046D01*
X1027429921Y-1003024636D01*
X1027343060Y-1003071065D01*
X1027286002Y-1003117891D01*
X1027285997Y-1003117896D01*
X1027266926Y-1003133547D01*
X1027251274Y-1003152619D01*
X1025521095Y-1004882800D01*
X1024575958Y-1004882800D01*
X1024556221Y-1004845875D01*
X1024489196Y-1004764204D01*
X1024407525Y-1004697179D01*
X1024314348Y-1004647374D01*
X1024213244Y-1004616705D01*
X1024172978Y-1004612739D01*
X1022921254Y-1003361016D01*
X1022906826Y-1003313452D01*
X1022857021Y-1003220275D01*
X1022789996Y-1003138604D01*
X1022708325Y-1003071579D01*
X1022615148Y-1003021774D01*
X1022514044Y-1002991105D01*
X1022436825Y-1002983499D01*
X1022373222Y-1002964206D01*
X1022245800Y-1002951656D01*
X1022118378Y-1002964206D01*
X1022063842Y-1002980749D01*
X1021983562Y-1002980749D01*
X1022236937Y-1002727374D01*
X1022256014Y-1002711718D01*
X1022318496Y-1002635583D01*
X1022364925Y-1002548721D01*
X1022393515Y-1002454471D01*
X1022400750Y-1002381014D01*
X1022403169Y-1002356454D01*
X1022400750Y-1002331894D01*
X1022400750Y-1002076066D01*
X1022421390Y-1002074260D01*
X1022423155Y-1002073747D01*
X1022424982Y-1002073568D01*
X1022455947Y-1002064219D01*
X1022486985Y-1002055201D01*
X1022488614Y-1002054357D01*
X1022490375Y-1002053825D01*
X1022518917Y-1002038649D01*
X1022547630Y-1002023765D01*
X1022549069Y-1002022617D01*
X1022550687Y-1002021756D01*
X1022575713Y-1002001345D01*
X1022601013Y-1001981148D01*
X1022603565Y-1001978631D01*
X1022603622Y-1001978584D01*
X1022603666Y-1001978531D01*
X1022604492Y-1001977716D01*
X1022654490Y-1001927717D01*
X1022675025Y-1001902717D01*
X1022695785Y-1001877976D01*
X1022696674Y-1001876359D01*
X1022697846Y-1001874932D01*
X1022713126Y-1001846433D01*
X1022728693Y-1001818118D01*
X1022729251Y-1001816359D01*
X1022730124Y-1001814731D01*
X1022739567Y-1001783842D01*
X1022749349Y-1001753008D01*
X1022749555Y-1001751169D01*
X1022750094Y-1001749407D01*
X1022753356Y-1001717286D01*
X1022756964Y-1001685126D01*
X1022756989Y-1001681517D01*
X1022756996Y-1001681449D01*
X1022756990Y-1001681386D01*
X1022756998Y-1001680239D01*
X1022757000Y-1001530240D01*
X1022757000Y-1001530225D01*
X1022753845Y-1001498044D01*
X1022751021Y-1001465807D01*
X1022750512Y-1001464054D01*
X1022750334Y-1001462243D01*
X1022740987Y-1001431282D01*
X1022731957Y-1001400215D01*
X1022731119Y-1001398598D01*
X1022730591Y-1001396850D01*
X1022715406Y-1001368292D01*
X1022700516Y-1001339572D01*
X1022699376Y-1001338144D01*
X1022698522Y-1001336538D01*
X1022678111Y-1001311511D01*
X1022657895Y-1001286192D01*
X1022655393Y-1001283656D01*
X1022655350Y-1001283603D01*
X1022655301Y-1001283562D01*
X1022654463Y-1001282713D01*
X1022604463Y-1001232723D01*
X1022579478Y-1001212204D01*
X1022554738Y-1001191445D01*
X1022553109Y-1001190549D01*
X1022551674Y-1001189371D01*
X1022523200Y-1001174107D01*
X1022494880Y-1001158538D01*
X1022493109Y-1001157976D01*
X1022491471Y-1001157098D01*
X1022460618Y-1001147669D01*
X1022429769Y-1001137883D01*
X1022427916Y-1001137675D01*
X1022426145Y-1001137134D01*
X1022394063Y-1001133878D01*
X1022361887Y-1001130269D01*
X1022358253Y-1001130244D01*
X1022358187Y-1001130237D01*
X1022358125Y-1001130243D01*
X1022357000Y-1001130235D01*
X1021782000Y-1001130235D01*
X1021749828Y-1001133390D01*
X1021717617Y-1001136208D01*
X1021715850Y-1001136721D01*
X1021714018Y-1001136901D01*
X1021683055Y-1001146249D01*
X1021652022Y-1001155265D01*
X1021650389Y-1001156111D01*
X1021648625Y-1001156644D01*
X1021620096Y-1001171813D01*
X1021591376Y-1001186700D01*
X1021589934Y-1001187851D01*
X1021588313Y-1001188713D01*
X1021563271Y-1001209136D01*
X1021537993Y-1001229316D01*
X1021535432Y-1001231841D01*
X1021535378Y-1001231885D01*
X1021535337Y-1001231935D01*
X1021534513Y-1001232747D01*
X1021484513Y-1001282748D01*
X1021464016Y-1001307702D01*
X1021443210Y-1001332497D01*
X1021442322Y-1001334113D01*
X1021441156Y-1001335532D01*
X1021425887Y-1001364007D01*
X1021410303Y-1001392355D01*
X1021409747Y-1001394108D01*
X1021408876Y-1001395732D01*
X1021399420Y-1001426663D01*
X1021389648Y-1001457466D01*
X1021389443Y-1001459296D01*
X1021388905Y-1001461055D01*
X1021385639Y-1001493209D01*
X1021382034Y-1001525348D01*
X1021382009Y-1001528944D01*
X1021382002Y-1001529013D01*
X1021382008Y-1001529077D01*
X1021382000Y-1001530235D01*
X1021382000Y-1002105235D01*
X1021385159Y-1002137451D01*
X1021387370Y-1002162727D01*
X1020589239Y-1002960859D01*
X1020495799Y-1002951656D01*
X1020368378Y-1002964206D01*
X1020313842Y-1002980749D01*
X1020083900Y-1002980749D01*
X1019978756Y-1002991105D01*
X1019877652Y-1003021774D01*
X1019784475Y-1003071579D01*
X1019702804Y-1003138604D01*
X1019635779Y-1003220275D01*
X1019585974Y-1003313452D01*
X1019555305Y-1003414556D01*
X1019544949Y-1003519700D01*
X1019544949Y-1003994700D01*
X1019555305Y-1004099844D01*
X1019585974Y-1004200948D01*
X1019635779Y-1004294125D01*
X1019702804Y-1004375796D01*
X1019741601Y-1004407635D01*
X1019741600Y-1004723542D01*
X1019723004Y-1004738804D01*
X1019655979Y-1004820475D01*
X1019606174Y-1004913652D01*
X1019575505Y-1005014756D01*
X1019565149Y-1005119900D01*
X1019565149Y-1005594900D01*
X1019575505Y-1005700044D01*
X1019606174Y-1005801148D01*
X1019655979Y-1005894325D01*
X1019723004Y-1005975996D01*
X1019804675Y-1006043021D01*
X1019897852Y-1006092826D01*
X1019998956Y-1006123495D01*
X1020104100Y-1006133851D01*
X1020679100Y-1006133851D01*
X1020784244Y-1006123495D01*
X1020885348Y-1006092826D01*
X1020978525Y-1006043021D01*
X1020990979Y-1006032800D01*
X1021440270Y-1006032800D01*
X1021483675Y-1006068421D01*
X1021576852Y-1006118226D01*
X1021677956Y-1006148895D01*
X1021783100Y-1006159251D01*
X1022358100Y-1006159251D01*
X1022463244Y-1006148895D01*
X1022564348Y-1006118226D01*
X1022657525Y-1006068421D01*
X1022739196Y-1006001396D01*
X1022806221Y-1005919725D01*
X1022856026Y-1005826548D01*
X1022886695Y-1005725444D01*
X1022897051Y-1005620300D01*
X1022897051Y-1005175290D01*
X1022994149Y-1005272388D01*
X1022994149Y-1005620300D01*
X1023004505Y-1005725444D01*
X1023035174Y-1005826548D01*
X1023084979Y-1005919725D01*
X1023152004Y-1006001396D01*
X1023233675Y-1006068421D01*
X1023326852Y-1006118226D01*
X1023427956Y-1006148895D01*
X1023533100Y-1006159251D01*
X1024108100Y-1006159251D01*
X1024213244Y-1006148895D01*
X1024314348Y-1006118226D01*
X1024407525Y-1006068421D01*
X1024489196Y-1006001396D01*
X1024556221Y-1005919725D01*
X1024575958Y-1005882800D01*
X1025703640Y-1005882800D01*
X1025728200Y-1005885219D01*
X1025752760Y-1005882800D01*
X1025826217Y-1005875565D01*
X1025920467Y-1005846975D01*
X1026007329Y-1005800546D01*
X1026083464Y-1005738064D01*
X1026099129Y-1005718976D01*
X1026822000Y-1004996106D01*
X1026822000Y-1005671578D01*
X1026118578Y-1006375000D01*
X1018378222Y-1006375000D01*
X1017649400Y-1005646178D01*
X1017649400Y-997682799D01*
X1017817949Y-997682799D01*
X1017817949Y-998332801D01*
X1017828545Y-998440384D01*
X1017859926Y-998543832D01*
X1017910885Y-998639170D01*
X1017979465Y-998722735D01*
X1018063030Y-998791315D01*
X1018158368Y-998842274D01*
X1018261816Y-998873655D01*
X1018369399Y-998884251D01*
X1019269401Y-998884251D01*
X1019376984Y-998873655D01*
X1019480432Y-998842274D01*
X1019575770Y-998791315D01*
X1019659335Y-998722735D01*
X1019665519Y-998715200D01*
X1019719909Y-998715200D01*
X1019759200Y-998719070D01*
X1019798491Y-998715200D01*
X1019798493Y-998715200D01*
X1019916027Y-998703624D01*
X1020066828Y-998657879D01*
X1020135394Y-998621229D01*
X1020125861Y-998639012D01*
X1020110274Y-998667363D01*
X1020109714Y-998669130D01*
X1020108840Y-998670759D01*
X1020099401Y-998701639D01*
X1020089619Y-998732474D01*
X1020089413Y-998734315D01*
X1020088872Y-998736083D01*
X1020085610Y-998768215D01*
X1020082004Y-998800356D01*
X1020081979Y-998803974D01*
X1020081972Y-998804042D01*
X1020081978Y-998804105D01*
X1020081970Y-998805243D01*
X1020081970Y-998830244D01*
X1020056967Y-998830244D01*
X1020024763Y-998833402D01*
X1019992576Y-998836218D01*
X1019990810Y-998836731D01*
X1019988985Y-998836910D01*
X1019958033Y-998846255D01*
X1019926982Y-998855277D01*
X1019925353Y-998856121D01*
X1019923592Y-998856653D01*
X1019895050Y-998871829D01*
X1019866337Y-998886713D01*
X1019864898Y-998887861D01*
X1019863280Y-998888722D01*
X1019838254Y-998909133D01*
X1019812954Y-998929330D01*
X1019810398Y-998931851D01*
X1019810345Y-998931894D01*
X1019810305Y-998931943D01*
X1019809474Y-998932762D01*
X1019759477Y-998982762D01*
X1019738983Y-999007713D01*
X1019718179Y-999032506D01*
X1019717289Y-999034125D01*
X1019716121Y-999035547D01*
X1019700863Y-999064004D01*
X1019685272Y-999092364D01*
X1019684714Y-999094122D01*
X1019683843Y-999095747D01*
X1019674401Y-999126633D01*
X1019664617Y-999157475D01*
X1019664411Y-999159311D01*
X1019663873Y-999161071D01*
X1019660610Y-999193201D01*
X1019657003Y-999225357D01*
X1019656978Y-999228961D01*
X1019656971Y-999229029D01*
X1019656977Y-999229093D01*
X1019656969Y-999230244D01*
X1019656969Y-999340683D01*
X1019575970Y-999274209D01*
X1019480709Y-999223291D01*
X1019377345Y-999191936D01*
X1019269850Y-999181349D01*
X1018368950Y-999181349D01*
X1018261455Y-999191936D01*
X1018158091Y-999223291D01*
X1018062830Y-999274209D01*
X1017979333Y-999342733D01*
X1017910809Y-999426230D01*
X1017859891Y-999521491D01*
X1017828536Y-999624855D01*
X1017817949Y-999732350D01*
X1017817949Y-1000383250D01*
X1017828536Y-1000490745D01*
X1017859891Y-1000594109D01*
X1017910809Y-1000689370D01*
X1017979333Y-1000772867D01*
X1018062830Y-1000841391D01*
X1018158091Y-1000892309D01*
X1018261455Y-1000923664D01*
X1018368950Y-1000934251D01*
X1019017655Y-1000934251D01*
X1019046908Y-1000963504D01*
X1019035044Y-1000959905D01*
X1018929900Y-1000949549D01*
X1018454900Y-1000949549D01*
X1018349756Y-1000959905D01*
X1018248652Y-1000990574D01*
X1018155475Y-1001040379D01*
X1018073804Y-1001107404D01*
X1018006779Y-1001189075D01*
X1017956974Y-1001282252D01*
X1017926305Y-1001383356D01*
X1017915949Y-1001488500D01*
X1017915949Y-1002063500D01*
X1017926305Y-1002168644D01*
X1017956974Y-1002269748D01*
X1018006779Y-1002362925D01*
X1018073804Y-1002444596D01*
X1018155475Y-1002511621D01*
X1018248652Y-1002561426D01*
X1018349756Y-1002592095D01*
X1018454900Y-1002602451D01*
X1018929900Y-1002602451D01*
X1019035044Y-1002592095D01*
X1019136148Y-1002561426D01*
X1019229325Y-1002511621D01*
X1019310996Y-1002444596D01*
X1019378021Y-1002362925D01*
X1019427826Y-1002269748D01*
X1019458495Y-1002168644D01*
X1019465356Y-1002098982D01*
X1020082003Y-1002098982D01*
X1020082003Y-1002105232D01*
X1020085161Y-1002137440D01*
X1020087977Y-1002169622D01*
X1020088490Y-1002171387D01*
X1020088669Y-1002173214D01*
X1020098018Y-1002204179D01*
X1020107036Y-1002235217D01*
X1020107880Y-1002236846D01*
X1020108412Y-1002238607D01*
X1020123588Y-1002267149D01*
X1020138472Y-1002295862D01*
X1020139620Y-1002297301D01*
X1020140481Y-1002298919D01*
X1020160892Y-1002323945D01*
X1020181089Y-1002349245D01*
X1020183606Y-1002351797D01*
X1020183653Y-1002351854D01*
X1020183706Y-1002351898D01*
X1020184521Y-1002352724D01*
X1020234520Y-1002402722D01*
X1020259520Y-1002423257D01*
X1020284261Y-1002444017D01*
X1020285878Y-1002444906D01*
X1020287305Y-1002446078D01*
X1020315804Y-1002461358D01*
X1020344119Y-1002476925D01*
X1020345878Y-1002477483D01*
X1020347506Y-1002478356D01*
X1020378395Y-1002487799D01*
X1020409229Y-1002497581D01*
X1020411068Y-1002497787D01*
X1020412830Y-1002498326D01*
X1020444951Y-1002501588D01*
X1020477111Y-1002505196D01*
X1020480720Y-1002505221D01*
X1020480788Y-1002505228D01*
X1020480851Y-1002505222D01*
X1020481998Y-1002505230D01*
X1020631997Y-1002505232D01*
X1020632013Y-1002505232D01*
X1020664215Y-1002502074D01*
X1020696434Y-1002499252D01*
X1020698183Y-1002498744D01*
X1020699995Y-1002498566D01*
X1020730953Y-1002489219D01*
X1020762027Y-1002480188D01*
X1020763644Y-1002479349D01*
X1020765388Y-1002478823D01*
X1020793925Y-1002463649D01*
X1020822669Y-1002448746D01*
X1020824095Y-1002447607D01*
X1020825700Y-1002446754D01*
X1020850759Y-1002426317D01*
X1020876048Y-1002406124D01*
X1020878580Y-1002403627D01*
X1020878635Y-1002403582D01*
X1020878677Y-1002403531D01*
X1020879528Y-1002402692D01*
X1020929517Y-1002352692D01*
X1020950036Y-1002327706D01*
X1020970792Y-1002302970D01*
X1020971688Y-1002301339D01*
X1020972868Y-1002299903D01*
X1020988135Y-1002271422D01*
X1021003699Y-1002243112D01*
X1021004261Y-1002241341D01*
X1021005141Y-1002239699D01*
X1021014580Y-1002208811D01*
X1021024354Y-1002178001D01*
X1021024562Y-1002176148D01*
X1021025104Y-1002174374D01*
X1021028361Y-1002142278D01*
X1021031968Y-1002110119D01*
X1021031993Y-1002106481D01*
X1021032000Y-1002106415D01*
X1021031994Y-1002106354D01*
X1021032002Y-1002105232D01*
X1021032002Y-1001530232D01*
X1021028847Y-1001498060D01*
X1021026029Y-1001465849D01*
X1021025516Y-1001464082D01*
X1021025336Y-1001462250D01*
X1021015988Y-1001431287D01*
X1021006972Y-1001400254D01*
X1021006126Y-1001398621D01*
X1021005593Y-1001396857D01*
X1020990424Y-1001368328D01*
X1020975537Y-1001339608D01*
X1020974386Y-1001338166D01*
X1020973524Y-1001336545D01*
X1020953101Y-1001311503D01*
X1020932921Y-1001286225D01*
X1020930396Y-1001283664D01*
X1020930352Y-1001283610D01*
X1020930302Y-1001283569D01*
X1020929490Y-1001282745D01*
X1020901685Y-1001254940D01*
X1020907647Y-1001247675D01*
X1020935504Y-1001195558D01*
X1020952659Y-1001139008D01*
X1020958451Y-1001080198D01*
X1020958451Y-1000830200D01*
X1020952659Y-1000771390D01*
X1020935504Y-1000714840D01*
X1020930351Y-1000705200D01*
X1020935504Y-1000695559D01*
X1020952659Y-1000639009D01*
X1020958451Y-1000580199D01*
X1020958451Y-1000330201D01*
X1020952659Y-1000271391D01*
X1020935504Y-1000214841D01*
X1020930351Y-1000205201D01*
X1020935504Y-1000195560D01*
X1020943561Y-1000169000D01*
X1021470439Y-1000169000D01*
X1021478496Y-1000195560D01*
X1021483649Y-1000205201D01*
X1021478496Y-1000214841D01*
X1021461341Y-1000271391D01*
X1021455549Y-1000330201D01*
X1021455549Y-1000580199D01*
X1021461341Y-1000639009D01*
X1021478496Y-1000695559D01*
X1021506353Y-1000747676D01*
X1021543842Y-1000793357D01*
X1021589523Y-1000830846D01*
X1021641640Y-1000858703D01*
X1021698190Y-1000875858D01*
X1021757000Y-1000881650D01*
X1021865928Y-1000881650D01*
X1021889733Y-1000894374D01*
X1021983983Y-1000922964D01*
X1022057440Y-1000930199D01*
X1022082000Y-1000932618D01*
X1022106560Y-1000930199D01*
X1023032294Y-1000930199D01*
X1023249949Y-1001147855D01*
X1023249949Y-1001504700D01*
X1023260305Y-1001609844D01*
X1023290974Y-1001710948D01*
X1023340779Y-1001804125D01*
X1023407804Y-1001885796D01*
X1023489475Y-1001952821D01*
X1023556801Y-1001988808D01*
X1023556800Y-1002564543D01*
X1023538204Y-1002579804D01*
X1023471179Y-1002661475D01*
X1023421374Y-1002754652D01*
X1023390705Y-1002855756D01*
X1023380349Y-1002960900D01*
X1023380349Y-1003435900D01*
X1023390705Y-1003541044D01*
X1023421374Y-1003642148D01*
X1023471179Y-1003735325D01*
X1023538204Y-1003816996D01*
X1023619875Y-1003884021D01*
X1023713052Y-1003933826D01*
X1023814156Y-1003964495D01*
X1023919300Y-1003974851D01*
X1024494300Y-1003974851D01*
X1024599444Y-1003964495D01*
X1024700548Y-1003933826D01*
X1024793725Y-1003884021D01*
X1024875396Y-1003816996D01*
X1024942421Y-1003735325D01*
X1024992226Y-1003642148D01*
X1025022895Y-1003541044D01*
X1025033251Y-1003435900D01*
X1025033251Y-1002960900D01*
X1025022895Y-1002855756D01*
X1024992226Y-1002754652D01*
X1024942421Y-1002661475D01*
X1024875396Y-1002579804D01*
X1024856800Y-1002564543D01*
X1024856800Y-1001816400D01*
X1024936574Y-1001816400D01*
X1024989865Y-1001881335D01*
X1025073430Y-1001949915D01*
X1025168768Y-1002000874D01*
X1025272216Y-1002032255D01*
X1025379799Y-1002042851D01*
X1026279801Y-1002042851D01*
X1026387384Y-1002032255D01*
X1026490832Y-1002000874D01*
X1026586170Y-1001949915D01*
X1026669735Y-1001881335D01*
X1026738315Y-1001797770D01*
X1026789274Y-1001702432D01*
X1026792991Y-1001690179D01*
X1028066171Y-1000417000D01*
X1028829593Y-1000417000D01*
X1028868335Y-1000409294D01*
X1028907627Y-1000405424D01*
X1028945407Y-1000393963D01*
X1028984151Y-1000386257D01*
X1029020648Y-1000371140D01*
X1029058428Y-1000359679D01*
X1029093246Y-1000341068D01*
X1029129742Y-1000325951D01*
X1029162590Y-1000304003D01*
X1029197406Y-1000285393D01*
X1029227922Y-1000260349D01*
X1029260770Y-1000238401D01*
X1029288702Y-1000210469D01*
X1029319222Y-1000185422D01*
X1029344270Y-1000154901D01*
X1029372201Y-1000126970D01*
X1029394149Y-1000094122D01*
X1029419193Y-1000063606D01*
X1029437803Y-1000028790D01*
X1029459751Y-999995942D01*
X1029474868Y-999959446D01*
X1029493479Y-999924628D01*
X1029504940Y-999886848D01*
X1029520057Y-999850351D01*
X1029527763Y-999811607D01*
X1029539224Y-999773827D01*
X1029543094Y-999734535D01*
X1029550800Y-999695793D01*
X1029550800Y-999656293D01*
X1029554670Y-999617000D01*
X1029550800Y-999577707D01*
X1029550800Y-999538207D01*
X1029543094Y-999499465D01*
X1029539224Y-999460173D01*
X1029527763Y-999422393D01*
X1029520057Y-999383649D01*
X1029504940Y-999347152D01*
X1029493479Y-999309372D01*
X1029474868Y-999274554D01*
X1029459751Y-999238058D01*
X1029437803Y-999205210D01*
X1029419193Y-999170394D01*
X1029394149Y-999139878D01*
X1029372201Y-999107030D01*
X1029344269Y-999079098D01*
X1029319222Y-999048578D01*
X1029288701Y-999023530D01*
X1029260770Y-998995599D01*
X1029227922Y-998973651D01*
X1029197406Y-998948607D01*
X1029162590Y-998929997D01*
X1029129742Y-998908049D01*
X1029093246Y-998892932D01*
X1029058428Y-998874321D01*
X1029020648Y-998862860D01*
X1028984151Y-998847743D01*
X1028945407Y-998840037D01*
X1028907627Y-998828576D01*
X1028868335Y-998824706D01*
X1028829593Y-998817000D01*
X1027774091Y-998817000D01*
X1027734800Y-998813130D01*
X1027695509Y-998817000D01*
X1027695507Y-998817000D01*
X1027577973Y-998828576D01*
X1027434896Y-998871978D01*
X1027427172Y-998874321D01*
X1027288193Y-998948607D01*
X1027196899Y-999023530D01*
X1027166378Y-999048578D01*
X1027141331Y-999079098D01*
X1025930481Y-1000289949D01*
X1025379799Y-1000289949D01*
X1025272216Y-1000300545D01*
X1025168768Y-1000331926D01*
X1025073430Y-1000382885D01*
X1024989865Y-1000451465D01*
X1024936574Y-1000516400D01*
X1024605755Y-1000516400D01*
X1024563325Y-1000481579D01*
X1024470148Y-1000431774D01*
X1024369044Y-1000401105D01*
X1024263900Y-1000390749D01*
X1023907055Y-1000390749D01*
X1023610328Y-1000094023D01*
X1023594663Y-1000074935D01*
X1023518528Y-1000012453D01*
X1023431666Y-999966024D01*
X1023337416Y-999937434D01*
X1023263959Y-999930199D01*
X1023239399Y-999927780D01*
X1023214839Y-999930199D01*
X1022708451Y-999930199D01*
X1022708451Y-999830202D01*
X1022702659Y-999771392D01*
X1022685504Y-999714842D01*
X1022657647Y-999662725D01*
X1022640414Y-999641727D01*
X1022654490Y-999627651D01*
X1022675025Y-999602651D01*
X1022695785Y-999577910D01*
X1022696674Y-999576293D01*
X1022697846Y-999574866D01*
X1022713126Y-999546367D01*
X1022728693Y-999518052D01*
X1022729251Y-999516293D01*
X1022730124Y-999514665D01*
X1022739567Y-999483776D01*
X1022749349Y-999452942D01*
X1022749555Y-999451103D01*
X1022750094Y-999449341D01*
X1022753356Y-999417220D01*
X1022756964Y-999385060D01*
X1022756989Y-999381451D01*
X1022756996Y-999381383D01*
X1022756990Y-999381320D01*
X1022756998Y-999380173D01*
X1022757000Y-999230173D01*
X1022753842Y-999197961D01*
X1022751026Y-999165778D01*
X1022750514Y-999164015D01*
X1022750335Y-999162191D01*
X1022740983Y-999131212D01*
X1022731967Y-999100183D01*
X1022731125Y-999098558D01*
X1022730593Y-999096797D01*
X1022715401Y-999068225D01*
X1022700531Y-999039538D01*
X1022699385Y-999038103D01*
X1022698525Y-999036485D01*
X1022678106Y-999011447D01*
X1022657914Y-998986155D01*
X1022655400Y-998983606D01*
X1022655353Y-998983549D01*
X1022655300Y-998983505D01*
X1022654482Y-998982676D01*
X1022604480Y-998932676D01*
X1022579529Y-998912182D01*
X1022554736Y-998891378D01*
X1022553117Y-998890488D01*
X1022551695Y-998889320D01*
X1022523238Y-998874062D01*
X1022494878Y-998858471D01*
X1022493120Y-998857913D01*
X1022491495Y-998857042D01*
X1022460609Y-998847600D01*
X1022429767Y-998837816D01*
X1022427931Y-998837610D01*
X1022426171Y-998837072D01*
X1022394041Y-998833809D01*
X1022361885Y-998830202D01*
X1022358281Y-998830177D01*
X1022358213Y-998830170D01*
X1022358149Y-998830176D01*
X1022356998Y-998830168D01*
X1022332000Y-998830168D01*
X1022332000Y-998805168D01*
X1022328841Y-998772951D01*
X1022326024Y-998740767D01*
X1022325513Y-998739007D01*
X1022325334Y-998737186D01*
X1022315985Y-998706221D01*
X1022306963Y-998675173D01*
X1022306121Y-998673549D01*
X1022305591Y-998671793D01*
X1022290409Y-998643241D01*
X1022275525Y-998614529D01*
X1022274380Y-998613095D01*
X1022273522Y-998611481D01*
X1022253098Y-998586438D01*
X1022232906Y-998561147D01*
X1022230394Y-998558599D01*
X1022230350Y-998558546D01*
X1022230301Y-998558505D01*
X1022229475Y-998557668D01*
X1022179472Y-998507670D01*
X1022154474Y-998487139D01*
X1022129739Y-998466383D01*
X1022128117Y-998465491D01*
X1022126686Y-998464316D01*
X1022098198Y-998449043D01*
X1022069881Y-998433475D01*
X1022068116Y-998432915D01*
X1022066484Y-998432040D01*
X1022035605Y-998422601D01*
X1022004771Y-998412819D01*
X1022002927Y-998412612D01*
X1022001160Y-998412072D01*
X1021969049Y-998408812D01*
X1021936889Y-998405204D01*
X1021933268Y-998405179D01*
X1021933201Y-998405172D01*
X1021933139Y-998405178D01*
X1021932002Y-998405170D01*
X1021782005Y-998405168D01*
X1021781990Y-998405168D01*
X1021749801Y-998408324D01*
X1021717579Y-998411146D01*
X1021715824Y-998411656D01*
X1021714008Y-998411834D01*
X1021707000Y-998413950D01*
X1021707000Y-998395751D01*
X1023374200Y-998395751D01*
X1023481783Y-998385155D01*
X1023585231Y-998353774D01*
X1023680570Y-998302815D01*
X1023764135Y-998234235D01*
X1023832715Y-998150670D01*
X1023883674Y-998055331D01*
X1023915055Y-997951883D01*
X1023925651Y-997844300D01*
X1023925651Y-996919300D01*
X1023915055Y-996811717D01*
X1023883674Y-996708269D01*
X1023832715Y-996612930D01*
X1023764135Y-996529365D01*
X1023680570Y-996460785D01*
X1023585231Y-996409826D01*
X1023481783Y-996378445D01*
X1023374200Y-996367849D01*
X1021224200Y-996367849D01*
X1021116617Y-996378445D01*
X1021013169Y-996409826D01*
X1020917830Y-996460785D01*
X1020834265Y-996529365D01*
X1020791233Y-996581800D01*
X1020331891Y-996581800D01*
X1020292600Y-996577930D01*
X1020253309Y-996581800D01*
X1020253307Y-996581800D01*
X1020135773Y-996593376D01*
X1019984972Y-996639121D01*
X1019845993Y-996713407D01*
X1019791559Y-996758080D01*
X1019724178Y-996813378D01*
X1019699127Y-996843903D01*
X1019427830Y-997115200D01*
X1018907107Y-997115200D01*
X1018789573Y-997126776D01*
X1018774498Y-997131349D01*
X1018369399Y-997131349D01*
X1018261816Y-997141945D01*
X1018158368Y-997173326D01*
X1018063030Y-997224285D01*
X1017979465Y-997292865D01*
X1017910885Y-997376430D01*
X1017859926Y-997471768D01*
X1017828545Y-997575216D01*
X1017817949Y-997682799D01*
X1017649400Y-997682799D01*
X1017649400Y-993816422D01*
X1018225822Y-993240000D01*
X1026067778Y-993240000D01*
X1026695000Y-993867222D01*
G37*
G04 #@! TD.AperFunction*
D22*
X1049290036Y-993740222D02*
X1049290036Y-996277000D01*
X1041210691Y-996277000D01*
X1041171400Y-996273130D01*
X1041132109Y-996277000D01*
X1041132107Y-996277000D01*
X1041014573Y-996288576D01*
X1040863772Y-996334321D01*
X1040724793Y-996408607D01*
X1040676633Y-996448131D01*
X1040602978Y-996508578D01*
X1040577927Y-996539103D01*
X1035010214Y-1002106816D01*
X1034852290Y-1002172230D01*
X1034704883Y-1002270724D01*
X1034579524Y-1002396083D01*
X1034481030Y-1002543490D01*
X1034413186Y-1002707280D01*
X1034378600Y-1002881158D01*
X1034378600Y-1003058442D01*
X1034413186Y-1003232320D01*
X1034481030Y-1003396110D01*
X1034579524Y-1003543517D01*
X1034704883Y-1003668876D01*
X1034852290Y-1003767370D01*
X1035016080Y-1003835214D01*
X1035189958Y-1003869800D01*
X1035367242Y-1003869800D01*
X1035541120Y-1003835214D01*
X1035704910Y-1003767370D01*
X1035852317Y-1003668876D01*
X1035977676Y-1003543517D01*
X1036076170Y-1003396110D01*
X1036141584Y-1003238186D01*
X1041502770Y-997877000D01*
X1049290036Y-997877000D01*
X1049290036Y-998004200D01*
X1044436490Y-998004200D01*
X1044397199Y-998000330D01*
X1044357908Y-998004200D01*
X1044357907Y-998004200D01*
X1044240373Y-998015776D01*
X1044089572Y-998061521D01*
X1043950593Y-998135807D01*
X1043871660Y-998200586D01*
X1043828778Y-998235778D01*
X1043803731Y-998266298D01*
X1037925630Y-1004144400D01*
X1034024243Y-1004144400D01*
X1033866320Y-1004078986D01*
X1033692442Y-1004044400D01*
X1033515158Y-1004044400D01*
X1033341280Y-1004078986D01*
X1033177490Y-1004146830D01*
X1033030083Y-1004245324D01*
X1032904724Y-1004370683D01*
X1032806230Y-1004518090D01*
X1032738386Y-1004681880D01*
X1032703800Y-1004855758D01*
X1032703800Y-1005033042D01*
X1032738386Y-1005206920D01*
X1032806230Y-1005370710D01*
X1032904724Y-1005518117D01*
X1033030083Y-1005643476D01*
X1033177490Y-1005741970D01*
X1033341280Y-1005809814D01*
X1033515158Y-1005844400D01*
X1033692442Y-1005844400D01*
X1033866320Y-1005809814D01*
X1034024243Y-1005744400D01*
X1038217709Y-1005744400D01*
X1038257000Y-1005748270D01*
X1038296291Y-1005744400D01*
X1038296293Y-1005744400D01*
X1038413827Y-1005732824D01*
X1038564628Y-1005687079D01*
X1038703606Y-1005612793D01*
X1038825422Y-1005512822D01*
X1038850473Y-1005482297D01*
X1044728571Y-999604200D01*
X1049290036Y-999604200D01*
X1049290036Y-1001509200D01*
X1047891082Y-1001509200D01*
X1047851799Y-1001505331D01*
X1047812516Y-1001509200D01*
X1047812507Y-1001509200D01*
X1047694973Y-1001520776D01*
X1047544172Y-1001566521D01*
X1047453603Y-1001614931D01*
X1047405193Y-1001640807D01*
X1047313898Y-1001715731D01*
X1047283378Y-1001740778D01*
X1047258331Y-1001771298D01*
X1045637298Y-1003392332D01*
X1045606779Y-1003417378D01*
X1045581732Y-1003447898D01*
X1045581731Y-1003447899D01*
X1045506807Y-1003539194D01*
X1045432521Y-1003678173D01*
X1045386777Y-1003828973D01*
X1045371330Y-1003985800D01*
X1045375201Y-1004025100D01*
X1045375200Y-1004581356D01*
X1045309786Y-1004739280D01*
X1045275200Y-1004913158D01*
X1045275200Y-1005090442D01*
X1045309786Y-1005264320D01*
X1045377630Y-1005428110D01*
X1045476124Y-1005575517D01*
X1045601483Y-1005700876D01*
X1045748890Y-1005799370D01*
X1045912680Y-1005867214D01*
X1046086558Y-1005901800D01*
X1046263842Y-1005901800D01*
X1046437720Y-1005867214D01*
X1046601510Y-1005799370D01*
X1046748917Y-1005700876D01*
X1046874276Y-1005575517D01*
X1046972770Y-1005428110D01*
X1047040614Y-1005264320D01*
X1047075200Y-1005090442D01*
X1047075200Y-1004913158D01*
X1047040614Y-1004739280D01*
X1046975200Y-1004581357D01*
X1046975200Y-1004317170D01*
X1048183171Y-1003109200D01*
X1049290036Y-1003109200D01*
X1049290036Y-1005747778D01*
X1048688214Y-1006349600D01*
X1031346658Y-1006349600D01*
X1030643324Y-1005646266D01*
X1030668548Y-993765710D01*
X1031245058Y-993189200D01*
X1048739014Y-993189200D01*
X1049290036Y-993740222D01*
G04 #@! TA.AperFunction,Conductor*
D24*
G36*
X1049290036Y-993740222D02*
G01*
X1049290036Y-996277000D01*
X1041210691Y-996277000D01*
X1041171400Y-996273130D01*
X1041132109Y-996277000D01*
X1041132107Y-996277000D01*
X1041014573Y-996288576D01*
X1040863772Y-996334321D01*
X1040724793Y-996408607D01*
X1040676633Y-996448131D01*
X1040602978Y-996508578D01*
X1040577927Y-996539103D01*
X1035010214Y-1002106816D01*
X1034852290Y-1002172230D01*
X1034704883Y-1002270724D01*
X1034579524Y-1002396083D01*
X1034481030Y-1002543490D01*
X1034413186Y-1002707280D01*
X1034378600Y-1002881158D01*
X1034378600Y-1003058442D01*
X1034413186Y-1003232320D01*
X1034481030Y-1003396110D01*
X1034579524Y-1003543517D01*
X1034704883Y-1003668876D01*
X1034852290Y-1003767370D01*
X1035016080Y-1003835214D01*
X1035189958Y-1003869800D01*
X1035367242Y-1003869800D01*
X1035541120Y-1003835214D01*
X1035704910Y-1003767370D01*
X1035852317Y-1003668876D01*
X1035977676Y-1003543517D01*
X1036076170Y-1003396110D01*
X1036141584Y-1003238186D01*
X1041502770Y-997877000D01*
X1049290036Y-997877000D01*
X1049290036Y-998004200D01*
X1044436490Y-998004200D01*
X1044397199Y-998000330D01*
X1044357908Y-998004200D01*
X1044357907Y-998004200D01*
X1044240373Y-998015776D01*
X1044089572Y-998061521D01*
X1043950593Y-998135807D01*
X1043871660Y-998200586D01*
X1043828778Y-998235778D01*
X1043803731Y-998266298D01*
X1037925630Y-1004144400D01*
X1034024243Y-1004144400D01*
X1033866320Y-1004078986D01*
X1033692442Y-1004044400D01*
X1033515158Y-1004044400D01*
X1033341280Y-1004078986D01*
X1033177490Y-1004146830D01*
X1033030083Y-1004245324D01*
X1032904724Y-1004370683D01*
X1032806230Y-1004518090D01*
X1032738386Y-1004681880D01*
X1032703800Y-1004855758D01*
X1032703800Y-1005033042D01*
X1032738386Y-1005206920D01*
X1032806230Y-1005370710D01*
X1032904724Y-1005518117D01*
X1033030083Y-1005643476D01*
X1033177490Y-1005741970D01*
X1033341280Y-1005809814D01*
X1033515158Y-1005844400D01*
X1033692442Y-1005844400D01*
X1033866320Y-1005809814D01*
X1034024243Y-1005744400D01*
X1038217709Y-1005744400D01*
X1038257000Y-1005748270D01*
X1038296291Y-1005744400D01*
X1038296293Y-1005744400D01*
X1038413827Y-1005732824D01*
X1038564628Y-1005687079D01*
X1038703606Y-1005612793D01*
X1038825422Y-1005512822D01*
X1038850473Y-1005482297D01*
X1044728571Y-999604200D01*
X1049290036Y-999604200D01*
X1049290036Y-1001509200D01*
X1047891082Y-1001509200D01*
X1047851799Y-1001505331D01*
X1047812516Y-1001509200D01*
X1047812507Y-1001509200D01*
X1047694973Y-1001520776D01*
X1047544172Y-1001566521D01*
X1047453603Y-1001614931D01*
X1047405193Y-1001640807D01*
X1047313898Y-1001715731D01*
X1047283378Y-1001740778D01*
X1047258331Y-1001771298D01*
X1045637298Y-1003392332D01*
X1045606779Y-1003417378D01*
X1045581732Y-1003447898D01*
X1045581731Y-1003447899D01*
X1045506807Y-1003539194D01*
X1045432521Y-1003678173D01*
X1045386777Y-1003828973D01*
X1045371330Y-1003985800D01*
X1045375201Y-1004025100D01*
X1045375200Y-1004581356D01*
X1045309786Y-1004739280D01*
X1045275200Y-1004913158D01*
X1045275200Y-1005090442D01*
X1045309786Y-1005264320D01*
X1045377630Y-1005428110D01*
X1045476124Y-1005575517D01*
X1045601483Y-1005700876D01*
X1045748890Y-1005799370D01*
X1045912680Y-1005867214D01*
X1046086558Y-1005901800D01*
X1046263842Y-1005901800D01*
X1046437720Y-1005867214D01*
X1046601510Y-1005799370D01*
X1046748917Y-1005700876D01*
X1046874276Y-1005575517D01*
X1046972770Y-1005428110D01*
X1047040614Y-1005264320D01*
X1047075200Y-1005090442D01*
X1047075200Y-1004913158D01*
X1047040614Y-1004739280D01*
X1046975200Y-1004581357D01*
X1046975200Y-1004317170D01*
X1048183171Y-1003109200D01*
X1049290036Y-1003109200D01*
X1049290036Y-1005747778D01*
X1048688214Y-1006349600D01*
X1031346658Y-1006349600D01*
X1030643324Y-1005646266D01*
X1030668548Y-993765710D01*
X1031245058Y-993189200D01*
X1048739014Y-993189200D01*
X1049290036Y-993740222D01*
G37*
G04 #@! TD.AperFunction*
D22*
X1037693200Y-992735200D02*
X1030630400Y-992735200D01*
X1030610891Y-992737121D01*
X1030592132Y-992742812D01*
X1030574843Y-992752053D01*
X1030561434Y-992762786D01*
X1030028034Y-993270786D01*
X1030015232Y-993285632D01*
X1030005573Y-993302690D01*
X1029999426Y-993321305D01*
X1029997000Y-993343200D01*
X1029997000Y-996088000D01*
X1028233422Y-996088000D01*
X1027250600Y-995105178D01*
X1027250600Y-993775000D01*
X1027248679Y-993755491D01*
X1027242988Y-993736732D01*
X1027233747Y-993719443D01*
X1027221311Y-993704289D01*
X1026357711Y-992840689D01*
X1026342557Y-992828253D01*
X1026325268Y-992819012D01*
X1026306509Y-992813321D01*
X1026287000Y-992811400D01*
X1016988600Y-992811400D01*
X1016988600Y-992528400D01*
X1037693200Y-992528400D01*
X1037693200Y-992735200D01*
G04 #@! TA.AperFunction,Conductor*
D24*
G36*
X1037693200Y-992735200D02*
G01*
X1030630400Y-992735200D01*
X1030610891Y-992737121D01*
X1030592132Y-992742812D01*
X1030574843Y-992752053D01*
X1030561434Y-992762786D01*
X1030028034Y-993270786D01*
X1030015232Y-993285632D01*
X1030005573Y-993302690D01*
X1029999426Y-993321305D01*
X1029997000Y-993343200D01*
X1029997000Y-996088000D01*
X1028233422Y-996088000D01*
X1027250600Y-995105178D01*
X1027250600Y-993775000D01*
X1027248679Y-993755491D01*
X1027242988Y-993736732D01*
X1027233747Y-993719443D01*
X1027221311Y-993704289D01*
X1026357711Y-992840689D01*
X1026342557Y-992828253D01*
X1026325268Y-992819012D01*
X1026306509Y-992813321D01*
X1026287000Y-992811400D01*
X1016988600Y-992811400D01*
X1016988600Y-992528400D01*
X1037693200Y-992528400D01*
X1037693200Y-992735200D01*
G37*
G04 #@! TD.AperFunction*
D22*
X1053488600Y-1007028400D02*
X1016988600Y-1007028400D01*
X1016988600Y-1006778200D01*
X1026261600Y-1006778200D01*
X1026281109Y-1006776279D01*
X1026299868Y-1006770588D01*
X1026317157Y-1006761347D01*
X1026332311Y-1006748911D01*
X1027272111Y-1005809111D01*
X1027284547Y-1005793957D01*
X1027293788Y-1005776668D01*
X1027299479Y-1005757909D01*
X1027301400Y-1005738400D01*
X1027301400Y-1004713022D01*
X1027979422Y-1004035000D01*
X1029512800Y-1004035000D01*
X1029532309Y-1004033079D01*
X1029551068Y-1004027388D01*
X1029568357Y-1004018147D01*
X1029583511Y-1004005711D01*
X1029986022Y-1003603200D01*
X1030124000Y-1003603200D01*
X1030124000Y-1005865400D01*
X1030125921Y-1005884909D01*
X1030131612Y-1005903668D01*
X1030140853Y-1005920957D01*
X1030153289Y-1005936111D01*
X1030966089Y-1006748911D01*
X1030981243Y-1006761347D01*
X1030998532Y-1006770588D01*
X1031017291Y-1006776279D01*
X1031036800Y-1006778200D01*
X1049045400Y-1006778200D01*
X1049064909Y-1006776279D01*
X1049083668Y-1006770588D01*
X1049100957Y-1006761347D01*
X1049116111Y-1006748911D01*
X1049878111Y-1005986911D01*
X1049890547Y-1005971757D01*
X1049899788Y-1005954468D01*
X1049905479Y-1005935709D01*
X1049907400Y-1005916200D01*
X1049907400Y-1003109200D01*
X1051689593Y-1003109200D01*
X1051728335Y-1003101494D01*
X1051767627Y-1003097624D01*
X1051805407Y-1003086163D01*
X1051844151Y-1003078457D01*
X1051880648Y-1003063340D01*
X1051918428Y-1003051879D01*
X1051953246Y-1003033268D01*
X1051989742Y-1003018151D01*
X1052022590Y-1002996203D01*
X1052057406Y-1002977593D01*
X1052087922Y-1002952549D01*
X1052120770Y-1002930601D01*
X1052148702Y-1002902669D01*
X1052179222Y-1002877622D01*
X1052204269Y-1002847102D01*
X1052232201Y-1002819170D01*
X1052254149Y-1002786322D01*
X1052279193Y-1002755806D01*
X1052297803Y-1002720990D01*
X1052319751Y-1002688142D01*
X1052334868Y-1002651646D01*
X1052353479Y-1002616828D01*
X1052364940Y-1002579048D01*
X1052380057Y-1002542551D01*
X1052387763Y-1002503807D01*
X1052399224Y-1002466027D01*
X1052403094Y-1002426735D01*
X1052410800Y-1002387993D01*
X1052410800Y-1002348493D01*
X1052414670Y-1002309200D01*
X1052410800Y-1002269907D01*
X1052410800Y-1002230407D01*
X1052403094Y-1002191665D01*
X1052399224Y-1002152373D01*
X1052387763Y-1002114593D01*
X1052380057Y-1002075849D01*
X1052364940Y-1002039352D01*
X1052353479Y-1002001572D01*
X1052334868Y-1001966754D01*
X1052319751Y-1001930258D01*
X1052297803Y-1001897410D01*
X1052279193Y-1001862594D01*
X1052254149Y-1001832078D01*
X1052232201Y-1001799230D01*
X1052204269Y-1001771298D01*
X1052179222Y-1001740778D01*
X1052148702Y-1001715731D01*
X1052120770Y-1001687799D01*
X1052087922Y-1001665851D01*
X1052057406Y-1001640807D01*
X1052022590Y-1001622197D01*
X1051989742Y-1001600249D01*
X1051953246Y-1001585132D01*
X1051918428Y-1001566521D01*
X1051880648Y-1001555060D01*
X1051844151Y-1001539943D01*
X1051805407Y-1001532237D01*
X1051767627Y-1001520776D01*
X1051728335Y-1001516906D01*
X1051689593Y-1001509200D01*
X1049907400Y-1001509200D01*
X1049907400Y-1001356800D01*
X1051689593Y-1001356800D01*
X1051728335Y-1001349094D01*
X1051767627Y-1001345224D01*
X1051805407Y-1001333763D01*
X1051844151Y-1001326057D01*
X1051880648Y-1001310940D01*
X1051918428Y-1001299479D01*
X1051953246Y-1001280868D01*
X1051989742Y-1001265751D01*
X1052022590Y-1001243803D01*
X1052057406Y-1001225193D01*
X1052087922Y-1001200149D01*
X1052120770Y-1001178201D01*
X1052148702Y-1001150269D01*
X1052179222Y-1001125222D01*
X1052204269Y-1001094702D01*
X1052232201Y-1001066770D01*
X1052254149Y-1001033922D01*
X1052279193Y-1001003406D01*
X1052297803Y-1000968590D01*
X1052319751Y-1000935742D01*
X1052334868Y-1000899246D01*
X1052353479Y-1000864428D01*
X1052364940Y-1000826648D01*
X1052380057Y-1000790151D01*
X1052387763Y-1000751407D01*
X1052399224Y-1000713627D01*
X1052403094Y-1000674335D01*
X1052410800Y-1000635593D01*
X1052410800Y-1000596093D01*
X1052414670Y-1000556800D01*
X1052410800Y-1000517507D01*
X1052410800Y-1000478007D01*
X1052403094Y-1000439265D01*
X1052399224Y-1000399973D01*
X1052387763Y-1000362193D01*
X1052380057Y-1000323449D01*
X1052364940Y-1000286952D01*
X1052353479Y-1000249172D01*
X1052334868Y-1000214354D01*
X1052319751Y-1000177858D01*
X1052297803Y-1000145010D01*
X1052279193Y-1000110194D01*
X1052254149Y-1000079678D01*
X1052232201Y-1000046830D01*
X1052204269Y-1000018898D01*
X1052179222Y-999988378D01*
X1052148702Y-999963331D01*
X1052120770Y-999935399D01*
X1052087922Y-999913451D01*
X1052057406Y-999888407D01*
X1052022590Y-999869797D01*
X1051989742Y-999847849D01*
X1051953246Y-999832732D01*
X1051918428Y-999814121D01*
X1051880648Y-999802660D01*
X1051844151Y-999787543D01*
X1051805407Y-999779837D01*
X1051767627Y-999768376D01*
X1051728335Y-999764506D01*
X1051689593Y-999756800D01*
X1049907400Y-999756800D01*
X1049907400Y-999604200D01*
X1051689593Y-999604200D01*
X1051728335Y-999596494D01*
X1051767627Y-999592624D01*
X1051805407Y-999581163D01*
X1051844151Y-999573457D01*
X1051880648Y-999558340D01*
X1051918428Y-999546879D01*
X1051953246Y-999528268D01*
X1051989742Y-999513151D01*
X1052022590Y-999491203D01*
X1052057406Y-999472593D01*
X1052087922Y-999447549D01*
X1052120770Y-999425601D01*
X1052148702Y-999397669D01*
X1052179222Y-999372622D01*
X1052204269Y-999342102D01*
X1052232201Y-999314170D01*
X1052254149Y-999281322D01*
X1052279193Y-999250806D01*
X1052297803Y-999215990D01*
X1052319751Y-999183142D01*
X1052334868Y-999146646D01*
X1052353479Y-999111828D01*
X1052364940Y-999074048D01*
X1052380057Y-999037551D01*
X1052387763Y-998998807D01*
X1052399224Y-998961027D01*
X1052403094Y-998921735D01*
X1052410800Y-998882993D01*
X1052410800Y-998843493D01*
X1052414670Y-998804200D01*
X1052410800Y-998764907D01*
X1052410800Y-998725407D01*
X1052403094Y-998686665D01*
X1052399224Y-998647373D01*
X1052387763Y-998609593D01*
X1052380057Y-998570849D01*
X1052364940Y-998534352D01*
X1052353479Y-998496572D01*
X1052334868Y-998461754D01*
X1052319751Y-998425258D01*
X1052297803Y-998392410D01*
X1052279193Y-998357594D01*
X1052254149Y-998327078D01*
X1052232201Y-998294230D01*
X1052204269Y-998266298D01*
X1052179222Y-998235778D01*
X1052148702Y-998210731D01*
X1052120770Y-998182799D01*
X1052087922Y-998160851D01*
X1052057406Y-998135807D01*
X1052022590Y-998117197D01*
X1051989742Y-998095249D01*
X1051953246Y-998080132D01*
X1051918428Y-998061521D01*
X1051880648Y-998050060D01*
X1051844151Y-998034943D01*
X1051805407Y-998027237D01*
X1051767627Y-998015776D01*
X1051728335Y-998011906D01*
X1051689593Y-998004200D01*
X1049907400Y-998004200D01*
X1049907400Y-997877000D01*
X1051689593Y-997877000D01*
X1051728335Y-997869294D01*
X1051767627Y-997865424D01*
X1051805407Y-997853963D01*
X1051844151Y-997846257D01*
X1051880648Y-997831140D01*
X1051918428Y-997819679D01*
X1051953246Y-997801068D01*
X1051989742Y-997785951D01*
X1052022590Y-997764003D01*
X1052057406Y-997745393D01*
X1052087922Y-997720349D01*
X1052120770Y-997698401D01*
X1052148702Y-997670469D01*
X1052179222Y-997645422D01*
X1052204270Y-997614901D01*
X1052232201Y-997586970D01*
X1052254149Y-997554122D01*
X1052279193Y-997523606D01*
X1052297803Y-997488790D01*
X1052319751Y-997455942D01*
X1052334868Y-997419446D01*
X1052353479Y-997384628D01*
X1052364940Y-997346848D01*
X1052380057Y-997310351D01*
X1052387763Y-997271607D01*
X1052399224Y-997233827D01*
X1052403094Y-997194535D01*
X1052410800Y-997155793D01*
X1052410800Y-997116293D01*
X1052414670Y-997077000D01*
X1052410800Y-997037707D01*
X1052410800Y-996998207D01*
X1052403094Y-996959465D01*
X1052399224Y-996920173D01*
X1052387763Y-996882393D01*
X1052380057Y-996843649D01*
X1052364940Y-996807152D01*
X1052353479Y-996769372D01*
X1052334868Y-996734554D01*
X1052319751Y-996698058D01*
X1052297803Y-996665210D01*
X1052279193Y-996630394D01*
X1052254149Y-996599878D01*
X1052232201Y-996567030D01*
X1052204269Y-996539098D01*
X1052179222Y-996508578D01*
X1052148702Y-996483531D01*
X1052120770Y-996455599D01*
X1052087922Y-996433651D01*
X1052057406Y-996408607D01*
X1052022590Y-996389997D01*
X1051989742Y-996368049D01*
X1051953246Y-996352932D01*
X1051918428Y-996334321D01*
X1051880648Y-996322860D01*
X1051844151Y-996307743D01*
X1051805407Y-996300037D01*
X1051767627Y-996288576D01*
X1051728335Y-996284706D01*
X1051689593Y-996277000D01*
X1049907400Y-996277000D01*
X1049907400Y-993546400D01*
X1049905479Y-993526891D01*
X1049899788Y-993508132D01*
X1049890547Y-993490843D01*
X1049878111Y-993475689D01*
X1049192311Y-992789889D01*
X1049177157Y-992777453D01*
X1049159868Y-992768212D01*
X1049141109Y-992762521D01*
X1049121600Y-992760600D01*
X1037817000Y-992760600D01*
X1037817000Y-992528400D01*
X1053488601Y-992528400D01*
X1053488600Y-1007028400D01*
G04 #@! TA.AperFunction,Conductor*
D24*
G36*
X1053488600Y-1007028400D02*
G01*
X1016988600Y-1007028400D01*
X1016988600Y-1006778200D01*
X1026261600Y-1006778200D01*
X1026281109Y-1006776279D01*
X1026299868Y-1006770588D01*
X1026317157Y-1006761347D01*
X1026332311Y-1006748911D01*
X1027272111Y-1005809111D01*
X1027284547Y-1005793957D01*
X1027293788Y-1005776668D01*
X1027299479Y-1005757909D01*
X1027301400Y-1005738400D01*
X1027301400Y-1004713022D01*
X1027979422Y-1004035000D01*
X1029512800Y-1004035000D01*
X1029532309Y-1004033079D01*
X1029551068Y-1004027388D01*
X1029568357Y-1004018147D01*
X1029583511Y-1004005711D01*
X1029986022Y-1003603200D01*
X1030124000Y-1003603200D01*
X1030124000Y-1005865400D01*
X1030125921Y-1005884909D01*
X1030131612Y-1005903668D01*
X1030140853Y-1005920957D01*
X1030153289Y-1005936111D01*
X1030966089Y-1006748911D01*
X1030981243Y-1006761347D01*
X1030998532Y-1006770588D01*
X1031017291Y-1006776279D01*
X1031036800Y-1006778200D01*
X1049045400Y-1006778200D01*
X1049064909Y-1006776279D01*
X1049083668Y-1006770588D01*
X1049100957Y-1006761347D01*
X1049116111Y-1006748911D01*
X1049878111Y-1005986911D01*
X1049890547Y-1005971757D01*
X1049899788Y-1005954468D01*
X1049905479Y-1005935709D01*
X1049907400Y-1005916200D01*
X1049907400Y-1003109200D01*
X1051689593Y-1003109200D01*
X1051728335Y-1003101494D01*
X1051767627Y-1003097624D01*
X1051805407Y-1003086163D01*
X1051844151Y-1003078457D01*
X1051880648Y-1003063340D01*
X1051918428Y-1003051879D01*
X1051953246Y-1003033268D01*
X1051989742Y-1003018151D01*
X1052022590Y-1002996203D01*
X1052057406Y-1002977593D01*
X1052087922Y-1002952549D01*
X1052120770Y-1002930601D01*
X1052148702Y-1002902669D01*
X1052179222Y-1002877622D01*
X1052204269Y-1002847102D01*
X1052232201Y-1002819170D01*
X1052254149Y-1002786322D01*
X1052279193Y-1002755806D01*
X1052297803Y-1002720990D01*
X1052319751Y-1002688142D01*
X1052334868Y-1002651646D01*
X1052353479Y-1002616828D01*
X1052364940Y-1002579048D01*
X1052380057Y-1002542551D01*
X1052387763Y-1002503807D01*
X1052399224Y-1002466027D01*
X1052403094Y-1002426735D01*
X1052410800Y-1002387993D01*
X1052410800Y-1002348493D01*
X1052414670Y-1002309200D01*
X1052410800Y-1002269907D01*
X1052410800Y-1002230407D01*
X1052403094Y-1002191665D01*
X1052399224Y-1002152373D01*
X1052387763Y-1002114593D01*
X1052380057Y-1002075849D01*
X1052364940Y-1002039352D01*
X1052353479Y-1002001572D01*
X1052334868Y-1001966754D01*
X1052319751Y-1001930258D01*
X1052297803Y-1001897410D01*
X1052279193Y-1001862594D01*
X1052254149Y-1001832078D01*
X1052232201Y-1001799230D01*
X1052204269Y-1001771298D01*
X1052179222Y-1001740778D01*
X1052148702Y-1001715731D01*
X1052120770Y-1001687799D01*
X1052087922Y-1001665851D01*
X1052057406Y-1001640807D01*
X1052022590Y-1001622197D01*
X1051989742Y-1001600249D01*
X1051953246Y-1001585132D01*
X1051918428Y-1001566521D01*
X1051880648Y-1001555060D01*
X1051844151Y-1001539943D01*
X1051805407Y-1001532237D01*
X1051767627Y-1001520776D01*
X1051728335Y-1001516906D01*
X1051689593Y-1001509200D01*
X1049907400Y-1001509200D01*
X1049907400Y-1001356800D01*
X1051689593Y-1001356800D01*
X1051728335Y-1001349094D01*
X1051767627Y-1001345224D01*
X1051805407Y-1001333763D01*
X1051844151Y-1001326057D01*
X1051880648Y-1001310940D01*
X1051918428Y-1001299479D01*
X1051953246Y-1001280868D01*
X1051989742Y-1001265751D01*
X1052022590Y-1001243803D01*
X1052057406Y-1001225193D01*
X1052087922Y-1001200149D01*
X1052120770Y-1001178201D01*
X1052148702Y-1001150269D01*
X1052179222Y-1001125222D01*
X1052204269Y-1001094702D01*
X1052232201Y-1001066770D01*
X1052254149Y-1001033922D01*
X1052279193Y-1001003406D01*
X1052297803Y-1000968590D01*
X1052319751Y-1000935742D01*
X1052334868Y-1000899246D01*
X1052353479Y-1000864428D01*
X1052364940Y-1000826648D01*
X1052380057Y-1000790151D01*
X1052387763Y-1000751407D01*
X1052399224Y-1000713627D01*
X1052403094Y-1000674335D01*
X1052410800Y-1000635593D01*
X1052410800Y-1000596093D01*
X1052414670Y-1000556800D01*
X1052410800Y-1000517507D01*
X1052410800Y-1000478007D01*
X1052403094Y-1000439265D01*
X1052399224Y-1000399973D01*
X1052387763Y-1000362193D01*
X1052380057Y-1000323449D01*
X1052364940Y-1000286952D01*
X1052353479Y-1000249172D01*
X1052334868Y-1000214354D01*
X1052319751Y-1000177858D01*
X1052297803Y-1000145010D01*
X1052279193Y-1000110194D01*
X1052254149Y-1000079678D01*
X1052232201Y-1000046830D01*
X1052204269Y-1000018898D01*
X1052179222Y-999988378D01*
X1052148702Y-999963331D01*
X1052120770Y-999935399D01*
X1052087922Y-999913451D01*
X1052057406Y-999888407D01*
X1052022590Y-999869797D01*
X1051989742Y-999847849D01*
X1051953246Y-999832732D01*
X1051918428Y-999814121D01*
X1051880648Y-999802660D01*
X1051844151Y-999787543D01*
X1051805407Y-999779837D01*
X1051767627Y-999768376D01*
X1051728335Y-999764506D01*
X1051689593Y-999756800D01*
X1049907400Y-999756800D01*
X1049907400Y-999604200D01*
X1051689593Y-999604200D01*
X1051728335Y-999596494D01*
X1051767627Y-999592624D01*
X1051805407Y-999581163D01*
X1051844151Y-999573457D01*
X1051880648Y-999558340D01*
X1051918428Y-999546879D01*
X1051953246Y-999528268D01*
X1051989742Y-999513151D01*
X1052022590Y-999491203D01*
X1052057406Y-999472593D01*
X1052087922Y-999447549D01*
X1052120770Y-999425601D01*
X1052148702Y-999397669D01*
X1052179222Y-999372622D01*
X1052204269Y-999342102D01*
X1052232201Y-999314170D01*
X1052254149Y-999281322D01*
X1052279193Y-999250806D01*
X1052297803Y-999215990D01*
X1052319751Y-999183142D01*
X1052334868Y-999146646D01*
X1052353479Y-999111828D01*
X1052364940Y-999074048D01*
X1052380057Y-999037551D01*
X1052387763Y-998998807D01*
X1052399224Y-998961027D01*
X1052403094Y-998921735D01*
X1052410800Y-998882993D01*
X1052410800Y-998843493D01*
X1052414670Y-998804200D01*
X1052410800Y-998764907D01*
X1052410800Y-998725407D01*
X1052403094Y-998686665D01*
X1052399224Y-998647373D01*
X1052387763Y-998609593D01*
X1052380057Y-998570849D01*
X1052364940Y-998534352D01*
X1052353479Y-998496572D01*
X1052334868Y-998461754D01*
X1052319751Y-998425258D01*
X1052297803Y-998392410D01*
X1052279193Y-998357594D01*
X1052254149Y-998327078D01*
X1052232201Y-998294230D01*
X1052204269Y-998266298D01*
X1052179222Y-998235778D01*
X1052148702Y-998210731D01*
X1052120770Y-998182799D01*
X1052087922Y-998160851D01*
X1052057406Y-998135807D01*
X1052022590Y-998117197D01*
X1051989742Y-998095249D01*
X1051953246Y-998080132D01*
X1051918428Y-998061521D01*
X1051880648Y-998050060D01*
X1051844151Y-998034943D01*
X1051805407Y-998027237D01*
X1051767627Y-998015776D01*
X1051728335Y-998011906D01*
X1051689593Y-998004200D01*
X1049907400Y-998004200D01*
X1049907400Y-997877000D01*
X1051689593Y-997877000D01*
X1051728335Y-997869294D01*
X1051767627Y-997865424D01*
X1051805407Y-997853963D01*
X1051844151Y-997846257D01*
X1051880648Y-997831140D01*
X1051918428Y-997819679D01*
X1051953246Y-997801068D01*
X1051989742Y-997785951D01*
X1052022590Y-997764003D01*
X1052057406Y-997745393D01*
X1052087922Y-997720349D01*
X1052120770Y-997698401D01*
X1052148702Y-997670469D01*
X1052179222Y-997645422D01*
X1052204270Y-997614901D01*
X1052232201Y-997586970D01*
X1052254149Y-997554122D01*
X1052279193Y-997523606D01*
X1052297803Y-997488790D01*
X1052319751Y-997455942D01*
X1052334868Y-997419446D01*
X1052353479Y-997384628D01*
X1052364940Y-997346848D01*
X1052380057Y-997310351D01*
X1052387763Y-997271607D01*
X1052399224Y-997233827D01*
X1052403094Y-997194535D01*
X1052410800Y-997155793D01*
X1052410800Y-997116293D01*
X1052414670Y-997077000D01*
X1052410800Y-997037707D01*
X1052410800Y-996998207D01*
X1052403094Y-996959465D01*
X1052399224Y-996920173D01*
X1052387763Y-996882393D01*
X1052380057Y-996843649D01*
X1052364940Y-996807152D01*
X1052353479Y-996769372D01*
X1052334868Y-996734554D01*
X1052319751Y-996698058D01*
X1052297803Y-996665210D01*
X1052279193Y-996630394D01*
X1052254149Y-996599878D01*
X1052232201Y-996567030D01*
X1052204269Y-996539098D01*
X1052179222Y-996508578D01*
X1052148702Y-996483531D01*
X1052120770Y-996455599D01*
X1052087922Y-996433651D01*
X1052057406Y-996408607D01*
X1052022590Y-996389997D01*
X1051989742Y-996368049D01*
X1051953246Y-996352932D01*
X1051918428Y-996334321D01*
X1051880648Y-996322860D01*
X1051844151Y-996307743D01*
X1051805407Y-996300037D01*
X1051767627Y-996288576D01*
X1051728335Y-996284706D01*
X1051689593Y-996277000D01*
X1049907400Y-996277000D01*
X1049907400Y-993546400D01*
X1049905479Y-993526891D01*
X1049899788Y-993508132D01*
X1049890547Y-993490843D01*
X1049878111Y-993475689D01*
X1049192311Y-992789889D01*
X1049177157Y-992777453D01*
X1049159868Y-992768212D01*
X1049141109Y-992762521D01*
X1049121600Y-992760600D01*
X1037817000Y-992760600D01*
X1037817000Y-992528400D01*
X1053488601Y-992528400D01*
X1053488600Y-1007028400D01*
G37*
G04 #@! TD.AperFunction*
D22*
X1017173889Y-993475689D02*
X1017161453Y-993490843D01*
X1017152212Y-993508132D01*
X1017146521Y-993526891D01*
X1017144600Y-993546400D01*
X1017144600Y-1005941600D01*
X1017146521Y-1005961109D01*
X1017152212Y-1005979868D01*
X1017161453Y-1005997157D01*
X1017173889Y-1006012311D01*
X1017886228Y-1006724650D01*
X1017893322Y-1006781400D01*
X1017065200Y-1006781400D01*
X1017065200Y-992960600D01*
X1017688978Y-992960600D01*
X1017173889Y-993475689D01*
G04 #@! TA.AperFunction,Conductor*
D24*
G36*
X1017173889Y-993475689D02*
G01*
X1017161453Y-993490843D01*
X1017152212Y-993508132D01*
X1017146521Y-993526891D01*
X1017144600Y-993546400D01*
X1017144600Y-1005941600D01*
X1017146521Y-1005961109D01*
X1017152212Y-1005979868D01*
X1017161453Y-1005997157D01*
X1017173889Y-1006012311D01*
X1017886228Y-1006724650D01*
X1017893322Y-1006781400D01*
X1017065200Y-1006781400D01*
X1017065200Y-992960600D01*
X1017688978Y-992960600D01*
X1017173889Y-993475689D01*
G37*
G04 #@! TD.AperFunction*
M02*
