G04 #@! TF.GenerationSoftware,KiCad,Pcbnew,(5.1.9)-1*
G04 #@! TF.CreationDate,2021-08-28T05:16:06+03:00*
G04 #@! TF.ProjectId,BANO3,42414e4f-332e-46b6-9963-61645f706362,0000*
G04 #@! TF.SameCoordinates,Original*
G04 #@! TF.FileFunction,Legend,Top*
G04 #@! TF.FilePolarity,Positive*
%FSLAX46Y46*%
G04 Gerber Fmt 4.6, Leading zero omitted, Abs format (unit mm)*
G04 Created by KiCad (PCBNEW (5.1.9)-1) date 2021-08-28 05:16:06*
%MOMM*%
%LPD*%
G01*
G04 APERTURE LIST*
%ADD10C,0.120000*%
%ADD11C,0.150000*%
G04 APERTURE END LIST*
D10*
X1021417667Y-1004267200D02*
X1021075133Y-1004267200D01*
X1021417667Y-1003247200D02*
X1021075133Y-1003247200D01*
X1025119800Y-1000402652D02*
X1025119800Y-999880148D01*
X1026539800Y-1000402652D02*
X1026539800Y-999880148D01*
X1026489000Y-995986548D02*
X1026489000Y-996509052D01*
X1025069000Y-995986548D02*
X1025069000Y-996509052D01*
X1019529400Y-995054148D02*
X1019529400Y-995576652D01*
X1018109400Y-995054148D02*
X1018109400Y-995576652D01*
X1019833505Y-1002329156D02*
X1019833505Y-1002179156D01*
X1019833505Y-1002329156D02*
X1019983505Y-1002329156D01*
X1022582418Y-998730009D02*
X1022582418Y-998580007D01*
X1022432418Y-998580007D02*
X1022582418Y-998580007D01*
X1022431727Y-1002319839D02*
X1022581727Y-1002319839D01*
X1022581727Y-1002319839D02*
X1022581727Y-1002169840D01*
X1019833825Y-998580754D02*
X1019983825Y-998580754D01*
X1019833825Y-998730753D02*
X1019833825Y-998580754D01*
X1019507001Y-999280244D02*
G75*
G03*
X1019507001Y-999280244I-125001J0D01*
G01*
X1023516400Y-1000513467D02*
X1023516400Y-1000170933D01*
X1024536400Y-1000513467D02*
X1024536400Y-1000170933D01*
X1024910533Y-1003708400D02*
X1025253067Y-1003708400D01*
X1024910533Y-1002688400D02*
X1025253067Y-1002688400D01*
X1018182400Y-1002479733D02*
X1018182400Y-1002822267D01*
X1019202400Y-1002479733D02*
X1019202400Y-1002822267D01*
X1023116867Y-1005892800D02*
X1022774333Y-1005892800D01*
X1023116867Y-1004872800D02*
X1022774333Y-1004872800D01*
X1019687867Y-1004847400D02*
X1019345333Y-1004847400D01*
X1019687867Y-1005867400D02*
X1019345333Y-1005867400D01*
X1023659200Y-996496364D02*
X1023659200Y-995292236D01*
X1020939200Y-996496364D02*
X1020939200Y-995292236D01*
X1018109400Y-998771548D02*
X1018109400Y-999294052D01*
X1019529400Y-998771548D02*
X1019529400Y-999294052D01*
D11*
X1050325085Y-998909180D02*
X1050991752Y-999909180D01*
X1050991752Y-998909180D02*
X1050325085Y-999909180D01*
X1051325085Y-999861561D02*
X1051467942Y-999909180D01*
X1051706038Y-999909180D01*
X1051801276Y-999861561D01*
X1051848895Y-999813942D01*
X1051896514Y-999718704D01*
X1051896514Y-999623466D01*
X1051848895Y-999528228D01*
X1051801276Y-999480609D01*
X1051706038Y-999432990D01*
X1051515561Y-999385371D01*
X1051420323Y-999337752D01*
X1051372704Y-999290133D01*
X1051325085Y-999194895D01*
X1051325085Y-999099657D01*
X1051372704Y-999004419D01*
X1051420323Y-998956800D01*
X1051515561Y-998909180D01*
X1051753657Y-998909180D01*
X1051896514Y-998956800D01*
X1052848895Y-999909180D02*
X1052277466Y-999909180D01*
X1052563180Y-999909180D02*
X1052563180Y-998909180D01*
X1052467942Y-999052038D01*
X1052372704Y-999147276D01*
X1052277466Y-999194895D01*
X1021079733Y-1005639580D02*
X1020746400Y-1005163390D01*
X1020508304Y-1005639580D02*
X1020508304Y-1004639580D01*
X1020889257Y-1004639580D01*
X1020984495Y-1004687200D01*
X1021032114Y-1004734819D01*
X1021079733Y-1004830057D01*
X1021079733Y-1004972914D01*
X1021032114Y-1005068152D01*
X1020984495Y-1005115771D01*
X1020889257Y-1005163390D01*
X1020508304Y-1005163390D01*
X1021936876Y-1004639580D02*
X1021746400Y-1004639580D01*
X1021651161Y-1004687200D01*
X1021603542Y-1004734819D01*
X1021508304Y-1004877676D01*
X1021460685Y-1005068152D01*
X1021460685Y-1005449104D01*
X1021508304Y-1005544342D01*
X1021555923Y-1005591961D01*
X1021651161Y-1005639580D01*
X1021841638Y-1005639580D01*
X1021936876Y-1005591961D01*
X1021984495Y-1005544342D01*
X1022032114Y-1005449104D01*
X1022032114Y-1005211009D01*
X1021984495Y-1005115771D01*
X1021936876Y-1005068152D01*
X1021841638Y-1005020533D01*
X1021651161Y-1005020533D01*
X1021555923Y-1005068152D01*
X1021508304Y-1005115771D01*
X1021460685Y-1005211009D01*
X1024536942Y-1000784257D02*
X1024584561Y-1000831876D01*
X1024632180Y-1000974733D01*
X1024632180Y-1001069971D01*
X1024584561Y-1001212828D01*
X1024489323Y-1001308066D01*
X1024394085Y-1001355685D01*
X1024203609Y-1001403304D01*
X1024060752Y-1001403304D01*
X1023870276Y-1001355685D01*
X1023775038Y-1001308066D01*
X1023679800Y-1001212828D01*
X1023632180Y-1001069971D01*
X1023632180Y-1000974733D01*
X1023679800Y-1000831876D01*
X1023727419Y-1000784257D01*
X1024632180Y-999831876D02*
X1024632180Y-1000403304D01*
X1024632180Y-1000117590D02*
X1023632180Y-1000117590D01*
X1023775038Y-1000212828D01*
X1023870276Y-1000308066D01*
X1023917895Y-1000403304D01*
X1024632180Y-998879495D02*
X1024632180Y-999450923D01*
X1024632180Y-999165209D02*
X1023632180Y-999165209D01*
X1023775038Y-999260447D01*
X1023870276Y-999355685D01*
X1023917895Y-999450923D01*
X1027786142Y-996890657D02*
X1027833761Y-996938276D01*
X1027881380Y-997081133D01*
X1027881380Y-997176371D01*
X1027833761Y-997319228D01*
X1027738523Y-997414466D01*
X1027643285Y-997462085D01*
X1027452809Y-997509704D01*
X1027309952Y-997509704D01*
X1027119476Y-997462085D01*
X1027024238Y-997414466D01*
X1026929000Y-997319228D01*
X1026881380Y-997176371D01*
X1026881380Y-997081133D01*
X1026929000Y-996938276D01*
X1026976619Y-996890657D01*
X1027881380Y-995938276D02*
X1027881380Y-996509704D01*
X1027881380Y-996223990D02*
X1026881380Y-996223990D01*
X1027024238Y-996319228D01*
X1027119476Y-996414466D01*
X1027167095Y-996509704D01*
X1026881380Y-995604942D02*
X1026881380Y-994938276D01*
X1027881380Y-995366847D01*
X1020826542Y-995958257D02*
X1020874161Y-996005876D01*
X1020921780Y-996148733D01*
X1020921780Y-996243971D01*
X1020874161Y-996386828D01*
X1020778923Y-996482066D01*
X1020683685Y-996529685D01*
X1020493209Y-996577304D01*
X1020350352Y-996577304D01*
X1020159876Y-996529685D01*
X1020064638Y-996482066D01*
X1019969400Y-996386828D01*
X1019921780Y-996243971D01*
X1019921780Y-996148733D01*
X1019969400Y-996005876D01*
X1020017019Y-995958257D01*
X1020921780Y-995005876D02*
X1020921780Y-995577304D01*
X1020921780Y-995291590D02*
X1019921780Y-995291590D01*
X1020064638Y-995386828D01*
X1020159876Y-995482066D01*
X1020207495Y-995577304D01*
X1020350352Y-994434447D02*
X1020302733Y-994529685D01*
X1020255114Y-994577304D01*
X1020159876Y-994624923D01*
X1020112257Y-994624923D01*
X1020017019Y-994577304D01*
X1019969400Y-994529685D01*
X1019921780Y-994434447D01*
X1019921780Y-994243971D01*
X1019969400Y-994148733D01*
X1020017019Y-994101114D01*
X1020112257Y-994053495D01*
X1020159876Y-994053495D01*
X1020255114Y-994101114D01*
X1020302733Y-994148733D01*
X1020350352Y-994243971D01*
X1020350352Y-994434447D01*
X1020397971Y-994529685D01*
X1020445590Y-994577304D01*
X1020540828Y-994624923D01*
X1020731304Y-994624923D01*
X1020826542Y-994577304D01*
X1020874161Y-994529685D01*
X1020921780Y-994434447D01*
X1020921780Y-994243971D01*
X1020874161Y-994148733D01*
X1020826542Y-994101114D01*
X1020731304Y-994053495D01*
X1020540828Y-994053495D01*
X1020445590Y-994101114D01*
X1020397971Y-994148733D01*
X1020350352Y-994243971D01*
X1020445095Y-999907580D02*
X1020445095Y-1000717104D01*
X1020492714Y-1000812342D01*
X1020540333Y-1000859961D01*
X1020635571Y-1000907580D01*
X1020826047Y-1000907580D01*
X1020921285Y-1000859961D01*
X1020968904Y-1000812342D01*
X1021016523Y-1000717104D01*
X1021016523Y-999907580D01*
X1021445095Y-1000002819D02*
X1021492714Y-999955200D01*
X1021587952Y-999907580D01*
X1021826047Y-999907580D01*
X1021921285Y-999955200D01*
X1021968904Y-1000002819D01*
X1022016523Y-1000098057D01*
X1022016523Y-1000193295D01*
X1021968904Y-1000336152D01*
X1021397476Y-1000907580D01*
X1022016523Y-1000907580D01*
X1016064142Y-1000907580D02*
X1015587952Y-1000907580D01*
X1015587952Y-999907580D01*
X1016397476Y-1000907580D02*
X1016397476Y-999907580D01*
X1016730809Y-1000621866D01*
X1017064142Y-999907580D01*
X1017064142Y-1000907580D01*
X1017968904Y-999907580D02*
X1017778428Y-999907580D01*
X1017683190Y-999955200D01*
X1017635571Y-1000002819D01*
X1017540333Y-1000145676D01*
X1017492714Y-1000336152D01*
X1017492714Y-1000717104D01*
X1017540333Y-1000812342D01*
X1017587952Y-1000859961D01*
X1017683190Y-1000907580D01*
X1017873666Y-1000907580D01*
X1017968904Y-1000859961D01*
X1018016523Y-1000812342D01*
X1018064142Y-1000717104D01*
X1018064142Y-1000479009D01*
X1018016523Y-1000383771D01*
X1017968904Y-1000336152D01*
X1017873666Y-1000288533D01*
X1017683190Y-1000288533D01*
X1017587952Y-1000336152D01*
X1017540333Y-1000383771D01*
X1017492714Y-1000479009D01*
X1018683190Y-999907580D02*
X1018778428Y-999907580D01*
X1018873666Y-999955200D01*
X1018921285Y-1000002819D01*
X1018968904Y-1000098057D01*
X1019016523Y-1000288533D01*
X1019016523Y-1000526628D01*
X1018968904Y-1000717104D01*
X1018921285Y-1000812342D01*
X1018873666Y-1000859961D01*
X1018778428Y-1000907580D01*
X1018683190Y-1000907580D01*
X1018587952Y-1000859961D01*
X1018540333Y-1000812342D01*
X1018492714Y-1000717104D01*
X1018445095Y-1000526628D01*
X1018445095Y-1000288533D01*
X1018492714Y-1000098057D01*
X1018540333Y-1000002819D01*
X1018587952Y-999955200D01*
X1018683190Y-999907580D01*
X1019873666Y-1000240914D02*
X1019873666Y-1000907580D01*
X1019635571Y-999859961D02*
X1019397476Y-1000574247D01*
X1020016523Y-1000574247D01*
X1020826047Y-1000240914D02*
X1020826047Y-1000907580D01*
X1020587952Y-999859961D02*
X1020349857Y-1000574247D01*
X1020968904Y-1000574247D01*
X1021540333Y-999907580D02*
X1021635571Y-999907580D01*
X1021730809Y-999955200D01*
X1021778428Y-1000002819D01*
X1021826047Y-1000098057D01*
X1021873666Y-1000288533D01*
X1021873666Y-1000526628D01*
X1021826047Y-1000717104D01*
X1021778428Y-1000812342D01*
X1021730809Y-1000859961D01*
X1021635571Y-1000907580D01*
X1021540333Y-1000907580D01*
X1021445095Y-1000859961D01*
X1021397476Y-1000812342D01*
X1021349857Y-1000717104D01*
X1021302238Y-1000526628D01*
X1021302238Y-1000288533D01*
X1021349857Y-1000098057D01*
X1021397476Y-1000002819D01*
X1021445095Y-999955200D01*
X1021540333Y-999907580D01*
X1022302238Y-1000907580D02*
X1022302238Y-999907580D01*
X1022540333Y-999907580D01*
X1022683190Y-999955200D01*
X1022778428Y-1000050438D01*
X1022826047Y-1000145676D01*
X1022873666Y-1000336152D01*
X1022873666Y-1000479009D01*
X1022826047Y-1000669485D01*
X1022778428Y-1000764723D01*
X1022683190Y-1000859961D01*
X1022540333Y-1000907580D01*
X1022302238Y-1000907580D01*
X1023873666Y-1000907580D02*
X1023540333Y-1000431390D01*
X1023302238Y-1000907580D02*
X1023302238Y-999907580D01*
X1023683190Y-999907580D01*
X1023778428Y-999955200D01*
X1023826047Y-1000002819D01*
X1023873666Y-1000098057D01*
X1023873666Y-1000240914D01*
X1023826047Y-1000336152D01*
X1023778428Y-1000383771D01*
X1023683190Y-1000431390D01*
X1023302238Y-1000431390D01*
X1024302238Y-1000907580D02*
X1024302238Y-999907580D01*
X1024683190Y-999907580D01*
X1024778428Y-999955200D01*
X1024826047Y-1000002819D01*
X1024873666Y-1000098057D01*
X1024873666Y-1000240914D01*
X1024826047Y-1000336152D01*
X1024778428Y-1000383771D01*
X1024683190Y-1000431390D01*
X1024302238Y-1000431390D01*
X1025302238Y-1000907580D02*
X1025302238Y-999907580D01*
X1025873666Y-1000907580D02*
X1025445095Y-1000336152D01*
X1025873666Y-999907580D02*
X1025302238Y-1000479009D01*
X1026873666Y-1000907580D02*
X1026540333Y-1000431390D01*
X1026302238Y-1000907580D02*
X1026302238Y-999907580D01*
X1026683190Y-999907580D01*
X1026778428Y-999955200D01*
X1026826047Y-1000002819D01*
X1026873666Y-1000098057D01*
X1026873666Y-1000240914D01*
X1026826047Y-1000336152D01*
X1026778428Y-1000383771D01*
X1026683190Y-1000431390D01*
X1026302238Y-1000431390D01*
X1014687723Y-997656380D02*
X1014687723Y-996656380D01*
X1014925819Y-996656380D01*
X1015068676Y-996704000D01*
X1015163914Y-996799238D01*
X1015211533Y-996894476D01*
X1015259152Y-997084952D01*
X1015259152Y-997227809D01*
X1015211533Y-997418285D01*
X1015163914Y-997513523D01*
X1015068676Y-997608761D01*
X1014925819Y-997656380D01*
X1014687723Y-997656380D01*
X1016068676Y-997608761D02*
X1015973438Y-997656380D01*
X1015782961Y-997656380D01*
X1015687723Y-997608761D01*
X1015640104Y-997513523D01*
X1015640104Y-997132571D01*
X1015687723Y-997037333D01*
X1015782961Y-996989714D01*
X1015973438Y-996989714D01*
X1016068676Y-997037333D01*
X1016116295Y-997132571D01*
X1016116295Y-997227809D01*
X1015640104Y-997323047D01*
X1016497247Y-997608761D02*
X1016592485Y-997656380D01*
X1016782961Y-997656380D01*
X1016878200Y-997608761D01*
X1016925819Y-997513523D01*
X1016925819Y-997465904D01*
X1016878200Y-997370666D01*
X1016782961Y-997323047D01*
X1016640104Y-997323047D01*
X1016544866Y-997275428D01*
X1016497247Y-997180190D01*
X1016497247Y-997132571D01*
X1016544866Y-997037333D01*
X1016640104Y-996989714D01*
X1016782961Y-996989714D01*
X1016878200Y-997037333D01*
X1017354390Y-997656380D02*
X1017354390Y-996989714D01*
X1017354390Y-996656380D02*
X1017306771Y-996704000D01*
X1017354390Y-996751619D01*
X1017402009Y-996704000D01*
X1017354390Y-996656380D01*
X1017354390Y-996751619D01*
X1018259152Y-996989714D02*
X1018259152Y-997799238D01*
X1018211533Y-997894476D01*
X1018163914Y-997942095D01*
X1018068676Y-997989714D01*
X1017925819Y-997989714D01*
X1017830580Y-997942095D01*
X1018259152Y-997608761D02*
X1018163914Y-997656380D01*
X1017973438Y-997656380D01*
X1017878200Y-997608761D01*
X1017830580Y-997561142D01*
X1017782961Y-997465904D01*
X1017782961Y-997180190D01*
X1017830580Y-997084952D01*
X1017878200Y-997037333D01*
X1017973438Y-996989714D01*
X1018163914Y-996989714D01*
X1018259152Y-997037333D01*
X1018735342Y-996989714D02*
X1018735342Y-997656380D01*
X1018735342Y-997084952D02*
X1018782961Y-997037333D01*
X1018878200Y-996989714D01*
X1019021057Y-996989714D01*
X1019116295Y-997037333D01*
X1019163914Y-997132571D01*
X1019163914Y-997656380D01*
X1020068676Y-997656380D02*
X1020068676Y-997132571D01*
X1020021057Y-997037333D01*
X1019925819Y-996989714D01*
X1019735342Y-996989714D01*
X1019640104Y-997037333D01*
X1020068676Y-997608761D02*
X1019973438Y-997656380D01*
X1019735342Y-997656380D01*
X1019640104Y-997608761D01*
X1019592485Y-997513523D01*
X1019592485Y-997418285D01*
X1019640104Y-997323047D01*
X1019735342Y-997275428D01*
X1019973438Y-997275428D01*
X1020068676Y-997227809D01*
X1020402009Y-996989714D02*
X1020782961Y-996989714D01*
X1020544866Y-996656380D02*
X1020544866Y-997513523D01*
X1020592485Y-997608761D01*
X1020687723Y-997656380D01*
X1020782961Y-997656380D01*
X1021259152Y-997656380D02*
X1021163914Y-997608761D01*
X1021116295Y-997561142D01*
X1021068676Y-997465904D01*
X1021068676Y-997180190D01*
X1021116295Y-997084952D01*
X1021163914Y-997037333D01*
X1021259152Y-996989714D01*
X1021402009Y-996989714D01*
X1021497247Y-997037333D01*
X1021544866Y-997084952D01*
X1021592485Y-997180190D01*
X1021592485Y-997465904D01*
X1021544866Y-997561142D01*
X1021497247Y-997608761D01*
X1021402009Y-997656380D01*
X1021259152Y-997656380D01*
X1022021057Y-997656380D02*
X1022021057Y-996989714D01*
X1022021057Y-997180190D02*
X1022068676Y-997084952D01*
X1022116295Y-997037333D01*
X1022211533Y-996989714D01*
X1022306771Y-996989714D01*
X1022544866Y-996656380D02*
X1023163914Y-996656380D01*
X1022830580Y-997037333D01*
X1022973438Y-997037333D01*
X1023068676Y-997084952D01*
X1023116295Y-997132571D01*
X1023163914Y-997227809D01*
X1023163914Y-997465904D01*
X1023116295Y-997561142D01*
X1023068676Y-997608761D01*
X1022973438Y-997656380D01*
X1022687723Y-997656380D01*
X1022592485Y-997608761D01*
X1022544866Y-997561142D01*
X1023640104Y-997656380D02*
X1023830580Y-997656380D01*
X1023925819Y-997608761D01*
X1023973438Y-997561142D01*
X1024068676Y-997418285D01*
X1024116295Y-997227809D01*
X1024116295Y-996846857D01*
X1024068676Y-996751619D01*
X1024021057Y-996704000D01*
X1023925819Y-996656380D01*
X1023735342Y-996656380D01*
X1023640104Y-996704000D01*
X1023592485Y-996751619D01*
X1023544866Y-996846857D01*
X1023544866Y-997084952D01*
X1023592485Y-997180190D01*
X1023640104Y-997227809D01*
X1023735342Y-997275428D01*
X1023925819Y-997275428D01*
X1024021057Y-997227809D01*
X1024068676Y-997180190D01*
X1024116295Y-997084952D01*
X1021207000Y-999907580D02*
X1021207000Y-1000145676D01*
X1020968904Y-1000050438D02*
X1021207000Y-1000145676D01*
X1021445095Y-1000050438D01*
X1021064142Y-1000336152D02*
X1021207000Y-1000145676D01*
X1021349857Y-1000336152D01*
X1022953542Y-1000985057D02*
X1023001161Y-1001032676D01*
X1023048780Y-1001175533D01*
X1023048780Y-1001270771D01*
X1023001161Y-1001413628D01*
X1022905923Y-1001508866D01*
X1022810685Y-1001556485D01*
X1022620209Y-1001604104D01*
X1022477352Y-1001604104D01*
X1022286876Y-1001556485D01*
X1022191638Y-1001508866D01*
X1022096400Y-1001413628D01*
X1022048780Y-1001270771D01*
X1022048780Y-1001175533D01*
X1022096400Y-1001032676D01*
X1022144019Y-1000985057D01*
X1023048780Y-1000032676D02*
X1023048780Y-1000604104D01*
X1023048780Y-1000318390D02*
X1022048780Y-1000318390D01*
X1022191638Y-1000413628D01*
X1022286876Y-1000508866D01*
X1022334495Y-1000604104D01*
X1022144019Y-999651723D02*
X1022096400Y-999604104D01*
X1022048780Y-999508866D01*
X1022048780Y-999270771D01*
X1022096400Y-999175533D01*
X1022144019Y-999127914D01*
X1022239257Y-999080295D01*
X1022334495Y-999080295D01*
X1022477352Y-999127914D01*
X1023048780Y-999699342D01*
X1023048780Y-999080295D01*
X1024438942Y-1002125542D02*
X1024391323Y-1002173161D01*
X1024248466Y-1002220780D01*
X1024153228Y-1002220780D01*
X1024010371Y-1002173161D01*
X1023915133Y-1002077923D01*
X1023867514Y-1001982685D01*
X1023819895Y-1001792209D01*
X1023819895Y-1001649352D01*
X1023867514Y-1001458876D01*
X1023915133Y-1001363638D01*
X1024010371Y-1001268400D01*
X1024153228Y-1001220780D01*
X1024248466Y-1001220780D01*
X1024391323Y-1001268400D01*
X1024438942Y-1001316019D01*
X1025391323Y-1002220780D02*
X1024819895Y-1002220780D01*
X1025105609Y-1002220780D02*
X1025105609Y-1001220780D01*
X1025010371Y-1001363638D01*
X1024915133Y-1001458876D01*
X1024819895Y-1001506495D01*
X1025724657Y-1001220780D02*
X1026343704Y-1001220780D01*
X1026010371Y-1001601733D01*
X1026153228Y-1001601733D01*
X1026248466Y-1001649352D01*
X1026296085Y-1001696971D01*
X1026343704Y-1001792209D01*
X1026343704Y-1002030304D01*
X1026296085Y-1002125542D01*
X1026248466Y-1002173161D01*
X1026153228Y-1002220780D01*
X1025867514Y-1002220780D01*
X1025772276Y-1002173161D01*
X1025724657Y-1002125542D01*
X1020479542Y-1003293857D02*
X1020527161Y-1003341476D01*
X1020574780Y-1003484333D01*
X1020574780Y-1003579571D01*
X1020527161Y-1003722428D01*
X1020431923Y-1003817666D01*
X1020336685Y-1003865285D01*
X1020146209Y-1003912904D01*
X1020003352Y-1003912904D01*
X1019812876Y-1003865285D01*
X1019717638Y-1003817666D01*
X1019622400Y-1003722428D01*
X1019574780Y-1003579571D01*
X1019574780Y-1003484333D01*
X1019622400Y-1003341476D01*
X1019670019Y-1003293857D01*
X1020574780Y-1002341476D02*
X1020574780Y-1002912904D01*
X1020574780Y-1002627190D02*
X1019574780Y-1002627190D01*
X1019717638Y-1002722428D01*
X1019812876Y-1002817666D01*
X1019860495Y-1002912904D01*
X1019908114Y-1001484333D02*
X1020574780Y-1001484333D01*
X1019527161Y-1001722428D02*
X1020241447Y-1001960523D01*
X1020241447Y-1001341476D01*
X1022302742Y-1007169942D02*
X1022255123Y-1007217561D01*
X1022112266Y-1007265180D01*
X1022017028Y-1007265180D01*
X1021874171Y-1007217561D01*
X1021778933Y-1007122323D01*
X1021731314Y-1007027085D01*
X1021683695Y-1006836609D01*
X1021683695Y-1006693752D01*
X1021731314Y-1006503276D01*
X1021778933Y-1006408038D01*
X1021874171Y-1006312800D01*
X1022017028Y-1006265180D01*
X1022112266Y-1006265180D01*
X1022255123Y-1006312800D01*
X1022302742Y-1006360419D01*
X1023255123Y-1007265180D02*
X1022683695Y-1007265180D01*
X1022969409Y-1007265180D02*
X1022969409Y-1006265180D01*
X1022874171Y-1006408038D01*
X1022778933Y-1006503276D01*
X1022683695Y-1006550895D01*
X1024112266Y-1006265180D02*
X1023921790Y-1006265180D01*
X1023826552Y-1006312800D01*
X1023778933Y-1006360419D01*
X1023683695Y-1006503276D01*
X1023636076Y-1006693752D01*
X1023636076Y-1007074704D01*
X1023683695Y-1007169942D01*
X1023731314Y-1007217561D01*
X1023826552Y-1007265180D01*
X1024017028Y-1007265180D01*
X1024112266Y-1007217561D01*
X1024159885Y-1007169942D01*
X1024207504Y-1007074704D01*
X1024207504Y-1006836609D01*
X1024159885Y-1006741371D01*
X1024112266Y-1006693752D01*
X1024017028Y-1006646133D01*
X1023826552Y-1006646133D01*
X1023731314Y-1006693752D01*
X1023683695Y-1006741371D01*
X1023636076Y-1006836609D01*
X1019349933Y-1007239780D02*
X1019016600Y-1006763590D01*
X1018778504Y-1007239780D02*
X1018778504Y-1006239780D01*
X1019159457Y-1006239780D01*
X1019254695Y-1006287400D01*
X1019302314Y-1006335019D01*
X1019349933Y-1006430257D01*
X1019349933Y-1006573114D01*
X1019302314Y-1006668352D01*
X1019254695Y-1006715971D01*
X1019159457Y-1006763590D01*
X1018778504Y-1006763590D01*
X1019683266Y-1006239780D02*
X1020349933Y-1006239780D01*
X1019921361Y-1007239780D01*
X1020471580Y-996060966D02*
X1020471580Y-996537157D01*
X1019471580Y-996537157D01*
X1019566819Y-995775252D02*
X1019519200Y-995727633D01*
X1019471580Y-995632395D01*
X1019471580Y-995394300D01*
X1019519200Y-995299061D01*
X1019566819Y-995251442D01*
X1019662057Y-995203823D01*
X1019757295Y-995203823D01*
X1019900152Y-995251442D01*
X1020471580Y-995822871D01*
X1020471580Y-995203823D01*
X1034092885Y-1000922180D02*
X1034759552Y-1001922180D01*
X1034759552Y-1000922180D02*
X1034092885Y-1001922180D01*
X1035092885Y-1001874561D02*
X1035235742Y-1001922180D01*
X1035473838Y-1001922180D01*
X1035569076Y-1001874561D01*
X1035616695Y-1001826942D01*
X1035664314Y-1001731704D01*
X1035664314Y-1001636466D01*
X1035616695Y-1001541228D01*
X1035569076Y-1001493609D01*
X1035473838Y-1001445990D01*
X1035283361Y-1001398371D01*
X1035188123Y-1001350752D01*
X1035140504Y-1001303133D01*
X1035092885Y-1001207895D01*
X1035092885Y-1001112657D01*
X1035140504Y-1001017419D01*
X1035188123Y-1000969800D01*
X1035283361Y-1000922180D01*
X1035521457Y-1000922180D01*
X1035664314Y-1000969800D01*
X1036235742Y-1001350752D02*
X1036140504Y-1001303133D01*
X1036092885Y-1001255514D01*
X1036045266Y-1001160276D01*
X1036045266Y-1001112657D01*
X1036092885Y-1001017419D01*
X1036140504Y-1000969800D01*
X1036235742Y-1000922180D01*
X1036426219Y-1000922180D01*
X1036521457Y-1000969800D01*
X1036569076Y-1001017419D01*
X1036616695Y-1001112657D01*
X1036616695Y-1001160276D01*
X1036569076Y-1001255514D01*
X1036521457Y-1001303133D01*
X1036426219Y-1001350752D01*
X1036235742Y-1001350752D01*
X1036140504Y-1001398371D01*
X1036092885Y-1001445990D01*
X1036045266Y-1001541228D01*
X1036045266Y-1001731704D01*
X1036092885Y-1001826942D01*
X1036140504Y-1001874561D01*
X1036235742Y-1001922180D01*
X1036426219Y-1001922180D01*
X1036521457Y-1001874561D01*
X1036569076Y-1001826942D01*
X1036616695Y-1001731704D01*
X1036616695Y-1001541228D01*
X1036569076Y-1001445990D01*
X1036521457Y-1001398371D01*
X1036426219Y-1001350752D01*
X1044989485Y-1002954180D02*
X1045656152Y-1003954180D01*
X1045656152Y-1002954180D02*
X1044989485Y-1003954180D01*
X1045989485Y-1003906561D02*
X1046132342Y-1003954180D01*
X1046370438Y-1003954180D01*
X1046465676Y-1003906561D01*
X1046513295Y-1003858942D01*
X1046560914Y-1003763704D01*
X1046560914Y-1003668466D01*
X1046513295Y-1003573228D01*
X1046465676Y-1003525609D01*
X1046370438Y-1003477990D01*
X1046179961Y-1003430371D01*
X1046084723Y-1003382752D01*
X1046037104Y-1003335133D01*
X1045989485Y-1003239895D01*
X1045989485Y-1003144657D01*
X1046037104Y-1003049419D01*
X1046084723Y-1003001800D01*
X1046179961Y-1002954180D01*
X1046418057Y-1002954180D01*
X1046560914Y-1003001800D01*
X1047037104Y-1003954180D02*
X1047227580Y-1003954180D01*
X1047322819Y-1003906561D01*
X1047370438Y-1003858942D01*
X1047465676Y-1003716085D01*
X1047513295Y-1003525609D01*
X1047513295Y-1003144657D01*
X1047465676Y-1003049419D01*
X1047418057Y-1003001800D01*
X1047322819Y-1002954180D01*
X1047132342Y-1002954180D01*
X1047037104Y-1003001800D01*
X1046989485Y-1003049419D01*
X1046941866Y-1003144657D01*
X1046941866Y-1003382752D01*
X1046989485Y-1003477990D01*
X1047037104Y-1003525609D01*
X1047132342Y-1003573228D01*
X1047322819Y-1003573228D01*
X1047418057Y-1003525609D01*
X1047465676Y-1003477990D01*
X1047513295Y-1003382752D01*
X1031941895Y-1002896780D02*
X1032608561Y-1003896780D01*
X1032608561Y-1002896780D02*
X1031941895Y-1003896780D01*
X1032941895Y-1003849161D02*
X1033084752Y-1003896780D01*
X1033322847Y-1003896780D01*
X1033418085Y-1003849161D01*
X1033465704Y-1003801542D01*
X1033513323Y-1003706304D01*
X1033513323Y-1003611066D01*
X1033465704Y-1003515828D01*
X1033418085Y-1003468209D01*
X1033322847Y-1003420590D01*
X1033132371Y-1003372971D01*
X1033037133Y-1003325352D01*
X1032989514Y-1003277733D01*
X1032941895Y-1003182495D01*
X1032941895Y-1003087257D01*
X1032989514Y-1002992019D01*
X1033037133Y-1002944400D01*
X1033132371Y-1002896780D01*
X1033370466Y-1002896780D01*
X1033513323Y-1002944400D01*
X1034465704Y-1003896780D02*
X1033894276Y-1003896780D01*
X1034179990Y-1003896780D02*
X1034179990Y-1002896780D01*
X1034084752Y-1003039638D01*
X1033989514Y-1003134876D01*
X1033894276Y-1003182495D01*
X1035084752Y-1002896780D02*
X1035179990Y-1002896780D01*
X1035275228Y-1002944400D01*
X1035322847Y-1002992019D01*
X1035370466Y-1003087257D01*
X1035418085Y-1003277733D01*
X1035418085Y-1003515828D01*
X1035370466Y-1003706304D01*
X1035322847Y-1003801542D01*
X1035275228Y-1003849161D01*
X1035179990Y-1003896780D01*
X1035084752Y-1003896780D01*
X1034989514Y-1003849161D01*
X1034941895Y-1003801542D01*
X1034894276Y-1003706304D01*
X1034846657Y-1003515828D01*
X1034846657Y-1003277733D01*
X1034894276Y-1003087257D01*
X1034941895Y-1002992019D01*
X1034989514Y-1002944400D01*
X1035084752Y-1002896780D01*
X1027465085Y-997969380D02*
X1028131752Y-998969380D01*
X1028131752Y-997969380D02*
X1027465085Y-998969380D01*
X1028465085Y-998921761D02*
X1028607942Y-998969380D01*
X1028846038Y-998969380D01*
X1028941276Y-998921761D01*
X1028988895Y-998874142D01*
X1029036514Y-998778904D01*
X1029036514Y-998683666D01*
X1028988895Y-998588428D01*
X1028941276Y-998540809D01*
X1028846038Y-998493190D01*
X1028655561Y-998445571D01*
X1028560323Y-998397952D01*
X1028512704Y-998350333D01*
X1028465085Y-998255095D01*
X1028465085Y-998159857D01*
X1028512704Y-998064619D01*
X1028560323Y-998017000D01*
X1028655561Y-997969380D01*
X1028893657Y-997969380D01*
X1029036514Y-998017000D01*
X1029941276Y-997969380D02*
X1029465085Y-997969380D01*
X1029417466Y-998445571D01*
X1029465085Y-998397952D01*
X1029560323Y-998350333D01*
X1029798419Y-998350333D01*
X1029893657Y-998397952D01*
X1029941276Y-998445571D01*
X1029988895Y-998540809D01*
X1029988895Y-998778904D01*
X1029941276Y-998874142D01*
X1029893657Y-998921761D01*
X1029798419Y-998969380D01*
X1029560323Y-998969380D01*
X1029465085Y-998921761D01*
X1029417466Y-998874142D01*
X1027465085Y-1000610980D02*
X1028131752Y-1001610980D01*
X1028131752Y-1000610980D02*
X1027465085Y-1001610980D01*
X1028465085Y-1001563361D02*
X1028607942Y-1001610980D01*
X1028846038Y-1001610980D01*
X1028941276Y-1001563361D01*
X1028988895Y-1001515742D01*
X1029036514Y-1001420504D01*
X1029036514Y-1001325266D01*
X1028988895Y-1001230028D01*
X1028941276Y-1001182409D01*
X1028846038Y-1001134790D01*
X1028655561Y-1001087171D01*
X1028560323Y-1001039552D01*
X1028512704Y-1000991933D01*
X1028465085Y-1000896695D01*
X1028465085Y-1000801457D01*
X1028512704Y-1000706219D01*
X1028560323Y-1000658600D01*
X1028655561Y-1000610980D01*
X1028893657Y-1000610980D01*
X1029036514Y-1000658600D01*
X1029893657Y-1000610980D02*
X1029703180Y-1000610980D01*
X1029607942Y-1000658600D01*
X1029560323Y-1000706219D01*
X1029465085Y-1000849076D01*
X1029417466Y-1001039552D01*
X1029417466Y-1001420504D01*
X1029465085Y-1001515742D01*
X1029512704Y-1001563361D01*
X1029607942Y-1001610980D01*
X1029798419Y-1001610980D01*
X1029893657Y-1001563361D01*
X1029941276Y-1001515742D01*
X1029988895Y-1001420504D01*
X1029988895Y-1001182409D01*
X1029941276Y-1001087171D01*
X1029893657Y-1001039552D01*
X1029798419Y-1000991933D01*
X1029607942Y-1000991933D01*
X1029512704Y-1001039552D01*
X1029465085Y-1001087171D01*
X1029417466Y-1001182409D01*
X1027465085Y-995352980D02*
X1028131752Y-996352980D01*
X1028131752Y-995352980D02*
X1027465085Y-996352980D01*
X1028465085Y-996305361D02*
X1028607942Y-996352980D01*
X1028846038Y-996352980D01*
X1028941276Y-996305361D01*
X1028988895Y-996257742D01*
X1029036514Y-996162504D01*
X1029036514Y-996067266D01*
X1028988895Y-995972028D01*
X1028941276Y-995924409D01*
X1028846038Y-995876790D01*
X1028655561Y-995829171D01*
X1028560323Y-995781552D01*
X1028512704Y-995733933D01*
X1028465085Y-995638695D01*
X1028465085Y-995543457D01*
X1028512704Y-995448219D01*
X1028560323Y-995400600D01*
X1028655561Y-995352980D01*
X1028893657Y-995352980D01*
X1029036514Y-995400600D01*
X1029369847Y-995352980D02*
X1030036514Y-995352980D01*
X1029607942Y-996352980D01*
X1046343695Y-992787780D02*
X1047010361Y-993787780D01*
X1047010361Y-992787780D02*
X1046343695Y-993787780D01*
X1047343695Y-993740161D02*
X1047486552Y-993787780D01*
X1047724647Y-993787780D01*
X1047819885Y-993740161D01*
X1047867504Y-993692542D01*
X1047915123Y-993597304D01*
X1047915123Y-993502066D01*
X1047867504Y-993406828D01*
X1047819885Y-993359209D01*
X1047724647Y-993311590D01*
X1047534171Y-993263971D01*
X1047438933Y-993216352D01*
X1047391314Y-993168733D01*
X1047343695Y-993073495D01*
X1047343695Y-992978257D01*
X1047391314Y-992883019D01*
X1047438933Y-992835400D01*
X1047534171Y-992787780D01*
X1047772266Y-992787780D01*
X1047915123Y-992835400D01*
X1048867504Y-993787780D02*
X1048296076Y-993787780D01*
X1048581790Y-993787780D02*
X1048581790Y-992787780D01*
X1048486552Y-992930638D01*
X1048391314Y-993025876D01*
X1048296076Y-993073495D01*
X1049819885Y-993787780D02*
X1049248457Y-993787780D01*
X1049534171Y-993787780D02*
X1049534171Y-992787780D01*
X1049438933Y-992930638D01*
X1049343695Y-993025876D01*
X1049248457Y-993073495D01*
X1030036895Y-996216780D02*
X1030703561Y-997216780D01*
X1030703561Y-996216780D02*
X1030036895Y-997216780D01*
X1031036895Y-997169161D02*
X1031179752Y-997216780D01*
X1031417847Y-997216780D01*
X1031513085Y-997169161D01*
X1031560704Y-997121542D01*
X1031608323Y-997026304D01*
X1031608323Y-996931066D01*
X1031560704Y-996835828D01*
X1031513085Y-996788209D01*
X1031417847Y-996740590D01*
X1031227371Y-996692971D01*
X1031132133Y-996645352D01*
X1031084514Y-996597733D01*
X1031036895Y-996502495D01*
X1031036895Y-996407257D01*
X1031084514Y-996312019D01*
X1031132133Y-996264400D01*
X1031227371Y-996216780D01*
X1031465466Y-996216780D01*
X1031608323Y-996264400D01*
X1032560704Y-997216780D02*
X1031989276Y-997216780D01*
X1032274990Y-997216780D02*
X1032274990Y-996216780D01*
X1032179752Y-996359638D01*
X1032084514Y-996454876D01*
X1031989276Y-996502495D01*
X1032941657Y-996312019D02*
X1032989276Y-996264400D01*
X1033084514Y-996216780D01*
X1033322609Y-996216780D01*
X1033417847Y-996264400D01*
X1033465466Y-996312019D01*
X1033513085Y-996407257D01*
X1033513085Y-996502495D01*
X1033465466Y-996645352D01*
X1032894038Y-997216780D01*
X1033513085Y-997216780D01*
X1049848895Y-995429380D02*
X1050515561Y-996429380D01*
X1050515561Y-995429380D02*
X1049848895Y-996429380D01*
X1050848895Y-996381761D02*
X1050991752Y-996429380D01*
X1051229847Y-996429380D01*
X1051325085Y-996381761D01*
X1051372704Y-996334142D01*
X1051420323Y-996238904D01*
X1051420323Y-996143666D01*
X1051372704Y-996048428D01*
X1051325085Y-996000809D01*
X1051229847Y-995953190D01*
X1051039371Y-995905571D01*
X1050944133Y-995857952D01*
X1050896514Y-995810333D01*
X1050848895Y-995715095D01*
X1050848895Y-995619857D01*
X1050896514Y-995524619D01*
X1050944133Y-995477000D01*
X1051039371Y-995429380D01*
X1051277466Y-995429380D01*
X1051420323Y-995477000D01*
X1052372704Y-996429380D02*
X1051801276Y-996429380D01*
X1052086990Y-996429380D02*
X1052086990Y-995429380D01*
X1051991752Y-995572238D01*
X1051896514Y-995667476D01*
X1051801276Y-995715095D01*
X1052706038Y-995429380D02*
X1053325085Y-995429380D01*
X1052991752Y-995810333D01*
X1053134609Y-995810333D01*
X1053229847Y-995857952D01*
X1053277466Y-995905571D01*
X1053325085Y-996000809D01*
X1053325085Y-996238904D01*
X1053277466Y-996334142D01*
X1053229847Y-996381761D01*
X1053134609Y-996429380D01*
X1052848895Y-996429380D01*
X1052753657Y-996381761D01*
X1052706038Y-996334142D01*
X1049848895Y-1000661580D02*
X1050515561Y-1001661580D01*
X1050515561Y-1000661580D02*
X1049848895Y-1001661580D01*
X1050848895Y-1001613961D02*
X1050991752Y-1001661580D01*
X1051229847Y-1001661580D01*
X1051325085Y-1001613961D01*
X1051372704Y-1001566342D01*
X1051420323Y-1001471104D01*
X1051420323Y-1001375866D01*
X1051372704Y-1001280628D01*
X1051325085Y-1001233009D01*
X1051229847Y-1001185390D01*
X1051039371Y-1001137771D01*
X1050944133Y-1001090152D01*
X1050896514Y-1001042533D01*
X1050848895Y-1000947295D01*
X1050848895Y-1000852057D01*
X1050896514Y-1000756819D01*
X1050944133Y-1000709200D01*
X1051039371Y-1000661580D01*
X1051277466Y-1000661580D01*
X1051420323Y-1000709200D01*
X1052372704Y-1001661580D02*
X1051801276Y-1001661580D01*
X1052086990Y-1001661580D02*
X1052086990Y-1000661580D01*
X1051991752Y-1000804438D01*
X1051896514Y-1000899676D01*
X1051801276Y-1000947295D01*
X1053229847Y-1000994914D02*
X1053229847Y-1001661580D01*
X1052991752Y-1000613961D02*
X1052753657Y-1001328247D01*
X1053372704Y-1001328247D01*
X1049848895Y-997156580D02*
X1050515561Y-998156580D01*
X1050515561Y-997156580D02*
X1049848895Y-998156580D01*
X1050848895Y-998108961D02*
X1050991752Y-998156580D01*
X1051229847Y-998156580D01*
X1051325085Y-998108961D01*
X1051372704Y-998061342D01*
X1051420323Y-997966104D01*
X1051420323Y-997870866D01*
X1051372704Y-997775628D01*
X1051325085Y-997728009D01*
X1051229847Y-997680390D01*
X1051039371Y-997632771D01*
X1050944133Y-997585152D01*
X1050896514Y-997537533D01*
X1050848895Y-997442295D01*
X1050848895Y-997347057D01*
X1050896514Y-997251819D01*
X1050944133Y-997204200D01*
X1051039371Y-997156580D01*
X1051277466Y-997156580D01*
X1051420323Y-997204200D01*
X1052372704Y-998156580D02*
X1051801276Y-998156580D01*
X1052086990Y-998156580D02*
X1052086990Y-997156580D01*
X1051991752Y-997299438D01*
X1051896514Y-997394676D01*
X1051801276Y-997442295D01*
X1053277466Y-997156580D02*
X1052801276Y-997156580D01*
X1052753657Y-997632771D01*
X1052801276Y-997585152D01*
X1052896514Y-997537533D01*
X1053134609Y-997537533D01*
X1053229847Y-997585152D01*
X1053277466Y-997632771D01*
X1053325085Y-997728009D01*
X1053325085Y-997966104D01*
X1053277466Y-998061342D01*
X1053229847Y-998108961D01*
X1053134609Y-998156580D01*
X1052896514Y-998156580D01*
X1052801276Y-998108961D01*
X1052753657Y-998061342D01*
X1046343695Y-1003379580D02*
X1047010361Y-1004379580D01*
X1047010361Y-1003379580D02*
X1046343695Y-1004379580D01*
X1047343695Y-1004331961D02*
X1047486552Y-1004379580D01*
X1047724647Y-1004379580D01*
X1047819885Y-1004331961D01*
X1047867504Y-1004284342D01*
X1047915123Y-1004189104D01*
X1047915123Y-1004093866D01*
X1047867504Y-1003998628D01*
X1047819885Y-1003951009D01*
X1047724647Y-1003903390D01*
X1047534171Y-1003855771D01*
X1047438933Y-1003808152D01*
X1047391314Y-1003760533D01*
X1047343695Y-1003665295D01*
X1047343695Y-1003570057D01*
X1047391314Y-1003474819D01*
X1047438933Y-1003427200D01*
X1047534171Y-1003379580D01*
X1047772266Y-1003379580D01*
X1047915123Y-1003427200D01*
X1048867504Y-1004379580D02*
X1048296076Y-1004379580D01*
X1048581790Y-1004379580D02*
X1048581790Y-1003379580D01*
X1048486552Y-1003522438D01*
X1048391314Y-1003617676D01*
X1048296076Y-1003665295D01*
X1049724647Y-1003379580D02*
X1049534171Y-1003379580D01*
X1049438933Y-1003427200D01*
X1049391314Y-1003474819D01*
X1049296076Y-1003617676D01*
X1049248457Y-1003808152D01*
X1049248457Y-1004189104D01*
X1049296076Y-1004284342D01*
X1049343695Y-1004331961D01*
X1049438933Y-1004379580D01*
X1049629409Y-1004379580D01*
X1049724647Y-1004331961D01*
X1049772266Y-1004284342D01*
X1049819885Y-1004189104D01*
X1049819885Y-1003951009D01*
X1049772266Y-1003855771D01*
X1049724647Y-1003808152D01*
X1049629409Y-1003760533D01*
X1049438933Y-1003760533D01*
X1049343695Y-1003808152D01*
X1049296076Y-1003855771D01*
X1049248457Y-1003951009D01*
X1030036895Y-1003430180D02*
X1030703561Y-1004430180D01*
X1030703561Y-1003430180D02*
X1030036895Y-1004430180D01*
X1031036895Y-1004382561D02*
X1031179752Y-1004430180D01*
X1031417847Y-1004430180D01*
X1031513085Y-1004382561D01*
X1031560704Y-1004334942D01*
X1031608323Y-1004239704D01*
X1031608323Y-1004144466D01*
X1031560704Y-1004049228D01*
X1031513085Y-1004001609D01*
X1031417847Y-1003953990D01*
X1031227371Y-1003906371D01*
X1031132133Y-1003858752D01*
X1031084514Y-1003811133D01*
X1031036895Y-1003715895D01*
X1031036895Y-1003620657D01*
X1031084514Y-1003525419D01*
X1031132133Y-1003477800D01*
X1031227371Y-1003430180D01*
X1031465466Y-1003430180D01*
X1031608323Y-1003477800D01*
X1032560704Y-1004430180D02*
X1031989276Y-1004430180D01*
X1032274990Y-1004430180D02*
X1032274990Y-1003430180D01*
X1032179752Y-1003573038D01*
X1032084514Y-1003668276D01*
X1031989276Y-1003715895D01*
X1032894038Y-1003430180D02*
X1033560704Y-1003430180D01*
X1033132133Y-1004430180D01*
X1026963495Y-1003584380D02*
X1027630161Y-1004584380D01*
X1027630161Y-1003584380D02*
X1026963495Y-1004584380D01*
X1027963495Y-1004536761D02*
X1028106352Y-1004584380D01*
X1028344447Y-1004584380D01*
X1028439685Y-1004536761D01*
X1028487304Y-1004489142D01*
X1028534923Y-1004393904D01*
X1028534923Y-1004298666D01*
X1028487304Y-1004203428D01*
X1028439685Y-1004155809D01*
X1028344447Y-1004108190D01*
X1028153971Y-1004060571D01*
X1028058733Y-1004012952D01*
X1028011114Y-1003965333D01*
X1027963495Y-1003870095D01*
X1027963495Y-1003774857D01*
X1028011114Y-1003679619D01*
X1028058733Y-1003632000D01*
X1028153971Y-1003584380D01*
X1028392066Y-1003584380D01*
X1028534923Y-1003632000D01*
X1029487304Y-1004584380D02*
X1028915876Y-1004584380D01*
X1029201590Y-1004584380D02*
X1029201590Y-1003584380D01*
X1029106352Y-1003727238D01*
X1029011114Y-1003822476D01*
X1028915876Y-1003870095D01*
X1030058733Y-1004012952D02*
X1029963495Y-1003965333D01*
X1029915876Y-1003917714D01*
X1029868257Y-1003822476D01*
X1029868257Y-1003774857D01*
X1029915876Y-1003679619D01*
X1029963495Y-1003632000D01*
X1030058733Y-1003584380D01*
X1030249209Y-1003584380D01*
X1030344447Y-1003632000D01*
X1030392066Y-1003679619D01*
X1030439685Y-1003774857D01*
X1030439685Y-1003822476D01*
X1030392066Y-1003917714D01*
X1030344447Y-1003965333D01*
X1030249209Y-1004012952D01*
X1030058733Y-1004012952D01*
X1029963495Y-1004060571D01*
X1029915876Y-1004108190D01*
X1029868257Y-1004203428D01*
X1029868257Y-1004393904D01*
X1029915876Y-1004489142D01*
X1029963495Y-1004536761D01*
X1030058733Y-1004584380D01*
X1030249209Y-1004584380D01*
X1030344447Y-1004536761D01*
X1030392066Y-1004489142D01*
X1030439685Y-1004393904D01*
X1030439685Y-1004203428D01*
X1030392066Y-1004108190D01*
X1030344447Y-1004060571D01*
X1030249209Y-1004012952D01*
X1049848895Y-1003609780D02*
X1050515561Y-1004609780D01*
X1050515561Y-1003609780D02*
X1049848895Y-1004609780D01*
X1050848895Y-1004562161D02*
X1050991752Y-1004609780D01*
X1051229847Y-1004609780D01*
X1051325085Y-1004562161D01*
X1051372704Y-1004514542D01*
X1051420323Y-1004419304D01*
X1051420323Y-1004324066D01*
X1051372704Y-1004228828D01*
X1051325085Y-1004181209D01*
X1051229847Y-1004133590D01*
X1051039371Y-1004085971D01*
X1050944133Y-1004038352D01*
X1050896514Y-1003990733D01*
X1050848895Y-1003895495D01*
X1050848895Y-1003800257D01*
X1050896514Y-1003705019D01*
X1050944133Y-1003657400D01*
X1051039371Y-1003609780D01*
X1051277466Y-1003609780D01*
X1051420323Y-1003657400D01*
X1052372704Y-1004609780D02*
X1051801276Y-1004609780D01*
X1052086990Y-1004609780D02*
X1052086990Y-1003609780D01*
X1051991752Y-1003752638D01*
X1051896514Y-1003847876D01*
X1051801276Y-1003895495D01*
X1052848895Y-1004609780D02*
X1053039371Y-1004609780D01*
X1053134609Y-1004562161D01*
X1053182228Y-1004514542D01*
X1053277466Y-1004371685D01*
X1053325085Y-1004181209D01*
X1053325085Y-1003800257D01*
X1053277466Y-1003705019D01*
X1053229847Y-1003657400D01*
X1053134609Y-1003609780D01*
X1052944133Y-1003609780D01*
X1052848895Y-1003657400D01*
X1052801276Y-1003705019D01*
X1052753657Y-1003800257D01*
X1052753657Y-1004038352D01*
X1052801276Y-1004133590D01*
X1052848895Y-1004181209D01*
X1052944133Y-1004228828D01*
X1053134609Y-1004228828D01*
X1053229847Y-1004181209D01*
X1053277466Y-1004133590D01*
X1053325085Y-1004038352D01*
X1026963495Y-992408380D02*
X1027630161Y-993408380D01*
X1027630161Y-992408380D02*
X1026963495Y-993408380D01*
X1027963495Y-993360761D02*
X1028106352Y-993408380D01*
X1028344447Y-993408380D01*
X1028439685Y-993360761D01*
X1028487304Y-993313142D01*
X1028534923Y-993217904D01*
X1028534923Y-993122666D01*
X1028487304Y-993027428D01*
X1028439685Y-992979809D01*
X1028344447Y-992932190D01*
X1028153971Y-992884571D01*
X1028058733Y-992836952D01*
X1028011114Y-992789333D01*
X1027963495Y-992694095D01*
X1027963495Y-992598857D01*
X1028011114Y-992503619D01*
X1028058733Y-992456000D01*
X1028153971Y-992408380D01*
X1028392066Y-992408380D01*
X1028534923Y-992456000D01*
X1028915876Y-992503619D02*
X1028963495Y-992456000D01*
X1029058733Y-992408380D01*
X1029296828Y-992408380D01*
X1029392066Y-992456000D01*
X1029439685Y-992503619D01*
X1029487304Y-992598857D01*
X1029487304Y-992694095D01*
X1029439685Y-992836952D01*
X1028868257Y-993408380D01*
X1029487304Y-993408380D01*
X1030106352Y-992408380D02*
X1030201590Y-992408380D01*
X1030296828Y-992456000D01*
X1030344447Y-992503619D01*
X1030392066Y-992598857D01*
X1030439685Y-992789333D01*
X1030439685Y-993027428D01*
X1030392066Y-993217904D01*
X1030344447Y-993313142D01*
X1030296828Y-993360761D01*
X1030201590Y-993408380D01*
X1030106352Y-993408380D01*
X1030011114Y-993360761D01*
X1029963495Y-993313142D01*
X1029915876Y-993217904D01*
X1029868257Y-993027428D01*
X1029868257Y-992789333D01*
X1029915876Y-992598857D01*
X1029963495Y-992503619D01*
X1030011114Y-992456000D01*
X1030106352Y-992408380D01*
X1049848895Y-992433780D02*
X1050515561Y-993433780D01*
X1050515561Y-992433780D02*
X1049848895Y-993433780D01*
X1050848895Y-993386161D02*
X1050991752Y-993433780D01*
X1051229847Y-993433780D01*
X1051325085Y-993386161D01*
X1051372704Y-993338542D01*
X1051420323Y-993243304D01*
X1051420323Y-993148066D01*
X1051372704Y-993052828D01*
X1051325085Y-993005209D01*
X1051229847Y-992957590D01*
X1051039371Y-992909971D01*
X1050944133Y-992862352D01*
X1050896514Y-992814733D01*
X1050848895Y-992719495D01*
X1050848895Y-992624257D01*
X1050896514Y-992529019D01*
X1050944133Y-992481400D01*
X1051039371Y-992433780D01*
X1051277466Y-992433780D01*
X1051420323Y-992481400D01*
X1051801276Y-992529019D02*
X1051848895Y-992481400D01*
X1051944133Y-992433780D01*
X1052182228Y-992433780D01*
X1052277466Y-992481400D01*
X1052325085Y-992529019D01*
X1052372704Y-992624257D01*
X1052372704Y-992719495D01*
X1052325085Y-992862352D01*
X1051753657Y-993433780D01*
X1052372704Y-993433780D01*
X1053325085Y-993433780D02*
X1052753657Y-993433780D01*
X1053039371Y-993433780D02*
X1053039371Y-992433780D01*
X1052944133Y-992576638D01*
X1052848895Y-992671876D01*
X1052753657Y-992719495D01*
X1020826542Y-999675657D02*
X1020874161Y-999723276D01*
X1020921780Y-999866133D01*
X1020921780Y-999961371D01*
X1020874161Y-1000104228D01*
X1020778923Y-1000199466D01*
X1020683685Y-1000247085D01*
X1020493209Y-1000294704D01*
X1020350352Y-1000294704D01*
X1020159876Y-1000247085D01*
X1020064638Y-1000199466D01*
X1019969400Y-1000104228D01*
X1019921780Y-999961371D01*
X1019921780Y-999866133D01*
X1019969400Y-999723276D01*
X1020017019Y-999675657D01*
X1020921780Y-998723276D02*
X1020921780Y-999294704D01*
X1020921780Y-999008990D02*
X1019921780Y-999008990D01*
X1020064638Y-999104228D01*
X1020159876Y-999199466D01*
X1020207495Y-999294704D01*
X1019921780Y-997818514D02*
X1019921780Y-998294704D01*
X1020397971Y-998342323D01*
X1020350352Y-998294704D01*
X1020302733Y-998199466D01*
X1020302733Y-997961371D01*
X1020350352Y-997866133D01*
X1020397971Y-997818514D01*
X1020493209Y-997770895D01*
X1020731304Y-997770895D01*
X1020826542Y-997818514D01*
X1020874161Y-997866133D01*
X1020921780Y-997961371D01*
X1020921780Y-998199466D01*
X1020874161Y-998294704D01*
X1020826542Y-998342323D01*
M02*
