G04 #@! TF.GenerationSoftware,KiCad,Pcbnew,(5.1.9)-1*
G04 #@! TF.CreationDate,2021-08-28T05:16:06+03:00*
G04 #@! TF.ProjectId,BANO3,42414e4f-332e-46b6-9963-61645f706362,0000*
G04 #@! TF.SameCoordinates,Original*
G04 #@! TF.FileFunction,Copper,L2,Bot*
G04 #@! TF.FilePolarity,Positive*
%FSLAX46Y46*%
G04 Gerber Fmt 4.6, Leading zero omitted, Abs format (unit mm)*
G04 Created by KiCad (PCBNEW (5.1.9)-1) date 2021-08-28 05:16:06*
%MOMM*%
%LPD*%
G01*
G04 APERTURE LIST*
G04 #@! TA.AperFunction,ComponentPad*
%ADD10C,1.000000*%
G04 #@! TD*
G04 #@! TA.AperFunction,ComponentPad*
%ADD11C,2.500000*%
G04 #@! TD*
G04 #@! TA.AperFunction,Conductor*
%ADD12C,0.200000*%
G04 #@! TD*
G04 #@! TA.AperFunction,Conductor*
%ADD13C,0.100000*%
G04 #@! TD*
G04 APERTURE END LIST*
D10*
X1051610800Y-1000556800D03*
X1028750800Y-999617000D03*
X1028750800Y-1002258600D03*
X1028750800Y-997000600D03*
X1048105600Y-994435400D03*
X1031798800Y-997864400D03*
X1051610800Y-997077000D03*
X1051610800Y-1002309200D03*
X1051610800Y-998804200D03*
X1048105600Y-1005027200D03*
X1031798800Y-1005077800D03*
D11*
X1028725400Y-1005332000D03*
X1051610800Y-1005357400D03*
X1028725400Y-994156000D03*
X1051610800Y-994181400D03*
D12*
X1053488600Y-1007028400D02*
X1016988600Y-1007028400D01*
X1016988600Y-1004999007D01*
X1030998800Y-1004999007D01*
X1030998800Y-1005156593D01*
X1031029543Y-1005311151D01*
X1031089849Y-1005456742D01*
X1031177399Y-1005587770D01*
X1031288830Y-1005699201D01*
X1031419858Y-1005786751D01*
X1031565449Y-1005847057D01*
X1031720007Y-1005877800D01*
X1031877593Y-1005877800D01*
X1032032151Y-1005847057D01*
X1032177742Y-1005786751D01*
X1032308770Y-1005699201D01*
X1032420201Y-1005587770D01*
X1032507751Y-1005456742D01*
X1032568057Y-1005311151D01*
X1032598800Y-1005156593D01*
X1032598800Y-1004999007D01*
X1032588736Y-1004948407D01*
X1047305600Y-1004948407D01*
X1047305600Y-1005105993D01*
X1047336343Y-1005260551D01*
X1047396649Y-1005406142D01*
X1047484199Y-1005537170D01*
X1047595630Y-1005648601D01*
X1047726658Y-1005736151D01*
X1047872249Y-1005796457D01*
X1048026807Y-1005827200D01*
X1048184393Y-1005827200D01*
X1048338951Y-1005796457D01*
X1048484542Y-1005736151D01*
X1048615570Y-1005648601D01*
X1048727001Y-1005537170D01*
X1048814551Y-1005406142D01*
X1048874857Y-1005260551D01*
X1048905600Y-1005105993D01*
X1048905600Y-1004948407D01*
X1048874857Y-1004793849D01*
X1048814551Y-1004648258D01*
X1048727001Y-1004517230D01*
X1048615570Y-1004405799D01*
X1048484542Y-1004318249D01*
X1048338951Y-1004257943D01*
X1048184393Y-1004227200D01*
X1048026807Y-1004227200D01*
X1047872249Y-1004257943D01*
X1047726658Y-1004318249D01*
X1047595630Y-1004405799D01*
X1047484199Y-1004517230D01*
X1047396649Y-1004648258D01*
X1047336343Y-1004793849D01*
X1047305600Y-1004948407D01*
X1032588736Y-1004948407D01*
X1032568057Y-1004844449D01*
X1032507751Y-1004698858D01*
X1032420201Y-1004567830D01*
X1032308770Y-1004456399D01*
X1032177742Y-1004368849D01*
X1032032151Y-1004308543D01*
X1031877593Y-1004277800D01*
X1031720007Y-1004277800D01*
X1031565449Y-1004308543D01*
X1031419858Y-1004368849D01*
X1031288830Y-1004456399D01*
X1031177399Y-1004567830D01*
X1031089849Y-1004698858D01*
X1031029543Y-1004844449D01*
X1030998800Y-1004999007D01*
X1016988600Y-1004999007D01*
X1016988600Y-1002179807D01*
X1027950800Y-1002179807D01*
X1027950800Y-1002337393D01*
X1027981543Y-1002491951D01*
X1028041849Y-1002637542D01*
X1028129399Y-1002768570D01*
X1028240830Y-1002880001D01*
X1028371858Y-1002967551D01*
X1028517449Y-1003027857D01*
X1028672007Y-1003058600D01*
X1028829593Y-1003058600D01*
X1028984151Y-1003027857D01*
X1029129742Y-1002967551D01*
X1029260770Y-1002880001D01*
X1029372201Y-1002768570D01*
X1029459751Y-1002637542D01*
X1029520057Y-1002491951D01*
X1029550800Y-1002337393D01*
X1029550800Y-1002230407D01*
X1050810800Y-1002230407D01*
X1050810800Y-1002387993D01*
X1050841543Y-1002542551D01*
X1050901849Y-1002688142D01*
X1050989399Y-1002819170D01*
X1051100830Y-1002930601D01*
X1051231858Y-1003018151D01*
X1051377449Y-1003078457D01*
X1051532007Y-1003109200D01*
X1051689593Y-1003109200D01*
X1051844151Y-1003078457D01*
X1051989742Y-1003018151D01*
X1052120770Y-1002930601D01*
X1052232201Y-1002819170D01*
X1052319751Y-1002688142D01*
X1052380057Y-1002542551D01*
X1052410800Y-1002387993D01*
X1052410800Y-1002230407D01*
X1052380057Y-1002075849D01*
X1052319751Y-1001930258D01*
X1052232201Y-1001799230D01*
X1052120770Y-1001687799D01*
X1051989742Y-1001600249D01*
X1051844151Y-1001539943D01*
X1051689593Y-1001509200D01*
X1051532007Y-1001509200D01*
X1051377449Y-1001539943D01*
X1051231858Y-1001600249D01*
X1051100830Y-1001687799D01*
X1050989399Y-1001799230D01*
X1050901849Y-1001930258D01*
X1050841543Y-1002075849D01*
X1050810800Y-1002230407D01*
X1029550800Y-1002230407D01*
X1029550800Y-1002179807D01*
X1029520057Y-1002025249D01*
X1029459751Y-1001879658D01*
X1029372201Y-1001748630D01*
X1029260770Y-1001637199D01*
X1029129742Y-1001549649D01*
X1028984151Y-1001489343D01*
X1028829593Y-1001458600D01*
X1028672007Y-1001458600D01*
X1028517449Y-1001489343D01*
X1028371858Y-1001549649D01*
X1028240830Y-1001637199D01*
X1028129399Y-1001748630D01*
X1028041849Y-1001879658D01*
X1027981543Y-1002025249D01*
X1027950800Y-1002179807D01*
X1016988600Y-1002179807D01*
X1016988600Y-1000478007D01*
X1050810800Y-1000478007D01*
X1050810800Y-1000635593D01*
X1050841543Y-1000790151D01*
X1050901849Y-1000935742D01*
X1050989399Y-1001066770D01*
X1051100830Y-1001178201D01*
X1051231858Y-1001265751D01*
X1051377449Y-1001326057D01*
X1051532007Y-1001356800D01*
X1051689593Y-1001356800D01*
X1051844151Y-1001326057D01*
X1051989742Y-1001265751D01*
X1052120770Y-1001178201D01*
X1052232201Y-1001066770D01*
X1052319751Y-1000935742D01*
X1052380057Y-1000790151D01*
X1052410800Y-1000635593D01*
X1052410800Y-1000478007D01*
X1052380057Y-1000323449D01*
X1052319751Y-1000177858D01*
X1052232201Y-1000046830D01*
X1052120770Y-999935399D01*
X1051989742Y-999847849D01*
X1051844151Y-999787543D01*
X1051689593Y-999756800D01*
X1051532007Y-999756800D01*
X1051377449Y-999787543D01*
X1051231858Y-999847849D01*
X1051100830Y-999935399D01*
X1050989399Y-1000046830D01*
X1050901849Y-1000177858D01*
X1050841543Y-1000323449D01*
X1050810800Y-1000478007D01*
X1016988600Y-1000478007D01*
X1016988600Y-999538207D01*
X1027950800Y-999538207D01*
X1027950800Y-999695793D01*
X1027981543Y-999850351D01*
X1028041849Y-999995942D01*
X1028129399Y-1000126970D01*
X1028240830Y-1000238401D01*
X1028371858Y-1000325951D01*
X1028517449Y-1000386257D01*
X1028672007Y-1000417000D01*
X1028829593Y-1000417000D01*
X1028984151Y-1000386257D01*
X1029129742Y-1000325951D01*
X1029260770Y-1000238401D01*
X1029372201Y-1000126970D01*
X1029459751Y-999995942D01*
X1029520057Y-999850351D01*
X1029550800Y-999695793D01*
X1029550800Y-999538207D01*
X1029520057Y-999383649D01*
X1029459751Y-999238058D01*
X1029372201Y-999107030D01*
X1029260770Y-998995599D01*
X1029129742Y-998908049D01*
X1028984151Y-998847743D01*
X1028829593Y-998817000D01*
X1028672007Y-998817000D01*
X1028517449Y-998847743D01*
X1028371858Y-998908049D01*
X1028240830Y-998995599D01*
X1028129399Y-999107030D01*
X1028041849Y-999238058D01*
X1027981543Y-999383649D01*
X1027950800Y-999538207D01*
X1016988600Y-999538207D01*
X1016988600Y-998725407D01*
X1050810800Y-998725407D01*
X1050810800Y-998882993D01*
X1050841543Y-999037551D01*
X1050901849Y-999183142D01*
X1050989399Y-999314170D01*
X1051100830Y-999425601D01*
X1051231858Y-999513151D01*
X1051377449Y-999573457D01*
X1051532007Y-999604200D01*
X1051689593Y-999604200D01*
X1051844151Y-999573457D01*
X1051989742Y-999513151D01*
X1052120770Y-999425601D01*
X1052232201Y-999314170D01*
X1052319751Y-999183142D01*
X1052380057Y-999037551D01*
X1052410800Y-998882993D01*
X1052410800Y-998725407D01*
X1052380057Y-998570849D01*
X1052319751Y-998425258D01*
X1052232201Y-998294230D01*
X1052120770Y-998182799D01*
X1051989742Y-998095249D01*
X1051844151Y-998034943D01*
X1051689593Y-998004200D01*
X1051532007Y-998004200D01*
X1051377449Y-998034943D01*
X1051231858Y-998095249D01*
X1051100830Y-998182799D01*
X1050989399Y-998294230D01*
X1050901849Y-998425258D01*
X1050841543Y-998570849D01*
X1050810800Y-998725407D01*
X1016988600Y-998725407D01*
X1016988600Y-996921807D01*
X1027950800Y-996921807D01*
X1027950800Y-997079393D01*
X1027981543Y-997233951D01*
X1028041849Y-997379542D01*
X1028129399Y-997510570D01*
X1028240830Y-997622001D01*
X1028371858Y-997709551D01*
X1028517449Y-997769857D01*
X1028672007Y-997800600D01*
X1028829593Y-997800600D01*
X1028904969Y-997785607D01*
X1030998800Y-997785607D01*
X1030998800Y-997943193D01*
X1031029543Y-998097751D01*
X1031089849Y-998243342D01*
X1031177399Y-998374370D01*
X1031288830Y-998485801D01*
X1031419858Y-998573351D01*
X1031565449Y-998633657D01*
X1031720007Y-998664400D01*
X1031877593Y-998664400D01*
X1032032151Y-998633657D01*
X1032177742Y-998573351D01*
X1032308770Y-998485801D01*
X1032420201Y-998374370D01*
X1032507751Y-998243342D01*
X1032568057Y-998097751D01*
X1032598800Y-997943193D01*
X1032598800Y-997785607D01*
X1032568057Y-997631049D01*
X1032507751Y-997485458D01*
X1032420201Y-997354430D01*
X1032308770Y-997242999D01*
X1032177742Y-997155449D01*
X1032032151Y-997095143D01*
X1031877593Y-997064400D01*
X1031720007Y-997064400D01*
X1031565449Y-997095143D01*
X1031419858Y-997155449D01*
X1031288830Y-997242999D01*
X1031177399Y-997354430D01*
X1031089849Y-997485458D01*
X1031029543Y-997631049D01*
X1030998800Y-997785607D01*
X1028904969Y-997785607D01*
X1028984151Y-997769857D01*
X1029129742Y-997709551D01*
X1029260770Y-997622001D01*
X1029372201Y-997510570D01*
X1029459751Y-997379542D01*
X1029520057Y-997233951D01*
X1029550800Y-997079393D01*
X1029550800Y-996998207D01*
X1050810800Y-996998207D01*
X1050810800Y-997155793D01*
X1050841543Y-997310351D01*
X1050901849Y-997455942D01*
X1050989399Y-997586970D01*
X1051100830Y-997698401D01*
X1051231858Y-997785951D01*
X1051377449Y-997846257D01*
X1051532007Y-997877000D01*
X1051689593Y-997877000D01*
X1051844151Y-997846257D01*
X1051989742Y-997785951D01*
X1052120770Y-997698401D01*
X1052232201Y-997586970D01*
X1052319751Y-997455942D01*
X1052380057Y-997310351D01*
X1052410800Y-997155793D01*
X1052410800Y-996998207D01*
X1052380057Y-996843649D01*
X1052319751Y-996698058D01*
X1052232201Y-996567030D01*
X1052120770Y-996455599D01*
X1051989742Y-996368049D01*
X1051844151Y-996307743D01*
X1051689593Y-996277000D01*
X1051532007Y-996277000D01*
X1051377449Y-996307743D01*
X1051231858Y-996368049D01*
X1051100830Y-996455599D01*
X1050989399Y-996567030D01*
X1050901849Y-996698058D01*
X1050841543Y-996843649D01*
X1050810800Y-996998207D01*
X1029550800Y-996998207D01*
X1029550800Y-996921807D01*
X1029520057Y-996767249D01*
X1029459751Y-996621658D01*
X1029372201Y-996490630D01*
X1029260770Y-996379199D01*
X1029129742Y-996291649D01*
X1028984151Y-996231343D01*
X1028829593Y-996200600D01*
X1028672007Y-996200600D01*
X1028517449Y-996231343D01*
X1028371858Y-996291649D01*
X1028240830Y-996379199D01*
X1028129399Y-996490630D01*
X1028041849Y-996621658D01*
X1027981543Y-996767249D01*
X1027950800Y-996921807D01*
X1016988600Y-996921807D01*
X1016988600Y-994356607D01*
X1047305600Y-994356607D01*
X1047305600Y-994514193D01*
X1047336343Y-994668751D01*
X1047396649Y-994814342D01*
X1047484199Y-994945370D01*
X1047595630Y-995056801D01*
X1047726658Y-995144351D01*
X1047872249Y-995204657D01*
X1048026807Y-995235400D01*
X1048184393Y-995235400D01*
X1048338951Y-995204657D01*
X1048484542Y-995144351D01*
X1048615570Y-995056801D01*
X1048727001Y-994945370D01*
X1048814551Y-994814342D01*
X1048874857Y-994668751D01*
X1048905600Y-994514193D01*
X1048905600Y-994356607D01*
X1048874857Y-994202049D01*
X1048814551Y-994056458D01*
X1048727001Y-993925430D01*
X1048615570Y-993813999D01*
X1048484542Y-993726449D01*
X1048338951Y-993666143D01*
X1048184393Y-993635400D01*
X1048026807Y-993635400D01*
X1047872249Y-993666143D01*
X1047726658Y-993726449D01*
X1047595630Y-993813999D01*
X1047484199Y-993925430D01*
X1047396649Y-994056458D01*
X1047336343Y-994202049D01*
X1047305600Y-994356607D01*
X1016988600Y-994356607D01*
X1016988600Y-992528400D01*
X1053488601Y-992528400D01*
X1053488600Y-1007028400D01*
G04 #@! TA.AperFunction,Conductor*
D13*
G36*
X1053488600Y-1007028400D02*
G01*
X1016988600Y-1007028400D01*
X1016988600Y-1004999007D01*
X1030998800Y-1004999007D01*
X1030998800Y-1005156593D01*
X1031029543Y-1005311151D01*
X1031089849Y-1005456742D01*
X1031177399Y-1005587770D01*
X1031288830Y-1005699201D01*
X1031419858Y-1005786751D01*
X1031565449Y-1005847057D01*
X1031720007Y-1005877800D01*
X1031877593Y-1005877800D01*
X1032032151Y-1005847057D01*
X1032177742Y-1005786751D01*
X1032308770Y-1005699201D01*
X1032420201Y-1005587770D01*
X1032507751Y-1005456742D01*
X1032568057Y-1005311151D01*
X1032598800Y-1005156593D01*
X1032598800Y-1004999007D01*
X1032588736Y-1004948407D01*
X1047305600Y-1004948407D01*
X1047305600Y-1005105993D01*
X1047336343Y-1005260551D01*
X1047396649Y-1005406142D01*
X1047484199Y-1005537170D01*
X1047595630Y-1005648601D01*
X1047726658Y-1005736151D01*
X1047872249Y-1005796457D01*
X1048026807Y-1005827200D01*
X1048184393Y-1005827200D01*
X1048338951Y-1005796457D01*
X1048484542Y-1005736151D01*
X1048615570Y-1005648601D01*
X1048727001Y-1005537170D01*
X1048814551Y-1005406142D01*
X1048874857Y-1005260551D01*
X1048905600Y-1005105993D01*
X1048905600Y-1004948407D01*
X1048874857Y-1004793849D01*
X1048814551Y-1004648258D01*
X1048727001Y-1004517230D01*
X1048615570Y-1004405799D01*
X1048484542Y-1004318249D01*
X1048338951Y-1004257943D01*
X1048184393Y-1004227200D01*
X1048026807Y-1004227200D01*
X1047872249Y-1004257943D01*
X1047726658Y-1004318249D01*
X1047595630Y-1004405799D01*
X1047484199Y-1004517230D01*
X1047396649Y-1004648258D01*
X1047336343Y-1004793849D01*
X1047305600Y-1004948407D01*
X1032588736Y-1004948407D01*
X1032568057Y-1004844449D01*
X1032507751Y-1004698858D01*
X1032420201Y-1004567830D01*
X1032308770Y-1004456399D01*
X1032177742Y-1004368849D01*
X1032032151Y-1004308543D01*
X1031877593Y-1004277800D01*
X1031720007Y-1004277800D01*
X1031565449Y-1004308543D01*
X1031419858Y-1004368849D01*
X1031288830Y-1004456399D01*
X1031177399Y-1004567830D01*
X1031089849Y-1004698858D01*
X1031029543Y-1004844449D01*
X1030998800Y-1004999007D01*
X1016988600Y-1004999007D01*
X1016988600Y-1002179807D01*
X1027950800Y-1002179807D01*
X1027950800Y-1002337393D01*
X1027981543Y-1002491951D01*
X1028041849Y-1002637542D01*
X1028129399Y-1002768570D01*
X1028240830Y-1002880001D01*
X1028371858Y-1002967551D01*
X1028517449Y-1003027857D01*
X1028672007Y-1003058600D01*
X1028829593Y-1003058600D01*
X1028984151Y-1003027857D01*
X1029129742Y-1002967551D01*
X1029260770Y-1002880001D01*
X1029372201Y-1002768570D01*
X1029459751Y-1002637542D01*
X1029520057Y-1002491951D01*
X1029550800Y-1002337393D01*
X1029550800Y-1002230407D01*
X1050810800Y-1002230407D01*
X1050810800Y-1002387993D01*
X1050841543Y-1002542551D01*
X1050901849Y-1002688142D01*
X1050989399Y-1002819170D01*
X1051100830Y-1002930601D01*
X1051231858Y-1003018151D01*
X1051377449Y-1003078457D01*
X1051532007Y-1003109200D01*
X1051689593Y-1003109200D01*
X1051844151Y-1003078457D01*
X1051989742Y-1003018151D01*
X1052120770Y-1002930601D01*
X1052232201Y-1002819170D01*
X1052319751Y-1002688142D01*
X1052380057Y-1002542551D01*
X1052410800Y-1002387993D01*
X1052410800Y-1002230407D01*
X1052380057Y-1002075849D01*
X1052319751Y-1001930258D01*
X1052232201Y-1001799230D01*
X1052120770Y-1001687799D01*
X1051989742Y-1001600249D01*
X1051844151Y-1001539943D01*
X1051689593Y-1001509200D01*
X1051532007Y-1001509200D01*
X1051377449Y-1001539943D01*
X1051231858Y-1001600249D01*
X1051100830Y-1001687799D01*
X1050989399Y-1001799230D01*
X1050901849Y-1001930258D01*
X1050841543Y-1002075849D01*
X1050810800Y-1002230407D01*
X1029550800Y-1002230407D01*
X1029550800Y-1002179807D01*
X1029520057Y-1002025249D01*
X1029459751Y-1001879658D01*
X1029372201Y-1001748630D01*
X1029260770Y-1001637199D01*
X1029129742Y-1001549649D01*
X1028984151Y-1001489343D01*
X1028829593Y-1001458600D01*
X1028672007Y-1001458600D01*
X1028517449Y-1001489343D01*
X1028371858Y-1001549649D01*
X1028240830Y-1001637199D01*
X1028129399Y-1001748630D01*
X1028041849Y-1001879658D01*
X1027981543Y-1002025249D01*
X1027950800Y-1002179807D01*
X1016988600Y-1002179807D01*
X1016988600Y-1000478007D01*
X1050810800Y-1000478007D01*
X1050810800Y-1000635593D01*
X1050841543Y-1000790151D01*
X1050901849Y-1000935742D01*
X1050989399Y-1001066770D01*
X1051100830Y-1001178201D01*
X1051231858Y-1001265751D01*
X1051377449Y-1001326057D01*
X1051532007Y-1001356800D01*
X1051689593Y-1001356800D01*
X1051844151Y-1001326057D01*
X1051989742Y-1001265751D01*
X1052120770Y-1001178201D01*
X1052232201Y-1001066770D01*
X1052319751Y-1000935742D01*
X1052380057Y-1000790151D01*
X1052410800Y-1000635593D01*
X1052410800Y-1000478007D01*
X1052380057Y-1000323449D01*
X1052319751Y-1000177858D01*
X1052232201Y-1000046830D01*
X1052120770Y-999935399D01*
X1051989742Y-999847849D01*
X1051844151Y-999787543D01*
X1051689593Y-999756800D01*
X1051532007Y-999756800D01*
X1051377449Y-999787543D01*
X1051231858Y-999847849D01*
X1051100830Y-999935399D01*
X1050989399Y-1000046830D01*
X1050901849Y-1000177858D01*
X1050841543Y-1000323449D01*
X1050810800Y-1000478007D01*
X1016988600Y-1000478007D01*
X1016988600Y-999538207D01*
X1027950800Y-999538207D01*
X1027950800Y-999695793D01*
X1027981543Y-999850351D01*
X1028041849Y-999995942D01*
X1028129399Y-1000126970D01*
X1028240830Y-1000238401D01*
X1028371858Y-1000325951D01*
X1028517449Y-1000386257D01*
X1028672007Y-1000417000D01*
X1028829593Y-1000417000D01*
X1028984151Y-1000386257D01*
X1029129742Y-1000325951D01*
X1029260770Y-1000238401D01*
X1029372201Y-1000126970D01*
X1029459751Y-999995942D01*
X1029520057Y-999850351D01*
X1029550800Y-999695793D01*
X1029550800Y-999538207D01*
X1029520057Y-999383649D01*
X1029459751Y-999238058D01*
X1029372201Y-999107030D01*
X1029260770Y-998995599D01*
X1029129742Y-998908049D01*
X1028984151Y-998847743D01*
X1028829593Y-998817000D01*
X1028672007Y-998817000D01*
X1028517449Y-998847743D01*
X1028371858Y-998908049D01*
X1028240830Y-998995599D01*
X1028129399Y-999107030D01*
X1028041849Y-999238058D01*
X1027981543Y-999383649D01*
X1027950800Y-999538207D01*
X1016988600Y-999538207D01*
X1016988600Y-998725407D01*
X1050810800Y-998725407D01*
X1050810800Y-998882993D01*
X1050841543Y-999037551D01*
X1050901849Y-999183142D01*
X1050989399Y-999314170D01*
X1051100830Y-999425601D01*
X1051231858Y-999513151D01*
X1051377449Y-999573457D01*
X1051532007Y-999604200D01*
X1051689593Y-999604200D01*
X1051844151Y-999573457D01*
X1051989742Y-999513151D01*
X1052120770Y-999425601D01*
X1052232201Y-999314170D01*
X1052319751Y-999183142D01*
X1052380057Y-999037551D01*
X1052410800Y-998882993D01*
X1052410800Y-998725407D01*
X1052380057Y-998570849D01*
X1052319751Y-998425258D01*
X1052232201Y-998294230D01*
X1052120770Y-998182799D01*
X1051989742Y-998095249D01*
X1051844151Y-998034943D01*
X1051689593Y-998004200D01*
X1051532007Y-998004200D01*
X1051377449Y-998034943D01*
X1051231858Y-998095249D01*
X1051100830Y-998182799D01*
X1050989399Y-998294230D01*
X1050901849Y-998425258D01*
X1050841543Y-998570849D01*
X1050810800Y-998725407D01*
X1016988600Y-998725407D01*
X1016988600Y-996921807D01*
X1027950800Y-996921807D01*
X1027950800Y-997079393D01*
X1027981543Y-997233951D01*
X1028041849Y-997379542D01*
X1028129399Y-997510570D01*
X1028240830Y-997622001D01*
X1028371858Y-997709551D01*
X1028517449Y-997769857D01*
X1028672007Y-997800600D01*
X1028829593Y-997800600D01*
X1028904969Y-997785607D01*
X1030998800Y-997785607D01*
X1030998800Y-997943193D01*
X1031029543Y-998097751D01*
X1031089849Y-998243342D01*
X1031177399Y-998374370D01*
X1031288830Y-998485801D01*
X1031419858Y-998573351D01*
X1031565449Y-998633657D01*
X1031720007Y-998664400D01*
X1031877593Y-998664400D01*
X1032032151Y-998633657D01*
X1032177742Y-998573351D01*
X1032308770Y-998485801D01*
X1032420201Y-998374370D01*
X1032507751Y-998243342D01*
X1032568057Y-998097751D01*
X1032598800Y-997943193D01*
X1032598800Y-997785607D01*
X1032568057Y-997631049D01*
X1032507751Y-997485458D01*
X1032420201Y-997354430D01*
X1032308770Y-997242999D01*
X1032177742Y-997155449D01*
X1032032151Y-997095143D01*
X1031877593Y-997064400D01*
X1031720007Y-997064400D01*
X1031565449Y-997095143D01*
X1031419858Y-997155449D01*
X1031288830Y-997242999D01*
X1031177399Y-997354430D01*
X1031089849Y-997485458D01*
X1031029543Y-997631049D01*
X1030998800Y-997785607D01*
X1028904969Y-997785607D01*
X1028984151Y-997769857D01*
X1029129742Y-997709551D01*
X1029260770Y-997622001D01*
X1029372201Y-997510570D01*
X1029459751Y-997379542D01*
X1029520057Y-997233951D01*
X1029550800Y-997079393D01*
X1029550800Y-996998207D01*
X1050810800Y-996998207D01*
X1050810800Y-997155793D01*
X1050841543Y-997310351D01*
X1050901849Y-997455942D01*
X1050989399Y-997586970D01*
X1051100830Y-997698401D01*
X1051231858Y-997785951D01*
X1051377449Y-997846257D01*
X1051532007Y-997877000D01*
X1051689593Y-997877000D01*
X1051844151Y-997846257D01*
X1051989742Y-997785951D01*
X1052120770Y-997698401D01*
X1052232201Y-997586970D01*
X1052319751Y-997455942D01*
X1052380057Y-997310351D01*
X1052410800Y-997155793D01*
X1052410800Y-996998207D01*
X1052380057Y-996843649D01*
X1052319751Y-996698058D01*
X1052232201Y-996567030D01*
X1052120770Y-996455599D01*
X1051989742Y-996368049D01*
X1051844151Y-996307743D01*
X1051689593Y-996277000D01*
X1051532007Y-996277000D01*
X1051377449Y-996307743D01*
X1051231858Y-996368049D01*
X1051100830Y-996455599D01*
X1050989399Y-996567030D01*
X1050901849Y-996698058D01*
X1050841543Y-996843649D01*
X1050810800Y-996998207D01*
X1029550800Y-996998207D01*
X1029550800Y-996921807D01*
X1029520057Y-996767249D01*
X1029459751Y-996621658D01*
X1029372201Y-996490630D01*
X1029260770Y-996379199D01*
X1029129742Y-996291649D01*
X1028984151Y-996231343D01*
X1028829593Y-996200600D01*
X1028672007Y-996200600D01*
X1028517449Y-996231343D01*
X1028371858Y-996291649D01*
X1028240830Y-996379199D01*
X1028129399Y-996490630D01*
X1028041849Y-996621658D01*
X1027981543Y-996767249D01*
X1027950800Y-996921807D01*
X1016988600Y-996921807D01*
X1016988600Y-994356607D01*
X1047305600Y-994356607D01*
X1047305600Y-994514193D01*
X1047336343Y-994668751D01*
X1047396649Y-994814342D01*
X1047484199Y-994945370D01*
X1047595630Y-995056801D01*
X1047726658Y-995144351D01*
X1047872249Y-995204657D01*
X1048026807Y-995235400D01*
X1048184393Y-995235400D01*
X1048338951Y-995204657D01*
X1048484542Y-995144351D01*
X1048615570Y-995056801D01*
X1048727001Y-994945370D01*
X1048814551Y-994814342D01*
X1048874857Y-994668751D01*
X1048905600Y-994514193D01*
X1048905600Y-994356607D01*
X1048874857Y-994202049D01*
X1048814551Y-994056458D01*
X1048727001Y-993925430D01*
X1048615570Y-993813999D01*
X1048484542Y-993726449D01*
X1048338951Y-993666143D01*
X1048184393Y-993635400D01*
X1048026807Y-993635400D01*
X1047872249Y-993666143D01*
X1047726658Y-993726449D01*
X1047595630Y-993813999D01*
X1047484199Y-993925430D01*
X1047396649Y-994056458D01*
X1047336343Y-994202049D01*
X1047305600Y-994356607D01*
X1016988600Y-994356607D01*
X1016988600Y-992528400D01*
X1053488601Y-992528400D01*
X1053488600Y-1007028400D01*
G37*
G04 #@! TD.AperFunction*
M02*
